<?xml version="1.0" encoding="UTF-8" standalone="no"?><svg xmlns="http://www.w3.org/2000/svg" xmlns:xlink="http://www.w3.org/1999/xlink" contentScriptType="application/ecmascript" contentStyleType="text/css" height="265px" preserveAspectRatio="none" style="width:459px;height:265px;" version="1.1" viewBox="0 0 459 265" width="459px" zoomAndPan="magnify"><defs><filter height="300%" id="f1ffbizlzuetme" width="300%" x="-1" y="-1"><feGaussianBlur result="blurOut" stdDeviation="2.0"/><feColorMatrix in="blurOut" result="blurOut2" type="matrix" values="0 0 0 0 0 0 0 0 0 0 0 0 0 0 0 0 0 0 .4 0"/><feOffset dx="4.0" dy="4.0" in="blurOut2" result="blurOut3"/><feBlend in="SourceGraphic" in2="blurOut3" mode="normal"/></filter></defs><g><!--MD5=[f856f85595ce4f8bf435bc42f531c692]
class Results--><rect fill="#FEFECE" filter="url(#f1ffbizlzuetme)" height="60.8047" id="Results" style="stroke: #A80036; stroke-width: 1.5;" width="192" x="29" y="46.5"/><ellipse cx="97.75" cy="62.5" fill="#ADD1B2" rx="11" ry="11" style="stroke: #A80036; stroke-width: 1.0;"/><path d="M100.7188,68.1406 Q100.1406,68.4375 99.5,68.5781 Q98.8594,68.7344 98.1563,68.7344 Q95.6563,68.7344 94.3281,67.0938 Q93.0156,65.4375 93.0156,62.3125 Q93.0156,59.1875 94.3281,57.5313 Q95.6563,55.875 98.1563,55.875 Q98.8594,55.875 99.5,56.0313 Q100.1563,56.1875 100.7188,56.4844 L100.7188,59.2031 Q100.0938,58.625 99.5,58.3594 Q98.9063,58.0781 98.2813,58.0781 Q96.9375,58.0781 96.25,59.1563 Q95.5625,60.2188 95.5625,62.3125 Q95.5625,64.4063 96.25,65.4844 Q96.9375,66.5469 98.2813,66.5469 Q98.9063,66.5469 99.5,66.2813 Q100.0938,66 100.7188,65.4219 L100.7188,68.1406 Z "/><text fill="#000000" font-family="sans-serif" font-size="12" lengthAdjust="spacingAndGlyphs" textLength="46" x="118.25" y="66.6543">Results</text><line style="stroke: #A80036; stroke-width: 1.5;" x1="30" x2="220" y1="78.5" y2="78.5"/><line style="stroke: #A80036; stroke-width: 1.5;" x1="30" x2="220" y1="86.5" y2="86.5"/><ellipse cx="40" cy="97.5" fill="#84BE84" rx="3" ry="3" style="stroke: #038048; stroke-width: 1.0;"/><text fill="#000000" font-family="sans-serif" font-size="11" lengthAdjust="spacingAndGlyphs" textLength="166" x="49" y="100.7104">«override» ToString() : string</text><!--MD5=[2741598bdf59a7d7e0d5c97658fd3022]
class Result--><rect fill="#FEFECE" filter="url(#f1ffbizlzuetme)" height="137.6328" id="Result" style="stroke: #A80036; stroke-width: 1.5;" width="192" x="256" y="8"/><ellipse cx="328.25" cy="24" fill="#ADD1B2" rx="11" ry="11" style="stroke: #A80036; stroke-width: 1.0;"/><path d="M331.2188,29.6406 Q330.6406,29.9375 330,30.0781 Q329.3594,30.2344 328.6563,30.2344 Q326.1563,30.2344 324.8281,28.5938 Q323.5156,26.9375 323.5156,23.8125 Q323.5156,20.6875 324.8281,19.0313 Q326.1563,17.375 328.6563,17.375 Q329.3594,17.375 330,17.5313 Q330.6563,17.6875 331.2188,17.9844 L331.2188,20.7031 Q330.5938,20.125 330,19.8594 Q329.4063,19.5781 328.7813,19.5781 Q327.4375,19.5781 326.75,20.6563 Q326.0625,21.7188 326.0625,23.8125 Q326.0625,25.9063 326.75,26.9844 Q327.4375,28.0469 328.7813,28.0469 Q329.4063,28.0469 330,27.7813 Q330.5938,27.5 331.2188,26.9219 L331.2188,29.6406 Z "/><text fill="#000000" font-family="sans-serif" font-size="12" lengthAdjust="spacingAndGlyphs" textLength="39" x="348.75" y="28.1543">Result</text><line style="stroke: #A80036; stroke-width: 1.5;" x1="257" x2="447" y1="40" y2="40"/><ellipse cx="267" cy="51" fill="none" rx="3" ry="3" style="stroke: #038048; stroke-width: 1.0;"/><text fill="#000000" font-family="sans-serif" font-size="11" lengthAdjust="spacingAndGlyphs" textLength="53" x="276" y="54.2104">code : int</text><ellipse cx="267" cy="63.8047" fill="none" rx="3" ry="3" style="stroke: #038048; stroke-width: 1.0;"/><text fill="#000000" font-family="sans-serif" font-size="11" lengthAdjust="spacingAndGlyphs" textLength="106" x="276" y="67.0151">session_id : string</text><ellipse cx="267" cy="76.6094" fill="none" rx="3" ry="3" style="stroke: #038048; stroke-width: 1.0;"/><text fill="#000000" font-family="sans-serif" font-size="11" lengthAdjust="spacingAndGlyphs" textLength="68" x="276" y="79.8198">user_id : int</text><ellipse cx="267" cy="89.4141" fill="none" rx="3" ry="3" style="stroke: #038048; stroke-width: 1.0;"/><text fill="#000000" font-family="sans-serif" font-size="11" lengthAdjust="spacingAndGlyphs" textLength="76" x="276" y="92.6245">email : string</text><ellipse cx="267" cy="102.2188" fill="none" rx="3" ry="3" style="stroke: #038048; stroke-width: 1.0;"/><text fill="#000000" font-family="sans-serif" font-size="11" lengthAdjust="spacingAndGlyphs" textLength="103" x="276" y="105.4292">username : string</text><line style="stroke: #A80036; stroke-width: 1.5;" x1="257" x2="447" y1="112.0234" y2="112.0234"/><ellipse cx="267" cy="123.0234" fill="#84BE84" rx="3" ry="3" style="stroke: #038048; stroke-width: 1.0;"/><text fill="#000000" font-family="sans-serif" font-size="11" lengthAdjust="spacingAndGlyphs" textLength="43" x="276" y="126.2339">Result()</text><ellipse cx="267" cy="135.8281" fill="#84BE84" rx="3" ry="3" style="stroke: #038048; stroke-width: 1.0;"/><text fill="#000000" font-family="sans-serif" font-size="11" lengthAdjust="spacingAndGlyphs" textLength="166" x="276" y="139.0386">«override» ToString() : string</text><!--MD5=[e644022de7dea015dd09463c37421447]
class List`1--><rect fill="#FEFECE" filter="url(#f1ffbizlzuetme)" height="48" id="List`1" style="stroke: #A80036; stroke-width: 1.5;" width="78" x="86" y="206"/><ellipse cx="101" cy="222" fill="#ADD1B2" rx="11" ry="11" style="stroke: #A80036; stroke-width: 1.0;"/><path d="M103.9688,227.6406 Q103.3906,227.9375 102.75,228.0781 Q102.1094,228.2344 101.4063,228.2344 Q98.9063,228.2344 97.5781,226.5938 Q96.2656,224.9375 96.2656,221.8125 Q96.2656,218.6875 97.5781,217.0313 Q98.9063,215.375 101.4063,215.375 Q102.1094,215.375 102.75,215.5313 Q103.4063,215.6875 103.9688,215.9844 L103.9688,218.7031 Q103.3438,218.125 102.75,217.8594 Q102.1563,217.5781 101.5313,217.5781 Q100.1875,217.5781 99.5,218.6563 Q98.8125,219.7188 98.8125,221.8125 Q98.8125,223.9063 99.5,224.9844 Q100.1875,226.0469 101.5313,226.0469 Q102.1563,226.0469 102.75,225.7813 Q103.3438,225.5 103.9688,224.9219 L103.9688,227.6406 Z "/><text fill="#000000" font-family="sans-serif" font-size="12" lengthAdjust="spacingAndGlyphs" textLength="35" x="115" y="226.1543">List`1</text><rect fill="#FFFFFF" height="15.9688" style="stroke: #000000; stroke-width: 1.0; stroke-dasharray: 2.0,2.0;" width="9" x="158" y="203"/><text fill="#000000" font-family="sans-serif" font-size="12" font-style="italic" lengthAdjust="spacingAndGlyphs" textLength="7" x="159" y="215.1387">T</text><line style="stroke: #A80036; stroke-width: 1.5;" x1="87" x2="163" y1="238" y2="238"/><line style="stroke: #A80036; stroke-width: 1.5;" x1="87" x2="163" y1="246" y2="246"/><!--MD5=[5a3817b196c823d97add621ce29b4a09]
link Results to List`1--><path d="M125,107.83 C125,134.75 125,174.06 125,200.54 " fill="none" id="Results-&gt;List`1" style="stroke: #A80036; stroke-width: 1.0;"/><polygon fill="#A80036" points="125,205.66,129,196.66,125,200.66,121,196.66,125,205.66" style="stroke: #A80036; stroke-width: 1.0;"/><text fill="#000000" font-family="sans-serif" font-size="13" lengthAdjust="spacingAndGlyphs" textLength="104" x="8.325" y="194.9821">results&lt;Result&gt;</text><!--MD5=[c7bb62d3685af208fb6858f36939d85a]
@startuml
class Results {
    + <<override>> ToString() : string
}
class Result {
    + code : int
    + session_id : string
    + user_id : int
    + email : string
    + username : string
    + Result()
    + <<override>> ToString() : string
}
class "List`1"<T> {
}
Results - -> "results<Result>" "List`1"
@enduml

PlantUML version 1.2020.02(Sun Mar 01 10:22:07 GMT 2020)
(GPL source distribution)
Java Runtime: OpenJDK Runtime Environment
JVM: OpenJDK 64-Bit Server VM
Java Version: 11.0.9+11-Ubuntu-0ubuntu1
Operating System: Linux
Default Encoding: ANSI_X3.4-1968
Language: en
Country: US
--></g></svg>