<?xml version="1.0" encoding="UTF-8" standalone="no"?><svg xmlns="http://www.w3.org/2000/svg" xmlns:xlink="http://www.w3.org/1999/xlink" contentScriptType="application/ecmascript" contentStyleType="text/css" height="277px" preserveAspectRatio="none" style="width:466px;height:277px;" version="1.1" viewBox="0 0 466 277" width="466px" zoomAndPan="magnify"><defs><filter height="300%" id="f1798vmzfwxaqt" width="300%" x="-1" y="-1"><feGaussianBlur result="blurOut" stdDeviation="2.0"/><feColorMatrix in="blurOut" result="blurOut2" type="matrix" values="0 0 0 0 0 0 0 0 0 0 0 0 0 0 0 0 0 0 .4 0"/><feOffset dx="4.0" dy="4.0" in="blurOut2" result="blurOut3"/><feBlend in="SourceGraphic" in2="blurOut3" mode="normal"/></filter></defs><g><!--MD5=[bb29cc3be283c09972dcd7300350fcd6]
class Servers--><rect fill="#FEFECE" filter="url(#f1798vmzfwxaqt)" height="60.8047" id="Servers" style="stroke: #A80036; stroke-width: 1.5;" width="192" x="36" y="52.5"/><ellipse cx="104.25" cy="68.5" fill="#ADD1B2" rx="11" ry="11" style="stroke: #A80036; stroke-width: 1.0;"/><path d="M107.2188,74.1406 Q106.6406,74.4375 106,74.5781 Q105.3594,74.7344 104.6563,74.7344 Q102.1563,74.7344 100.8281,73.0938 Q99.5156,71.4375 99.5156,68.3125 Q99.5156,65.1875 100.8281,63.5313 Q102.1563,61.875 104.6563,61.875 Q105.3594,61.875 106,62.0313 Q106.6563,62.1875 107.2188,62.4844 L107.2188,65.2031 Q106.5938,64.625 106,64.3594 Q105.4063,64.0781 104.7813,64.0781 Q103.4375,64.0781 102.75,65.1563 Q102.0625,66.2188 102.0625,68.3125 Q102.0625,70.4063 102.75,71.4844 Q103.4375,72.5469 104.7813,72.5469 Q105.4063,72.5469 106,72.2813 Q106.5938,72 107.2188,71.4219 L107.2188,74.1406 Z "/><text fill="#000000" font-family="sans-serif" font-size="12" lengthAdjust="spacingAndGlyphs" textLength="47" x="124.75" y="72.6543">Servers</text><line style="stroke: #A80036; stroke-width: 1.5;" x1="37" x2="227" y1="84.5" y2="84.5"/><line style="stroke: #A80036; stroke-width: 1.5;" x1="37" x2="227" y1="92.5" y2="92.5"/><ellipse cx="47" cy="103.5" fill="#84BE84" rx="3" ry="3" style="stroke: #038048; stroke-width: 1.0;"/><text fill="#000000" font-family="sans-serif" font-size="11" lengthAdjust="spacingAndGlyphs" textLength="166" x="56" y="106.7104">«override» ToString() : string</text><!--MD5=[c60af77fe5573b84a4aa4bce89659574]
class Server--><rect fill="#FEFECE" filter="url(#f1798vmzfwxaqt)" height="150.4375" id="Server" style="stroke: #A80036; stroke-width: 1.5;" width="192" x="263" y="8"/><ellipse cx="334.75" cy="24" fill="#ADD1B2" rx="11" ry="11" style="stroke: #A80036; stroke-width: 1.0;"/><path d="M337.7188,29.6406 Q337.1406,29.9375 336.5,30.0781 Q335.8594,30.2344 335.1563,30.2344 Q332.6563,30.2344 331.3281,28.5938 Q330.0156,26.9375 330.0156,23.8125 Q330.0156,20.6875 331.3281,19.0313 Q332.6563,17.375 335.1563,17.375 Q335.8594,17.375 336.5,17.5313 Q337.1563,17.6875 337.7188,17.9844 L337.7188,20.7031 Q337.0938,20.125 336.5,19.8594 Q335.9063,19.5781 335.2813,19.5781 Q333.9375,19.5781 333.25,20.6563 Q332.5625,21.7188 332.5625,23.8125 Q332.5625,25.9063 333.25,26.9844 Q333.9375,28.0469 335.2813,28.0469 Q335.9063,28.0469 336.5,27.7813 Q337.0938,27.5 337.7188,26.9219 L337.7188,29.6406 Z "/><text fill="#000000" font-family="sans-serif" font-size="12" lengthAdjust="spacingAndGlyphs" textLength="40" x="355.25" y="28.1543">Server</text><line style="stroke: #A80036; stroke-width: 1.5;" x1="264" x2="454" y1="40" y2="40"/><ellipse cx="274" cy="51" fill="none" rx="3" ry="3" style="stroke: #038048; stroke-width: 1.0;"/><text fill="#000000" font-family="sans-serif" font-size="11" lengthAdjust="spacingAndGlyphs" textLength="53" x="283" y="54.2104">code : int</text><ellipse cx="274" cy="63.8047" fill="none" rx="3" ry="3" style="stroke: #038048; stroke-width: 1.0;"/><text fill="#000000" font-family="sans-serif" font-size="11" lengthAdjust="spacingAndGlyphs" textLength="79" x="283" y="67.0151">server_id : int</text><ellipse cx="274" cy="76.6094" fill="none" rx="3" ry="3" style="stroke: #038048; stroke-width: 1.0;"/><text fill="#000000" font-family="sans-serif" font-size="11" lengthAdjust="spacingAndGlyphs" textLength="120" x="283" y="79.8198">server_name : string</text><ellipse cx="274" cy="89.4141" fill="none" rx="3" ry="3" style="stroke: #038048; stroke-width: 1.0;"/><text fill="#000000" font-family="sans-serif" font-size="11" lengthAdjust="spacingAndGlyphs" textLength="55" x="283" y="92.6245">ip : string</text><ellipse cx="274" cy="102.2188" fill="none" rx="3" ry="3" style="stroke: #038048; stroke-width: 1.0;"/><text fill="#000000" font-family="sans-serif" font-size="11" lengthAdjust="spacingAndGlyphs" textLength="49" x="283" y="105.4292">port : int</text><ellipse cx="274" cy="115.0234" fill="none" rx="3" ry="3" style="stroke: #038048; stroke-width: 1.0;"/><text fill="#000000" font-family="sans-serif" font-size="11" lengthAdjust="spacingAndGlyphs" textLength="52" x="283" y="118.2339">local : int</text><line style="stroke: #A80036; stroke-width: 1.5;" x1="264" x2="454" y1="124.8281" y2="124.8281"/><ellipse cx="274" cy="135.8281" fill="#84BE84" rx="3" ry="3" style="stroke: #038048; stroke-width: 1.0;"/><text fill="#000000" font-family="sans-serif" font-size="11" lengthAdjust="spacingAndGlyphs" textLength="46" x="283" y="139.0386">Server()</text><ellipse cx="274" cy="148.6328" fill="#84BE84" rx="3" ry="3" style="stroke: #038048; stroke-width: 1.0;"/><text fill="#000000" font-family="sans-serif" font-size="11" lengthAdjust="spacingAndGlyphs" textLength="166" x="283" y="151.8433">«override» ToString() : string</text><!--MD5=[e644022de7dea015dd09463c37421447]
class List`1--><rect fill="#FEFECE" filter="url(#f1798vmzfwxaqt)" height="48" id="List`1" style="stroke: #A80036; stroke-width: 1.5;" width="78" x="93" y="218"/><ellipse cx="108" cy="234" fill="#ADD1B2" rx="11" ry="11" style="stroke: #A80036; stroke-width: 1.0;"/><path d="M110.9688,239.6406 Q110.3906,239.9375 109.75,240.0781 Q109.1094,240.2344 108.4063,240.2344 Q105.9063,240.2344 104.5781,238.5938 Q103.2656,236.9375 103.2656,233.8125 Q103.2656,230.6875 104.5781,229.0313 Q105.9063,227.375 108.4063,227.375 Q109.1094,227.375 109.75,227.5313 Q110.4063,227.6875 110.9688,227.9844 L110.9688,230.7031 Q110.3438,230.125 109.75,229.8594 Q109.1563,229.5781 108.5313,229.5781 Q107.1875,229.5781 106.5,230.6563 Q105.8125,231.7188 105.8125,233.8125 Q105.8125,235.9063 106.5,236.9844 Q107.1875,238.0469 108.5313,238.0469 Q109.1563,238.0469 109.75,237.7813 Q110.3438,237.5 110.9688,236.9219 L110.9688,239.6406 Z "/><text fill="#000000" font-family="sans-serif" font-size="12" lengthAdjust="spacingAndGlyphs" textLength="35" x="122" y="238.1543">List`1</text><rect fill="#FFFFFF" height="15.9688" style="stroke: #000000; stroke-width: 1.0; stroke-dasharray: 2.0,2.0;" width="9" x="165" y="215"/><text fill="#000000" font-family="sans-serif" font-size="12" font-style="italic" lengthAdjust="spacingAndGlyphs" textLength="7" x="166" y="227.1387">T</text><line style="stroke: #A80036; stroke-width: 1.5;" x1="94" x2="170" y1="250" y2="250"/><line style="stroke: #A80036; stroke-width: 1.5;" x1="94" x2="170" y1="258" y2="258"/><!--MD5=[7ad0c39b92f78d078fb524283051bad6]
link Servers to List`1--><path d="M132,113.53 C132,141.96 132,184.66 132,212.68 " fill="none" id="Servers-&gt;List`1" style="stroke: #A80036; stroke-width: 1.0;"/><polygon fill="#A80036" points="132,217.73,136,208.73,132,212.73,128,208.73,132,217.73" style="stroke: #A80036; stroke-width: 1.0;"/><text fill="#000000" font-family="sans-serif" font-size="13" lengthAdjust="spacingAndGlyphs" textLength="111" x="7.4719" y="207.0691">servers&lt;Server&gt;</text><!--MD5=[8e2a8af96682d087fe5cac89496beb9f]
@startuml
class Servers {
    + <<override>> ToString() : string
}
class Server {
    + code : int
    + server_id : int
    + server_name : string
    + ip : string
    + port : int
    + local : int
    + Server()
    + <<override>> ToString() : string
}
class "List`1"<T> {
}
Servers - -> "servers<Server>" "List`1"
@enduml

PlantUML version 1.2020.02(Sun Mar 01 10:22:07 GMT 2020)
(GPL source distribution)
Java Runtime: OpenJDK Runtime Environment
JVM: OpenJDK 64-Bit Server VM
Java Version: 11.0.9+11-Ubuntu-0ubuntu1
Operating System: Linux
Default Encoding: ANSI_X3.4-1968
Language: en
Country: US
--></g></svg>