<?xml version="1.0" encoding="UTF-8" standalone="no"?><svg xmlns="http://www.w3.org/2000/svg" xmlns:xlink="http://www.w3.org/1999/xlink" contentScriptType="application/ecmascript" contentStyleType="text/css" height="187px" preserveAspectRatio="none" style="width:317px;height:187px;" version="1.1" viewBox="0 0 317 187" width="317px" zoomAndPan="magnify"><defs><filter height="300%" id="f12uj48hyjezvc" width="300%" x="-1" y="-1"><feGaussianBlur result="blurOut" stdDeviation="2.0"/><feColorMatrix in="blurOut" result="blurOut2" type="matrix" values="0 0 0 0 0 0 0 0 0 0 0 0 0 0 0 0 0 0 .4 0"/><feOffset dx="4.0" dy="4.0" in="blurOut2" result="blurOut3"/><feBlend in="SourceGraphic" in2="blurOut3" mode="normal"/></filter></defs><g><!--MD5=[408266bfad1155c1cd9da05f22835b65]
class CreateServer--><rect fill="#FEFECE" filter="url(#f12uj48hyjezvc)" height="60.8047" id="CreateServer" style="stroke: #A80036; stroke-width: 1.5;" width="300" x="6" y="116"/><ellipse cx="110.75" cy="132" fill="#ADD1B2" rx="11" ry="11" style="stroke: #A80036; stroke-width: 1.0;"/><path d="M113.7188,137.6406 Q113.1406,137.9375 112.5,138.0781 Q111.8594,138.2344 111.1563,138.2344 Q108.6563,138.2344 107.3281,136.5938 Q106.0156,134.9375 106.0156,131.8125 Q106.0156,128.6875 107.3281,127.0313 Q108.6563,125.375 111.1563,125.375 Q111.8594,125.375 112.5,125.5313 Q113.1563,125.6875 113.7188,125.9844 L113.7188,128.7031 Q113.0938,128.125 112.5,127.8594 Q111.9063,127.5781 111.2813,127.5781 Q109.9375,127.5781 109.25,128.6563 Q108.5625,129.7188 108.5625,131.8125 Q108.5625,133.9063 109.25,134.9844 Q109.9375,136.0469 111.2813,136.0469 Q111.9063,136.0469 112.5,135.7813 Q113.0938,135.5 113.7188,134.9219 L113.7188,137.6406 Z "/><text fill="#000000" font-family="sans-serif" font-size="12" lengthAdjust="spacingAndGlyphs" textLength="82" x="131.25" y="136.1543">CreateServer</text><line style="stroke: #A80036; stroke-width: 1.5;" x1="7" x2="305" y1="148" y2="148"/><line style="stroke: #A80036; stroke-width: 1.5;" x1="7" x2="305" y1="156" y2="156"/><ellipse cx="17" cy="167" fill="#84BE84" rx="3" ry="3" style="stroke: #038048; stroke-width: 1.0;"/><text fill="#000000" font-family="sans-serif" font-size="11" lengthAdjust="spacingAndGlyphs" textLength="274" x="26" y="170.2104">CreateServerObject(ip:string, port:ushort) : void</text><!--MD5=[83b3cf3d23d77c6f1e1b5291a241bc2a]
class MonoBehaviour--><rect fill="#FEFECE" filter="url(#f12uj48hyjezvc)" height="48" id="MonoBehaviour" style="stroke: #A80036; stroke-width: 1.5;" width="128" x="92" y="8"/><ellipse cx="107" cy="24" fill="#ADD1B2" rx="11" ry="11" style="stroke: #A80036; stroke-width: 1.0;"/><path d="M109.9688,29.6406 Q109.3906,29.9375 108.75,30.0781 Q108.1094,30.2344 107.4063,30.2344 Q104.9063,30.2344 103.5781,28.5938 Q102.2656,26.9375 102.2656,23.8125 Q102.2656,20.6875 103.5781,19.0313 Q104.9063,17.375 107.4063,17.375 Q108.1094,17.375 108.75,17.5313 Q109.4063,17.6875 109.9688,17.9844 L109.9688,20.7031 Q109.3438,20.125 108.75,19.8594 Q108.1563,19.5781 107.5313,19.5781 Q106.1875,19.5781 105.5,20.6563 Q104.8125,21.7188 104.8125,23.8125 Q104.8125,25.9063 105.5,26.9844 Q106.1875,28.0469 107.5313,28.0469 Q108.1563,28.0469 108.75,27.7813 Q109.3438,27.5 109.9688,26.9219 L109.9688,29.6406 Z "/><text fill="#000000" font-family="sans-serif" font-size="12" lengthAdjust="spacingAndGlyphs" textLength="96" x="121" y="28.1543">MonoBehaviour</text><line style="stroke: #A80036; stroke-width: 1.5;" x1="93" x2="219" y1="40" y2="40"/><line style="stroke: #A80036; stroke-width: 1.5;" x1="93" x2="219" y1="48" y2="48"/><!--MD5=[6daab36aa89f57cf13279730de3666ba]
reverse link MonoBehaviour to CreateServer--><path d="M156,76.11 C156,89.31 156,103.54 156,115.65 " fill="none" id="MonoBehaviour&lt;-CreateServer" style="stroke: #A80036; stroke-width: 1.0;"/><polygon fill="none" points="149,76.04,156,56.04,163,76.04,149,76.04" style="stroke: #A80036; stroke-width: 1.0;"/><!--MD5=[9467a3d1ab0db3b96bf31648c14d76cf]
@startuml
class CreateServer {
    + CreateServerObject(ip:string, port:ushort) : void
}
MonoBehaviour <|- - CreateServer
@enduml

PlantUML version 1.2020.02(Sun Mar 01 10:22:07 GMT 2020)
(GPL source distribution)
Java Runtime: OpenJDK Runtime Environment
JVM: OpenJDK 64-Bit Server VM
Java Version: 11.0.9+11-Ubuntu-0ubuntu1
Operating System: Linux
Default Encoding: ANSI_X3.4-1968
Language: en
Country: US
--></g></svg>