<?xml version="1.0" encoding="UTF-8" standalone="no"?><svg xmlns="http://www.w3.org/2000/svg" xmlns:xlink="http://www.w3.org/1999/xlink" contentScriptType="application/ecmascript" contentStyleType="text/css" height="296px" preserveAspectRatio="none" style="width:346px;height:296px;" version="1.1" viewBox="0 0 346 296" width="346px" zoomAndPan="magnify"><defs><filter height="300%" id="f19fjq740n5goy" width="300%" x="-1" y="-1"><feGaussianBlur result="blurOut" stdDeviation="2.0"/><feColorMatrix in="blurOut" result="blurOut2" type="matrix" values="0 0 0 0 0 0 0 0 0 0 0 0 0 0 0 0 0 0 .4 0"/><feOffset dx="4.0" dy="4.0" in="blurOut2" result="blurOut3"/><feBlend in="SourceGraphic" in2="blurOut3" mode="normal"/></filter></defs><g><!--MD5=[9b062260d680ccf45bd4bb57fda64d79]
class GameServer--><rect fill="#FEFECE" filter="url(#f19fjq740n5goy)" height="60.8047" id="GameServer" style="stroke: #A80036; stroke-width: 1.5;" width="329" x="6" y="116"/><ellipse cx="128.25" cy="132" fill="#ADD1B2" rx="11" ry="11" style="stroke: #A80036; stroke-width: 1.0;"/><path d="M131.2188,137.6406 Q130.6406,137.9375 130,138.0781 Q129.3594,138.2344 128.6563,138.2344 Q126.1563,138.2344 124.8281,136.5938 Q123.5156,134.9375 123.5156,131.8125 Q123.5156,128.6875 124.8281,127.0313 Q126.1563,125.375 128.6563,125.375 Q129.3594,125.375 130,125.5313 Q130.6563,125.6875 131.2188,125.9844 L131.2188,128.7031 Q130.5938,128.125 130,127.8594 Q129.4063,127.5781 128.7813,127.5781 Q127.4375,127.5781 126.75,128.6563 Q126.0625,129.7188 126.0625,131.8125 Q126.0625,133.9063 126.75,134.9844 Q127.4375,136.0469 128.7813,136.0469 Q129.4063,136.0469 130,135.7813 Q130.5938,135.5 131.2188,134.9219 L131.2188,137.6406 Z "/><text fill="#000000" font-family="sans-serif" font-size="12" lengthAdjust="spacingAndGlyphs" textLength="76" x="148.75" y="136.1543">GameServer</text><line style="stroke: #A80036; stroke-width: 1.5;" x1="7" x2="334" y1="148" y2="148"/><line style="stroke: #A80036; stroke-width: 1.5;" x1="7" x2="334" y1="156" y2="156"/><ellipse cx="17" cy="167" fill="#84BE84" rx="3" ry="3" style="stroke: #038048; stroke-width: 1.0;"/><text fill="#000000" font-family="sans-serif" font-size="11" lengthAdjust="spacingAndGlyphs" textLength="303" x="26" y="170.2104">«override» OnData(stream:DataStreamReader) : void</text><!--MD5=[c20e17d09ce5f1868c6907d7898d4241]
class BaseServer--><rect fill="#FEFECE" filter="url(#f19fjq740n5goy)" height="48" id="BaseServer" style="stroke: #A80036; stroke-width: 1.5;" width="103" x="119" y="8"/><ellipse cx="134" cy="24" fill="#ADD1B2" rx="11" ry="11" style="stroke: #A80036; stroke-width: 1.0;"/><path d="M136.9688,29.6406 Q136.3906,29.9375 135.75,30.0781 Q135.1094,30.2344 134.4063,30.2344 Q131.9063,30.2344 130.5781,28.5938 Q129.2656,26.9375 129.2656,23.8125 Q129.2656,20.6875 130.5781,19.0313 Q131.9063,17.375 134.4063,17.375 Q135.1094,17.375 135.75,17.5313 Q136.4063,17.6875 136.9688,17.9844 L136.9688,20.7031 Q136.3438,20.125 135.75,19.8594 Q135.1563,19.5781 134.5313,19.5781 Q133.1875,19.5781 132.5,20.6563 Q131.8125,21.7188 131.8125,23.8125 Q131.8125,25.9063 132.5,26.9844 Q133.1875,28.0469 134.5313,28.0469 Q135.1563,28.0469 135.75,27.7813 Q136.3438,27.5 136.9688,26.9219 L136.9688,29.6406 Z "/><text fill="#000000" font-family="sans-serif" font-size="12" lengthAdjust="spacingAndGlyphs" textLength="71" x="148" y="28.1543">BaseServer</text><line style="stroke: #A80036; stroke-width: 1.5;" x1="120" x2="221" y1="40" y2="40"/><line style="stroke: #A80036; stroke-width: 1.5;" x1="120" x2="221" y1="48" y2="48"/><!--MD5=[0e34be128ad35d37bf3e2551f0193ef1]
class DeathRunGameLoop--><rect fill="#FEFECE" filter="url(#f19fjq740n5goy)" height="48" id="DeathRunGameLoop" style="stroke: #A80036; stroke-width: 1.5;" width="160" x="90.5" y="237"/><ellipse cx="105.5" cy="253" fill="#ADD1B2" rx="11" ry="11" style="stroke: #A80036; stroke-width: 1.0;"/><path d="M108.4688,258.6406 Q107.8906,258.9375 107.25,259.0781 Q106.6094,259.2344 105.9063,259.2344 Q103.4063,259.2344 102.0781,257.5938 Q100.7656,255.9375 100.7656,252.8125 Q100.7656,249.6875 102.0781,248.0313 Q103.4063,246.375 105.9063,246.375 Q106.6094,246.375 107.25,246.5313 Q107.9063,246.6875 108.4688,246.9844 L108.4688,249.7031 Q107.8438,249.125 107.25,248.8594 Q106.6563,248.5781 106.0313,248.5781 Q104.6875,248.5781 104,249.6563 Q103.3125,250.7188 103.3125,252.8125 Q103.3125,254.9063 104,255.9844 Q104.6875,257.0469 106.0313,257.0469 Q106.6563,257.0469 107.25,256.7813 Q107.8438,256.5 108.4688,255.9219 L108.4688,258.6406 Z "/><text fill="#000000" font-family="sans-serif" font-size="12" lengthAdjust="spacingAndGlyphs" textLength="128" x="119.5" y="257.1543">DeathRunGameLoop</text><line style="stroke: #A80036; stroke-width: 1.5;" x1="91.5" x2="249.5" y1="269" y2="269"/><line style="stroke: #A80036; stroke-width: 1.5;" x1="91.5" x2="249.5" y1="277" y2="277"/><!--MD5=[48ede85725365caa10e5ee52a205c569]
reverse link BaseServer to GameServer--><path d="M170.5,76.11 C170.5,89.31 170.5,103.54 170.5,115.65 " fill="none" id="BaseServer&lt;-GameServer" style="stroke: #A80036; stroke-width: 1.0;"/><polygon fill="none" points="163.5,76.04,170.5,56.04,177.5,76.04,163.5,76.04" style="stroke: #A80036; stroke-width: 1.0;"/><!--MD5=[167883df157de3358043ee8464cadb70]
link GameServer to DeathRunGameLoop--><path d="M170.5,177.06 C170.5,193.93 170.5,214.98 170.5,231.65 " fill="none" id="GameServer-&gt;DeathRunGameLoop" style="stroke: #A80036; stroke-width: 1.0;"/><polygon fill="#A80036" points="170.5,236.67,174.5,227.67,170.5,231.67,166.5,227.67,170.5,236.67" style="stroke: #A80036; stroke-width: 1.0;"/><text fill="#000000" font-family="sans-serif" font-size="13" lengthAdjust="spacingAndGlyphs" textLength="131" x="23.5344" y="225.9945">deathRunGameLoop</text><!--MD5=[8d01132c0821533e2b96aebf3b46dee8]
@startuml
class GameServer {
    + <<override>> OnData(stream:DataStreamReader) : void
}
BaseServer <|- - GameServer
GameServer - -> "deathRunGameLoop" DeathRunGameLoop
@enduml

PlantUML version 1.2020.02(Sun Mar 01 10:22:07 GMT 2020)
(GPL source distribution)
Java Runtime: OpenJDK Runtime Environment
JVM: OpenJDK 64-Bit Server VM
Java Version: 11.0.9+11-Ubuntu-0ubuntu1
Operating System: Linux
Default Encoding: ANSI_X3.4-1968
Language: en
Country: US
--></g></svg>