<?xml version="1.0" encoding="UTF-8" standalone="no"?><svg xmlns="http://www.w3.org/2000/svg" xmlns:xlink="http://www.w3.org/1999/xlink" contentScriptType="application/ecmascript" contentStyleType="text/css" height="283px" preserveAspectRatio="none" style="width:203px;height:283px;" version="1.1" viewBox="0 0 203 283" width="203px" zoomAndPan="magnify"><defs><filter height="300%" id="f1v6nvsk2926sg" width="300%" x="-1" y="-1"><feGaussianBlur result="blurOut" stdDeviation="2.0"/><feColorMatrix in="blurOut" result="blurOut2" type="matrix" values="0 0 0 0 0 0 0 0 0 0 0 0 0 0 0 0 0 0 .4 0"/><feOffset dx="4.0" dy="4.0" in="blurOut2" result="blurOut3"/><feBlend in="SourceGraphic" in2="blurOut3" mode="normal"/></filter></defs><g><!--MD5=[b20af9b84e91012a903d813cdd123687]
class ServerBehaviourExample--><rect fill="#FEFECE" filter="url(#f1v6nvsk2926sg)" height="48" id="ServerBehaviourExample" style="stroke: #A80036; stroke-width: 1.5;" width="186" x="6" y="116"/><ellipse cx="21" cy="132" fill="#ADD1B2" rx="11" ry="11" style="stroke: #A80036; stroke-width: 1.0;"/><path d="M23.9688,137.6406 Q23.3906,137.9375 22.75,138.0781 Q22.1094,138.2344 21.4063,138.2344 Q18.9063,138.2344 17.5781,136.5938 Q16.2656,134.9375 16.2656,131.8125 Q16.2656,128.6875 17.5781,127.0313 Q18.9063,125.375 21.4063,125.375 Q22.1094,125.375 22.75,125.5313 Q23.4063,125.6875 23.9688,125.9844 L23.9688,128.7031 Q23.3438,128.125 22.75,127.8594 Q22.1563,127.5781 21.5313,127.5781 Q20.1875,127.5781 19.5,128.6563 Q18.8125,129.7188 18.8125,131.8125 Q18.8125,133.9063 19.5,134.9844 Q20.1875,136.0469 21.5313,136.0469 Q22.1563,136.0469 22.75,135.7813 Q23.3438,135.5 23.9688,134.9219 L23.9688,137.6406 Z "/><text fill="#000000" font-family="sans-serif" font-size="12" lengthAdjust="spacingAndGlyphs" textLength="154" x="35" y="136.1543">ServerBehaviourExample</text><line style="stroke: #A80036; stroke-width: 1.5;" x1="7" x2="191" y1="148" y2="148"/><line style="stroke: #A80036; stroke-width: 1.5;" x1="7" x2="191" y1="156" y2="156"/><!--MD5=[83b3cf3d23d77c6f1e1b5291a241bc2a]
class MonoBehaviour--><rect fill="#FEFECE" filter="url(#f1v6nvsk2926sg)" height="48" id="MonoBehaviour" style="stroke: #A80036; stroke-width: 1.5;" width="128" x="35" y="8"/><ellipse cx="50" cy="24" fill="#ADD1B2" rx="11" ry="11" style="stroke: #A80036; stroke-width: 1.0;"/><path d="M52.9688,29.6406 Q52.3906,29.9375 51.75,30.0781 Q51.1094,30.2344 50.4063,30.2344 Q47.9063,30.2344 46.5781,28.5938 Q45.2656,26.9375 45.2656,23.8125 Q45.2656,20.6875 46.5781,19.0313 Q47.9063,17.375 50.4063,17.375 Q51.1094,17.375 51.75,17.5313 Q52.4063,17.6875 52.9688,17.9844 L52.9688,20.7031 Q52.3438,20.125 51.75,19.8594 Q51.1563,19.5781 50.5313,19.5781 Q49.1875,19.5781 48.5,20.6563 Q47.8125,21.7188 47.8125,23.8125 Q47.8125,25.9063 48.5,26.9844 Q49.1875,28.0469 50.5313,28.0469 Q51.1563,28.0469 51.75,27.7813 Q52.3438,27.5 52.9688,26.9219 L52.9688,29.6406 Z "/><text fill="#000000" font-family="sans-serif" font-size="12" lengthAdjust="spacingAndGlyphs" textLength="96" x="64" y="28.1543">MonoBehaviour</text><line style="stroke: #A80036; stroke-width: 1.5;" x1="36" x2="162" y1="40" y2="40"/><line style="stroke: #A80036; stroke-width: 1.5;" x1="36" x2="162" y1="48" y2="48"/><!--MD5=[e36484d3710f4c7dd7f938679417ffd6]
class NetworkDriver--><rect fill="#FEFECE" filter="url(#f1v6nvsk2926sg)" height="48" id="NetworkDriver" style="stroke: #A80036; stroke-width: 1.5;" width="119" x="39.5" y="224"/><ellipse cx="54.5" cy="240" fill="#ADD1B2" rx="11" ry="11" style="stroke: #A80036; stroke-width: 1.0;"/><path d="M57.4688,245.6406 Q56.8906,245.9375 56.25,246.0781 Q55.6094,246.2344 54.9063,246.2344 Q52.4063,246.2344 51.0781,244.5938 Q49.7656,242.9375 49.7656,239.8125 Q49.7656,236.6875 51.0781,235.0313 Q52.4063,233.375 54.9063,233.375 Q55.6094,233.375 56.25,233.5313 Q56.9063,233.6875 57.4688,233.9844 L57.4688,236.7031 Q56.8438,236.125 56.25,235.8594 Q55.6563,235.5781 55.0313,235.5781 Q53.6875,235.5781 53,236.6563 Q52.3125,237.7188 52.3125,239.8125 Q52.3125,241.9063 53,242.9844 Q53.6875,244.0469 55.0313,244.0469 Q55.6563,244.0469 56.25,243.7813 Q56.8438,243.5 57.4688,242.9219 L57.4688,245.6406 Z "/><text fill="#000000" font-family="sans-serif" font-size="12" lengthAdjust="spacingAndGlyphs" textLength="87" x="68.5" y="244.1543">NetworkDriver</text><line style="stroke: #A80036; stroke-width: 1.5;" x1="40.5" x2="157.5" y1="256" y2="256"/><line style="stroke: #A80036; stroke-width: 1.5;" x1="40.5" x2="157.5" y1="264" y2="264"/><!--MD5=[95d5b42fe1388de0b59c4d3272d646d0]
reverse link MonoBehaviour to ServerBehaviourExample--><path d="M99,76.02 C99,89.58 99,104.04 99,115.68 " fill="none" id="MonoBehaviour&lt;-ServerBehaviourExample" style="stroke: #A80036; stroke-width: 1.0;"/><polygon fill="none" points="92,76,99,56,106,76,92,76" style="stroke: #A80036; stroke-width: 1.0;"/><!--MD5=[d2abc88d3a1186d2c47c1081871623d4]
link ServerBehaviourExample to NetworkDriver--><path d="M99,164 C99,180 99,201.45 99,218.53 " fill="none" id="ServerBehaviourExample-&gt;NetworkDriver" style="stroke: #A80036; stroke-width: 1.0;"/><polygon fill="#A80036" points="99,223.68,103,214.68,99,218.68,95,214.68,99,223.68" style="stroke: #A80036; stroke-width: 1.0;"/><text fill="#000000" font-family="sans-serif" font-size="13" lengthAdjust="spacingAndGlyphs" textLength="36" x="58.6125" y="213.007">driver</text><!--MD5=[22207222e88e85a9e5330ab1c85a4758]
@startuml
class ServerBehaviourExample {
}
MonoBehaviour <|- - ServerBehaviourExample
ServerBehaviourExample - -> "driver" NetworkDriver
@enduml

PlantUML version 1.2020.02(Sun Mar 01 10:22:07 GMT 2020)
(GPL source distribution)
Java Runtime: OpenJDK Runtime Environment
JVM: OpenJDK 64-Bit Server VM
Java Version: 11.0.9+11-Ubuntu-0ubuntu1
Operating System: Linux
Default Encoding: ANSI_X3.4-1968
Language: en
Country: US
--></g></svg>