<?xml version="1.0" encoding="UTF-8" standalone="no"?><svg xmlns="http://www.w3.org/2000/svg" xmlns:xlink="http://www.w3.org/1999/xlink" contentScriptType="application/ecmascript" contentStyleType="text/css" height="200px" preserveAspectRatio="none" style="width:236px;height:200px;" version="1.1" viewBox="0 0 236 200" width="236px" zoomAndPan="magnify"><defs><filter height="300%" id="f111tfuyfpqu01" width="300%" x="-1" y="-1"><feGaussianBlur result="blurOut" stdDeviation="2.0"/><feColorMatrix in="blurOut" result="blurOut2" type="matrix" values="0 0 0 0 0 0 0 0 0 0 0 0 0 0 0 0 0 0 .4 0"/><feOffset dx="4.0" dy="4.0" in="blurOut2" result="blurOut3"/><feBlend in="SourceGraphic" in2="blurOut3" mode="normal"/></filter></defs><g><!--MD5=[be58f5f3a683ac0c425cfe705e90fb82]
class InAir--><rect fill="#FEFECE" filter="url(#f111tfuyfpqu01)" height="73.6094" id="InAir" style="stroke: #A80036; stroke-width: 1.5;" width="219" x="6" y="116"/><ellipse cx="97.75" cy="132" fill="#ADD1B2" rx="11" ry="11" style="stroke: #A80036; stroke-width: 1.0;"/><path d="M100.7188,137.6406 Q100.1406,137.9375 99.5,138.0781 Q98.8594,138.2344 98.1563,138.2344 Q95.6563,138.2344 94.3281,136.5938 Q93.0156,134.9375 93.0156,131.8125 Q93.0156,128.6875 94.3281,127.0313 Q95.6563,125.375 98.1563,125.375 Q98.8594,125.375 99.5,125.5313 Q100.1563,125.6875 100.7188,125.9844 L100.7188,128.7031 Q100.0938,128.125 99.5,127.8594 Q98.9063,127.5781 98.2813,127.5781 Q96.9375,127.5781 96.25,128.6563 Q95.5625,129.7188 95.5625,131.8125 Q95.5625,133.9063 96.25,134.9844 Q96.9375,136.0469 98.2813,136.0469 Q98.9063,136.0469 99.5,135.7813 Q100.0938,135.5 100.7188,134.9219 L100.7188,137.6406 Z "/><text fill="#000000" font-family="sans-serif" font-size="12" lengthAdjust="spacingAndGlyphs" textLength="27" x="118.25" y="136.1543">InAir</text><line style="stroke: #A80036; stroke-width: 1.5;" x1="7" x2="224" y1="148" y2="148"/><line style="stroke: #A80036; stroke-width: 1.5;" x1="7" x2="224" y1="156" y2="156"/><ellipse cx="17" cy="167" fill="#84BE84" rx="3" ry="3" style="stroke: #038048; stroke-width: 1.0;"/><text fill="#000000" font-family="sans-serif" font-size="11" lengthAdjust="spacingAndGlyphs" textLength="164" x="26" y="170.2104">«override» OnUpdate() : void</text><ellipse cx="17" cy="179.8047" fill="#84BE84" rx="3" ry="3" style="stroke: #038048; stroke-width: 1.0;"/><text fill="#000000" font-family="sans-serif" font-size="11" lengthAdjust="spacingAndGlyphs" textLength="193" x="26" y="183.0151">«override» OnFixedUpdate() : void</text><!--MD5=[d45c04621fec731141dda4390791d612]
class PlayerMovement--><rect fill="#FEFECE" filter="url(#f111tfuyfpqu01)" height="48" id="PlayerMovement" style="stroke: #A80036; stroke-width: 1.5;" width="134" x="48.5" y="8"/><ellipse cx="63.5" cy="24" fill="#ADD1B2" rx="11" ry="11" style="stroke: #A80036; stroke-width: 1.0;"/><path d="M66.4688,29.6406 Q65.8906,29.9375 65.25,30.0781 Q64.6094,30.2344 63.9063,30.2344 Q61.4063,30.2344 60.0781,28.5938 Q58.7656,26.9375 58.7656,23.8125 Q58.7656,20.6875 60.0781,19.0313 Q61.4063,17.375 63.9063,17.375 Q64.6094,17.375 65.25,17.5313 Q65.9063,17.6875 66.4688,17.9844 L66.4688,20.7031 Q65.8438,20.125 65.25,19.8594 Q64.6563,19.5781 64.0313,19.5781 Q62.6875,19.5781 62,20.6563 Q61.3125,21.7188 61.3125,23.8125 Q61.3125,25.9063 62,26.9844 Q62.6875,28.0469 64.0313,28.0469 Q64.6563,28.0469 65.25,27.7813 Q65.8438,27.5 66.4688,26.9219 L66.4688,29.6406 Z "/><text fill="#000000" font-family="sans-serif" font-size="12" lengthAdjust="spacingAndGlyphs" textLength="102" x="77.5" y="28.1543">PlayerMovement</text><line style="stroke: #A80036; stroke-width: 1.5;" x1="49.5" x2="181.5" y1="40" y2="40"/><line style="stroke: #A80036; stroke-width: 1.5;" x1="49.5" x2="181.5" y1="48" y2="48"/><!--MD5=[f48a9b88278b0520614d9fa2a420e3e0]
reverse link PlayerMovement to InAir--><path d="M115.5,76.43 C115.5,89.33 115.5,103.32 115.5,115.71 " fill="none" id="PlayerMovement&lt;-InAir" style="stroke: #A80036; stroke-width: 1.0;"/><polygon fill="none" points="108.5,76.23,115.5,56.23,122.5,76.23,108.5,76.23" style="stroke: #A80036; stroke-width: 1.0;"/><!--MD5=[fc7b7642abde270a4d4f5ed75b553851]
@startuml
class InAir {
    + <<override>> OnUpdate() : void
    + <<override>> OnFixedUpdate() : void
}
PlayerMovement <|- - InAir
@enduml

PlantUML version 1.2020.02(Sun Mar 01 10:22:07 GMT 2020)
(GPL source distribution)
Java Runtime: OpenJDK Runtime Environment
JVM: OpenJDK 64-Bit Server VM
Java Version: 11.0.9+11-Ubuntu-0ubuntu1
Operating System: Linux
Default Encoding: ANSI_X3.4-1968
Language: en
Country: US
--></g></svg>