<?xml version="1.0" encoding="UTF-8" standalone="no"?><svg xmlns="http://www.w3.org/2000/svg" xmlns:xlink="http://www.w3.org/1999/xlink" contentScriptType="application/ecmascript" contentStyleType="text/css" height="251px" preserveAspectRatio="none" style="width:236px;height:251px;" version="1.1" viewBox="0 0 236 251" width="236px" zoomAndPan="magnify"><defs><filter height="300%" id="f1doytq9wkz23f" width="300%" x="-1" y="-1"><feGaussianBlur result="blurOut" stdDeviation="2.0"/><feColorMatrix in="blurOut" result="blurOut2" type="matrix" values="0 0 0 0 0 0 0 0 0 0 0 0 0 0 0 0 0 0 .4 0"/><feOffset dx="4.0" dy="4.0" in="blurOut2" result="blurOut3"/><feBlend in="SourceGraphic" in2="blurOut3" mode="normal"/></filter></defs><g><!--MD5=[46e1d56f07a54c84b36af57a102b2c45]
class InChat--><rect fill="#FEFECE" filter="url(#f1doytq9wkz23f)" height="124.8281" id="InChat" style="stroke: #A80036; stroke-width: 1.5;" width="219" x="6" y="116"/><ellipse cx="91.25" cy="132" fill="#ADD1B2" rx="11" ry="11" style="stroke: #A80036; stroke-width: 1.0;"/><path d="M94.2188,137.6406 Q93.6406,137.9375 93,138.0781 Q92.3594,138.2344 91.6563,138.2344 Q89.1563,138.2344 87.8281,136.5938 Q86.5156,134.9375 86.5156,131.8125 Q86.5156,128.6875 87.8281,127.0313 Q89.1563,125.375 91.6563,125.375 Q92.3594,125.375 93,125.5313 Q93.6563,125.6875 94.2188,125.9844 L94.2188,128.7031 Q93.5938,128.125 93,127.8594 Q92.4063,127.5781 91.7813,127.5781 Q90.4375,127.5781 89.75,128.6563 Q89.0625,129.7188 89.0625,131.8125 Q89.0625,133.9063 89.75,134.9844 Q90.4375,136.0469 91.7813,136.0469 Q92.4063,136.0469 93,135.7813 Q93.5938,135.5 94.2188,134.9219 L94.2188,137.6406 Z "/><text fill="#000000" font-family="sans-serif" font-size="12" lengthAdjust="spacingAndGlyphs" textLength="40" x="111.75" y="136.1543">InChat</text><line style="stroke: #A80036; stroke-width: 1.5;" x1="7" x2="224" y1="148" y2="148"/><line style="stroke: #A80036; stroke-width: 1.5;" x1="7" x2="224" y1="156" y2="156"/><ellipse cx="17" cy="167" fill="#84BE84" rx="3" ry="3" style="stroke: #038048; stroke-width: 1.0;"/><text fill="#000000" font-family="sans-serif" font-size="11" lengthAdjust="spacingAndGlyphs" textLength="125" x="26" y="170.2104">«override» Init() : void</text><ellipse cx="17" cy="179.8047" fill="#84BE84" rx="3" ry="3" style="stroke: #038048; stroke-width: 1.0;"/><text fill="#000000" font-family="sans-serif" font-size="11" lengthAdjust="spacingAndGlyphs" textLength="154" x="26" y="183.0151">«override» OnEnter() : void</text><ellipse cx="17" cy="192.6094" fill="#84BE84" rx="3" ry="3" style="stroke: #038048; stroke-width: 1.0;"/><text fill="#000000" font-family="sans-serif" font-size="11" lengthAdjust="spacingAndGlyphs" textLength="144" x="26" y="195.8198">«override» OnExit() : void</text><ellipse cx="17" cy="205.4141" fill="#84BE84" rx="3" ry="3" style="stroke: #038048; stroke-width: 1.0;"/><text fill="#000000" font-family="sans-serif" font-size="11" lengthAdjust="spacingAndGlyphs" textLength="164" x="26" y="208.6245">«override» OnUpdate() : void</text><ellipse cx="17" cy="218.2188" fill="#84BE84" rx="3" ry="3" style="stroke: #038048; stroke-width: 1.0;"/><text fill="#000000" font-family="sans-serif" font-size="11" lengthAdjust="spacingAndGlyphs" textLength="193" x="26" y="221.4292">«override» OnFixedUpdate() : void</text><ellipse cx="17" cy="231.0234" fill="#84BE84" rx="3" ry="3" style="stroke: #038048; stroke-width: 1.0;"/><text fill="#000000" font-family="sans-serif" font-size="11" lengthAdjust="spacingAndGlyphs" textLength="188" x="26" y="234.2339">«override» OnLateUpdate() : void</text><!--MD5=[d45c04621fec731141dda4390791d612]
class PlayerMovement--><rect fill="#FEFECE" filter="url(#f1doytq9wkz23f)" height="48" id="PlayerMovement" style="stroke: #A80036; stroke-width: 1.5;" width="134" x="48.5" y="8"/><ellipse cx="63.5" cy="24" fill="#ADD1B2" rx="11" ry="11" style="stroke: #A80036; stroke-width: 1.0;"/><path d="M66.4688,29.6406 Q65.8906,29.9375 65.25,30.0781 Q64.6094,30.2344 63.9063,30.2344 Q61.4063,30.2344 60.0781,28.5938 Q58.7656,26.9375 58.7656,23.8125 Q58.7656,20.6875 60.0781,19.0313 Q61.4063,17.375 63.9063,17.375 Q64.6094,17.375 65.25,17.5313 Q65.9063,17.6875 66.4688,17.9844 L66.4688,20.7031 Q65.8438,20.125 65.25,19.8594 Q64.6563,19.5781 64.0313,19.5781 Q62.6875,19.5781 62,20.6563 Q61.3125,21.7188 61.3125,23.8125 Q61.3125,25.9063 62,26.9844 Q62.6875,28.0469 64.0313,28.0469 Q64.6563,28.0469 65.25,27.7813 Q65.8438,27.5 66.4688,26.9219 L66.4688,29.6406 Z "/><text fill="#000000" font-family="sans-serif" font-size="12" lengthAdjust="spacingAndGlyphs" textLength="102" x="77.5" y="28.1543">PlayerMovement</text><line style="stroke: #A80036; stroke-width: 1.5;" x1="49.5" x2="181.5" y1="40" y2="40"/><line style="stroke: #A80036; stroke-width: 1.5;" x1="49.5" x2="181.5" y1="48" y2="48"/><!--MD5=[bacd9c6ef55d8652e3a28c1afa229a34]
reverse link PlayerMovement to InChat--><path d="M115.5,76.67 C115.5,89.05 115.5,102.77 115.5,115.99 " fill="none" id="PlayerMovement&lt;-InChat" style="stroke: #A80036; stroke-width: 1.0;"/><polygon fill="none" points="108.5,76.22,115.5,56.22,122.5,76.22,108.5,76.22" style="stroke: #A80036; stroke-width: 1.0;"/><!--MD5=[9073c844c0cd5aa50d4ef9417faf3313]
@startuml
class InChat {
    + <<override>> Init() : void
    + <<override>> OnEnter() : void
    + <<override>> OnExit() : void
    + <<override>> OnUpdate() : void
    + <<override>> OnFixedUpdate() : void
    + <<override>> OnLateUpdate() : void
}
PlayerMovement <|- - InChat
@enduml

PlantUML version 1.2020.02(Sun Mar 01 10:22:07 GMT 2020)
(GPL source distribution)
Java Runtime: OpenJDK Runtime Environment
JVM: OpenJDK 64-Bit Server VM
Java Version: 11.0.9+11-Ubuntu-0ubuntu1
Operating System: Linux
Default Encoding: ANSI_X3.4-1968
Language: en
Country: US
--></g></svg>