<?xml version="1.0" encoding="UTF-8" standalone="no"?><svg xmlns="http://www.w3.org/2000/svg" xmlns:xlink="http://www.w3.org/1999/xlink" contentScriptType="application/ecmascript" contentStyleType="text/css" height="239px" preserveAspectRatio="none" style="width:236px;height:239px;" version="1.1" viewBox="0 0 236 239" width="236px" zoomAndPan="magnify"><defs><filter height="300%" id="f98fw7npcyrnk" width="300%" x="-1" y="-1"><feGaussianBlur result="blurOut" stdDeviation="2.0"/><feColorMatrix in="blurOut" result="blurOut2" type="matrix" values="0 0 0 0 0 0 0 0 0 0 0 0 0 0 0 0 0 0 .4 0"/><feOffset dx="4.0" dy="4.0" in="blurOut2" result="blurOut3"/><feBlend in="SourceGraphic" in2="blurOut3" mode="normal"/></filter></defs><g><!--MD5=[653a3c54756b44cff655cbbe84dcc123]
class InPause--><rect fill="#FEFECE" filter="url(#f98fw7npcyrnk)" height="112.0234" id="InPause" style="stroke: #A80036; stroke-width: 1.5;" width="219" x="6" y="116"/><ellipse cx="86.25" cy="132" fill="#ADD1B2" rx="11" ry="11" style="stroke: #A80036; stroke-width: 1.0;"/><path d="M89.2188,137.6406 Q88.6406,137.9375 88,138.0781 Q87.3594,138.2344 86.6563,138.2344 Q84.1563,138.2344 82.8281,136.5938 Q81.5156,134.9375 81.5156,131.8125 Q81.5156,128.6875 82.8281,127.0313 Q84.1563,125.375 86.6563,125.375 Q87.3594,125.375 88,125.5313 Q88.6563,125.6875 89.2188,125.9844 L89.2188,128.7031 Q88.5938,128.125 88,127.8594 Q87.4063,127.5781 86.7813,127.5781 Q85.4375,127.5781 84.75,128.6563 Q84.0625,129.7188 84.0625,131.8125 Q84.0625,133.9063 84.75,134.9844 Q85.4375,136.0469 86.7813,136.0469 Q87.4063,136.0469 88,135.7813 Q88.5938,135.5 89.2188,134.9219 L89.2188,137.6406 Z "/><text fill="#000000" font-family="sans-serif" font-size="12" lengthAdjust="spacingAndGlyphs" textLength="50" x="106.75" y="136.1543">InPause</text><line style="stroke: #A80036; stroke-width: 1.5;" x1="7" x2="224" y1="148" y2="148"/><line style="stroke: #A80036; stroke-width: 1.5;" x1="7" x2="224" y1="156" y2="156"/><ellipse cx="17" cy="167" fill="#84BE84" rx="3" ry="3" style="stroke: #038048; stroke-width: 1.0;"/><text fill="#000000" font-family="sans-serif" font-size="11" lengthAdjust="spacingAndGlyphs" textLength="154" x="26" y="170.2104">«override» OnEnter() : void</text><ellipse cx="17" cy="179.8047" fill="#84BE84" rx="3" ry="3" style="stroke: #038048; stroke-width: 1.0;"/><text fill="#000000" font-family="sans-serif" font-size="11" lengthAdjust="spacingAndGlyphs" textLength="144" x="26" y="183.0151">«override» OnExit() : void</text><ellipse cx="17" cy="192.6094" fill="#84BE84" rx="3" ry="3" style="stroke: #038048; stroke-width: 1.0;"/><text fill="#000000" font-family="sans-serif" font-size="11" lengthAdjust="spacingAndGlyphs" textLength="164" x="26" y="195.8198">«override» OnUpdate() : void</text><ellipse cx="17" cy="205.4141" fill="#84BE84" rx="3" ry="3" style="stroke: #038048; stroke-width: 1.0;"/><text fill="#000000" font-family="sans-serif" font-size="11" lengthAdjust="spacingAndGlyphs" textLength="193" x="26" y="208.6245">«override» OnFixedUpdate() : void</text><ellipse cx="17" cy="218.2188" fill="#84BE84" rx="3" ry="3" style="stroke: #038048; stroke-width: 1.0;"/><text fill="#000000" font-family="sans-serif" font-size="11" lengthAdjust="spacingAndGlyphs" textLength="188" x="26" y="221.4292">«override» OnLateUpdate() : void</text><!--MD5=[d45c04621fec731141dda4390791d612]
class PlayerMovement--><rect fill="#FEFECE" filter="url(#f98fw7npcyrnk)" height="48" id="PlayerMovement" style="stroke: #A80036; stroke-width: 1.5;" width="134" x="48.5" y="8"/><ellipse cx="63.5" cy="24" fill="#ADD1B2" rx="11" ry="11" style="stroke: #A80036; stroke-width: 1.0;"/><path d="M66.4688,29.6406 Q65.8906,29.9375 65.25,30.0781 Q64.6094,30.2344 63.9063,30.2344 Q61.4063,30.2344 60.0781,28.5938 Q58.7656,26.9375 58.7656,23.8125 Q58.7656,20.6875 60.0781,19.0313 Q61.4063,17.375 63.9063,17.375 Q64.6094,17.375 65.25,17.5313 Q65.9063,17.6875 66.4688,17.9844 L66.4688,20.7031 Q65.8438,20.125 65.25,19.8594 Q64.6563,19.5781 64.0313,19.5781 Q62.6875,19.5781 62,20.6563 Q61.3125,21.7188 61.3125,23.8125 Q61.3125,25.9063 62,26.9844 Q62.6875,28.0469 64.0313,28.0469 Q64.6563,28.0469 65.25,27.7813 Q65.8438,27.5 66.4688,26.9219 L66.4688,29.6406 Z "/><text fill="#000000" font-family="sans-serif" font-size="12" lengthAdjust="spacingAndGlyphs" textLength="102" x="77.5" y="28.1543">PlayerMovement</text><line style="stroke: #A80036; stroke-width: 1.5;" x1="49.5" x2="181.5" y1="40" y2="40"/><line style="stroke: #A80036; stroke-width: 1.5;" x1="49.5" x2="181.5" y1="48" y2="48"/><!--MD5=[f78e72571e9ae34d337fb5dc74a4ef53]
reverse link PlayerMovement to InPause--><path d="M115.5,76.25 C115.5,88.82 115.5,102.73 115.5,115.93 " fill="none" id="PlayerMovement&lt;-InPause" style="stroke: #A80036; stroke-width: 1.0;"/><polygon fill="none" points="108.5,76.1,115.5,56.1,122.5,76.1,108.5,76.1" style="stroke: #A80036; stroke-width: 1.0;"/><!--MD5=[e3af086a39617ca0bc3262a80faf7e44]
@startuml
class InPause {
    + <<override>> OnEnter() : void
    + <<override>> OnExit() : void
    + <<override>> OnUpdate() : void
    + <<override>> OnFixedUpdate() : void
    + <<override>> OnLateUpdate() : void
}
PlayerMovement <|- - InPause
@enduml

PlantUML version 1.2020.02(Sun Mar 01 10:22:07 GMT 2020)
(GPL source distribution)
Java Runtime: OpenJDK Runtime Environment
JVM: OpenJDK 64-Bit Server VM
Java Version: 11.0.9+11-Ubuntu-0ubuntu1
Operating System: Linux
Default Encoding: ANSI_X3.4-1968
Language: en
Country: US
--></g></svg>