<?xml version="1.0" encoding="UTF-8" standalone="no"?><svg xmlns="http://www.w3.org/2000/svg" xmlns:xlink="http://www.w3.org/1999/xlink" contentScriptType="application/ecmascript" contentStyleType="text/css" height="638px" preserveAspectRatio="none" style="width:708px;height:638px;" version="1.1" viewBox="0 0 708 638" width="708px" zoomAndPan="magnify"><defs><filter height="300%" id="f7fbcrfilzjly" width="300%" x="-1" y="-1"><feGaussianBlur result="blurOut" stdDeviation="2.0"/><feColorMatrix in="blurOut" result="blurOut2" type="matrix" values="0 0 0 0 0 0 0 0 0 0 0 0 0 0 0 0 0 0 .4 0"/><feOffset dx="4.0" dy="4.0" in="blurOut2" result="blurOut3"/><feBlend in="SourceGraphic" in2="blurOut3" mode="normal"/></filter></defs><g><!--MD5=[840e61a8de1edd5c7a7c4404797c4ad2]
class InputHandler--><rect fill="#FEFECE" filter="url(#f7fbcrfilzjly)" height="380.9219" id="InputHandler" style="stroke: #A80036; stroke-width: 1.5;" width="184" x="215.87" y="116"/><ellipse cx="263.12" cy="132" fill="#ADD1B2" rx="11" ry="11" style="stroke: #A80036; stroke-width: 1.0;"/><path d="M266.0888,137.6406 Q265.5106,137.9375 264.87,138.0781 Q264.2294,138.2344 263.5263,138.2344 Q261.0263,138.2344 259.6981,136.5938 Q258.3856,134.9375 258.3856,131.8125 Q258.3856,128.6875 259.6981,127.0313 Q261.0263,125.375 263.5263,125.375 Q264.2294,125.375 264.87,125.5313 Q265.5263,125.6875 266.0888,125.9844 L266.0888,128.7031 Q265.4638,128.125 264.87,127.8594 Q264.2763,127.5781 263.6513,127.5781 Q262.3075,127.5781 261.62,128.6563 Q260.9325,129.7188 260.9325,131.8125 Q260.9325,133.9063 261.62,134.9844 Q262.3075,136.0469 263.6513,136.0469 Q264.2763,136.0469 264.87,135.7813 Q265.4638,135.5 266.0888,134.9219 L266.0888,137.6406 Z "/><text fill="#000000" font-family="sans-serif" font-size="12" lengthAdjust="spacingAndGlyphs" textLength="81" x="283.62" y="136.1543">InputHandler</text><line style="stroke: #A80036; stroke-width: 1.5;" x1="216.87" x2="398.87" y1="148" y2="148"/><ellipse cx="226.87" cy="159" fill="none" rx="3" ry="3" style="stroke: #038048; stroke-width: 1.0;"/><text fill="#000000" font-family="sans-serif" font-size="11" lengthAdjust="spacingAndGlyphs" textLength="91" x="235.87" y="162.2104">vertical : int = 0</text><ellipse cx="226.87" cy="171.8047" fill="none" rx="3" ry="3" style="stroke: #038048; stroke-width: 1.0;"/><text fill="#000000" font-family="sans-serif" font-size="11" lengthAdjust="spacingAndGlyphs" textLength="105" x="235.87" y="175.0151">horizontal : int = 0</text><ellipse cx="226.87" cy="184.6094" fill="none" rx="3" ry="3" style="stroke: #038048; stroke-width: 1.0;"/><text fill="#000000" font-family="sans-serif" font-size="11" lengthAdjust="spacingAndGlyphs" textLength="139" x="235.87" y="187.8198">isPressedForward : bool</text><ellipse cx="226.87" cy="197.4141" fill="none" rx="3" ry="3" style="stroke: #038048; stroke-width: 1.0;"/><text fill="#000000" font-family="sans-serif" font-size="11" lengthAdjust="spacingAndGlyphs" textLength="136" x="235.87" y="200.6245">pressForwardValue : int</text><ellipse cx="226.87" cy="210.2188" fill="none" rx="3" ry="3" style="stroke: #038048; stroke-width: 1.0;"/><text fill="#000000" font-family="sans-serif" font-size="11" lengthAdjust="spacingAndGlyphs" textLength="148" x="235.87" y="213.4292">isPressedBackward : bool</text><ellipse cx="226.87" cy="223.0234" fill="none" rx="3" ry="3" style="stroke: #038048; stroke-width: 1.0;"/><text fill="#000000" font-family="sans-serif" font-size="11" lengthAdjust="spacingAndGlyphs" textLength="145" x="235.87" y="226.2339">pressBackwardValue : int</text><ellipse cx="226.87" cy="235.8281" fill="none" rx="3" ry="3" style="stroke: #038048; stroke-width: 1.0;"/><text fill="#000000" font-family="sans-serif" font-size="11" lengthAdjust="spacingAndGlyphs" textLength="114" x="235.87" y="239.0386">isPressedLeft : bool</text><ellipse cx="226.87" cy="248.6328" fill="none" rx="3" ry="3" style="stroke: #038048; stroke-width: 1.0;"/><text fill="#000000" font-family="sans-serif" font-size="11" lengthAdjust="spacingAndGlyphs" textLength="111" x="235.87" y="251.8433">pressLeftValue : int</text><ellipse cx="226.87" cy="261.4375" fill="none" rx="3" ry="3" style="stroke: #038048; stroke-width: 1.0;"/><text fill="#000000" font-family="sans-serif" font-size="11" lengthAdjust="spacingAndGlyphs" textLength="121" x="235.87" y="264.6479">isPressedRight : bool</text><ellipse cx="226.87" cy="274.2422" fill="none" rx="3" ry="3" style="stroke: #038048; stroke-width: 1.0;"/><text fill="#000000" font-family="sans-serif" font-size="11" lengthAdjust="spacingAndGlyphs" textLength="118" x="235.87" y="277.4526">pressRightValue : int</text><ellipse cx="226.87" cy="287.0469" fill="none" rx="3" ry="3" style="stroke: #038048; stroke-width: 1.0;"/><text fill="#000000" font-family="sans-serif" font-size="11" lengthAdjust="spacingAndGlyphs" textLength="121" x="235.87" y="290.2573">isPressedJump : bool</text><ellipse cx="226.87" cy="299.8516" fill="none" rx="3" ry="3" style="stroke: #038048; stroke-width: 1.0;"/><text fill="#000000" font-family="sans-serif" font-size="11" lengthAdjust="spacingAndGlyphs" textLength="118" x="235.87" y="303.062">pressJumpValue : int</text><ellipse cx="226.87" cy="312.6563" fill="none" rx="3" ry="3" style="stroke: #038048; stroke-width: 1.0;"/><text fill="#000000" font-family="sans-serif" font-size="11" lengthAdjust="spacingAndGlyphs" textLength="133" x="235.87" y="315.8667">isPressedAnyKey : bool</text><ellipse cx="226.87" cy="325.4609" fill="none" rx="3" ry="3" style="stroke: #038048; stroke-width: 1.0;"/><text fill="#000000" font-family="sans-serif" font-size="11" lengthAdjust="spacingAndGlyphs" textLength="130" x="235.87" y="328.6714">pressAnyKeyValue : int</text><ellipse cx="226.87" cy="338.2656" fill="none" rx="3" ry="3" style="stroke: #038048; stroke-width: 1.0;"/><text fill="#000000" font-family="sans-serif" font-size="11" lengthAdjust="spacingAndGlyphs" textLength="151" x="235.87" y="341.4761">isPressedMouseLeft : bool</text><ellipse cx="226.87" cy="351.0703" fill="none" rx="3" ry="3" style="stroke: #038048; stroke-width: 1.0;"/><text fill="#000000" font-family="sans-serif" font-size="11" lengthAdjust="spacingAndGlyphs" textLength="148" x="235.87" y="354.2808">pressMouseLeftValue : int</text><ellipse cx="226.87" cy="363.875" fill="none" rx="3" ry="3" style="stroke: #038048; stroke-width: 1.0;"/><text fill="#000000" font-family="sans-serif" font-size="11" lengthAdjust="spacingAndGlyphs" textLength="158" x="235.87" y="367.0854">isPressedMouseRight : bool</text><ellipse cx="226.87" cy="376.6797" fill="none" rx="3" ry="3" style="stroke: #038048; stroke-width: 1.0;"/><text fill="#000000" font-family="sans-serif" font-size="11" lengthAdjust="spacingAndGlyphs" textLength="155" x="235.87" y="379.8901">pressMouseRightValue : int</text><ellipse cx="226.87" cy="389.4844" fill="none" rx="3" ry="3" style="stroke: #038048; stroke-width: 1.0;"/><text fill="#000000" font-family="sans-serif" font-size="11" lengthAdjust="spacingAndGlyphs" textLength="149" x="235.87" y="392.6948">isPressedOpenChat : bool</text><ellipse cx="226.87" cy="402.2891" fill="none" rx="3" ry="3" style="stroke: #038048; stroke-width: 1.0;"/><text fill="#000000" font-family="sans-serif" font-size="11" lengthAdjust="spacingAndGlyphs" textLength="146" x="235.87" y="405.4995">pressOpenChatValue : int</text><ellipse cx="226.87" cy="415.0938" fill="none" rx="3" ry="3" style="stroke: #038048; stroke-width: 1.0;"/><text fill="#000000" font-family="sans-serif" font-size="11" lengthAdjust="spacingAndGlyphs" textLength="134" x="235.87" y="418.3042">isPressedEscape : bool</text><ellipse cx="226.87" cy="427.8984" fill="none" rx="3" ry="3" style="stroke: #038048; stroke-width: 1.0;"/><text fill="#000000" font-family="sans-serif" font-size="11" lengthAdjust="spacingAndGlyphs" textLength="131" x="235.87" y="431.1089">pressEscapeValue : int</text><ellipse cx="226.87" cy="440.7031" fill="none" rx="3" ry="3" style="stroke: #038048; stroke-width: 1.0;"/><text fill="#000000" font-family="sans-serif" font-size="11" lengthAdjust="spacingAndGlyphs" textLength="136" x="235.87" y="443.9136">isPressedInteract : bool</text><ellipse cx="226.87" cy="453.5078" fill="none" rx="3" ry="3" style="stroke: #038048; stroke-width: 1.0;"/><text fill="#000000" font-family="sans-serif" font-size="11" lengthAdjust="spacingAndGlyphs" textLength="133" x="235.87" y="456.7183">pressInteractValue : int</text><ellipse cx="226.87" cy="466.3125" fill="none" rx="3" ry="3" style="stroke: #038048; stroke-width: 1.0;"/><text fill="#000000" font-family="sans-serif" font-size="11" lengthAdjust="spacingAndGlyphs" textLength="127" x="235.87" y="469.5229">isPressedSprint : bool</text><ellipse cx="226.87" cy="479.1172" fill="none" rx="3" ry="3" style="stroke: #038048; stroke-width: 1.0;"/><text fill="#000000" font-family="sans-serif" font-size="11" lengthAdjust="spacingAndGlyphs" textLength="124" x="235.87" y="482.3276">pressSprintValue : int</text><line style="stroke: #A80036; stroke-width: 1.5;" x1="216.87" x2="398.87" y1="488.9219" y2="488.9219"/><!--MD5=[83b3cf3d23d77c6f1e1b5291a241bc2a]
class MonoBehaviour--><rect fill="#FEFECE" filter="url(#f7fbcrfilzjly)" height="48" id="MonoBehaviour" style="stroke: #A80036; stroke-width: 1.5;" width="128" x="243.87" y="8"/><ellipse cx="258.87" cy="24" fill="#ADD1B2" rx="11" ry="11" style="stroke: #A80036; stroke-width: 1.0;"/><path d="M261.8388,29.6406 Q261.2606,29.9375 260.62,30.0781 Q259.9794,30.2344 259.2763,30.2344 Q256.7763,30.2344 255.4481,28.5938 Q254.1356,26.9375 254.1356,23.8125 Q254.1356,20.6875 255.4481,19.0313 Q256.7763,17.375 259.2763,17.375 Q259.9794,17.375 260.62,17.5313 Q261.2763,17.6875 261.8388,17.9844 L261.8388,20.7031 Q261.2138,20.125 260.62,19.8594 Q260.0263,19.5781 259.4013,19.5781 Q258.0575,19.5781 257.37,20.6563 Q256.6825,21.7188 256.6825,23.8125 Q256.6825,25.9063 257.37,26.9844 Q258.0575,28.0469 259.4013,28.0469 Q260.0263,28.0469 260.62,27.7813 Q261.2138,27.5 261.8388,26.9219 L261.8388,29.6406 Z "/><text fill="#000000" font-family="sans-serif" font-size="12" lengthAdjust="spacingAndGlyphs" textLength="96" x="272.87" y="28.1543">MonoBehaviour</text><line style="stroke: #A80036; stroke-width: 1.5;" x1="244.87" x2="370.87" y1="40" y2="40"/><line style="stroke: #A80036; stroke-width: 1.5;" x1="244.87" x2="370.87" y1="48" y2="48"/><!--MD5=[f8e7078f77c005d15b486c0c98deb1e6]
class Action--><rect fill="#FEFECE" filter="url(#f7fbcrfilzjly)" height="48" id="Action" style="stroke: #A80036; stroke-width: 1.5;" width="71" x="272.37" y="557"/><ellipse cx="287.37" cy="573" fill="#ADD1B2" rx="11" ry="11" style="stroke: #A80036; stroke-width: 1.0;"/><path d="M290.3388,578.6406 Q289.7606,578.9375 289.12,579.0781 Q288.4794,579.2344 287.7763,579.2344 Q285.2763,579.2344 283.9481,577.5938 Q282.6356,575.9375 282.6356,572.8125 Q282.6356,569.6875 283.9481,568.0313 Q285.2763,566.375 287.7763,566.375 Q288.4794,566.375 289.12,566.5313 Q289.7763,566.6875 290.3388,566.9844 L290.3388,569.7031 Q289.7138,569.125 289.12,568.8594 Q288.5263,568.5781 287.9013,568.5781 Q286.5575,568.5781 285.87,569.6563 Q285.1825,570.7188 285.1825,572.8125 Q285.1825,574.9063 285.87,575.9844 Q286.5575,577.0469 287.9013,577.0469 Q288.5263,577.0469 289.12,576.7813 Q289.7138,576.5 290.3388,575.9219 L290.3388,578.6406 Z "/><text fill="#000000" font-family="sans-serif" font-size="12" lengthAdjust="spacingAndGlyphs" textLength="39" x="301.37" y="577.1543">Action</text><line style="stroke: #A80036; stroke-width: 1.5;" x1="273.37" x2="342.37" y1="589" y2="589"/><line style="stroke: #A80036; stroke-width: 1.5;" x1="273.37" x2="342.37" y1="597" y2="597"/><!--MD5=[3f551f1273bbfa514d2f681c1c48b5c1]
class Vector2--><rect fill="#FEFECE" filter="url(#f7fbcrfilzjly)" height="48" id="Vector2" style="stroke: #A80036; stroke-width: 1.5;" width="81" x="378.37" y="557"/><ellipse cx="393.37" cy="573" fill="#ADD1B2" rx="11" ry="11" style="stroke: #A80036; stroke-width: 1.0;"/><path d="M396.3388,578.6406 Q395.7606,578.9375 395.12,579.0781 Q394.4794,579.2344 393.7763,579.2344 Q391.2763,579.2344 389.9481,577.5938 Q388.6356,575.9375 388.6356,572.8125 Q388.6356,569.6875 389.9481,568.0313 Q391.2763,566.375 393.7763,566.375 Q394.4794,566.375 395.12,566.5313 Q395.7763,566.6875 396.3388,566.9844 L396.3388,569.7031 Q395.7138,569.125 395.12,568.8594 Q394.5263,568.5781 393.9013,568.5781 Q392.5575,568.5781 391.87,569.6563 Q391.1825,570.7188 391.1825,572.8125 Q391.1825,574.9063 391.87,575.9844 Q392.5575,577.0469 393.9013,577.0469 Q394.5263,577.0469 395.12,576.7813 Q395.7138,576.5 396.3388,575.9219 L396.3388,578.6406 Z "/><text fill="#000000" font-family="sans-serif" font-size="12" lengthAdjust="spacingAndGlyphs" textLength="49" x="407.37" y="577.1543">Vector2</text><line style="stroke: #A80036; stroke-width: 1.5;" x1="379.37" x2="458.37" y1="589" y2="589"/><line style="stroke: #A80036; stroke-width: 1.5;" x1="379.37" x2="458.37" y1="597" y2="597"/><!--MD5=[e19dd47c1b667a8bcbde899fceeb50cd]
reverse link MonoBehaviour to InputHandler--><path d="M307.87,76.38 C307.87,88.08 307.87,101.53 307.87,115.92 " fill="none" id="MonoBehaviour&lt;-InputHandler" style="stroke: #A80036; stroke-width: 1.0;"/><polygon fill="none" points="300.87,76.23,307.87,56.23,314.87,76.23,300.87,76.23" style="stroke: #A80036; stroke-width: 1.0;"/><!--MD5=[fbf7291723d322ef13518881b5132a03]
link InputHandler to Action--><path d="M215.58,312.88 C-79.55,349.64 -62.43,562.7 266.92,579.01 " fill="none" id="InputHandler-&gt;Action" style="stroke: #A80036; stroke-width: 1.0;"/><polygon fill="#A80036" points="272.28,579.26,263.4721,574.8532,267.2852,579.0317,263.1067,582.8448,272.28,579.26" style="stroke: #A80036; stroke-width: 1.0;"/><text fill="#000000" font-family="sans-serif" font-size="13" lengthAdjust="spacingAndGlyphs" textLength="112" x="152.409" y="591.8276">pressForwardFirst</text><!--MD5=[fbf7291723d322ef13518881b5132a03]
link InputHandler to Action--><path d="M215.64,314.03 C-44.4,353.7 -27.34,561.14 266.8,578.8 " fill="none" id="InputHandler-&gt;Action-1" style="stroke: #A80036; stroke-width: 1.0;"/><polygon fill="#A80036" points="272.03,579.09,263.2608,574.6067,267.0374,578.8182,262.8259,582.5948,272.03,579.09" style="stroke: #A80036; stroke-width: 1.0;"/><text fill="#000000" font-family="sans-serif" font-size="13" lengthAdjust="spacingAndGlyphs" textLength="112" x="152.4245" y="575.3831">pressForwardLast</text><!--MD5=[fbf7291723d322ef13518881b5132a03]
link InputHandler to Action--><path d="M215.82,315.58 C-9.36,358.61 7.76,559.53 267.17,578.55 " fill="none" id="InputHandler-&gt;Action-2" style="stroke: #A80036; stroke-width: 1.0;"/><polygon fill="#A80036" points="272.17,578.9,263.4656,574.292,267.1818,578.557,262.9168,582.2731,272.17,578.9" style="stroke: #A80036; stroke-width: 1.0;"/><text fill="#000000" font-family="sans-serif" font-size="13" lengthAdjust="spacingAndGlyphs" textLength="123" x="350.7074" y="545.9845">pressBackwardFirst</text><!--MD5=[fbf7291723d322ef13518881b5132a03]
link InputHandler to Action--><path d="M215.69,317.85 C25.85,364.92 43.01,557.4 267.17,578.18 " fill="none" id="InputHandler-&gt;Action-3" style="stroke: #A80036; stroke-width: 1.0;"/><polygon fill="#A80036" points="272.17,578.61,263.5468,573.8518,267.1885,578.1806,262.8597,581.8222,272.17,578.61" style="stroke: #A80036; stroke-width: 1.0;"/><text fill="#000000" font-family="sans-serif" font-size="13" lengthAdjust="spacingAndGlyphs" textLength="123" x="345.1638" y="624.8088">pressBackwardLast</text><!--MD5=[fbf7291723d322ef13518881b5132a03]
link InputHandler to Action--><path d="M215.66,321.2 C61.17,372.95 78.32,554.76 267.11,577.63 " fill="none" id="InputHandler-&gt;Action-4" style="stroke: #A80036; stroke-width: 1.0;"/><polygon fill="#A80036" points="272.17,578.2,263.6715,573.2225,267.2011,577.6431,262.7805,581.1728,272.17,578.2" style="stroke: #A80036; stroke-width: 1.0;"/><text fill="#000000" font-family="sans-serif" font-size="13" lengthAdjust="spacingAndGlyphs" textLength="86" x="178.423" y="574.2595">pressLeftFirst</text><!--MD5=[fbf7291723d322ef13518881b5132a03]
link InputHandler to Action--><path d="M215.82,326.45 C96.62,383.52 113.69,551.45 267,576.78 " fill="none" id="InputHandler-&gt;Action-5" style="stroke: #A80036; stroke-width: 1.0;"/><polygon fill="#A80036" points="272.04,577.56,263.7494,572.2434,267.0976,576.8029,262.5381,580.1512,272.04,577.56" style="stroke: #A80036; stroke-width: 1.0;"/><text fill="#000000" font-family="sans-serif" font-size="13" lengthAdjust="spacingAndGlyphs" textLength="86" x="178.2802" y="590.0331">pressLeftLast</text><!--MD5=[fbf7291723d322ef13518881b5132a03]
link InputHandler to Action--><path d="M215.64,335.89 C132.36,399.02 149.55,547.64 267.21,575.47 " fill="none" id="InputHandler-&gt;Action-6" style="stroke: #A80036; stroke-width: 1.0;"/><polygon fill="#A80036" points="272.16,576.56,264.2257,570.725,267.2761,575.489,262.5121,578.5393,272.16,576.56" style="stroke: #A80036; stroke-width: 1.0;"/><text fill="#000000" font-family="sans-serif" font-size="13" lengthAdjust="spacingAndGlyphs" textLength="94" x="170.2767" y="572.4952">pressRightFirst</text><!--MD5=[fbf7291723d322ef13518881b5132a03]
link InputHandler to Action--><path d="M215.77,355.28 C168.99,423.3 186.18,543.15 267.34,573.08 " fill="none" id="InputHandler-&gt;Action-7" style="stroke: #A80036; stroke-width: 1.0;"/><polygon fill="#A80036" points="272.27,574.76,265.045,568.0668,267.5381,573.1446,262.4603,575.6378,272.27,574.76" style="stroke: #A80036; stroke-width: 1.0;"/><text fill="#000000" font-family="sans-serif" font-size="13" lengthAdjust="spacingAndGlyphs" textLength="94" x="292.256" y="545.9827">pressRightLast</text><!--MD5=[fbf7291723d322ef13518881b5132a03]
link InputHandler to Action--><path d="M222.92,497.13 C230.75,527.5 245.62,553.66 267.52,568.08 " fill="none" id="InputHandler-&gt;Action-8" style="stroke: #A80036; stroke-width: 1.0;"/><polygon fill="#A80036" points="271.99,570.81,266.382,562.7137,267.719,568.2103,262.2224,569.5473,271.99,570.81" style="stroke: #A80036; stroke-width: 1.0;"/><text fill="#000000" font-family="sans-serif" font-size="13" lengthAdjust="spacingAndGlyphs" textLength="94" x="170.3495" y="566.2522">pressJumpFirst</text><!--MD5=[fbf7291723d322ef13518881b5132a03]
link InputHandler to Action--><path d="M247.29,497.13 C251.61,520.62 258.93,541.59 269.25,556.56 " fill="none" id="InputHandler-&gt;Action-9" style="stroke: #A80036; stroke-width: 1.0;"/><polygon fill="#A80036" points="272.24,560.62,270.1389,550.9979,269.2813,556.5893,263.6899,555.7318,272.24,560.62" style="stroke: #A80036; stroke-width: 1.0;"/><text fill="#000000" font-family="sans-serif" font-size="13" lengthAdjust="spacingAndGlyphs" textLength="94" x="276.4851" y="546.0296">pressJumpLast</text><!--MD5=[fbf7291723d322ef13518881b5132a03]
link InputHandler to Action--><path d="M271.66,497.13 C274,518.43 277.82,537.66 283.11,552.22 " fill="none" id="InputHandler-&gt;Action-10" style="stroke: #A80036; stroke-width: 1.0;"/><polygon fill="#A80036" points="284.96,556.98,285.4304,547.1424,283.1498,552.3192,277.973,550.0386,284.96,556.98" style="stroke: #A80036; stroke-width: 1.0;"/><text fill="#000000" font-family="sans-serif" font-size="13" lengthAdjust="spacingAndGlyphs" textLength="109" x="156.1237" y="545.9869">pressAnyKeyFirst</text><!--MD5=[fbf7291723d322ef13518881b5132a03]
link InputHandler to Action--><path d="M296.03,497.13 C296.79,518.24 298.02,537.32 299.73,551.84 " fill="none" id="InputHandler-&gt;Action-11" style="stroke: #A80036; stroke-width: 1.0;"/><polygon fill="#A80036" points="300.38,556.98,303.2195,547.5493,299.7528,552.0195,295.2827,548.5528,300.38,556.98" style="stroke: #A80036; stroke-width: 1.0;"/><text fill="#000000" font-family="sans-serif" font-size="13" lengthAdjust="spacingAndGlyphs" textLength="109" x="312.3452" y="545.9252">pressAnyKeyLast</text><!--MD5=[fbf7291723d322ef13518881b5132a03]
link InputHandler to Action--><path d="M320.4,497.13 C319.6,518.24 318.29,537.32 316.48,551.84 " fill="none" id="InputHandler-&gt;Action-12" style="stroke: #A80036; stroke-width: 1.0;"/><polygon fill="#A80036" points="315.8,556.98,320.9512,548.5857,316.4589,552.0236,313.021,547.5313,315.8,556.98" style="stroke: #A80036; stroke-width: 1.0;"/><text fill="#000000" font-family="sans-serif" font-size="13" lengthAdjust="spacingAndGlyphs" textLength="128" x="334.1998" y="545.9252">pressMouseLeftFirst</text><!--MD5=[fbf7291723d322ef13518881b5132a03]
link InputHandler to Action--><path d="M344.77,497.13 C342.38,518.43 338.49,537.66 333.1,552.22 " fill="none" id="InputHandler-&gt;Action-13" style="stroke: #A80036; stroke-width: 1.0;"/><polygon fill="#A80036" points="331.21,556.98,338.2482,550.0906,333.0546,552.3327,330.8125,547.1392,331.21,556.98" style="stroke: #A80036; stroke-width: 1.0;"/><text fill="#000000" font-family="sans-serif" font-size="13" lengthAdjust="spacingAndGlyphs" textLength="128" x="348.0313" y="545.49">pressMouseLeftLast</text><!--MD5=[fbf7291723d322ef13518881b5132a03]
link InputHandler to Action--><path d="M369.14,497.13 C364.71,520.95 357.15,542.18 346.48,557.19 " fill="none" id="InputHandler-&gt;Action-14" style="stroke: #A80036; stroke-width: 1.0;"/><polygon fill="#A80036" points="343.39,561.26,352.02,556.5141,346.4151,557.2789,345.6502,551.674,343.39,561.26" style="stroke: #A80036; stroke-width: 1.0;"/><text fill="#000000" font-family="sans-serif" font-size="13" lengthAdjust="spacingAndGlyphs" textLength="136" x="352.2295" y="545.5283">pressMouseRightFirst</text><!--MD5=[fbf7291723d322ef13518881b5132a03]
link InputHandler to Action--><path d="M399.88,433.38 C402.38,487.79 385.17,544.41 348.24,568.28 " fill="none" id="InputHandler-&gt;Action-15" style="stroke: #A80036; stroke-width: 1.0;"/><polygon fill="#A80036" points="343.64,571.03,353.4172,569.8439,347.9312,568.4638,349.3113,562.9779,343.64,571.03" style="stroke: #A80036; stroke-width: 1.0;"/><text fill="#000000" font-family="sans-serif" font-size="13" lengthAdjust="spacingAndGlyphs" textLength="136" x="356.7291" y="546.7989">pressMouseRightLast</text><!--MD5=[fbf7291723d322ef13518881b5132a03]
link InputHandler to Action--><path d="M399.89,354.34 C447.81,422.23 430.68,543.13 348.52,573.12 " fill="none" id="InputHandler-&gt;Action-16" style="stroke: #A80036; stroke-width: 1.0;"/><polygon fill="#A80036" points="343.54,574.81,353.3464,575.7233,348.2777,573.2117,350.7892,568.143,343.54,574.81" style="stroke: #A80036; stroke-width: 1.0;"/><text fill="#000000" font-family="sans-serif" font-size="13" lengthAdjust="spacingAndGlyphs" textLength="126" x="245.976" y="622.0583">pressOpenChatFirst</text><!--MD5=[fbf7291723d322ef13518881b5132a03]
link InputHandler to Action--><path d="M399.89,335.38 C484.45,398.26 467.3,547.81 348.44,575.54 " fill="none" id="InputHandler-&gt;Action-17" style="stroke: #A80036; stroke-width: 1.0;"/><polygon fill="#A80036" points="343.44,576.62,353.0824,578.6262,348.3269,575.5626,351.3905,570.8071,343.44,576.62" style="stroke: #A80036; stroke-width: 1.0;"/><text fill="#000000" font-family="sans-serif" font-size="13" lengthAdjust="spacingAndGlyphs" textLength="126" x="302.7976" y="625.4082">pressOpenChatLast</text><!--MD5=[fbf7291723d322ef13518881b5132a03]
link InputHandler to Action--><path d="M399.87,326.23 C520.2,383.15 503.06,551.73 348.47,576.85 " fill="none" id="InputHandler-&gt;Action-18" style="stroke: #A80036; stroke-width: 1.0;"/><polygon fill="#A80036" points="343.39,577.62,352.8845,580.238,348.3345,576.8769,351.6956,572.3268,343.39,577.62" style="stroke: #A80036; stroke-width: 1.0;"/><text fill="#000000" font-family="sans-serif" font-size="13" lengthAdjust="spacingAndGlyphs" textLength="108" x="262.2158" y="620.1508">pressEscapeFirst</text><!--MD5=[fbf7291723d322ef13518881b5132a03]
link InputHandler to Action--><path d="M399.87,321.01 C555.62,372.53 538.51,554.89 348.53,577.66 " fill="none" id="InputHandler-&gt;Action-19" style="stroke: #A80036; stroke-width: 1.0;"/><polygon fill="#A80036" points="343.43,578.23,352.8195,581.2028,348.3989,577.6731,351.9285,573.2525,343.43,578.23" style="stroke: #A80036; stroke-width: 1.0;"/><text fill="#000000" font-family="sans-serif" font-size="13" lengthAdjust="spacingAndGlyphs" textLength="108" x="156.138" y="610.9214">pressEscapeLast</text><!--MD5=[fbf7291723d322ef13518881b5132a03]
link InputHandler to Action--><path d="M400.02,317.77 C590.84,364.69 573.74,557.37 348.72,578.18 " fill="none" id="InputHandler-&gt;Action-20" style="stroke: #A80036; stroke-width: 1.0;"/><polygon fill="#A80036" points="343.7,578.61,353.0103,581.8222,348.6815,578.1806,352.3232,573.8518,343.7,578.61" style="stroke: #A80036; stroke-width: 1.0;"/><text fill="#000000" font-family="sans-serif" font-size="13" lengthAdjust="spacingAndGlyphs" textLength="111" x="152.053" y="611.9002">pressInteractFirst</text><!--MD5=[fbf7291723d322ef13518881b5132a03]
link InputHandler to Action--><path d="M400.19,315.58 C626.05,358.61 608.88,559.53 348.69,578.55 " fill="none" id="InputHandler-&gt;Action-21" style="stroke: #A80036; stroke-width: 1.0;"/><polygon fill="#A80036" points="343.67,578.9,352.9232,582.2731,348.6582,578.557,352.3744,574.292,343.67,578.9" style="stroke: #A80036; stroke-width: 1.0;"/><text fill="#000000" font-family="sans-serif" font-size="13" lengthAdjust="spacingAndGlyphs" textLength="111" x="170.615" y="545.9361">pressInteractLast</text><!--MD5=[fbf7291723d322ef13518881b5132a03]
link InputHandler to Action--><path d="M399.91,313.97 C661.1,353.47 644.15,561.12 349.07,578.8 " fill="none" id="InputHandler-&gt;Action-22" style="stroke: #A80036; stroke-width: 1.0;"/><polygon fill="#A80036" points="343.82,579.09,353.0341,582.5685,348.8118,578.8039,352.5764,574.5816,343.82,579.09" style="stroke: #A80036; stroke-width: 1.0;"/><text fill="#000000" font-family="sans-serif" font-size="13" lengthAdjust="spacingAndGlyphs" textLength="100" x="163.735" y="623.3984">pressSprintFirst</text><!--MD5=[fbf7291723d322ef13518881b5132a03]
link InputHandler to Action--><path d="M399.89,312.82 C696.26,349.4 679.27,562.69 348.93,579.01 " fill="none" id="InputHandler-&gt;Action-23" style="stroke: #A80036; stroke-width: 1.0;"/><polygon fill="#A80036" points="343.56,579.26,352.7333,582.8448,348.5548,579.0317,352.3679,574.8532,343.56,579.26" style="stroke: #A80036; stroke-width: 1.0;"/><text fill="#000000" font-family="sans-serif" font-size="13" lengthAdjust="spacingAndGlyphs" textLength="100" x="269.6304" y="621.7726">pressSprintLast</text><!--MD5=[7bef81005127ce8dc2ebf2e8f66bab8b]
link InputHandler to Vector2--><path d="M385.11,497.13 C393.79,518.43 401.62,537.66 407.55,552.22 " fill="none" id="InputHandler-&gt;Vector2" style="stroke: #A80036; stroke-width: 1.0;"/><polygon fill="#A80036" points="409.49,556.98,409.7987,547.136,407.6035,552.3495,402.39,550.1544,409.49,556.98" style="stroke: #A80036; stroke-width: 1.0;"/><text fill="#000000" font-family="sans-serif" font-size="13" lengthAdjust="spacingAndGlyphs" textLength="78" x="417.0801" y="545.9869">mouseDelta</text><!--MD5=[2dcf081313e4d8d69d7429aa7783424c]
@startuml
class InputHandler {
    + vertical : int = 0
    + horizontal : int = 0
    + isPressedForward : bool
    + pressForwardValue : int
    + isPressedBackward : bool
    + pressBackwardValue : int
    + isPressedLeft : bool
    + pressLeftValue : int
    + isPressedRight : bool
    + pressRightValue : int
    + isPressedJump : bool
    + pressJumpValue : int
    + isPressedAnyKey : bool
    + pressAnyKeyValue : int
    + isPressedMouseLeft : bool
    + pressMouseLeftValue : int
    + isPressedMouseRight : bool
    + pressMouseRightValue : int
    + isPressedOpenChat : bool
    + pressOpenChatValue : int
    + isPressedEscape : bool
    + pressEscapeValue : int
    + isPressedInteract : bool
    + pressInteractValue : int
    + isPressedSprint : bool
    + pressSprintValue : int
}
MonoBehaviour <|- - InputHandler
InputHandler - -> "pressForwardFirst" Action
InputHandler - -> "pressForwardLast" Action
InputHandler - -> "pressBackwardFirst" Action
InputHandler - -> "pressBackwardLast" Action
InputHandler - -> "pressLeftFirst" Action
InputHandler - -> "pressLeftLast" Action
InputHandler - -> "pressRightFirst" Action
InputHandler - -> "pressRightLast" Action
InputHandler - -> "pressJumpFirst" Action
InputHandler - -> "pressJumpLast" Action
InputHandler - -> "pressAnyKeyFirst" Action
InputHandler - -> "pressAnyKeyLast" Action
InputHandler - -> "pressMouseLeftFirst" Action
InputHandler - -> "pressMouseLeftLast" Action
InputHandler - -> "pressMouseRightFirst" Action
InputHandler - -> "pressMouseRightLast" Action
InputHandler - -> "pressOpenChatFirst" Action
InputHandler - -> "pressOpenChatLast" Action
InputHandler - -> "pressEscapeFirst" Action
InputHandler - -> "pressEscapeLast" Action
InputHandler - -> "pressInteractFirst" Action
InputHandler - -> "pressInteractLast" Action
InputHandler - -> "pressSprintFirst" Action
InputHandler - -> "pressSprintLast" Action
InputHandler - -> "mouseDelta" Vector2
@enduml

PlantUML version 1.2020.02(Sun Mar 01 10:22:07 GMT 2020)
(GPL source distribution)
Java Runtime: OpenJDK Runtime Environment
JVM: OpenJDK 64-Bit Server VM
Java Version: 11.0.9+11-Ubuntu-0ubuntu1
Operating System: Linux
Default Encoding: ANSI_X3.4-1968
Language: en
Country: US
--></g></svg>