<?xml version="1.0" encoding="UTF-8" standalone="no"?><svg xmlns="http://www.w3.org/2000/svg" xmlns:xlink="http://www.w3.org/1999/xlink" contentScriptType="application/ecmascript" contentStyleType="text/css" height="187px" preserveAspectRatio="none" style="width:187px;height:187px;" version="1.1" viewBox="0 0 187 187" width="187px" zoomAndPan="magnify"><defs><filter height="300%" id="f1n1elyois7vn7" width="300%" x="-1" y="-1"><feGaussianBlur result="blurOut" stdDeviation="2.0"/><feColorMatrix in="blurOut" result="blurOut2" type="matrix" values="0 0 0 0 0 0 0 0 0 0 0 0 0 0 0 0 0 0 .4 0"/><feOffset dx="4.0" dy="4.0" in="blurOut2" result="blurOut3"/><feBlend in="SourceGraphic" in2="blurOut3" mode="normal"/></filter></defs><g><!--MD5=[d405a5b8f0ad3c62e8ad6c79d8bfff84]
class NameTag--><rect fill="#FEFECE" filter="url(#f1n1elyois7vn7)" height="60.8047" id="NameTag" style="stroke: #A80036; stroke-width: 1.5;" width="170" x="6" y="116"/><ellipse cx="57.25" cy="132" fill="#ADD1B2" rx="11" ry="11" style="stroke: #A80036; stroke-width: 1.0;"/><path d="M60.2188,137.6406 Q59.6406,137.9375 59,138.0781 Q58.3594,138.2344 57.6563,138.2344 Q55.1563,138.2344 53.8281,136.5938 Q52.5156,134.9375 52.5156,131.8125 Q52.5156,128.6875 53.8281,127.0313 Q55.1563,125.375 57.6563,125.375 Q58.3594,125.375 59,125.5313 Q59.6563,125.6875 60.2188,125.9844 L60.2188,128.7031 Q59.5938,128.125 59,127.8594 Q58.4063,127.5781 57.7813,127.5781 Q56.4375,127.5781 55.75,128.6563 Q55.0625,129.7188 55.0625,131.8125 Q55.0625,133.9063 55.75,134.9844 Q56.4375,136.0469 57.7813,136.0469 Q58.4063,136.0469 59,135.7813 Q59.5938,135.5 60.2188,134.9219 L60.2188,137.6406 Z "/><text fill="#000000" font-family="sans-serif" font-size="12" lengthAdjust="spacingAndGlyphs" textLength="59" x="77.75" y="136.1543">NameTag</text><line style="stroke: #A80036; stroke-width: 1.5;" x1="7" x2="175" y1="148" y2="148"/><line style="stroke: #A80036; stroke-width: 1.5;" x1="7" x2="175" y1="156" y2="156"/><ellipse cx="17" cy="167" fill="#84BE84" rx="3" ry="3" style="stroke: #038048; stroke-width: 1.0;"/><text fill="#000000" font-family="sans-serif" font-size="11" lengthAdjust="spacingAndGlyphs" textLength="144" x="26" y="170.2104">SetText(text:string) : void</text><!--MD5=[83b3cf3d23d77c6f1e1b5291a241bc2a]
class MonoBehaviour--><rect fill="#FEFECE" filter="url(#f1n1elyois7vn7)" height="48" id="MonoBehaviour" style="stroke: #A80036; stroke-width: 1.5;" width="128" x="27" y="8"/><ellipse cx="42" cy="24" fill="#ADD1B2" rx="11" ry="11" style="stroke: #A80036; stroke-width: 1.0;"/><path d="M44.9688,29.6406 Q44.3906,29.9375 43.75,30.0781 Q43.1094,30.2344 42.4063,30.2344 Q39.9063,30.2344 38.5781,28.5938 Q37.2656,26.9375 37.2656,23.8125 Q37.2656,20.6875 38.5781,19.0313 Q39.9063,17.375 42.4063,17.375 Q43.1094,17.375 43.75,17.5313 Q44.4063,17.6875 44.9688,17.9844 L44.9688,20.7031 Q44.3438,20.125 43.75,19.8594 Q43.1563,19.5781 42.5313,19.5781 Q41.1875,19.5781 40.5,20.6563 Q39.8125,21.7188 39.8125,23.8125 Q39.8125,25.9063 40.5,26.9844 Q41.1875,28.0469 42.5313,28.0469 Q43.1563,28.0469 43.75,27.7813 Q44.3438,27.5 44.9688,26.9219 L44.9688,29.6406 Z "/><text fill="#000000" font-family="sans-serif" font-size="12" lengthAdjust="spacingAndGlyphs" textLength="96" x="56" y="28.1543">MonoBehaviour</text><line style="stroke: #A80036; stroke-width: 1.5;" x1="28" x2="154" y1="40" y2="40"/><line style="stroke: #A80036; stroke-width: 1.5;" x1="28" x2="154" y1="48" y2="48"/><!--MD5=[b7c36d456015fb0089ddf132137235ef]
reverse link MonoBehaviour to NameTag--><path d="M91,76.11 C91,89.31 91,103.54 91,115.65 " fill="none" id="MonoBehaviour&lt;-NameTag" style="stroke: #A80036; stroke-width: 1.0;"/><polygon fill="none" points="84,76.04,91,56.04,98,76.04,84,76.04" style="stroke: #A80036; stroke-width: 1.0;"/><!--MD5=[e0081399949922390909858dcd652da3]
@startuml
class NameTag {
    + SetText(text:string) : void
}
MonoBehaviour <|- - NameTag
@enduml

PlantUML version 1.2020.02(Sun Mar 01 10:22:07 GMT 2020)
(GPL source distribution)
Java Runtime: OpenJDK Runtime Environment
JVM: OpenJDK 64-Bit Server VM
Java Version: 11.0.9+11-Ubuntu-0ubuntu1
Operating System: Linux
Default Encoding: ANSI_X3.4-1968
Language: en
Country: US
--></g></svg>