<?xml version="1.0" encoding="UTF-8" standalone="no"?><svg xmlns="http://www.w3.org/2000/svg" xmlns:xlink="http://www.w3.org/1999/xlink" contentScriptType="application/ecmascript" contentStyleType="text/css" height="226px" preserveAspectRatio="none" style="width:236px;height:226px;" version="1.1" viewBox="0 0 236 226" width="236px" zoomAndPan="magnify"><defs><filter height="300%" id="f15lu8etilggnp" width="300%" x="-1" y="-1"><feGaussianBlur result="blurOut" stdDeviation="2.0"/><feColorMatrix in="blurOut" result="blurOut2" type="matrix" values="0 0 0 0 0 0 0 0 0 0 0 0 0 0 0 0 0 0 .4 0"/><feOffset dx="4.0" dy="4.0" in="blurOut2" result="blurOut3"/><feBlend in="SourceGraphic" in2="blurOut3" mode="normal"/></filter></defs><g><!--MD5=[be424a5fa6446ca47a3690600f75d7fb]
class OnGround--><rect fill="#FEFECE" filter="url(#f15lu8etilggnp)" height="99.2188" id="OnGround" style="stroke: #A80036; stroke-width: 1.5;" width="219" x="6" y="116"/><ellipse cx="79.75" cy="132" fill="#ADD1B2" rx="11" ry="11" style="stroke: #A80036; stroke-width: 1.0;"/><path d="M82.7188,137.6406 Q82.1406,137.9375 81.5,138.0781 Q80.8594,138.2344 80.1563,138.2344 Q77.6563,138.2344 76.3281,136.5938 Q75.0156,134.9375 75.0156,131.8125 Q75.0156,128.6875 76.3281,127.0313 Q77.6563,125.375 80.1563,125.375 Q80.8594,125.375 81.5,125.5313 Q82.1563,125.6875 82.7188,125.9844 L82.7188,128.7031 Q82.0938,128.125 81.5,127.8594 Q80.9063,127.5781 80.2813,127.5781 Q78.9375,127.5781 78.25,128.6563 Q77.5625,129.7188 77.5625,131.8125 Q77.5625,133.9063 78.25,134.9844 Q78.9375,136.0469 80.2813,136.0469 Q80.9063,136.0469 81.5,135.7813 Q82.0938,135.5 82.7188,134.9219 L82.7188,137.6406 Z "/><text fill="#000000" font-family="sans-serif" font-size="12" lengthAdjust="spacingAndGlyphs" textLength="63" x="100.25" y="136.1543">OnGround</text><line style="stroke: #A80036; stroke-width: 1.5;" x1="7" x2="224" y1="148" y2="148"/><line style="stroke: #A80036; stroke-width: 1.5;" x1="7" x2="224" y1="156" y2="156"/><ellipse cx="17" cy="167" fill="#84BE84" rx="3" ry="3" style="stroke: #038048; stroke-width: 1.0;"/><text fill="#000000" font-family="sans-serif" font-size="11" lengthAdjust="spacingAndGlyphs" textLength="154" x="26" y="170.2104">«override» OnEnter() : void</text><ellipse cx="17" cy="179.8047" fill="#84BE84" rx="3" ry="3" style="stroke: #038048; stroke-width: 1.0;"/><text fill="#000000" font-family="sans-serif" font-size="11" lengthAdjust="spacingAndGlyphs" textLength="144" x="26" y="183.0151">«override» OnExit() : void</text><ellipse cx="17" cy="192.6094" fill="#84BE84" rx="3" ry="3" style="stroke: #038048; stroke-width: 1.0;"/><text fill="#000000" font-family="sans-serif" font-size="11" lengthAdjust="spacingAndGlyphs" textLength="164" x="26" y="195.8198">«override» OnUpdate() : void</text><ellipse cx="17" cy="205.4141" fill="#84BE84" rx="3" ry="3" style="stroke: #038048; stroke-width: 1.0;"/><text fill="#000000" font-family="sans-serif" font-size="11" lengthAdjust="spacingAndGlyphs" textLength="193" x="26" y="208.6245">«override» OnFixedUpdate() : void</text><!--MD5=[d45c04621fec731141dda4390791d612]
class PlayerMovement--><rect fill="#FEFECE" filter="url(#f15lu8etilggnp)" height="48" id="PlayerMovement" style="stroke: #A80036; stroke-width: 1.5;" width="134" x="48.5" y="8"/><ellipse cx="63.5" cy="24" fill="#ADD1B2" rx="11" ry="11" style="stroke: #A80036; stroke-width: 1.0;"/><path d="M66.4688,29.6406 Q65.8906,29.9375 65.25,30.0781 Q64.6094,30.2344 63.9063,30.2344 Q61.4063,30.2344 60.0781,28.5938 Q58.7656,26.9375 58.7656,23.8125 Q58.7656,20.6875 60.0781,19.0313 Q61.4063,17.375 63.9063,17.375 Q64.6094,17.375 65.25,17.5313 Q65.9063,17.6875 66.4688,17.9844 L66.4688,20.7031 Q65.8438,20.125 65.25,19.8594 Q64.6563,19.5781 64.0313,19.5781 Q62.6875,19.5781 62,20.6563 Q61.3125,21.7188 61.3125,23.8125 Q61.3125,25.9063 62,26.9844 Q62.6875,28.0469 64.0313,28.0469 Q64.6563,28.0469 65.25,27.7813 Q65.8438,27.5 66.4688,26.9219 L66.4688,29.6406 Z "/><text fill="#000000" font-family="sans-serif" font-size="12" lengthAdjust="spacingAndGlyphs" textLength="102" x="77.5" y="28.1543">PlayerMovement</text><line style="stroke: #A80036; stroke-width: 1.5;" x1="49.5" x2="181.5" y1="40" y2="40"/><line style="stroke: #A80036; stroke-width: 1.5;" x1="49.5" x2="181.5" y1="48" y2="48"/><!--MD5=[aa58e4c71d8a6329983010f42e161893]
reverse link PlayerMovement to OnGround--><path d="M115.5,76.51 C115.5,89.14 115.5,103.01 115.5,115.93 " fill="none" id="PlayerMovement&lt;-OnGround" style="stroke: #A80036; stroke-width: 1.0;"/><polygon fill="none" points="108.5,76.21,115.5,56.21,122.5,76.21,108.5,76.21" style="stroke: #A80036; stroke-width: 1.0;"/><!--MD5=[a5b72235e21fb3a90f6ece9a6c9037be]
@startuml
class OnGround {
    + <<override>> OnEnter() : void
    + <<override>> OnExit() : void
    + <<override>> OnUpdate() : void
    + <<override>> OnFixedUpdate() : void
}
PlayerMovement <|- - OnGround
@enduml

PlantUML version 1.2020.02(Sun Mar 01 10:22:07 GMT 2020)
(GPL source distribution)
Java Runtime: OpenJDK Runtime Environment
JVM: OpenJDK 64-Bit Server VM
Java Version: 11.0.9+11-Ubuntu-0ubuntu1
Operating System: Linux
Default Encoding: ANSI_X3.4-1968
Language: en
Country: US
--></g></svg>