<?xml version="1.0" encoding="UTF-8" standalone="no"?><svg xmlns="http://www.w3.org/2000/svg" xmlns:xlink="http://www.w3.org/1999/xlink" contentScriptType="application/ecmascript" contentStyleType="text/css" height="315px" preserveAspectRatio="none" style="width:241px;height:315px;" version="1.1" viewBox="0 0 241 315" width="241px" zoomAndPan="magnify"><defs><filter height="300%" id="fdamf7qktqjcq" width="300%" x="-1" y="-1"><feGaussianBlur result="blurOut" stdDeviation="2.0"/><feColorMatrix in="blurOut" result="blurOut2" type="matrix" values="0 0 0 0 0 0 0 0 0 0 0 0 0 0 0 0 0 0 .4 0"/><feOffset dx="4.0" dy="4.0" in="blurOut2" result="blurOut3"/><feBlend in="SourceGraphic" in2="blurOut3" mode="normal"/></filter></defs><g><!--MD5=[d45c04621fec731141dda4390791d612]
class PlayerMovement--><rect fill="#FEFECE" filter="url(#fdamf7qktqjcq)" height="188.8516" id="PlayerMovement" style="stroke: #A80036; stroke-width: 1.5;" width="224" x="6" y="116"/><ellipse cx="62.75" cy="132" fill="#ADD1B2" rx="11" ry="11" style="stroke: #A80036; stroke-width: 1.0;"/><path d="M65.7188,137.6406 Q65.1406,137.9375 64.5,138.0781 Q63.8594,138.2344 63.1563,138.2344 Q60.6563,138.2344 59.3281,136.5938 Q58.0156,134.9375 58.0156,131.8125 Q58.0156,128.6875 59.3281,127.0313 Q60.6563,125.375 63.1563,125.375 Q63.8594,125.375 64.5,125.5313 Q65.1563,125.6875 65.7188,125.9844 L65.7188,128.7031 Q65.0938,128.125 64.5,127.8594 Q63.9063,127.5781 63.2813,127.5781 Q61.9375,127.5781 61.25,128.6563 Q60.5625,129.7188 60.5625,131.8125 Q60.5625,133.9063 61.25,134.9844 Q61.9375,136.0469 63.2813,136.0469 Q63.9063,136.0469 64.5,135.7813 Q65.0938,135.5 65.7188,134.9219 L65.7188,137.6406 Z "/><text fill="#000000" font-family="sans-serif" font-size="12" lengthAdjust="spacingAndGlyphs" textLength="102" x="83.25" y="136.1543">PlayerMovement</text><line style="stroke: #A80036; stroke-width: 1.5;" x1="7" x2="229" y1="148" y2="148"/><line style="stroke: #A80036; stroke-width: 1.5;" x1="7" x2="229" y1="156" y2="156"/><ellipse cx="17" cy="167" fill="#84BE84" rx="3" ry="3" style="stroke: #038048; stroke-width: 1.0;"/><text fill="#000000" font-family="sans-serif" font-size="11" lengthAdjust="spacingAndGlyphs" textLength="125" x="26" y="170.2104">«override» Init() : void</text><ellipse cx="17" cy="179.8047" fill="#84BE84" rx="3" ry="3" style="stroke: #038048; stroke-width: 1.0;"/><text fill="#000000" font-family="sans-serif" font-size="11" lengthAdjust="spacingAndGlyphs" textLength="154" x="26" y="183.0151">«override» OnEnter() : void</text><ellipse cx="17" cy="192.6094" fill="#84BE84" rx="3" ry="3" style="stroke: #038048; stroke-width: 1.0;"/><text fill="#000000" font-family="sans-serif" font-size="11" lengthAdjust="spacingAndGlyphs" textLength="144" x="26" y="195.8198">«override» OnExit() : void</text><ellipse cx="17" cy="205.4141" fill="#84BE84" rx="3" ry="3" style="stroke: #038048; stroke-width: 1.0;"/><text fill="#000000" font-family="sans-serif" font-size="11" lengthAdjust="spacingAndGlyphs" textLength="193" x="26" y="208.6245">«override» OnFixedUpdate() : void</text><ellipse cx="17" cy="218.2188" fill="#84BE84" rx="3" ry="3" style="stroke: #038048; stroke-width: 1.0;"/><text fill="#000000" font-family="sans-serif" font-size="11" lengthAdjust="spacingAndGlyphs" textLength="164" x="26" y="221.4292">«override» OnUpdate() : void</text><ellipse cx="17" cy="231.0234" fill="#84BE84" rx="3" ry="3" style="stroke: #038048; stroke-width: 1.0;"/><text fill="#000000" font-family="sans-serif" font-size="11" lengthAdjust="spacingAndGlyphs" textLength="188" x="26" y="234.2339">«override» OnLateUpdate() : void</text><ellipse cx="17" cy="243.8281" fill="#84BE84" rx="3" ry="3" style="stroke: #038048; stroke-width: 1.0;"/><text fill="#000000" font-family="sans-serif" font-size="11" lengthAdjust="spacingAndGlyphs" textLength="119" x="26" y="247.0386">OnEnterZone() : void</text><ellipse cx="17" cy="256.6328" fill="#84BE84" rx="3" ry="3" style="stroke: #038048; stroke-width: 1.0;"/><text fill="#000000" font-family="sans-serif" font-size="11" lengthAdjust="spacingAndGlyphs" textLength="198" x="26" y="259.8433">SetGravity(direction:Vector3) : void</text><ellipse cx="17" cy="269.4375" fill="#84BE84" rx="3" ry="3" style="stroke: #038048; stroke-width: 1.0;"/><text fill="#000000" font-family="sans-serif" font-size="11" lengthAdjust="spacingAndGlyphs" textLength="109" x="26" y="272.6479">OnExitZone() : void</text><ellipse cx="17" cy="282.2422" fill="#84BE84" rx="3" ry="3" style="stroke: #038048; stroke-width: 1.0;"/><text fill="#000000" font-family="sans-serif" font-size="11" lengthAdjust="spacingAndGlyphs" textLength="128" x="26" y="285.4526">GetPosition() : Vector3</text><ellipse cx="17" cy="295.0469" fill="#84BE84" rx="3" ry="3" style="stroke: #038048; stroke-width: 1.0;"/><text fill="#000000" font-family="sans-serif" font-size="11" lengthAdjust="spacingAndGlyphs" textLength="126" x="26" y="298.2573">GetBounds() : Bounds</text><!--MD5=[ced70c4db88c0caf8c044d862484d7f7]
class BaseState--><rect fill="#FEFECE" filter="url(#fdamf7qktqjcq)" height="48" id="BaseState" style="stroke: #A80036; stroke-width: 1.5;" width="97" x="8.5" y="8"/><ellipse cx="23.5" cy="24" fill="#ADD1B2" rx="11" ry="11" style="stroke: #A80036; stroke-width: 1.0;"/><path d="M26.4688,29.6406 Q25.8906,29.9375 25.25,30.0781 Q24.6094,30.2344 23.9063,30.2344 Q21.4063,30.2344 20.0781,28.5938 Q18.7656,26.9375 18.7656,23.8125 Q18.7656,20.6875 20.0781,19.0313 Q21.4063,17.375 23.9063,17.375 Q24.6094,17.375 25.25,17.5313 Q25.9063,17.6875 26.4688,17.9844 L26.4688,20.7031 Q25.8438,20.125 25.25,19.8594 Q24.6563,19.5781 24.0313,19.5781 Q22.6875,19.5781 22,20.6563 Q21.3125,21.7188 21.3125,23.8125 Q21.3125,25.9063 22,26.9844 Q22.6875,28.0469 24.0313,28.0469 Q24.6563,28.0469 25.25,27.7813 Q25.8438,27.5 26.4688,26.9219 L26.4688,29.6406 Z "/><text fill="#000000" font-family="sans-serif" font-size="12" lengthAdjust="spacingAndGlyphs" textLength="65" x="37.5" y="28.1543">BaseState</text><line style="stroke: #A80036; stroke-width: 1.5;" x1="9.5" x2="104.5" y1="40" y2="40"/><line style="stroke: #A80036; stroke-width: 1.5;" x1="9.5" x2="104.5" y1="48" y2="48"/><!--MD5=[2fb4da6c010319de91248e41255ed55e]
class IGravity--><rect fill="#FEFECE" filter="url(#fdamf7qktqjcq)" height="48" id="IGravity" style="stroke: #A80036; stroke-width: 1.5;" width="77" x="140.5" y="8"/><ellipse cx="155.5" cy="24" fill="#ADD1B2" rx="11" ry="11" style="stroke: #A80036; stroke-width: 1.0;"/><path d="M158.4688,29.6406 Q157.8906,29.9375 157.25,30.0781 Q156.6094,30.2344 155.9063,30.2344 Q153.4063,30.2344 152.0781,28.5938 Q150.7656,26.9375 150.7656,23.8125 Q150.7656,20.6875 152.0781,19.0313 Q153.4063,17.375 155.9063,17.375 Q156.6094,17.375 157.25,17.5313 Q157.9063,17.6875 158.4688,17.9844 L158.4688,20.7031 Q157.8438,20.125 157.25,19.8594 Q156.6563,19.5781 156.0313,19.5781 Q154.6875,19.5781 154,20.6563 Q153.3125,21.7188 153.3125,23.8125 Q153.3125,25.9063 154,26.9844 Q154.6875,28.0469 156.0313,28.0469 Q156.6563,28.0469 157.25,27.7813 Q157.8438,27.5 158.4688,26.9219 L158.4688,29.6406 Z "/><text fill="#000000" font-family="sans-serif" font-size="12" lengthAdjust="spacingAndGlyphs" textLength="45" x="169.5" y="28.1543">IGravity</text><line style="stroke: #A80036; stroke-width: 1.5;" x1="141.5" x2="216.5" y1="40" y2="40"/><line style="stroke: #A80036; stroke-width: 1.5;" x1="141.5" x2="216.5" y1="48" y2="48"/><!--MD5=[eb0c2b3b9b10bd8d6d98c7d8a59629d7]
reverse link BaseState to PlayerMovement--><path d="M71.52,75.02 C75.79,87.37 80.64,101.41 85.56,115.65 " fill="none" id="BaseState&lt;-PlayerMovement" style="stroke: #A80036; stroke-width: 1.0;"/><polygon fill="none" points="64.89,77.26,64.97,56.07,78.12,72.69,64.89,77.26" style="stroke: #A80036; stroke-width: 1.0;"/><!--MD5=[13af93bbb458be1b0f000723a9029248]
reverse link IGravity to PlayerMovement--><path d="M164.48,75.02 C160.21,87.37 155.36,101.41 150.44,115.65 " fill="none" id="IGravity&lt;-PlayerMovement" style="stroke: #A80036; stroke-width: 1.0;"/><polygon fill="none" points="157.88,72.69,171.03,56.07,171.11,77.26,157.88,72.69" style="stroke: #A80036; stroke-width: 1.0;"/><!--MD5=[ed197d089e29335004585f985793c371]
@startuml
class PlayerMovement {
    + <<override>> Init() : void
    + <<override>> OnEnter() : void
    + <<override>> OnExit() : void
    + <<override>> OnFixedUpdate() : void
    + <<override>> OnUpdate() : void
    + <<override>> OnLateUpdate() : void
    + OnEnterZone() : void
    + SetGravity(direction:Vector3) : void
    + OnExitZone() : void
    + GetPosition() : Vector3
    + GetBounds() : Bounds
}
BaseState <|- - PlayerMovement
IGravity <|- - PlayerMovement
@enduml

PlantUML version 1.2020.02(Sun Mar 01 10:22:07 GMT 2020)
(GPL source distribution)
Java Runtime: OpenJDK Runtime Environment
JVM: OpenJDK 64-Bit Server VM
Java Version: 11.0.9+11-Ubuntu-0ubuntu1
Operating System: Linux
Default Encoding: ANSI_X3.4-1968
Language: en
Country: US
--></g></svg>