<?xml version="1.0" encoding="UTF-8" standalone="no"?><svg xmlns="http://www.w3.org/2000/svg" xmlns:xlink="http://www.w3.org/1999/xlink" contentScriptType="application/ecmascript" contentStyleType="text/css" height="187px" preserveAspectRatio="none" style="width:247px;height:187px;" version="1.1" viewBox="0 0 247 187" width="247px" zoomAndPan="magnify"><defs><filter height="300%" id="f1lccjvd3spy1k" width="300%" x="-1" y="-1"><feGaussianBlur result="blurOut" stdDeviation="2.0"/><feColorMatrix in="blurOut" result="blurOut2" type="matrix" values="0 0 0 0 0 0 0 0 0 0 0 0 0 0 0 0 0 0 .4 0"/><feOffset dx="4.0" dy="4.0" in="blurOut2" result="blurOut3"/><feBlend in="SourceGraphic" in2="blurOut3" mode="normal"/></filter></defs><g><!--MD5=[6ddea49a8f8f52b585693427178b2f90]
class SendSpawnPlayer--><rect fill="#FEFECE" filter="url(#f1lccjvd3spy1k)" height="60.8047" id="SendSpawnPlayer" style="stroke: #A80036; stroke-width: 1.5;" width="230" x="6" y="116"/><ellipse cx="61.25" cy="132" fill="#ADD1B2" rx="11" ry="11" style="stroke: #A80036; stroke-width: 1.0;"/><path d="M64.2188,137.6406 Q63.6406,137.9375 63,138.0781 Q62.3594,138.2344 61.6563,138.2344 Q59.1563,138.2344 57.8281,136.5938 Q56.5156,134.9375 56.5156,131.8125 Q56.5156,128.6875 57.8281,127.0313 Q59.1563,125.375 61.6563,125.375 Q62.3594,125.375 63,125.5313 Q63.6563,125.6875 64.2188,125.9844 L64.2188,128.7031 Q63.5938,128.125 63,127.8594 Q62.4063,127.5781 61.7813,127.5781 Q60.4375,127.5781 59.75,128.6563 Q59.0625,129.7188 59.0625,131.8125 Q59.0625,133.9063 59.75,134.9844 Q60.4375,136.0469 61.7813,136.0469 Q62.4063,136.0469 63,135.7813 Q63.5938,135.5 64.2188,134.9219 L64.2188,137.6406 Z "/><text fill="#000000" font-family="sans-serif" font-size="12" lengthAdjust="spacingAndGlyphs" textLength="111" x="81.75" y="136.1543">SendSpawnPlayer</text><line style="stroke: #A80036; stroke-width: 1.5;" x1="7" x2="235" y1="148" y2="148"/><line style="stroke: #A80036; stroke-width: 1.5;" x1="7" x2="235" y1="156" y2="156"/><text fill="#000000" font-family="sans-serif" font-size="11" lengthAdjust="spacingAndGlyphs" textLength="218" x="12" y="170.2104">SpawnWhenConnected() : IEnumerator</text><!--MD5=[83b3cf3d23d77c6f1e1b5291a241bc2a]
class MonoBehaviour--><rect fill="#FEFECE" filter="url(#f1lccjvd3spy1k)" height="48" id="MonoBehaviour" style="stroke: #A80036; stroke-width: 1.5;" width="128" x="57" y="8"/><ellipse cx="72" cy="24" fill="#ADD1B2" rx="11" ry="11" style="stroke: #A80036; stroke-width: 1.0;"/><path d="M74.9688,29.6406 Q74.3906,29.9375 73.75,30.0781 Q73.1094,30.2344 72.4063,30.2344 Q69.9063,30.2344 68.5781,28.5938 Q67.2656,26.9375 67.2656,23.8125 Q67.2656,20.6875 68.5781,19.0313 Q69.9063,17.375 72.4063,17.375 Q73.1094,17.375 73.75,17.5313 Q74.4063,17.6875 74.9688,17.9844 L74.9688,20.7031 Q74.3438,20.125 73.75,19.8594 Q73.1563,19.5781 72.5313,19.5781 Q71.1875,19.5781 70.5,20.6563 Q69.8125,21.7188 69.8125,23.8125 Q69.8125,25.9063 70.5,26.9844 Q71.1875,28.0469 72.5313,28.0469 Q73.1563,28.0469 73.75,27.7813 Q74.3438,27.5 74.9688,26.9219 L74.9688,29.6406 Z "/><text fill="#000000" font-family="sans-serif" font-size="12" lengthAdjust="spacingAndGlyphs" textLength="96" x="86" y="28.1543">MonoBehaviour</text><line style="stroke: #A80036; stroke-width: 1.5;" x1="58" x2="184" y1="40" y2="40"/><line style="stroke: #A80036; stroke-width: 1.5;" x1="58" x2="184" y1="48" y2="48"/><!--MD5=[c0253eb8324b1bc833b88424db35e7ee]
reverse link MonoBehaviour to SendSpawnPlayer--><path d="M121,76.11 C121,89.31 121,103.54 121,115.65 " fill="none" id="MonoBehaviour&lt;-SendSpawnPlayer" style="stroke: #A80036; stroke-width: 1.0;"/><polygon fill="none" points="114,76.04,121,56.04,128,76.04,114,76.04" style="stroke: #A80036; stroke-width: 1.0;"/><!--MD5=[f5f7e437bc268186815b8c455751862a]
@startuml
class SendSpawnPlayer {
    SpawnWhenConnected() : IEnumerator
}
MonoBehaviour <|- - SendSpawnPlayer
@enduml

PlantUML version 1.2020.02(Sun Mar 01 10:22:07 GMT 2020)
(GPL source distribution)
Java Runtime: OpenJDK Runtime Environment
JVM: OpenJDK 64-Bit Server VM
Java Version: 11.0.9+11-Ubuntu-0ubuntu1
Operating System: Linux
Default Encoding: ANSI_X3.4-1968
Language: en
Country: US
--></g></svg>