<?xml version="1.0" encoding="UTF-8" standalone="no"?><svg xmlns="http://www.w3.org/2000/svg" xmlns:xlink="http://www.w3.org/1999/xlink" contentScriptType="application/ecmascript" contentStyleType="text/css" height="354px" preserveAspectRatio="none" style="width:249px;height:354px;" version="1.1" viewBox="0 0 249 354" width="249px" zoomAndPan="magnify"><defs><filter height="300%" id="f1g7848bff0t0o" width="300%" x="-1" y="-1"><feGaussianBlur result="blurOut" stdDeviation="2.0"/><feColorMatrix in="blurOut" result="blurOut2" type="matrix" values="0 0 0 0 0 0 0 0 0 0 0 0 0 0 0 0 0 0 .4 0"/><feOffset dx="4.0" dy="4.0" in="blurOut2" result="blurOut3"/><feBlend in="SourceGraphic" in2="blurOut3" mode="normal"/></filter></defs><g><!--MD5=[91b8f5088fe8cd371cacc3df5612e721]
class SO_PlayerSheet--><rect fill="#FEFECE" filter="url(#f1g7848bff0t0o)" height="227.2656" id="SO_PlayerSheet" style="stroke: #A80036; stroke-width: 1.5;" width="232" x="6" y="116"/><ellipse cx="68.75" cy="132" fill="#ADD1B2" rx="11" ry="11" style="stroke: #A80036; stroke-width: 1.0;"/><path d="M71.7188,137.6406 Q71.1406,137.9375 70.5,138.0781 Q69.8594,138.2344 69.1563,138.2344 Q66.6563,138.2344 65.3281,136.5938 Q64.0156,134.9375 64.0156,131.8125 Q64.0156,128.6875 65.3281,127.0313 Q66.6563,125.375 69.1563,125.375 Q69.8594,125.375 70.5,125.5313 Q71.1563,125.6875 71.7188,125.9844 L71.7188,128.7031 Q71.0938,128.125 70.5,127.8594 Q69.9063,127.5781 69.2813,127.5781 Q67.9375,127.5781 67.25,128.6563 Q66.5625,129.7188 66.5625,131.8125 Q66.5625,133.9063 67.25,134.9844 Q67.9375,136.0469 69.2813,136.0469 Q69.9063,136.0469 70.5,135.7813 Q71.0938,135.5 71.7188,134.9219 L71.7188,137.6406 Z "/><text fill="#000000" font-family="sans-serif" font-size="12" lengthAdjust="spacingAndGlyphs" textLength="98" x="89.25" y="136.1543">SO_PlayerSheet</text><line style="stroke: #A80036; stroke-width: 1.5;" x1="7" x2="237" y1="148" y2="148"/><ellipse cx="17" cy="159" fill="none" rx="3" ry="3" style="stroke: #038048; stroke-width: 1.0;"/><text fill="#000000" font-family="sans-serif" font-size="11" lengthAdjust="spacingAndGlyphs" textLength="114" x="26" y="162.2104">jumpStrength : float</text><ellipse cx="17" cy="171.8047" fill="none" rx="3" ry="3" style="stroke: #038048; stroke-width: 1.0;"/><text fill="#000000" font-family="sans-serif" font-size="11" lengthAdjust="spacingAndGlyphs" textLength="108" x="26" y="175.0151">groundForce : float</text><ellipse cx="17" cy="184.6094" fill="none" rx="3" ry="3" style="stroke: #038048; stroke-width: 1.0;"/><text fill="#000000" font-family="sans-serif" font-size="11" lengthAdjust="spacingAndGlyphs" textLength="135" x="26" y="187.8198">groundMaxSpeed : float</text><ellipse cx="17" cy="197.4141" fill="none" rx="3" ry="3" style="stroke: #038048; stroke-width: 1.0;"/><text fill="#000000" font-family="sans-serif" font-size="11" lengthAdjust="spacingAndGlyphs" textLength="169" x="26" y="200.6245">groundMaxSprintSpeed : float</text><ellipse cx="17" cy="210.2188" fill="none" rx="3" ry="3" style="stroke: #038048; stroke-width: 1.0;"/><text fill="#000000" font-family="sans-serif" font-size="11" lengthAdjust="spacingAndGlyphs" textLength="178" x="26" y="213.4292">groundMoveSmoothTime : float</text><ellipse cx="17" cy="223.0234" fill="none" rx="3" ry="3" style="stroke: #038048; stroke-width: 1.0;"/><text fill="#000000" font-family="sans-serif" font-size="11" lengthAdjust="spacingAndGlyphs" textLength="200" x="26" y="226.2339">groundNonMoveSmoothTime : float</text><ellipse cx="17" cy="235.8281" fill="none" rx="3" ry="3" style="stroke: #038048; stroke-width: 1.0;"/><text fill="#000000" font-family="sans-serif" font-size="11" lengthAdjust="spacingAndGlyphs" textLength="83" x="26" y="239.0386">airForce : float</text><ellipse cx="17" cy="248.6328" fill="none" rx="3" ry="3" style="stroke: #038048; stroke-width: 1.0;"/><text fill="#000000" font-family="sans-serif" font-size="11" lengthAdjust="spacingAndGlyphs" textLength="110" x="26" y="251.8433">airMaxSpeed : float</text><ellipse cx="17" cy="261.4375" fill="none" rx="3" ry="3" style="stroke: #038048; stroke-width: 1.0;"/><text fill="#000000" font-family="sans-serif" font-size="11" lengthAdjust="spacingAndGlyphs" textLength="144" x="26" y="264.6479">airMaxSprintSpeed : float</text><ellipse cx="17" cy="274.2422" fill="none" rx="3" ry="3" style="stroke: #038048; stroke-width: 1.0;"/><text fill="#000000" font-family="sans-serif" font-size="11" lengthAdjust="spacingAndGlyphs" textLength="153" x="26" y="277.4526">airMoveSmoothTime : float</text><ellipse cx="17" cy="287.0469" fill="none" rx="3" ry="3" style="stroke: #038048; stroke-width: 1.0;"/><text fill="#000000" font-family="sans-serif" font-size="11" lengthAdjust="spacingAndGlyphs" textLength="175" x="26" y="290.2573">airNonMoveSmoothTime : float</text><ellipse cx="17" cy="299.8516" fill="none" rx="3" ry="3" style="stroke: #038048; stroke-width: 1.0;"/><text fill="#000000" font-family="sans-serif" font-size="11" lengthAdjust="spacingAndGlyphs" textLength="188" x="26" y="303.062">cameraRotateSmoothTime : float</text><ellipse cx="17" cy="312.6563" fill="none" rx="3" ry="3" style="stroke: #038048; stroke-width: 1.0;"/><text fill="#000000" font-family="sans-serif" font-size="11" lengthAdjust="spacingAndGlyphs" textLength="206" x="26" y="315.8667">cameraTranslateSmoothTime : float</text><ellipse cx="17" cy="325.4609" fill="none" rx="3" ry="3" style="stroke: #038048; stroke-width: 1.0;"/><text fill="#000000" font-family="sans-serif" font-size="11" lengthAdjust="spacingAndGlyphs" textLength="137" x="26" y="328.6714">rotateSlerpSpeed : float</text><line style="stroke: #A80036; stroke-width: 1.5;" x1="7" x2="237" y1="335.2656" y2="335.2656"/><!--MD5=[44895057fba17b10f3053a7baa21df04]
class ScriptableObject--><rect fill="#FEFECE" filter="url(#f1g7848bff0t0o)" height="48" id="ScriptableObject" style="stroke: #A80036; stroke-width: 1.5;" width="135" x="54.5" y="8"/><ellipse cx="69.5" cy="24" fill="#ADD1B2" rx="11" ry="11" style="stroke: #A80036; stroke-width: 1.0;"/><path d="M72.4688,29.6406 Q71.8906,29.9375 71.25,30.0781 Q70.6094,30.2344 69.9063,30.2344 Q67.4063,30.2344 66.0781,28.5938 Q64.7656,26.9375 64.7656,23.8125 Q64.7656,20.6875 66.0781,19.0313 Q67.4063,17.375 69.9063,17.375 Q70.6094,17.375 71.25,17.5313 Q71.9063,17.6875 72.4688,17.9844 L72.4688,20.7031 Q71.8438,20.125 71.25,19.8594 Q70.6563,19.5781 70.0313,19.5781 Q68.6875,19.5781 68,20.6563 Q67.3125,21.7188 67.3125,23.8125 Q67.3125,25.9063 68,26.9844 Q68.6875,28.0469 70.0313,28.0469 Q70.6563,28.0469 71.25,27.7813 Q71.8438,27.5 72.4688,26.9219 L72.4688,29.6406 Z "/><text fill="#000000" font-family="sans-serif" font-size="12" lengthAdjust="spacingAndGlyphs" textLength="103" x="83.5" y="28.1543">ScriptableObject</text><line style="stroke: #A80036; stroke-width: 1.5;" x1="55.5" x2="188.5" y1="40" y2="40"/><line style="stroke: #A80036; stroke-width: 1.5;" x1="55.5" x2="188.5" y1="48" y2="48"/><!--MD5=[7b92d09a7656f418ee0230875be099d0]
reverse link ScriptableObject to SO_PlayerSheet--><path d="M122,76.38 C122,88.38 122,101.97 122,115.98 " fill="none" id="ScriptableObject&lt;-SO_PlayerSheet" style="stroke: #A80036; stroke-width: 1.0;"/><polygon fill="none" points="115,76.19,122,56.19,129,76.19,115,76.19" style="stroke: #A80036; stroke-width: 1.0;"/><!--MD5=[f7da990e839f6591fea20c16a04a416d]
@startuml
class SO_PlayerSheet {
    + jumpStrength : float
    + groundForce : float
    + groundMaxSpeed : float
    + groundMaxSprintSpeed : float
    + groundMoveSmoothTime : float
    + groundNonMoveSmoothTime : float
    + airForce : float
    + airMaxSpeed : float
    + airMaxSprintSpeed : float
    + airMoveSmoothTime : float
    + airNonMoveSmoothTime : float
    + cameraRotateSmoothTime : float
    + cameraTranslateSmoothTime : float
    + rotateSlerpSpeed : float
}
ScriptableObject <|- - SO_PlayerSheet
@enduml

PlantUML version 1.2020.02(Sun Mar 01 10:22:07 GMT 2020)
(GPL source distribution)
Java Runtime: OpenJDK Runtime Environment
JVM: OpenJDK 64-Bit Server VM
Java Version: 11.0.9+11-Ubuntu-0ubuntu1
Operating System: Linux
Default Encoding: ANSI_X3.4-1968
Language: en
Country: US
--></g></svg>