<?xml version="1.0" encoding="UTF-8" standalone="no"?><svg xmlns="http://www.w3.org/2000/svg" xmlns:xlink="http://www.w3.org/1999/xlink" contentScriptType="application/ecmascript" contentStyleType="text/css" height="251px" preserveAspectRatio="none" style="width:529px;height:251px;" version="1.1" viewBox="0 0 529 251" width="529px" zoomAndPan="magnify"><defs><filter height="300%" id="f8qiho0oh0yqo" width="300%" x="-1" y="-1"><feGaussianBlur result="blurOut" stdDeviation="2.0"/><feColorMatrix in="blurOut" result="blurOut2" type="matrix" values="0 0 0 0 0 0 0 0 0 0 0 0 0 0 0 0 0 0 .4 0"/><feOffset dx="4.0" dy="4.0" in="blurOut2" result="blurOut3"/><feBlend in="SourceGraphic" in2="blurOut3" mode="normal"/></filter></defs><g><!--MD5=[8c7058599d2696119c51b69f10aa0639]
class Net_StartGame--><rect fill="#FEFECE" filter="url(#f8qiho0oh0yqo)" height="124.8281" id="Net_StartGame" style="stroke: #A80036; stroke-width: 1.5;" width="512" x="6" y="116"/><ellipse cx="210.25" cy="132" fill="#ADD1B2" rx="11" ry="11" style="stroke: #A80036; stroke-width: 1.0;"/><path d="M213.2188,137.6406 Q212.6406,137.9375 212,138.0781 Q211.3594,138.2344 210.6563,138.2344 Q208.1563,138.2344 206.8281,136.5938 Q205.5156,134.9375 205.5156,131.8125 Q205.5156,128.6875 206.8281,127.0313 Q208.1563,125.375 210.6563,125.375 Q211.3594,125.375 212,125.5313 Q212.6563,125.6875 213.2188,125.9844 L213.2188,128.7031 Q212.5938,128.125 212,127.8594 Q211.4063,127.5781 210.7813,127.5781 Q209.4375,127.5781 208.75,128.6563 Q208.0625,129.7188 208.0625,131.8125 Q208.0625,133.9063 208.75,134.9844 Q209.4375,136.0469 210.7813,136.0469 Q211.4063,136.0469 212,135.7813 Q212.5938,135.5 213.2188,134.9219 L213.2188,137.6406 Z "/><text fill="#000000" font-family="sans-serif" font-size="12" lengthAdjust="spacingAndGlyphs" textLength="95" x="230.75" y="136.1543">Net_StartGame</text><line style="stroke: #A80036; stroke-width: 1.5;" x1="7" x2="517" y1="148" y2="148"/><line style="stroke: #A80036; stroke-width: 1.5;" x1="7" x2="517" y1="156" y2="156"/><ellipse cx="17" cy="167" fill="#84BE84" rx="3" ry="3" style="stroke: #038048; stroke-width: 1.0;"/><text fill="#000000" font-family="sans-serif" font-size="11" lengthAdjust="spacingAndGlyphs" textLength="95" x="26" y="170.2104">Net_StartGame()</text><ellipse cx="17" cy="179.8047" fill="#84BE84" rx="3" ry="3" style="stroke: #038048; stroke-width: 1.0;"/><text fill="#000000" font-family="sans-serif" font-size="11" lengthAdjust="spacingAndGlyphs" textLength="245" x="26" y="183.0151">Net_StartGame(reader:DataStreamReader)</text><ellipse cx="17" cy="192.6094" fill="#84BE84" rx="3" ry="3" style="stroke: #038048; stroke-width: 1.0;"/><text fill="#000000" font-family="sans-serif" font-size="11" lengthAdjust="spacingAndGlyphs" textLength="486" x="26" y="195.8198">Net_StartGame(reader:DataStreamReader, deathRunGameLoop:DeathRunGameLoop)</text><ellipse cx="17" cy="205.4141" fill="#84BE84" rx="3" ry="3" style="stroke: #038048; stroke-width: 1.0;"/><text fill="#000000" font-family="sans-serif" font-size="11" lengthAdjust="spacingAndGlyphs" textLength="294" x="26" y="208.6245">«override» Serialize(writer:DataStreamWriter) : void</text><ellipse cx="17" cy="218.2188" fill="#84BE84" rx="3" ry="3" style="stroke: #038048; stroke-width: 1.0;"/><text fill="#000000" font-family="sans-serif" font-size="11" lengthAdjust="spacingAndGlyphs" textLength="320" x="26" y="221.4292">«override» ReceivedOnServer(server:BaseServer) : void</text><ellipse cx="17" cy="231.0234" fill="#84BE84" rx="3" ry="3" style="stroke: #038048; stroke-width: 1.0;"/><text fill="#000000" font-family="sans-serif" font-size="11" lengthAdjust="spacingAndGlyphs" textLength="206" x="26" y="234.2339">«override» ReceivedOnClient() : void</text><!--MD5=[57013508309b10e1d30b46bd54336031]
class NetMessage--><rect fill="#FEFECE" filter="url(#f8qiho0oh0yqo)" height="48" id="NetMessage" style="stroke: #A80036; stroke-width: 1.5;" width="110" x="207" y="8"/><ellipse cx="222" cy="24" fill="#ADD1B2" rx="11" ry="11" style="stroke: #A80036; stroke-width: 1.0;"/><path d="M224.9688,29.6406 Q224.3906,29.9375 223.75,30.0781 Q223.1094,30.2344 222.4063,30.2344 Q219.9063,30.2344 218.5781,28.5938 Q217.2656,26.9375 217.2656,23.8125 Q217.2656,20.6875 218.5781,19.0313 Q219.9063,17.375 222.4063,17.375 Q223.1094,17.375 223.75,17.5313 Q224.4063,17.6875 224.9688,17.9844 L224.9688,20.7031 Q224.3438,20.125 223.75,19.8594 Q223.1563,19.5781 222.5313,19.5781 Q221.1875,19.5781 220.5,20.6563 Q219.8125,21.7188 219.8125,23.8125 Q219.8125,25.9063 220.5,26.9844 Q221.1875,28.0469 222.5313,28.0469 Q223.1563,28.0469 223.75,27.7813 Q224.3438,27.5 224.9688,26.9219 L224.9688,29.6406 Z "/><text fill="#000000" font-family="sans-serif" font-size="12" lengthAdjust="spacingAndGlyphs" textLength="78" x="236" y="28.1543">NetMessage</text><line style="stroke: #A80036; stroke-width: 1.5;" x1="208" x2="316" y1="40" y2="40"/><line style="stroke: #A80036; stroke-width: 1.5;" x1="208" x2="316" y1="48" y2="48"/><!--MD5=[a09dd89f320a2fbc1900ed8ee351260a]
reverse link NetMessage to Net_StartGame--><path d="M262,76.67 C262,89.05 262,102.77 262,115.99 " fill="none" id="NetMessage&lt;-Net_StartGame" style="stroke: #A80036; stroke-width: 1.0;"/><polygon fill="none" points="255,76.22,262,56.22,269,76.22,255,76.22" style="stroke: #A80036; stroke-width: 1.0;"/><!--MD5=[b15492810df127d5d2f8acc456aeb349]
@startuml
class Net_StartGame {
    + Net_StartGame()
    + Net_StartGame(reader:DataStreamReader)
    + Net_StartGame(reader:DataStreamReader, deathRunGameLoop:DeathRunGameLoop)
    + <<override>> Serialize(writer:DataStreamWriter) : void
    + <<override>> ReceivedOnServer(server:BaseServer) : void
    + <<override>> ReceivedOnClient() : void
}
NetMessage <|- - Net_StartGame
@enduml

PlantUML version 1.2020.02(Sun Mar 01 10:22:07 GMT 2020)
(GPL source distribution)
Java Runtime: OpenJDK Runtime Environment
JVM: OpenJDK 64-Bit Server VM
Java Version: 11.0.9+11-Ubuntu-0ubuntu1
Operating System: Linux
Default Encoding: ANSI_X3.4-1968
Language: en
Country: US
--></g></svg>