<?xml version="1.0" encoding="UTF-8" standalone="no"?><svg xmlns="http://www.w3.org/2000/svg" xmlns:xlink="http://www.w3.org/1999/xlink" contentScriptType="application/ecmascript" contentStyleType="text/css" height="290px" preserveAspectRatio="none" style="width:1032px;height:290px;" version="1.1" viewBox="0 0 1032 290" width="1032px" zoomAndPan="magnify"><defs><filter height="300%" id="fbgn4ehyswwlu" width="300%" x="-1" y="-1"><feGaussianBlur result="blurOut" stdDeviation="2.0"/><feColorMatrix in="blurOut" result="blurOut2" type="matrix" values="0 0 0 0 0 0 0 0 0 0 0 0 0 0 0 0 0 0 .4 0"/><feOffset dx="4.0" dy="4.0" in="blurOut2" result="blurOut3"/><feBlend in="SourceGraphic" in2="blurOut3" mode="normal"/></filter></defs><g><!--MD5=[6f98e6287f18ca39b53b7c2517140299]
class Net_OpenBarriers--><rect fill="#FEFECE" filter="url(#fbgn4ehyswwlu)" height="112.0234" id="Net_OpenBarriers" style="stroke: #A80036; stroke-width: 1.5;" width="527" x="6" y="141.5"/><ellipse cx="210.25" cy="157.5" fill="#ADD1B2" rx="11" ry="11" style="stroke: #A80036; stroke-width: 1.0;"/><path d="M213.2188,163.1406 Q212.6406,163.4375 212,163.5781 Q211.3594,163.7344 210.6563,163.7344 Q208.1563,163.7344 206.8281,162.0938 Q205.5156,160.4375 205.5156,157.3125 Q205.5156,154.1875 206.8281,152.5313 Q208.1563,150.875 210.6563,150.875 Q211.3594,150.875 212,151.0313 Q212.6563,151.1875 213.2188,151.4844 L213.2188,154.2031 Q212.5938,153.625 212,153.3594 Q211.4063,153.0781 210.7813,153.0781 Q209.4375,153.0781 208.75,154.1563 Q208.0625,155.2188 208.0625,157.3125 Q208.0625,159.4063 208.75,160.4844 Q209.4375,161.5469 210.7813,161.5469 Q211.4063,161.5469 212,161.2813 Q212.5938,161 213.2188,160.4219 L213.2188,163.1406 Z "/><text fill="#000000" font-family="sans-serif" font-size="12" lengthAdjust="spacingAndGlyphs" textLength="110" x="230.75" y="161.6543">Net_OpenBarriers</text><line style="stroke: #A80036; stroke-width: 1.5;" x1="7" x2="532" y1="173.5" y2="173.5"/><line style="stroke: #A80036; stroke-width: 1.5;" x1="7" x2="532" y1="181.5" y2="181.5"/><ellipse cx="17" cy="192.5" fill="#84BE84" rx="3" ry="3" style="stroke: #038048; stroke-width: 1.0;"/><text fill="#000000" font-family="sans-serif" font-size="11" lengthAdjust="spacingAndGlyphs" textLength="110" x="26" y="195.7104">Net_OpenBarriers()</text><ellipse cx="17" cy="205.3047" fill="#84BE84" rx="3" ry="3" style="stroke: #038048; stroke-width: 1.0;"/><text fill="#000000" font-family="sans-serif" font-size="11" lengthAdjust="spacingAndGlyphs" textLength="260" x="26" y="208.5151">Net_OpenBarriers(reader:DataStreamReader)</text><ellipse cx="17" cy="218.1094" fill="#84BE84" rx="3" ry="3" style="stroke: #038048; stroke-width: 1.0;"/><text fill="#000000" font-family="sans-serif" font-size="11" lengthAdjust="spacingAndGlyphs" textLength="501" x="26" y="221.3198">Net_OpenBarriers(reader:DataStreamReader, deathRunGameLoop:DeathRunGameLoop)</text><ellipse cx="17" cy="230.9141" fill="#84BE84" rx="3" ry="3" style="stroke: #038048; stroke-width: 1.0;"/><text fill="#000000" font-family="sans-serif" font-size="11" lengthAdjust="spacingAndGlyphs" textLength="294" x="26" y="234.1245">«override» Serialize(writer:DataStreamWriter) : void</text><ellipse cx="17" cy="243.7188" fill="#84BE84" rx="3" ry="3" style="stroke: #038048; stroke-width: 1.0;"/><text fill="#000000" font-family="sans-serif" font-size="11" lengthAdjust="spacingAndGlyphs" textLength="206" x="26" y="246.9292">«override» ReceivedOnClient() : void</text><!--MD5=[adad9c714b623adfcc394a6cf6e16636]
class Net_Disconnect--><rect fill="#FEFECE" filter="url(#fbgn4ehyswwlu)" height="163.2422" id="Net_Disconnect" style="stroke: #A80036; stroke-width: 1.5;" width="453" x="568" y="116"/><ellipse cx="741.25" cy="132" fill="#ADD1B2" rx="11" ry="11" style="stroke: #A80036; stroke-width: 1.0;"/><path d="M744.2188,137.6406 Q743.6406,137.9375 743,138.0781 Q742.3594,138.2344 741.6563,138.2344 Q739.1563,138.2344 737.8281,136.5938 Q736.5156,134.9375 736.5156,131.8125 Q736.5156,128.6875 737.8281,127.0313 Q739.1563,125.375 741.6563,125.375 Q742.3594,125.375 743,125.5313 Q743.6563,125.6875 744.2188,125.9844 L744.2188,128.7031 Q743.5938,128.125 743,127.8594 Q742.4063,127.5781 741.7813,127.5781 Q740.4375,127.5781 739.75,128.6563 Q739.0625,129.7188 739.0625,131.8125 Q739.0625,133.9063 739.75,134.9844 Q740.4375,136.0469 741.7813,136.0469 Q742.4063,136.0469 743,135.7813 Q743.5938,135.5 744.2188,134.9219 L744.2188,137.6406 Z "/><text fill="#000000" font-family="sans-serif" font-size="12" lengthAdjust="spacingAndGlyphs" textLength="98" x="761.75" y="136.1543">Net_Disconnect</text><line style="stroke: #A80036; stroke-width: 1.5;" x1="569" x2="1020" y1="148" y2="148"/><ellipse cx="579" cy="159" fill="none" rx="3" ry="3" style="stroke: #038048; stroke-width: 1.0;"/><text fill="#000000" font-family="sans-serif" font-size="11" lengthAdjust="spacingAndGlyphs" textLength="143" x="588" y="162.2104">playerId : int «get» «set»</text><line style="stroke: #A80036; stroke-width: 1.5;" x1="569" x2="1020" y1="168.8047" y2="168.8047"/><ellipse cx="579" cy="179.8047" fill="#84BE84" rx="3" ry="3" style="stroke: #038048; stroke-width: 1.0;"/><text fill="#000000" font-family="sans-serif" font-size="11" lengthAdjust="spacingAndGlyphs" textLength="95" x="588" y="183.0151">Net_Disconnect()</text><ellipse cx="579" cy="192.6094" fill="#84BE84" rx="3" ry="3" style="stroke: #038048; stroke-width: 1.0;"/><text fill="#000000" font-family="sans-serif" font-size="11" lengthAdjust="spacingAndGlyphs" textLength="158" x="588" y="195.8198">Net_Disconnect(playerId:int)</text><ellipse cx="579" cy="205.4141" fill="#84BE84" rx="3" ry="3" style="stroke: #038048; stroke-width: 1.0;"/><text fill="#000000" font-family="sans-serif" font-size="11" lengthAdjust="spacingAndGlyphs" textLength="245" x="588" y="208.6245">Net_Disconnect(reader:DataStreamReader)</text><ellipse cx="579" cy="218.2188" fill="#84BE84" rx="3" ry="3" style="stroke: #038048; stroke-width: 1.0;"/><text fill="#000000" font-family="sans-serif" font-size="11" lengthAdjust="spacingAndGlyphs" textLength="427" x="588" y="221.4292">Net_Disconnect(reader:DataStreamReader, playerSpawner:PlayerSpawner)</text><ellipse cx="579" cy="231.0234" fill="#84BE84" rx="3" ry="3" style="stroke: #038048; stroke-width: 1.0;"/><text fill="#000000" font-family="sans-serif" font-size="11" lengthAdjust="spacingAndGlyphs" textLength="294" x="588" y="234.2339">«override» Serialize(writer:DataStreamWriter) : void</text><ellipse cx="579" cy="243.8281" fill="#84BE84" rx="3" ry="3" style="stroke: #038048; stroke-width: 1.0;"/><text fill="#000000" font-family="sans-serif" font-size="11" lengthAdjust="spacingAndGlyphs" textLength="320" x="588" y="247.0386">«override» Deserialize(reader:DataStreamReader) : void</text><ellipse cx="579" cy="256.6328" fill="#84BE84" rx="3" ry="3" style="stroke: #038048; stroke-width: 1.0;"/><text fill="#000000" font-family="sans-serif" font-size="11" lengthAdjust="spacingAndGlyphs" textLength="320" x="588" y="259.8433">«override» ReceivedOnServer(server:BaseServer) : void</text><ellipse cx="579" cy="269.4375" fill="#84BE84" rx="3" ry="3" style="stroke: #038048; stroke-width: 1.0;"/><text fill="#000000" font-family="sans-serif" font-size="11" lengthAdjust="spacingAndGlyphs" textLength="206" x="588" y="272.6479">«override» ReceivedOnClient() : void</text><!--MD5=[57013508309b10e1d30b46bd54336031]
class NetMessage--><rect fill="#FEFECE" filter="url(#fbgn4ehyswwlu)" height="48" id="NetMessage" style="stroke: #A80036; stroke-width: 1.5;" width="110" x="476.5" y="8"/><ellipse cx="491.5" cy="24" fill="#ADD1B2" rx="11" ry="11" style="stroke: #A80036; stroke-width: 1.0;"/><path d="M494.4688,29.6406 Q493.8906,29.9375 493.25,30.0781 Q492.6094,30.2344 491.9063,30.2344 Q489.4063,30.2344 488.0781,28.5938 Q486.7656,26.9375 486.7656,23.8125 Q486.7656,20.6875 488.0781,19.0313 Q489.4063,17.375 491.9063,17.375 Q492.6094,17.375 493.25,17.5313 Q493.9063,17.6875 494.4688,17.9844 L494.4688,20.7031 Q493.8438,20.125 493.25,19.8594 Q492.6563,19.5781 492.0313,19.5781 Q490.6875,19.5781 490,20.6563 Q489.3125,21.7188 489.3125,23.8125 Q489.3125,25.9063 490,26.9844 Q490.6875,28.0469 492.0313,28.0469 Q492.6563,28.0469 493.25,27.7813 Q493.8438,27.5 494.4688,26.9219 L494.4688,29.6406 Z "/><text fill="#000000" font-family="sans-serif" font-size="12" lengthAdjust="spacingAndGlyphs" textLength="78" x="505.5" y="28.1543">NetMessage</text><line style="stroke: #A80036; stroke-width: 1.5;" x1="477.5" x2="585.5" y1="40" y2="40"/><line style="stroke: #A80036; stroke-width: 1.5;" x1="477.5" x2="585.5" y1="48" y2="48"/><!--MD5=[69946188f0e52b8f6e96fd3cfb00189c]
reverse link NetMessage to Net_OpenBarriers--><path d="M477.09,66.96 C442.61,88.47 397.24,116.79 357.7,141.46 " fill="none" id="NetMessage&lt;-Net_OpenBarriers" style="stroke: #A80036; stroke-width: 1.0;"/><polygon fill="none" points="473.84,60.73,494.52,56.08,481.26,72.61,473.84,60.73" style="stroke: #A80036; stroke-width: 1.0;"/><!--MD5=[09e1b8bdcbb3a2176e6d74fd5e44b33a]
reverse link NetMessage to Net_Disconnect--><path d="M585.65,66.66 C608.8,81.05 636.9,98.53 664.9,115.93 " fill="none" id="NetMessage&lt;-Net_Disconnect" style="stroke: #A80036; stroke-width: 1.0;"/><polygon fill="none" points="581.91,72.58,568.62,56.08,589.3,60.69,581.91,72.58" style="stroke: #A80036; stroke-width: 1.0;"/><!--MD5=[12ccf6b8af1cdc767f5800275a9509b7]
@startuml
class Net_OpenBarriers {
    + Net_OpenBarriers()
    + Net_OpenBarriers(reader:DataStreamReader)
    + Net_OpenBarriers(reader:DataStreamReader, deathRunGameLoop:DeathRunGameLoop)
    + <<override>> Serialize(writer:DataStreamWriter) : void
    + <<override>> ReceivedOnClient() : void
}
class Net_Disconnect {
    + playerId : int <<get>> <<set>>
    + Net_Disconnect()
    + Net_Disconnect(playerId:int)
    + Net_Disconnect(reader:DataStreamReader)
    + Net_Disconnect(reader:DataStreamReader, playerSpawner:PlayerSpawner)
    + <<override>> Serialize(writer:DataStreamWriter) : void
    + <<override>> Deserialize(reader:DataStreamReader) : void
    + <<override>> ReceivedOnServer(server:BaseServer) : void
    + <<override>> ReceivedOnClient() : void
}
NetMessage <|- - Net_OpenBarriers
NetMessage <|- - Net_Disconnect
@enduml

PlantUML version 1.2020.02(Sun Mar 01 10:22:07 GMT 2020)
(GPL source distribution)
Java Runtime: OpenJDK Runtime Environment
JVM: OpenJDK 64-Bit Server VM
Java Version: 11.0.9+11-Ubuntu-0ubuntu1
Operating System: Linux
Default Encoding: ANSI_X3.4-1968
Language: en
Country: US
--></g></svg>