<?xml version="1.0" encoding="UTF-8" standalone="no"?><svg xmlns="http://www.w3.org/2000/svg" xmlns:xlink="http://www.w3.org/1999/xlink" contentScriptType="application/ecmascript" contentStyleType="text/css" height="277px" preserveAspectRatio="none" style="width:541px;height:277px;" version="1.1" viewBox="0 0 541 277" width="541px" zoomAndPan="magnify"><defs><filter height="300%" id="f4q3zpr4ogjq5" width="300%" x="-1" y="-1"><feGaussianBlur result="blurOut" stdDeviation="2.0"/><feColorMatrix in="blurOut" result="blurOut2" type="matrix" values="0 0 0 0 0 0 0 0 0 0 0 0 0 0 0 0 0 0 .4 0"/><feOffset dx="4.0" dy="4.0" in="blurOut2" result="blurOut3"/><feBlend in="SourceGraphic" in2="blurOut3" mode="normal"/></filter></defs><g><!--MD5=[897cc93ebdd470f73b091dd9699da753]
class Net_ReachedGoal--><rect fill="#FEFECE" filter="url(#f4q3zpr4ogjq5)" height="150.4375" id="Net_ReachedGoal" style="stroke: #A80036; stroke-width: 1.5;" width="524" x="6" y="116"/><ellipse cx="208.25" cy="132" fill="#ADD1B2" rx="11" ry="11" style="stroke: #A80036; stroke-width: 1.0;"/><path d="M211.2188,137.6406 Q210.6406,137.9375 210,138.0781 Q209.3594,138.2344 208.6563,138.2344 Q206.1563,138.2344 204.8281,136.5938 Q203.5156,134.9375 203.5156,131.8125 Q203.5156,128.6875 204.8281,127.0313 Q206.1563,125.375 208.6563,125.375 Q209.3594,125.375 210,125.5313 Q210.6563,125.6875 211.2188,125.9844 L211.2188,128.7031 Q210.5938,128.125 210,127.8594 Q209.4063,127.5781 208.7813,127.5781 Q207.4375,127.5781 206.75,128.6563 Q206.0625,129.7188 206.0625,131.8125 Q206.0625,133.9063 206.75,134.9844 Q207.4375,136.0469 208.7813,136.0469 Q209.4063,136.0469 210,135.7813 Q210.5938,135.5 211.2188,134.9219 L211.2188,137.6406 Z "/><text fill="#000000" font-family="sans-serif" font-size="12" lengthAdjust="spacingAndGlyphs" textLength="111" x="228.75" y="136.1543">Net_ReachedGoal</text><line style="stroke: #A80036; stroke-width: 1.5;" x1="7" x2="529" y1="148" y2="148"/><ellipse cx="17" cy="159" fill="none" rx="3" ry="3" style="stroke: #038048; stroke-width: 1.0;"/><text fill="#000000" font-family="sans-serif" font-size="11" lengthAdjust="spacingAndGlyphs" textLength="143" x="26" y="162.2104">playerId : int «get» «set»</text><line style="stroke: #A80036; stroke-width: 1.5;" x1="7" x2="529" y1="168.8047" y2="168.8047"/><ellipse cx="17" cy="179.8047" fill="#84BE84" rx="3" ry="3" style="stroke: #038048; stroke-width: 1.0;"/><text fill="#000000" font-family="sans-serif" font-size="11" lengthAdjust="spacingAndGlyphs" textLength="107" x="26" y="183.0151">Net_ReachedGoal()</text><ellipse cx="17" cy="192.6094" fill="#84BE84" rx="3" ry="3" style="stroke: #038048; stroke-width: 1.0;"/><text fill="#000000" font-family="sans-serif" font-size="11" lengthAdjust="spacingAndGlyphs" textLength="170" x="26" y="195.8198">Net_ReachedGoal(playerId:int)</text><ellipse cx="17" cy="205.4141" fill="#84BE84" rx="3" ry="3" style="stroke: #038048; stroke-width: 1.0;"/><text fill="#000000" font-family="sans-serif" font-size="11" lengthAdjust="spacingAndGlyphs" textLength="257" x="26" y="208.6245">Net_ReachedGoal(reader:DataStreamReader)</text><ellipse cx="17" cy="218.2188" fill="#84BE84" rx="3" ry="3" style="stroke: #038048; stroke-width: 1.0;"/><text fill="#000000" font-family="sans-serif" font-size="11" lengthAdjust="spacingAndGlyphs" textLength="498" x="26" y="221.4292">Net_ReachedGoal(reader:DataStreamReader, deathRunGameLoop:DeathRunGameLoop)</text><ellipse cx="17" cy="231.0234" fill="#84BE84" rx="3" ry="3" style="stroke: #038048; stroke-width: 1.0;"/><text fill="#000000" font-family="sans-serif" font-size="11" lengthAdjust="spacingAndGlyphs" textLength="294" x="26" y="234.2339">«override» Serialize(writer:DataStreamWriter) : void</text><ellipse cx="17" cy="243.8281" fill="#84BE84" rx="3" ry="3" style="stroke: #038048; stroke-width: 1.0;"/><text fill="#000000" font-family="sans-serif" font-size="11" lengthAdjust="spacingAndGlyphs" textLength="320" x="26" y="247.0386">«override» Deserialize(reader:DataStreamReader) : void</text><ellipse cx="17" cy="256.6328" fill="#84BE84" rx="3" ry="3" style="stroke: #038048; stroke-width: 1.0;"/><text fill="#000000" font-family="sans-serif" font-size="11" lengthAdjust="spacingAndGlyphs" textLength="320" x="26" y="259.8433">«override» ReceivedOnServer(server:BaseServer) : void</text><!--MD5=[57013508309b10e1d30b46bd54336031]
class NetMessage--><rect fill="#FEFECE" filter="url(#f4q3zpr4ogjq5)" height="48" id="NetMessage" style="stroke: #A80036; stroke-width: 1.5;" width="110" x="213" y="8"/><ellipse cx="228" cy="24" fill="#ADD1B2" rx="11" ry="11" style="stroke: #A80036; stroke-width: 1.0;"/><path d="M230.9688,29.6406 Q230.3906,29.9375 229.75,30.0781 Q229.1094,30.2344 228.4063,30.2344 Q225.9063,30.2344 224.5781,28.5938 Q223.2656,26.9375 223.2656,23.8125 Q223.2656,20.6875 224.5781,19.0313 Q225.9063,17.375 228.4063,17.375 Q229.1094,17.375 229.75,17.5313 Q230.4063,17.6875 230.9688,17.9844 L230.9688,20.7031 Q230.3438,20.125 229.75,19.8594 Q229.1563,19.5781 228.5313,19.5781 Q227.1875,19.5781 226.5,20.6563 Q225.8125,21.7188 225.8125,23.8125 Q225.8125,25.9063 226.5,26.9844 Q227.1875,28.0469 228.5313,28.0469 Q229.1563,28.0469 229.75,27.7813 Q230.3438,27.5 230.9688,26.9219 L230.9688,29.6406 Z "/><text fill="#000000" font-family="sans-serif" font-size="12" lengthAdjust="spacingAndGlyphs" textLength="78" x="242" y="28.1543">NetMessage</text><line style="stroke: #A80036; stroke-width: 1.5;" x1="214" x2="322" y1="40" y2="40"/><line style="stroke: #A80036; stroke-width: 1.5;" x1="214" x2="322" y1="48" y2="48"/><!--MD5=[4704fe418e793a6cc04a38c0b825c0f6]
reverse link NetMessage to Net_ReachedGoal--><path d="M268,76.38 C268,88.67 268,102.4 268,115.96 " fill="none" id="NetMessage&lt;-Net_ReachedGoal" style="stroke: #A80036; stroke-width: 1.0;"/><polygon fill="none" points="261,76.17,268,56.17,275,76.17,261,76.17" style="stroke: #A80036; stroke-width: 1.0;"/><!--MD5=[5c5d790234e9800dd1f1edb41aa7965e]
@startuml
class Net_ReachedGoal {
    + playerId : int <<get>> <<set>>
    + Net_ReachedGoal()
    + Net_ReachedGoal(playerId:int)
    + Net_ReachedGoal(reader:DataStreamReader)
    + Net_ReachedGoal(reader:DataStreamReader, deathRunGameLoop:DeathRunGameLoop)
    + <<override>> Serialize(writer:DataStreamWriter) : void
    + <<override>> Deserialize(reader:DataStreamReader) : void
    + <<override>> ReceivedOnServer(server:BaseServer) : void
}
NetMessage <|- - Net_ReachedGoal
@enduml

PlantUML version 1.2020.02(Sun Mar 01 10:22:07 GMT 2020)
(GPL source distribution)
Java Runtime: OpenJDK Runtime Environment
JVM: OpenJDK 64-Bit Server VM
Java Version: 11.0.9+11-Ubuntu-0ubuntu1
Operating System: Linux
Default Encoding: ANSI_X3.4-1968
Language: en
Country: US
--></g></svg>