<?xml version="1.0" encoding="UTF-8" standalone="no"?><svg xmlns="http://www.w3.org/2000/svg" xmlns:xlink="http://www.w3.org/1999/xlink" contentScriptType="application/ecmascript" contentStyleType="text/css" height="290px" preserveAspectRatio="none" style="width:577px;height:290px;" version="1.1" viewBox="0 0 577 290" width="577px" zoomAndPan="magnify"><defs><filter height="300%" id="f14k2mvggz9faf" width="300%" x="-1" y="-1"><feGaussianBlur result="blurOut" stdDeviation="2.0"/><feColorMatrix in="blurOut" result="blurOut2" type="matrix" values="0 0 0 0 0 0 0 0 0 0 0 0 0 0 0 0 0 0 .4 0"/><feOffset dx="4.0" dy="4.0" in="blurOut2" result="blurOut3"/><feBlend in="SourceGraphic" in2="blurOut3" mode="normal"/></filter></defs><g><!--MD5=[637d984faa8b71f14bfab903a8db5087]
class Net_ReachedCheckpoint--><rect fill="#FEFECE" filter="url(#f14k2mvggz9faf)" height="163.2422" id="Net_ReachedCheckpoint" style="stroke: #A80036; stroke-width: 1.5;" width="560" x="6" y="116"/><ellipse cx="205.25" cy="132" fill="#ADD1B2" rx="11" ry="11" style="stroke: #A80036; stroke-width: 1.0;"/><path d="M208.2188,137.6406 Q207.6406,137.9375 207,138.0781 Q206.3594,138.2344 205.6563,138.2344 Q203.1563,138.2344 201.8281,136.5938 Q200.5156,134.9375 200.5156,131.8125 Q200.5156,128.6875 201.8281,127.0313 Q203.1563,125.375 205.6563,125.375 Q206.3594,125.375 207,125.5313 Q207.6563,125.6875 208.2188,125.9844 L208.2188,128.7031 Q207.5938,128.125 207,127.8594 Q206.4063,127.5781 205.7813,127.5781 Q204.4375,127.5781 203.75,128.6563 Q203.0625,129.7188 203.0625,131.8125 Q203.0625,133.9063 203.75,134.9844 Q204.4375,136.0469 205.7813,136.0469 Q206.4063,136.0469 207,135.7813 Q207.5938,135.5 208.2188,134.9219 L208.2188,137.6406 Z "/><text fill="#000000" font-family="sans-serif" font-size="12" lengthAdjust="spacingAndGlyphs" textLength="153" x="225.75" y="136.1543">Net_ReachedCheckpoint</text><line style="stroke: #A80036; stroke-width: 1.5;" x1="7" x2="565" y1="148" y2="148"/><ellipse cx="17" cy="159" fill="none" rx="3" ry="3" style="stroke: #038048; stroke-width: 1.0;"/><text fill="#000000" font-family="sans-serif" font-size="11" lengthAdjust="spacingAndGlyphs" textLength="143" x="26" y="162.2104">playerId : int «get» «set»</text><ellipse cx="17" cy="171.8047" fill="none" rx="3" ry="3" style="stroke: #038048; stroke-width: 1.0;"/><text fill="#000000" font-family="sans-serif" font-size="11" lengthAdjust="spacingAndGlyphs" textLength="168" x="26" y="175.0151">checkpointId : int «get» «set»</text><line style="stroke: #A80036; stroke-width: 1.5;" x1="7" x2="565" y1="181.6094" y2="181.6094"/><ellipse cx="17" cy="192.6094" fill="#84BE84" rx="3" ry="3" style="stroke: #038048; stroke-width: 1.0;"/><text fill="#000000" font-family="sans-serif" font-size="11" lengthAdjust="spacingAndGlyphs" textLength="143" x="26" y="195.8198">Net_ReachedCheckpoint()</text><ellipse cx="17" cy="205.4141" fill="#84BE84" rx="3" ry="3" style="stroke: #038048; stroke-width: 1.0;"/><text fill="#000000" font-family="sans-serif" font-size="11" lengthAdjust="spacingAndGlyphs" textLength="302" x="26" y="208.6245">Net_ReachedCheckpoint(playerId:int, checkpointId:int)</text><ellipse cx="17" cy="218.2188" fill="#84BE84" rx="3" ry="3" style="stroke: #038048; stroke-width: 1.0;"/><text fill="#000000" font-family="sans-serif" font-size="11" lengthAdjust="spacingAndGlyphs" textLength="293" x="26" y="221.4292">Net_ReachedCheckpoint(reader:DataStreamReader)</text><ellipse cx="17" cy="231.0234" fill="#84BE84" rx="3" ry="3" style="stroke: #038048; stroke-width: 1.0;"/><text fill="#000000" font-family="sans-serif" font-size="11" lengthAdjust="spacingAndGlyphs" textLength="534" x="26" y="234.2339">Net_ReachedCheckpoint(reader:DataStreamReader, deathRunGameLoop:DeathRunGameLoop)</text><ellipse cx="17" cy="243.8281" fill="#84BE84" rx="3" ry="3" style="stroke: #038048; stroke-width: 1.0;"/><text fill="#000000" font-family="sans-serif" font-size="11" lengthAdjust="spacingAndGlyphs" textLength="294" x="26" y="247.0386">«override» Serialize(writer:DataStreamWriter) : void</text><ellipse cx="17" cy="256.6328" fill="#84BE84" rx="3" ry="3" style="stroke: #038048; stroke-width: 1.0;"/><text fill="#000000" font-family="sans-serif" font-size="11" lengthAdjust="spacingAndGlyphs" textLength="320" x="26" y="259.8433">«override» Deserialize(reader:DataStreamReader) : void</text><ellipse cx="17" cy="269.4375" fill="#84BE84" rx="3" ry="3" style="stroke: #038048; stroke-width: 1.0;"/><text fill="#000000" font-family="sans-serif" font-size="11" lengthAdjust="spacingAndGlyphs" textLength="320" x="26" y="272.6479">«override» ReceivedOnServer(server:BaseServer) : void</text><!--MD5=[57013508309b10e1d30b46bd54336031]
class NetMessage--><rect fill="#FEFECE" filter="url(#f14k2mvggz9faf)" height="48" id="NetMessage" style="stroke: #A80036; stroke-width: 1.5;" width="110" x="231" y="8"/><ellipse cx="246" cy="24" fill="#ADD1B2" rx="11" ry="11" style="stroke: #A80036; stroke-width: 1.0;"/><path d="M248.9688,29.6406 Q248.3906,29.9375 247.75,30.0781 Q247.1094,30.2344 246.4063,30.2344 Q243.9063,30.2344 242.5781,28.5938 Q241.2656,26.9375 241.2656,23.8125 Q241.2656,20.6875 242.5781,19.0313 Q243.9063,17.375 246.4063,17.375 Q247.1094,17.375 247.75,17.5313 Q248.4063,17.6875 248.9688,17.9844 L248.9688,20.7031 Q248.3438,20.125 247.75,19.8594 Q247.1563,19.5781 246.5313,19.5781 Q245.1875,19.5781 244.5,20.6563 Q243.8125,21.7188 243.8125,23.8125 Q243.8125,25.9063 244.5,26.9844 Q245.1875,28.0469 246.5313,28.0469 Q247.1563,28.0469 247.75,27.7813 Q248.3438,27.5 248.9688,26.9219 L248.9688,29.6406 Z "/><text fill="#000000" font-family="sans-serif" font-size="12" lengthAdjust="spacingAndGlyphs" textLength="78" x="260" y="28.1543">NetMessage</text><line style="stroke: #A80036; stroke-width: 1.5;" x1="232" x2="340" y1="40" y2="40"/><line style="stroke: #A80036; stroke-width: 1.5;" x1="232" x2="340" y1="48" y2="48"/><!--MD5=[10e0ea8130e1251c30055111db61c9fe]
reverse link NetMessage to Net_ReachedCheckpoint--><path d="M286,76.19 C286,88.45 286,102.21 286,115.93 " fill="none" id="NetMessage&lt;-Net_ReachedCheckpoint" style="stroke: #A80036; stroke-width: 1.0;"/><polygon fill="none" points="279,76.08,286,56.08,293,76.08,279,76.08" style="stroke: #A80036; stroke-width: 1.0;"/><!--MD5=[01e818b1cf9175c331d7ee3809751e36]
@startuml
class Net_ReachedCheckpoint {
    + playerId : int <<get>> <<set>>
    + checkpointId : int <<get>> <<set>>
    + Net_ReachedCheckpoint()
    + Net_ReachedCheckpoint(playerId:int, checkpointId:int)
    + Net_ReachedCheckpoint(reader:DataStreamReader)
    + Net_ReachedCheckpoint(reader:DataStreamReader, deathRunGameLoop:DeathRunGameLoop)
    + <<override>> Serialize(writer:DataStreamWriter) : void
    + <<override>> Deserialize(reader:DataStreamReader) : void
    + <<override>> ReceivedOnServer(server:BaseServer) : void
}
NetMessage <|- - Net_ReachedCheckpoint
@enduml

PlantUML version 1.2020.02(Sun Mar 01 10:22:07 GMT 2020)
(GPL source distribution)
Java Runtime: OpenJDK Runtime Environment
JVM: OpenJDK 64-Bit Server VM
Java Version: 11.0.9+11-Ubuntu-0ubuntu1
Operating System: Linux
Default Encoding: ANSI_X3.4-1968
Language: en
Country: US
--></g></svg>