<?xml version="1.0" encoding="UTF-8" standalone="no"?><svg xmlns="http://www.w3.org/2000/svg" xmlns:xlink="http://www.w3.org/1999/xlink" contentScriptType="application/ecmascript" contentStyleType="text/css" height="328px" preserveAspectRatio="none" style="width:508px;height:328px;" version="1.1" viewBox="0 0 508 328" width="508px" zoomAndPan="magnify"><defs><filter height="300%" id="f1w0vcukdvpwbd" width="300%" x="-1" y="-1"><feGaussianBlur result="blurOut" stdDeviation="2.0"/><feColorMatrix in="blurOut" result="blurOut2" type="matrix" values="0 0 0 0 0 0 0 0 0 0 0 0 0 0 0 0 0 0 .4 0"/><feOffset dx="4.0" dy="4.0" in="blurOut2" result="blurOut3"/><feBlend in="SourceGraphic" in2="blurOut3" mode="normal"/></filter></defs><g><!--MD5=[22890f11cfcc526cd52ffd5d610223a6]
class Net_TeleportPlayer--><rect fill="#FEFECE" filter="url(#f1w0vcukdvpwbd)" height="201.6563" id="Net_TeleportPlayer" style="stroke: #A80036; stroke-width: 1.5;" width="491" x="6" y="116"/><ellipse cx="188.25" cy="132" fill="#ADD1B2" rx="11" ry="11" style="stroke: #A80036; stroke-width: 1.0;"/><path d="M191.2188,137.6406 Q190.6406,137.9375 190,138.0781 Q189.3594,138.2344 188.6563,138.2344 Q186.1563,138.2344 184.8281,136.5938 Q183.5156,134.9375 183.5156,131.8125 Q183.5156,128.6875 184.8281,127.0313 Q186.1563,125.375 188.6563,125.375 Q189.3594,125.375 190,125.5313 Q190.6563,125.6875 191.2188,125.9844 L191.2188,128.7031 Q190.5938,128.125 190,127.8594 Q189.4063,127.5781 188.7813,127.5781 Q187.4375,127.5781 186.75,128.6563 Q186.0625,129.7188 186.0625,131.8125 Q186.0625,133.9063 186.75,134.9844 Q187.4375,136.0469 188.7813,136.0469 Q189.4063,136.0469 190,135.7813 Q190.5938,135.5 191.2188,134.9219 L191.2188,137.6406 Z "/><text fill="#000000" font-family="sans-serif" font-size="12" lengthAdjust="spacingAndGlyphs" textLength="118" x="208.75" y="136.1543">Net_TeleportPlayer</text><line style="stroke: #A80036; stroke-width: 1.5;" x1="7" x2="496" y1="148" y2="148"/><ellipse cx="17" cy="159" fill="none" rx="3" ry="3" style="stroke: #038048; stroke-width: 1.0;"/><text fill="#000000" font-family="sans-serif" font-size="11" lengthAdjust="spacingAndGlyphs" textLength="143" x="26" y="162.2104">playerId : int «get» «set»</text><ellipse cx="17" cy="171.8047" fill="none" rx="3" ry="3" style="stroke: #038048; stroke-width: 1.0;"/><text fill="#000000" font-family="sans-serif" font-size="11" lengthAdjust="spacingAndGlyphs" textLength="136" x="26" y="175.0151">xPos : float «get» «set»</text><ellipse cx="17" cy="184.6094" fill="none" rx="3" ry="3" style="stroke: #038048; stroke-width: 1.0;"/><text fill="#000000" font-family="sans-serif" font-size="11" lengthAdjust="spacingAndGlyphs" textLength="136" x="26" y="187.8198">yPos : float «get» «set»</text><ellipse cx="17" cy="197.4141" fill="none" rx="3" ry="3" style="stroke: #038048; stroke-width: 1.0;"/><text fill="#000000" font-family="sans-serif" font-size="11" lengthAdjust="spacingAndGlyphs" textLength="135" x="26" y="200.6245">zPos : float «get» «set»</text><line style="stroke: #A80036; stroke-width: 1.5;" x1="7" x2="496" y1="207.2188" y2="207.2188"/><ellipse cx="17" cy="218.2188" fill="#84BE84" rx="3" ry="3" style="stroke: #038048; stroke-width: 1.0;"/><text fill="#000000" font-family="sans-serif" font-size="11" lengthAdjust="spacingAndGlyphs" textLength="115" x="26" y="221.4292">Net_TeleportPlayer()</text><ellipse cx="17" cy="231.0234" fill="#84BE84" rx="3" ry="3" style="stroke: #038048; stroke-width: 1.0;"/><text fill="#000000" font-family="sans-serif" font-size="11" lengthAdjust="spacingAndGlyphs" textLength="265" x="26" y="234.2339">Net_TeleportPlayer(reader:DataStreamReader)</text><ellipse cx="17" cy="243.8281" fill="#84BE84" rx="3" ry="3" style="stroke: #038048; stroke-width: 1.0;"/><text fill="#000000" font-family="sans-serif" font-size="11" lengthAdjust="spacingAndGlyphs" textLength="465" x="26" y="247.0386">Net_TeleportPlayer(reader:DataStreamReader, playerTeleporter:PlayerTeleporter)</text><ellipse cx="17" cy="256.6328" fill="#84BE84" rx="3" ry="3" style="stroke: #038048; stroke-width: 1.0;"/><text fill="#000000" font-family="sans-serif" font-size="11" lengthAdjust="spacingAndGlyphs" textLength="369" x="26" y="259.8433">Net_TeleportPlayer(playerId:int, xPos:float, yPos:float, zPos:float)</text><ellipse cx="17" cy="269.4375" fill="#84BE84" rx="3" ry="3" style="stroke: #038048; stroke-width: 1.0;"/><text fill="#000000" font-family="sans-serif" font-size="11" lengthAdjust="spacingAndGlyphs" textLength="294" x="26" y="272.6479">«override» Serialize(writer:DataStreamWriter) : void</text><ellipse cx="17" cy="282.2422" fill="#84BE84" rx="3" ry="3" style="stroke: #038048; stroke-width: 1.0;"/><text fill="#000000" font-family="sans-serif" font-size="11" lengthAdjust="spacingAndGlyphs" textLength="320" x="26" y="285.4526">«override» Deserialize(reader:DataStreamReader) : void</text><ellipse cx="17" cy="295.0469" fill="#84BE84" rx="3" ry="3" style="stroke: #038048; stroke-width: 1.0;"/><text fill="#000000" font-family="sans-serif" font-size="11" lengthAdjust="spacingAndGlyphs" textLength="320" x="26" y="298.2573">«override» ReceivedOnServer(server:BaseServer) : void</text><ellipse cx="17" cy="307.8516" fill="#84BE84" rx="3" ry="3" style="stroke: #038048; stroke-width: 1.0;"/><text fill="#000000" font-family="sans-serif" font-size="11" lengthAdjust="spacingAndGlyphs" textLength="206" x="26" y="311.062">«override» ReceivedOnClient() : void</text><!--MD5=[57013508309b10e1d30b46bd54336031]
class NetMessage--><rect fill="#FEFECE" filter="url(#f1w0vcukdvpwbd)" height="48" id="NetMessage" style="stroke: #A80036; stroke-width: 1.5;" width="110" x="196.5" y="8"/><ellipse cx="211.5" cy="24" fill="#ADD1B2" rx="11" ry="11" style="stroke: #A80036; stroke-width: 1.0;"/><path d="M214.4688,29.6406 Q213.8906,29.9375 213.25,30.0781 Q212.6094,30.2344 211.9063,30.2344 Q209.4063,30.2344 208.0781,28.5938 Q206.7656,26.9375 206.7656,23.8125 Q206.7656,20.6875 208.0781,19.0313 Q209.4063,17.375 211.9063,17.375 Q212.6094,17.375 213.25,17.5313 Q213.9063,17.6875 214.4688,17.9844 L214.4688,20.7031 Q213.8438,20.125 213.25,19.8594 Q212.6563,19.5781 212.0313,19.5781 Q210.6875,19.5781 210,20.6563 Q209.3125,21.7188 209.3125,23.8125 Q209.3125,25.9063 210,26.9844 Q210.6875,28.0469 212.0313,28.0469 Q212.6563,28.0469 213.25,27.7813 Q213.8438,27.5 214.4688,26.9219 L214.4688,29.6406 Z "/><text fill="#000000" font-family="sans-serif" font-size="12" lengthAdjust="spacingAndGlyphs" textLength="78" x="225.5" y="28.1543">NetMessage</text><line style="stroke: #A80036; stroke-width: 1.5;" x1="197.5" x2="305.5" y1="40" y2="40"/><line style="stroke: #A80036; stroke-width: 1.5;" x1="197.5" x2="305.5" y1="48" y2="48"/><!--MD5=[5f1c109a8583beb467e8fad5d537b160]
reverse link NetMessage to Net_TeleportPlayer--><path d="M251.5,76.46 C251.5,88.49 251.5,102.06 251.5,115.9 " fill="none" id="NetMessage&lt;-Net_TeleportPlayer" style="stroke: #A80036; stroke-width: 1.0;"/><polygon fill="none" points="244.5,76.18,251.5,56.18,258.5,76.18,244.5,76.18" style="stroke: #A80036; stroke-width: 1.0;"/><!--MD5=[b7ac5e679259acf530a52286af8d579e]
@startuml
class Net_TeleportPlayer {
    + playerId : int <<get>> <<set>>
    + xPos : float <<get>> <<set>>
    + yPos : float <<get>> <<set>>
    + zPos : float <<get>> <<set>>
    + Net_TeleportPlayer()
    + Net_TeleportPlayer(reader:DataStreamReader)
    + Net_TeleportPlayer(reader:DataStreamReader, playerTeleporter:PlayerTeleporter)
    + Net_TeleportPlayer(playerId:int, xPos:float, yPos:float, zPos:float)
    + <<override>> Serialize(writer:DataStreamWriter) : void
    + <<override>> Deserialize(reader:DataStreamReader) : void
    + <<override>> ReceivedOnServer(server:BaseServer) : void
    + <<override>> ReceivedOnClient() : void
}
NetMessage <|- - Net_TeleportPlayer
@enduml

PlantUML version 1.2020.02(Sun Mar 01 10:22:07 GMT 2020)
(GPL source distribution)
Java Runtime: OpenJDK Runtime Environment
JVM: OpenJDK 64-Bit Server VM
Java Version: 11.0.9+11-Ubuntu-0ubuntu1
Operating System: Linux
Default Encoding: ANSI_X3.4-1968
Language: en
Country: US
--></g></svg>