<?xml version="1.0" encoding="UTF-8" standalone="no"?><svg xmlns="http://www.w3.org/2000/svg" xmlns:xlink="http://www.w3.org/1999/xlink" contentScriptType="application/ecmascript" contentStyleType="text/css" height="239px" preserveAspectRatio="none" style="width:544px;height:239px;" version="1.1" viewBox="0 0 544 239" width="544px" zoomAndPan="magnify"><defs><filter height="300%" id="f1d90cywysgh43" width="300%" x="-1" y="-1"><feGaussianBlur result="blurOut" stdDeviation="2.0"/><feColorMatrix in="blurOut" result="blurOut2" type="matrix" values="0 0 0 0 0 0 0 0 0 0 0 0 0 0 0 0 0 0 .4 0"/><feOffset dx="4.0" dy="4.0" in="blurOut2" result="blurOut3"/><feBlend in="SourceGraphic" in2="blurOut3" mode="normal"/></filter></defs><g><!--MD5=[6f98e6287f18ca39b53b7c2517140299]
class Net_OpenBarriers--><rect fill="#FEFECE" filter="url(#f1d90cywysgh43)" height="112.0234" id="Net_OpenBarriers" style="stroke: #A80036; stroke-width: 1.5;" width="527" x="6" y="116"/><ellipse cx="210.25" cy="132" fill="#ADD1B2" rx="11" ry="11" style="stroke: #A80036; stroke-width: 1.0;"/><path d="M213.2188,137.6406 Q212.6406,137.9375 212,138.0781 Q211.3594,138.2344 210.6563,138.2344 Q208.1563,138.2344 206.8281,136.5938 Q205.5156,134.9375 205.5156,131.8125 Q205.5156,128.6875 206.8281,127.0313 Q208.1563,125.375 210.6563,125.375 Q211.3594,125.375 212,125.5313 Q212.6563,125.6875 213.2188,125.9844 L213.2188,128.7031 Q212.5938,128.125 212,127.8594 Q211.4063,127.5781 210.7813,127.5781 Q209.4375,127.5781 208.75,128.6563 Q208.0625,129.7188 208.0625,131.8125 Q208.0625,133.9063 208.75,134.9844 Q209.4375,136.0469 210.7813,136.0469 Q211.4063,136.0469 212,135.7813 Q212.5938,135.5 213.2188,134.9219 L213.2188,137.6406 Z "/><text fill="#000000" font-family="sans-serif" font-size="12" lengthAdjust="spacingAndGlyphs" textLength="110" x="230.75" y="136.1543">Net_OpenBarriers</text><line style="stroke: #A80036; stroke-width: 1.5;" x1="7" x2="532" y1="148" y2="148"/><line style="stroke: #A80036; stroke-width: 1.5;" x1="7" x2="532" y1="156" y2="156"/><ellipse cx="17" cy="167" fill="#84BE84" rx="3" ry="3" style="stroke: #038048; stroke-width: 1.0;"/><text fill="#000000" font-family="sans-serif" font-size="11" lengthAdjust="spacingAndGlyphs" textLength="110" x="26" y="170.2104">Net_OpenBarriers()</text><ellipse cx="17" cy="179.8047" fill="#84BE84" rx="3" ry="3" style="stroke: #038048; stroke-width: 1.0;"/><text fill="#000000" font-family="sans-serif" font-size="11" lengthAdjust="spacingAndGlyphs" textLength="260" x="26" y="183.0151">Net_OpenBarriers(reader:DataStreamReader)</text><ellipse cx="17" cy="192.6094" fill="#84BE84" rx="3" ry="3" style="stroke: #038048; stroke-width: 1.0;"/><text fill="#000000" font-family="sans-serif" font-size="11" lengthAdjust="spacingAndGlyphs" textLength="501" x="26" y="195.8198">Net_OpenBarriers(reader:DataStreamReader, deathRunGameLoop:DeathRunGameLoop)</text><ellipse cx="17" cy="205.4141" fill="#84BE84" rx="3" ry="3" style="stroke: #038048; stroke-width: 1.0;"/><text fill="#000000" font-family="sans-serif" font-size="11" lengthAdjust="spacingAndGlyphs" textLength="294" x="26" y="208.6245">«override» Serialize(writer:DataStreamWriter) : void</text><ellipse cx="17" cy="218.2188" fill="#84BE84" rx="3" ry="3" style="stroke: #038048; stroke-width: 1.0;"/><text fill="#000000" font-family="sans-serif" font-size="11" lengthAdjust="spacingAndGlyphs" textLength="206" x="26" y="221.4292">«override» ReceivedOnClient() : void</text><!--MD5=[57013508309b10e1d30b46bd54336031]
class NetMessage--><rect fill="#FEFECE" filter="url(#f1d90cywysgh43)" height="48" id="NetMessage" style="stroke: #A80036; stroke-width: 1.5;" width="110" x="214.5" y="8"/><ellipse cx="229.5" cy="24" fill="#ADD1B2" rx="11" ry="11" style="stroke: #A80036; stroke-width: 1.0;"/><path d="M232.4688,29.6406 Q231.8906,29.9375 231.25,30.0781 Q230.6094,30.2344 229.9063,30.2344 Q227.4063,30.2344 226.0781,28.5938 Q224.7656,26.9375 224.7656,23.8125 Q224.7656,20.6875 226.0781,19.0313 Q227.4063,17.375 229.9063,17.375 Q230.6094,17.375 231.25,17.5313 Q231.9063,17.6875 232.4688,17.9844 L232.4688,20.7031 Q231.8438,20.125 231.25,19.8594 Q230.6563,19.5781 230.0313,19.5781 Q228.6875,19.5781 228,20.6563 Q227.3125,21.7188 227.3125,23.8125 Q227.3125,25.9063 228,26.9844 Q228.6875,28.0469 230.0313,28.0469 Q230.6563,28.0469 231.25,27.7813 Q231.8438,27.5 232.4688,26.9219 L232.4688,29.6406 Z "/><text fill="#000000" font-family="sans-serif" font-size="12" lengthAdjust="spacingAndGlyphs" textLength="78" x="243.5" y="28.1543">NetMessage</text><line style="stroke: #A80036; stroke-width: 1.5;" x1="215.5" x2="323.5" y1="40" y2="40"/><line style="stroke: #A80036; stroke-width: 1.5;" x1="215.5" x2="323.5" y1="48" y2="48"/><!--MD5=[69946188f0e52b8f6e96fd3cfb00189c]
reverse link NetMessage to Net_OpenBarriers--><path d="M269.5,76.25 C269.5,88.82 269.5,102.73 269.5,115.93 " fill="none" id="NetMessage&lt;-Net_OpenBarriers" style="stroke: #A80036; stroke-width: 1.0;"/><polygon fill="none" points="262.5,76.1,269.5,56.1,276.5,76.1,262.5,76.1" style="stroke: #A80036; stroke-width: 1.0;"/><!--MD5=[b49c4c50d086bae7f1ddbba9e652d979]
@startuml
class Net_OpenBarriers {
    + Net_OpenBarriers()
    + Net_OpenBarriers(reader:DataStreamReader)
    + Net_OpenBarriers(reader:DataStreamReader, deathRunGameLoop:DeathRunGameLoop)
    + <<override>> Serialize(writer:DataStreamWriter) : void
    + <<override>> ReceivedOnClient() : void
}
NetMessage <|- - Net_OpenBarriers
@enduml

PlantUML version 1.2020.02(Sun Mar 01 10:22:07 GMT 2020)
(GPL source distribution)
Java Runtime: OpenJDK Runtime Environment
JVM: OpenJDK 64-Bit Server VM
Java Version: 11.0.9+11-Ubuntu-0ubuntu1
Operating System: Linux
Default Encoding: ANSI_X3.4-1968
Language: en
Country: US
--></g></svg>