<?xml version="1.0" encoding="UTF-8" standalone="no"?><svg xmlns="http://www.w3.org/2000/svg" xmlns:xlink="http://www.w3.org/1999/xlink" contentScriptType="application/ecmascript" contentStyleType="text/css" height="328px" preserveAspectRatio="none" style="width:547px;height:328px;" version="1.1" viewBox="0 0 547 328" width="547px" zoomAndPan="magnify"><defs><filter height="300%" id="fzdf6jntl00pp" width="300%" x="-1" y="-1"><feGaussianBlur result="blurOut" stdDeviation="2.0"/><feColorMatrix in="blurOut" result="blurOut2" type="matrix" values="0 0 0 0 0 0 0 0 0 0 0 0 0 0 0 0 0 0 .4 0"/><feOffset dx="4.0" dy="4.0" in="blurOut2" result="blurOut3"/><feBlend in="SourceGraphic" in2="blurOut3" mode="normal"/></filter></defs><g><!--MD5=[30e3f15d5cf028f8a23b6bb26f4aceab]
class Net_PlayerTransform--><rect fill="#FEFECE" filter="url(#fzdf6jntl00pp)" height="201.6563" id="Net_PlayerTransform" style="stroke: #A80036; stroke-width: 1.5;" width="530" x="6" y="116"/><ellipse cx="202.25" cy="132" fill="#ADD1B2" rx="11" ry="11" style="stroke: #A80036; stroke-width: 1.0;"/><path d="M205.2188,137.6406 Q204.6406,137.9375 204,138.0781 Q203.3594,138.2344 202.6563,138.2344 Q200.1563,138.2344 198.8281,136.5938 Q197.5156,134.9375 197.5156,131.8125 Q197.5156,128.6875 198.8281,127.0313 Q200.1563,125.375 202.6563,125.375 Q203.3594,125.375 204,125.5313 Q204.6563,125.6875 205.2188,125.9844 L205.2188,128.7031 Q204.5938,128.125 204,127.8594 Q203.4063,127.5781 202.7813,127.5781 Q201.4375,127.5781 200.75,128.6563 Q200.0625,129.7188 200.0625,131.8125 Q200.0625,133.9063 200.75,134.9844 Q201.4375,136.0469 202.7813,136.0469 Q203.4063,136.0469 204,135.7813 Q204.5938,135.5 205.2188,134.9219 L205.2188,137.6406 Z "/><text fill="#000000" font-family="sans-serif" font-size="12" lengthAdjust="spacingAndGlyphs" textLength="129" x="222.75" y="136.1543">Net_PlayerTransform</text><line style="stroke: #A80036; stroke-width: 1.5;" x1="7" x2="535" y1="148" y2="148"/><ellipse cx="17" cy="159" fill="none" rx="3" ry="3" style="stroke: #038048; stroke-width: 1.0;"/><text fill="#000000" font-family="sans-serif" font-size="11" lengthAdjust="spacingAndGlyphs" textLength="143" x="26" y="162.2104">playerId : int «get» «set»</text><ellipse cx="17" cy="171.8047" fill="none" rx="3" ry="3" style="stroke: #038048; stroke-width: 1.0;"/><text fill="#000000" font-family="sans-serif" font-size="11" lengthAdjust="spacingAndGlyphs" textLength="136" x="26" y="175.0151">xPos : float «get» «set»</text><ellipse cx="17" cy="184.6094" fill="none" rx="3" ry="3" style="stroke: #038048; stroke-width: 1.0;"/><text fill="#000000" font-family="sans-serif" font-size="11" lengthAdjust="spacingAndGlyphs" textLength="136" x="26" y="187.8198">yPos : float «get» «set»</text><ellipse cx="17" cy="197.4141" fill="none" rx="3" ry="3" style="stroke: #038048; stroke-width: 1.0;"/><text fill="#000000" font-family="sans-serif" font-size="11" lengthAdjust="spacingAndGlyphs" textLength="135" x="26" y="200.6245">zPos : float «get» «set»</text><line style="stroke: #A80036; stroke-width: 1.5;" x1="7" x2="535" y1="207.2188" y2="207.2188"/><ellipse cx="17" cy="218.2188" fill="#84BE84" rx="3" ry="3" style="stroke: #038048; stroke-width: 1.0;"/><text fill="#000000" font-family="sans-serif" font-size="11" lengthAdjust="spacingAndGlyphs" textLength="128" x="26" y="221.4292">Net_PlayerTransform()</text><ellipse cx="17" cy="231.0234" fill="#84BE84" rx="3" ry="3" style="stroke: #038048; stroke-width: 1.0;"/><text fill="#000000" font-family="sans-serif" font-size="11" lengthAdjust="spacingAndGlyphs" textLength="382" x="26" y="234.2339">Net_PlayerTransform(playerId:int, xPos:float, yPos:float, zPos:float)</text><ellipse cx="17" cy="243.8281" fill="#84BE84" rx="3" ry="3" style="stroke: #038048; stroke-width: 1.0;"/><text fill="#000000" font-family="sans-serif" font-size="11" lengthAdjust="spacingAndGlyphs" textLength="278" x="26" y="247.0386">Net_PlayerTransform(reader:DataStreamReader)</text><ellipse cx="17" cy="256.6328" fill="#84BE84" rx="3" ry="3" style="stroke: #038048; stroke-width: 1.0;"/><text fill="#000000" font-family="sans-serif" font-size="11" lengthAdjust="spacingAndGlyphs" textLength="504" x="26" y="259.8433">Net_PlayerTransform(reader:DataStreamReader, playerTransformer:PlayerTransformer)</text><ellipse cx="17" cy="269.4375" fill="#84BE84" rx="3" ry="3" style="stroke: #038048; stroke-width: 1.0;"/><text fill="#000000" font-family="sans-serif" font-size="11" lengthAdjust="spacingAndGlyphs" textLength="294" x="26" y="272.6479">«override» Serialize(writer:DataStreamWriter) : void</text><ellipse cx="17" cy="282.2422" fill="#84BE84" rx="3" ry="3" style="stroke: #038048; stroke-width: 1.0;"/><text fill="#000000" font-family="sans-serif" font-size="11" lengthAdjust="spacingAndGlyphs" textLength="320" x="26" y="285.4526">«override» Deserialize(reader:DataStreamReader) : void</text><ellipse cx="17" cy="295.0469" fill="#84BE84" rx="3" ry="3" style="stroke: #038048; stroke-width: 1.0;"/><text fill="#000000" font-family="sans-serif" font-size="11" lengthAdjust="spacingAndGlyphs" textLength="320" x="26" y="298.2573">«override» ReceivedOnServer(server:BaseServer) : void</text><ellipse cx="17" cy="307.8516" fill="#84BE84" rx="3" ry="3" style="stroke: #038048; stroke-width: 1.0;"/><text fill="#000000" font-family="sans-serif" font-size="11" lengthAdjust="spacingAndGlyphs" textLength="206" x="26" y="311.062">«override» ReceivedOnClient() : void</text><!--MD5=[57013508309b10e1d30b46bd54336031]
class NetMessage--><rect fill="#FEFECE" filter="url(#fzdf6jntl00pp)" height="48" id="NetMessage" style="stroke: #A80036; stroke-width: 1.5;" width="110" x="216" y="8"/><ellipse cx="231" cy="24" fill="#ADD1B2" rx="11" ry="11" style="stroke: #A80036; stroke-width: 1.0;"/><path d="M233.9688,29.6406 Q233.3906,29.9375 232.75,30.0781 Q232.1094,30.2344 231.4063,30.2344 Q228.9063,30.2344 227.5781,28.5938 Q226.2656,26.9375 226.2656,23.8125 Q226.2656,20.6875 227.5781,19.0313 Q228.9063,17.375 231.4063,17.375 Q232.1094,17.375 232.75,17.5313 Q233.4063,17.6875 233.9688,17.9844 L233.9688,20.7031 Q233.3438,20.125 232.75,19.8594 Q232.1563,19.5781 231.5313,19.5781 Q230.1875,19.5781 229.5,20.6563 Q228.8125,21.7188 228.8125,23.8125 Q228.8125,25.9063 229.5,26.9844 Q230.1875,28.0469 231.5313,28.0469 Q232.1563,28.0469 232.75,27.7813 Q233.3438,27.5 233.9688,26.9219 L233.9688,29.6406 Z "/><text fill="#000000" font-family="sans-serif" font-size="12" lengthAdjust="spacingAndGlyphs" textLength="78" x="245" y="28.1543">NetMessage</text><line style="stroke: #A80036; stroke-width: 1.5;" x1="217" x2="325" y1="40" y2="40"/><line style="stroke: #A80036; stroke-width: 1.5;" x1="217" x2="325" y1="48" y2="48"/><!--MD5=[8842c77f37d066aa138f7dcf285cd28c]
reverse link NetMessage to Net_PlayerTransform--><path d="M271,76.46 C271,88.49 271,102.06 271,115.9 " fill="none" id="NetMessage&lt;-Net_PlayerTransform" style="stroke: #A80036; stroke-width: 1.0;"/><polygon fill="none" points="264,76.18,271,56.18,278,76.18,264,76.18" style="stroke: #A80036; stroke-width: 1.0;"/><!--MD5=[5e6de0bcc7fd1543fc8e91ebc6835c47]
@startuml
class Net_PlayerTransform {
    + playerId : int <<get>> <<set>>
    + xPos : float <<get>> <<set>>
    + yPos : float <<get>> <<set>>
    + zPos : float <<get>> <<set>>
    + Net_PlayerTransform()
    + Net_PlayerTransform(playerId:int, xPos:float, yPos:float, zPos:float)
    + Net_PlayerTransform(reader:DataStreamReader)
    + Net_PlayerTransform(reader:DataStreamReader, playerTransformer:PlayerTransformer)
    + <<override>> Serialize(writer:DataStreamWriter) : void
    + <<override>> Deserialize(reader:DataStreamReader) : void
    + <<override>> ReceivedOnServer(server:BaseServer) : void
    + <<override>> ReceivedOnClient() : void
}
NetMessage <|- - Net_PlayerTransform
@enduml

PlantUML version 1.2020.02(Sun Mar 01 10:22:07 GMT 2020)
(GPL source distribution)
Java Runtime: OpenJDK Runtime Environment
JVM: OpenJDK 64-Bit Server VM
Java Version: 11.0.9+11-Ubuntu-0ubuntu1
Operating System: Linux
Default Encoding: ANSI_X3.4-1968
Language: en
Country: US
--></g></svg>