<?xml version="1.0" encoding="UTF-8" standalone="no"?><svg xmlns="http://www.w3.org/2000/svg" xmlns:xlink="http://www.w3.org/1999/xlink" contentScriptType="application/ecmascript" contentStyleType="text/css" height="277px" preserveAspectRatio="none" style="width:534px;height:277px;" version="1.1" viewBox="0 0 534 277" width="534px" zoomAndPan="magnify"><defs><filter height="300%" id="f14g0z0he99ior" width="300%" x="-1" y="-1"><feGaussianBlur result="blurOut" stdDeviation="2.0"/><feColorMatrix in="blurOut" result="blurOut2" type="matrix" values="0 0 0 0 0 0 0 0 0 0 0 0 0 0 0 0 0 0 .4 0"/><feOffset dx="4.0" dy="4.0" in="blurOut2" result="blurOut3"/><feBlend in="SourceGraphic" in2="blurOut3" mode="normal"/></filter></defs><g><!--MD5=[d59af7d53240b5ca25615779741dc4df]
class Net_LeaveGame--><rect fill="#FEFECE" filter="url(#f14g0z0he99ior)" height="150.4375" id="Net_LeaveGame" style="stroke: #A80036; stroke-width: 1.5;" width="517" x="6" y="116"/><ellipse cx="210.25" cy="132" fill="#ADD1B2" rx="11" ry="11" style="stroke: #A80036; stroke-width: 1.0;"/><path d="M213.2188,137.6406 Q212.6406,137.9375 212,138.0781 Q211.3594,138.2344 210.6563,138.2344 Q208.1563,138.2344 206.8281,136.5938 Q205.5156,134.9375 205.5156,131.8125 Q205.5156,128.6875 206.8281,127.0313 Q208.1563,125.375 210.6563,125.375 Q211.3594,125.375 212,125.5313 Q212.6563,125.6875 213.2188,125.9844 L213.2188,128.7031 Q212.5938,128.125 212,127.8594 Q211.4063,127.5781 210.7813,127.5781 Q209.4375,127.5781 208.75,128.6563 Q208.0625,129.7188 208.0625,131.8125 Q208.0625,133.9063 208.75,134.9844 Q209.4375,136.0469 210.7813,136.0469 Q211.4063,136.0469 212,135.7813 Q212.5938,135.5 213.2188,134.9219 L213.2188,137.6406 Z "/><text fill="#000000" font-family="sans-serif" font-size="12" lengthAdjust="spacingAndGlyphs" textLength="100" x="230.75" y="136.1543">Net_LeaveGame</text><line style="stroke: #A80036; stroke-width: 1.5;" x1="7" x2="522" y1="148" y2="148"/><ellipse cx="17" cy="159" fill="none" rx="3" ry="3" style="stroke: #038048; stroke-width: 1.0;"/><text fill="#000000" font-family="sans-serif" font-size="11" lengthAdjust="spacingAndGlyphs" textLength="71" x="26" y="162.2104">playerId : int</text><line style="stroke: #A80036; stroke-width: 1.5;" x1="7" x2="522" y1="168.8047" y2="168.8047"/><ellipse cx="17" cy="179.8047" fill="#84BE84" rx="3" ry="3" style="stroke: #038048; stroke-width: 1.0;"/><text fill="#000000" font-family="sans-serif" font-size="11" lengthAdjust="spacingAndGlyphs" textLength="100" x="26" y="183.0151">Net_LeaveGame()</text><ellipse cx="17" cy="192.6094" fill="#84BE84" rx="3" ry="3" style="stroke: #038048; stroke-width: 1.0;"/><text fill="#000000" font-family="sans-serif" font-size="11" lengthAdjust="spacingAndGlyphs" textLength="163" x="26" y="195.8198">Net_LeaveGame(playerId:int)</text><ellipse cx="17" cy="205.4141" fill="#84BE84" rx="3" ry="3" style="stroke: #038048; stroke-width: 1.0;"/><text fill="#000000" font-family="sans-serif" font-size="11" lengthAdjust="spacingAndGlyphs" textLength="250" x="26" y="208.6245">Net_LeaveGame(reader:DataStreamReader)</text><ellipse cx="17" cy="218.2188" fill="#84BE84" rx="3" ry="3" style="stroke: #038048; stroke-width: 1.0;"/><text fill="#000000" font-family="sans-serif" font-size="11" lengthAdjust="spacingAndGlyphs" textLength="491" x="26" y="221.4292">Net_LeaveGame(reader:DataStreamReader, deathRunGameLoop:DeathRunGameLoop)</text><ellipse cx="17" cy="231.0234" fill="#84BE84" rx="3" ry="3" style="stroke: #038048; stroke-width: 1.0;"/><text fill="#000000" font-family="sans-serif" font-size="11" lengthAdjust="spacingAndGlyphs" textLength="320" x="26" y="234.2339">«override» Deserialize(reader:DataStreamReader) : void</text><ellipse cx="17" cy="243.8281" fill="#84BE84" rx="3" ry="3" style="stroke: #038048; stroke-width: 1.0;"/><text fill="#000000" font-family="sans-serif" font-size="11" lengthAdjust="spacingAndGlyphs" textLength="294" x="26" y="247.0386">«override» Serialize(writer:DataStreamWriter) : void</text><ellipse cx="17" cy="256.6328" fill="#84BE84" rx="3" ry="3" style="stroke: #038048; stroke-width: 1.0;"/><text fill="#000000" font-family="sans-serif" font-size="11" lengthAdjust="spacingAndGlyphs" textLength="320" x="26" y="259.8433">«override» ReceivedOnServer(server:BaseServer) : void</text><!--MD5=[57013508309b10e1d30b46bd54336031]
class NetMessage--><rect fill="#FEFECE" filter="url(#f14g0z0he99ior)" height="48" id="NetMessage" style="stroke: #A80036; stroke-width: 1.5;" width="110" x="209.5" y="8"/><ellipse cx="224.5" cy="24" fill="#ADD1B2" rx="11" ry="11" style="stroke: #A80036; stroke-width: 1.0;"/><path d="M227.4688,29.6406 Q226.8906,29.9375 226.25,30.0781 Q225.6094,30.2344 224.9063,30.2344 Q222.4063,30.2344 221.0781,28.5938 Q219.7656,26.9375 219.7656,23.8125 Q219.7656,20.6875 221.0781,19.0313 Q222.4063,17.375 224.9063,17.375 Q225.6094,17.375 226.25,17.5313 Q226.9063,17.6875 227.4688,17.9844 L227.4688,20.7031 Q226.8438,20.125 226.25,19.8594 Q225.6563,19.5781 225.0313,19.5781 Q223.6875,19.5781 223,20.6563 Q222.3125,21.7188 222.3125,23.8125 Q222.3125,25.9063 223,26.9844 Q223.6875,28.0469 225.0313,28.0469 Q225.6563,28.0469 226.25,27.7813 Q226.8438,27.5 227.4688,26.9219 L227.4688,29.6406 Z "/><text fill="#000000" font-family="sans-serif" font-size="12" lengthAdjust="spacingAndGlyphs" textLength="78" x="238.5" y="28.1543">NetMessage</text><line style="stroke: #A80036; stroke-width: 1.5;" x1="210.5" x2="318.5" y1="40" y2="40"/><line style="stroke: #A80036; stroke-width: 1.5;" x1="210.5" x2="318.5" y1="48" y2="48"/><!--MD5=[1212a422b7fa3e5e67542970b35509b9]
reverse link NetMessage to Net_LeaveGame--><path d="M264.5,76.38 C264.5,88.67 264.5,102.4 264.5,115.96 " fill="none" id="NetMessage&lt;-Net_LeaveGame" style="stroke: #A80036; stroke-width: 1.0;"/><polygon fill="none" points="257.5,76.17,264.5,56.17,271.5,76.17,257.5,76.17" style="stroke: #A80036; stroke-width: 1.0;"/><!--MD5=[d6e1350a2a90cf10440e961db8f3eb8d]
@startuml
class Net_LeaveGame {
    + playerId : int
    + Net_LeaveGame()
    + Net_LeaveGame(playerId:int)
    + Net_LeaveGame(reader:DataStreamReader)
    + Net_LeaveGame(reader:DataStreamReader, deathRunGameLoop:DeathRunGameLoop)
    + <<override>> Deserialize(reader:DataStreamReader) : void
    + <<override>> Serialize(writer:DataStreamWriter) : void
    + <<override>> ReceivedOnServer(server:BaseServer) : void
}
NetMessage <|- - Net_LeaveGame
@enduml

PlantUML version 1.2020.02(Sun Mar 01 10:22:07 GMT 2020)
(GPL source distribution)
Java Runtime: OpenJDK Runtime Environment
JVM: OpenJDK 64-Bit Server VM
Java Version: 11.0.9+11-Ubuntu-0ubuntu1
Operating System: Linux
Default Encoding: ANSI_X3.4-1968
Language: en
Country: US
--></g></svg>