<?xml version="1.0" encoding="UTF-8" standalone="no"?><svg xmlns="http://www.w3.org/2000/svg" xmlns:xlink="http://www.w3.org/1999/xlink" contentScriptType="application/ecmascript" contentStyleType="text/css" height="437px" preserveAspectRatio="none" style="width:516px;height:437px;" version="1.1" viewBox="0 0 516 437" width="516px" zoomAndPan="magnify"><defs><filter height="300%" id="fk9djk1f8btwq" width="300%" x="-1" y="-1"><feGaussianBlur result="blurOut" stdDeviation="2.0"/><feColorMatrix in="blurOut" result="blurOut2" type="matrix" values="0 0 0 0 0 0 0 0 0 0 0 0 0 0 0 0 0 0 .4 0"/><feOffset dx="4.0" dy="4.0" in="blurOut2" result="blurOut3"/><feBlend in="SourceGraphic" in2="blurOut3" mode="normal"/></filter></defs><g><!--MD5=[522fdec5927e0715005d4dd9035922aa]
class Net_SpawnPlayer--><rect fill="#FEFECE" filter="url(#fk9djk1f8btwq)" height="201.6563" id="Net_SpawnPlayer" style="stroke: #A80036; stroke-width: 1.5;" width="499" x="6" y="116"/><ellipse cx="197.75" cy="132" fill="#ADD1B2" rx="11" ry="11" style="stroke: #A80036; stroke-width: 1.0;"/><path d="M200.7188,137.6406 Q200.1406,137.9375 199.5,138.0781 Q198.8594,138.2344 198.1563,138.2344 Q195.6563,138.2344 194.3281,136.5938 Q193.0156,134.9375 193.0156,131.8125 Q193.0156,128.6875 194.3281,127.0313 Q195.6563,125.375 198.1563,125.375 Q198.8594,125.375 199.5,125.5313 Q200.1563,125.6875 200.7188,125.9844 L200.7188,128.7031 Q200.0938,128.125 199.5,127.8594 Q198.9063,127.5781 198.2813,127.5781 Q196.9375,127.5781 196.25,128.6563 Q195.5625,129.7188 195.5625,131.8125 Q195.5625,133.9063 196.25,134.9844 Q196.9375,136.0469 198.2813,136.0469 Q198.9063,136.0469 199.5,135.7813 Q200.0938,135.5 200.7188,134.9219 L200.7188,137.6406 Z "/><text fill="#000000" font-family="sans-serif" font-size="12" lengthAdjust="spacingAndGlyphs" textLength="107" x="218.25" y="136.1543">Net_SpawnPlayer</text><line style="stroke: #A80036; stroke-width: 1.5;" x1="7" x2="504" y1="148" y2="148"/><ellipse cx="17" cy="159" fill="none" rx="3" ry="3" style="stroke: #038048; stroke-width: 1.0;"/><text fill="#000000" font-family="sans-serif" font-size="11" lengthAdjust="spacingAndGlyphs" textLength="143" x="26" y="162.2104">playerId : int «get» «set»</text><ellipse cx="17" cy="171.8047" fill="none" rx="3" ry="3" style="stroke: #038048; stroke-width: 1.0;"/><text fill="#000000" font-family="sans-serif" font-size="11" lengthAdjust="spacingAndGlyphs" textLength="136" x="26" y="175.0151">xPos : float «get» «set»</text><ellipse cx="17" cy="184.6094" fill="none" rx="3" ry="3" style="stroke: #038048; stroke-width: 1.0;"/><text fill="#000000" font-family="sans-serif" font-size="11" lengthAdjust="spacingAndGlyphs" textLength="136" x="26" y="187.8198">yPos : float «get» «set»</text><ellipse cx="17" cy="197.4141" fill="none" rx="3" ry="3" style="stroke: #038048; stroke-width: 1.0;"/><text fill="#000000" font-family="sans-serif" font-size="11" lengthAdjust="spacingAndGlyphs" textLength="135" x="26" y="200.6245">zPos : float «get» «set»</text><line style="stroke: #A80036; stroke-width: 1.5;" x1="7" x2="504" y1="207.2188" y2="207.2188"/><ellipse cx="17" cy="218.2188" fill="#84BE84" rx="3" ry="3" style="stroke: #038048; stroke-width: 1.0;"/><text fill="#000000" font-family="sans-serif" font-size="11" lengthAdjust="spacingAndGlyphs" textLength="106" x="26" y="221.4292">Net_SpawnPlayer()</text><ellipse cx="17" cy="231.0234" fill="#84BE84" rx="3" ry="3" style="stroke: #038048; stroke-width: 1.0;"/><text fill="#000000" font-family="sans-serif" font-size="11" lengthAdjust="spacingAndGlyphs" textLength="473" x="26" y="234.2339">Net_SpawnPlayer(playerId:int, playerName:string, xPos:float, yPos:float, zPos:float)</text><ellipse cx="17" cy="243.8281" fill="#84BE84" rx="3" ry="3" style="stroke: #038048; stroke-width: 1.0;"/><text fill="#000000" font-family="sans-serif" font-size="11" lengthAdjust="spacingAndGlyphs" textLength="256" x="26" y="247.0386">Net_SpawnPlayer(reader:DataStreamReader)</text><ellipse cx="17" cy="256.6328" fill="#84BE84" rx="3" ry="3" style="stroke: #038048; stroke-width: 1.0;"/><text fill="#000000" font-family="sans-serif" font-size="11" lengthAdjust="spacingAndGlyphs" textLength="438" x="26" y="259.8433">Net_SpawnPlayer(reader:DataStreamReader, playerSpawner:PlayerSpawner)</text><ellipse cx="17" cy="269.4375" fill="#84BE84" rx="3" ry="3" style="stroke: #038048; stroke-width: 1.0;"/><text fill="#000000" font-family="sans-serif" font-size="11" lengthAdjust="spacingAndGlyphs" textLength="294" x="26" y="272.6479">«override» Serialize(writer:DataStreamWriter) : void</text><ellipse cx="17" cy="282.2422" fill="#84BE84" rx="3" ry="3" style="stroke: #038048; stroke-width: 1.0;"/><text fill="#000000" font-family="sans-serif" font-size="11" lengthAdjust="spacingAndGlyphs" textLength="320" x="26" y="285.4526">«override» Deserialize(reader:DataStreamReader) : void</text><ellipse cx="17" cy="295.0469" fill="#84BE84" rx="3" ry="3" style="stroke: #038048; stroke-width: 1.0;"/><text fill="#000000" font-family="sans-serif" font-size="11" lengthAdjust="spacingAndGlyphs" textLength="320" x="26" y="298.2573">«override» ReceivedOnServer(server:BaseServer) : void</text><ellipse cx="17" cy="307.8516" fill="#84BE84" rx="3" ry="3" style="stroke: #038048; stroke-width: 1.0;"/><text fill="#000000" font-family="sans-serif" font-size="11" lengthAdjust="spacingAndGlyphs" textLength="206" x="26" y="311.062">«override» ReceivedOnClient() : void</text><!--MD5=[57013508309b10e1d30b46bd54336031]
class NetMessage--><rect fill="#FEFECE" filter="url(#fk9djk1f8btwq)" height="48" id="NetMessage" style="stroke: #A80036; stroke-width: 1.5;" width="110" x="200.5" y="8"/><ellipse cx="215.5" cy="24" fill="#ADD1B2" rx="11" ry="11" style="stroke: #A80036; stroke-width: 1.0;"/><path d="M218.4688,29.6406 Q217.8906,29.9375 217.25,30.0781 Q216.6094,30.2344 215.9063,30.2344 Q213.4063,30.2344 212.0781,28.5938 Q210.7656,26.9375 210.7656,23.8125 Q210.7656,20.6875 212.0781,19.0313 Q213.4063,17.375 215.9063,17.375 Q216.6094,17.375 217.25,17.5313 Q217.9063,17.6875 218.4688,17.9844 L218.4688,20.7031 Q217.8438,20.125 217.25,19.8594 Q216.6563,19.5781 216.0313,19.5781 Q214.6875,19.5781 214,20.6563 Q213.3125,21.7188 213.3125,23.8125 Q213.3125,25.9063 214,26.9844 Q214.6875,28.0469 216.0313,28.0469 Q216.6563,28.0469 217.25,27.7813 Q217.8438,27.5 218.4688,26.9219 L218.4688,29.6406 Z "/><text fill="#000000" font-family="sans-serif" font-size="12" lengthAdjust="spacingAndGlyphs" textLength="78" x="229.5" y="28.1543">NetMessage</text><line style="stroke: #A80036; stroke-width: 1.5;" x1="201.5" x2="309.5" y1="40" y2="40"/><line style="stroke: #A80036; stroke-width: 1.5;" x1="201.5" x2="309.5" y1="48" y2="48"/><!--MD5=[016bf02747313129b10bfd21cc36750c]
class FixedString128Bytes--><rect fill="#FEFECE" filter="url(#fk9djk1f8btwq)" height="48" id="FixedString128Bytes" style="stroke: #A80036; stroke-width: 1.5;" width="159" x="176" y="378"/><ellipse cx="191" cy="394" fill="#ADD1B2" rx="11" ry="11" style="stroke: #A80036; stroke-width: 1.0;"/><path d="M193.9688,399.6406 Q193.3906,399.9375 192.75,400.0781 Q192.1094,400.2344 191.4063,400.2344 Q188.9063,400.2344 187.5781,398.5938 Q186.2656,396.9375 186.2656,393.8125 Q186.2656,390.6875 187.5781,389.0313 Q188.9063,387.375 191.4063,387.375 Q192.1094,387.375 192.75,387.5313 Q193.4063,387.6875 193.9688,387.9844 L193.9688,390.7031 Q193.3438,390.125 192.75,389.8594 Q192.1563,389.5781 191.5313,389.5781 Q190.1875,389.5781 189.5,390.6563 Q188.8125,391.7188 188.8125,393.8125 Q188.8125,395.9063 189.5,396.9844 Q190.1875,398.0469 191.5313,398.0469 Q192.1563,398.0469 192.75,397.7813 Q193.3438,397.5 193.9688,396.9219 L193.9688,399.6406 Z "/><text fill="#000000" font-family="sans-serif" font-size="12" lengthAdjust="spacingAndGlyphs" textLength="127" x="205" y="398.1543">FixedString128Bytes</text><line style="stroke: #A80036; stroke-width: 1.5;" x1="177" x2="334" y1="410" y2="410"/><line style="stroke: #A80036; stroke-width: 1.5;" x1="177" x2="334" y1="418" y2="418"/><!--MD5=[7d6d1e615470d5476261fd698b52cdc0]
reverse link NetMessage to Net_SpawnPlayer--><path d="M255.5,76.46 C255.5,88.49 255.5,102.06 255.5,115.9 " fill="none" id="NetMessage&lt;-Net_SpawnPlayer" style="stroke: #A80036; stroke-width: 1.0;"/><polygon fill="none" points="248.5,76.18,255.5,56.18,262.5,76.18,248.5,76.18" style="stroke: #A80036; stroke-width: 1.0;"/><!--MD5=[1b9c0905c583dc14adcd0c740b19878e]
link Net_SpawnPlayer to FixedString128Bytes--><path d="M255.5,318.07 C255.5,337.98 255.5,357.35 255.5,372.36 " fill="none" id="Net_SpawnPlayer-&gt;FixedString128Bytes" style="stroke: #A80036; stroke-width: 1.0;"/><polygon fill="#A80036" points="255.5,377.68,259.5,368.68,255.5,372.68,251.5,368.68,255.5,377.68" style="stroke: #A80036; stroke-width: 1.0;"/><text fill="#000000" font-family="sans-serif" font-size="13" lengthAdjust="spacingAndGlyphs" textLength="78" x="167.9938" y="367.007">playerName</text><!--MD5=[e1ea74bcd0705903bfca580e53747bf8]
@startuml
class Net_SpawnPlayer {
    + playerId : int <<get>> <<set>>
    + xPos : float <<get>> <<set>>
    + yPos : float <<get>> <<set>>
    + zPos : float <<get>> <<set>>
    + Net_SpawnPlayer()
    + Net_SpawnPlayer(playerId:int, playerName:string, xPos:float, yPos:float, zPos:float)
    + Net_SpawnPlayer(reader:DataStreamReader)
    + Net_SpawnPlayer(reader:DataStreamReader, playerSpawner:PlayerSpawner)
    + <<override>> Serialize(writer:DataStreamWriter) : void
    + <<override>> Deserialize(reader:DataStreamReader) : void
    + <<override>> ReceivedOnServer(server:BaseServer) : void
    + <<override>> ReceivedOnClient() : void
}
NetMessage <|- - Net_SpawnPlayer
Net_SpawnPlayer - -> "playerName" FixedString128Bytes
@enduml

PlantUML version 1.2020.02(Sun Mar 01 10:22:07 GMT 2020)
(GPL source distribution)
Java Runtime: OpenJDK Runtime Environment
JVM: OpenJDK 64-Bit Server VM
Java Version: 11.0.9+11-Ubuntu-0ubuntu1
Operating System: Linux
Default Encoding: ANSI_X3.4-1968
Language: en
Country: US
--></g></svg>