<?xml version="1.0" encoding="UTF-8" standalone="no"?><svg xmlns="http://www.w3.org/2000/svg" xmlns:xlink="http://www.w3.org/1999/xlink" contentScriptType="application/ecmascript" contentStyleType="text/css" height="277px" preserveAspectRatio="none" style="width:521px;height:277px;" version="1.1" viewBox="0 0 521 277" width="521px" zoomAndPan="magnify"><defs><filter height="300%" id="f19l2ktfegs3l" width="300%" x="-1" y="-1"><feGaussianBlur result="blurOut" stdDeviation="2.0"/><feColorMatrix in="blurOut" result="blurOut2" type="matrix" values="0 0 0 0 0 0 0 0 0 0 0 0 0 0 0 0 0 0 .4 0"/><feOffset dx="4.0" dy="4.0" in="blurOut2" result="blurOut3"/><feBlend in="SourceGraphic" in2="blurOut3" mode="normal"/></filter></defs><g><!--MD5=[3677dd3909d557450a17b5fb6930b2a4]
class Net_JoinGame--><rect fill="#FEFECE" filter="url(#f19l2ktfegs3l)" height="150.4375" id="Net_JoinGame" style="stroke: #A80036; stroke-width: 1.5;" width="504" x="6" y="116"/><ellipse cx="210.75" cy="132" fill="#ADD1B2" rx="11" ry="11" style="stroke: #A80036; stroke-width: 1.0;"/><path d="M213.7188,137.6406 Q213.1406,137.9375 212.5,138.0781 Q211.8594,138.2344 211.1563,138.2344 Q208.6563,138.2344 207.3281,136.5938 Q206.0156,134.9375 206.0156,131.8125 Q206.0156,128.6875 207.3281,127.0313 Q208.6563,125.375 211.1563,125.375 Q211.8594,125.375 212.5,125.5313 Q213.1563,125.6875 213.7188,125.9844 L213.7188,128.7031 Q213.0938,128.125 212.5,127.8594 Q211.9063,127.5781 211.2813,127.5781 Q209.9375,127.5781 209.25,128.6563 Q208.5625,129.7188 208.5625,131.8125 Q208.5625,133.9063 209.25,134.9844 Q209.9375,136.0469 211.2813,136.0469 Q211.9063,136.0469 212.5,135.7813 Q213.0938,135.5 213.7188,134.9219 L213.7188,137.6406 Z "/><text fill="#000000" font-family="sans-serif" font-size="12" lengthAdjust="spacingAndGlyphs" textLength="86" x="231.25" y="136.1543">Net_JoinGame</text><line style="stroke: #A80036; stroke-width: 1.5;" x1="7" x2="509" y1="148" y2="148"/><ellipse cx="17" cy="159" fill="none" rx="3" ry="3" style="stroke: #038048; stroke-width: 1.0;"/><text fill="#000000" font-family="sans-serif" font-size="11" lengthAdjust="spacingAndGlyphs" textLength="71" x="26" y="162.2104">playerId : int</text><line style="stroke: #A80036; stroke-width: 1.5;" x1="7" x2="509" y1="168.8047" y2="168.8047"/><ellipse cx="17" cy="179.8047" fill="#84BE84" rx="3" ry="3" style="stroke: #038048; stroke-width: 1.0;"/><text fill="#000000" font-family="sans-serif" font-size="11" lengthAdjust="spacingAndGlyphs" textLength="87" x="26" y="183.0151">Net_JoinGame()</text><ellipse cx="17" cy="192.6094" fill="#84BE84" rx="3" ry="3" style="stroke: #038048; stroke-width: 1.0;"/><text fill="#000000" font-family="sans-serif" font-size="11" lengthAdjust="spacingAndGlyphs" textLength="150" x="26" y="195.8198">Net_JoinGame(playerId:int)</text><ellipse cx="17" cy="205.4141" fill="#84BE84" rx="3" ry="3" style="stroke: #038048; stroke-width: 1.0;"/><text fill="#000000" font-family="sans-serif" font-size="11" lengthAdjust="spacingAndGlyphs" textLength="237" x="26" y="208.6245">Net_JoinGame(reader:DataStreamReader)</text><ellipse cx="17" cy="218.2188" fill="#84BE84" rx="3" ry="3" style="stroke: #038048; stroke-width: 1.0;"/><text fill="#000000" font-family="sans-serif" font-size="11" lengthAdjust="spacingAndGlyphs" textLength="478" x="26" y="221.4292">Net_JoinGame(reader:DataStreamReader, deathRunGameLoop:DeathRunGameLoop)</text><ellipse cx="17" cy="231.0234" fill="#84BE84" rx="3" ry="3" style="stroke: #038048; stroke-width: 1.0;"/><text fill="#000000" font-family="sans-serif" font-size="11" lengthAdjust="spacingAndGlyphs" textLength="320" x="26" y="234.2339">«override» Deserialize(reader:DataStreamReader) : void</text><ellipse cx="17" cy="243.8281" fill="#84BE84" rx="3" ry="3" style="stroke: #038048; stroke-width: 1.0;"/><text fill="#000000" font-family="sans-serif" font-size="11" lengthAdjust="spacingAndGlyphs" textLength="294" x="26" y="247.0386">«override» Serialize(writer:DataStreamWriter) : void</text><ellipse cx="17" cy="256.6328" fill="#84BE84" rx="3" ry="3" style="stroke: #038048; stroke-width: 1.0;"/><text fill="#000000" font-family="sans-serif" font-size="11" lengthAdjust="spacingAndGlyphs" textLength="320" x="26" y="259.8433">«override» ReceivedOnServer(server:BaseServer) : void</text><!--MD5=[57013508309b10e1d30b46bd54336031]
class NetMessage--><rect fill="#FEFECE" filter="url(#f19l2ktfegs3l)" height="48" id="NetMessage" style="stroke: #A80036; stroke-width: 1.5;" width="110" x="203" y="8"/><ellipse cx="218" cy="24" fill="#ADD1B2" rx="11" ry="11" style="stroke: #A80036; stroke-width: 1.0;"/><path d="M220.9688,29.6406 Q220.3906,29.9375 219.75,30.0781 Q219.1094,30.2344 218.4063,30.2344 Q215.9063,30.2344 214.5781,28.5938 Q213.2656,26.9375 213.2656,23.8125 Q213.2656,20.6875 214.5781,19.0313 Q215.9063,17.375 218.4063,17.375 Q219.1094,17.375 219.75,17.5313 Q220.4063,17.6875 220.9688,17.9844 L220.9688,20.7031 Q220.3438,20.125 219.75,19.8594 Q219.1563,19.5781 218.5313,19.5781 Q217.1875,19.5781 216.5,20.6563 Q215.8125,21.7188 215.8125,23.8125 Q215.8125,25.9063 216.5,26.9844 Q217.1875,28.0469 218.5313,28.0469 Q219.1563,28.0469 219.75,27.7813 Q220.3438,27.5 220.9688,26.9219 L220.9688,29.6406 Z "/><text fill="#000000" font-family="sans-serif" font-size="12" lengthAdjust="spacingAndGlyphs" textLength="78" x="232" y="28.1543">NetMessage</text><line style="stroke: #A80036; stroke-width: 1.5;" x1="204" x2="312" y1="40" y2="40"/><line style="stroke: #A80036; stroke-width: 1.5;" x1="204" x2="312" y1="48" y2="48"/><!--MD5=[8602cf34e4f02a40ba5ab1611af19e5a]
reverse link NetMessage to Net_JoinGame--><path d="M258,76.38 C258,88.67 258,102.4 258,115.96 " fill="none" id="NetMessage&lt;-Net_JoinGame" style="stroke: #A80036; stroke-width: 1.0;"/><polygon fill="none" points="251,76.17,258,56.17,265,76.17,251,76.17" style="stroke: #A80036; stroke-width: 1.0;"/><!--MD5=[32274d789c9ec047626bf7da42eb3056]
@startuml
class Net_JoinGame {
    + playerId : int
    + Net_JoinGame()
    + Net_JoinGame(playerId:int)
    + Net_JoinGame(reader:DataStreamReader)
    + Net_JoinGame(reader:DataStreamReader, deathRunGameLoop:DeathRunGameLoop)
    + <<override>> Deserialize(reader:DataStreamReader) : void
    + <<override>> Serialize(writer:DataStreamWriter) : void
    + <<override>> ReceivedOnServer(server:BaseServer) : void
}
NetMessage <|- - Net_JoinGame
@enduml

PlantUML version 1.2020.02(Sun Mar 01 10:22:07 GMT 2020)
(GPL source distribution)
Java Runtime: OpenJDK Runtime Environment
JVM: OpenJDK 64-Bit Server VM
Java Version: 11.0.9+11-Ubuntu-0ubuntu1
Operating System: Linux
Default Encoding: ANSI_X3.4-1968
Language: en
Country: US
--></g></svg>