<?xml version="1.0" encoding="UTF-8" standalone="no"?><svg xmlns="http://www.w3.org/2000/svg" xmlns:xlink="http://www.w3.org/1999/xlink" contentScriptType="application/ecmascript" contentStyleType="text/css" height="239px" preserveAspectRatio="none" style="width:546px;height:239px;" version="1.1" viewBox="0 0 546 239" width="546px" zoomAndPan="magnify"><defs><filter height="300%" id="fg71gh80tkrij" width="300%" x="-1" y="-1"><feGaussianBlur result="blurOut" stdDeviation="2.0"/><feColorMatrix in="blurOut" result="blurOut2" type="matrix" values="0 0 0 0 0 0 0 0 0 0 0 0 0 0 0 0 0 0 .4 0"/><feOffset dx="4.0" dy="4.0" in="blurOut2" result="blurOut3"/><feBlend in="SourceGraphic" in2="blurOut3" mode="normal"/></filter></defs><g><!--MD5=[82333b1c1e38d40de452b0b65028b81d]
class Net_CloseBarriers--><rect fill="#FEFECE" filter="url(#fg71gh80tkrij)" height="112.0234" id="Net_CloseBarriers" style="stroke: #A80036; stroke-width: 1.5;" width="529" x="6" y="116"/><ellipse cx="210.75" cy="132" fill="#ADD1B2" rx="11" ry="11" style="stroke: #A80036; stroke-width: 1.0;"/><path d="M213.7188,137.6406 Q213.1406,137.9375 212.5,138.0781 Q211.8594,138.2344 211.1563,138.2344 Q208.6563,138.2344 207.3281,136.5938 Q206.0156,134.9375 206.0156,131.8125 Q206.0156,128.6875 207.3281,127.0313 Q208.6563,125.375 211.1563,125.375 Q211.8594,125.375 212.5,125.5313 Q213.1563,125.6875 213.7188,125.9844 L213.7188,128.7031 Q213.0938,128.125 212.5,127.8594 Q211.9063,127.5781 211.2813,127.5781 Q209.9375,127.5781 209.25,128.6563 Q208.5625,129.7188 208.5625,131.8125 Q208.5625,133.9063 209.25,134.9844 Q209.9375,136.0469 211.2813,136.0469 Q211.9063,136.0469 212.5,135.7813 Q213.0938,135.5 213.7188,134.9219 L213.7188,137.6406 Z "/><text fill="#000000" font-family="sans-serif" font-size="12" lengthAdjust="spacingAndGlyphs" textLength="111" x="231.25" y="136.1543">Net_CloseBarriers</text><line style="stroke: #A80036; stroke-width: 1.5;" x1="7" x2="534" y1="148" y2="148"/><line style="stroke: #A80036; stroke-width: 1.5;" x1="7" x2="534" y1="156" y2="156"/><ellipse cx="17" cy="167" fill="#84BE84" rx="3" ry="3" style="stroke: #038048; stroke-width: 1.0;"/><text fill="#000000" font-family="sans-serif" font-size="11" lengthAdjust="spacingAndGlyphs" textLength="112" x="26" y="170.2104">Net_CloseBarriers()</text><ellipse cx="17" cy="179.8047" fill="#84BE84" rx="3" ry="3" style="stroke: #038048; stroke-width: 1.0;"/><text fill="#000000" font-family="sans-serif" font-size="11" lengthAdjust="spacingAndGlyphs" textLength="262" x="26" y="183.0151">Net_CloseBarriers(reader:DataStreamReader)</text><ellipse cx="17" cy="192.6094" fill="#84BE84" rx="3" ry="3" style="stroke: #038048; stroke-width: 1.0;"/><text fill="#000000" font-family="sans-serif" font-size="11" lengthAdjust="spacingAndGlyphs" textLength="503" x="26" y="195.8198">Net_CloseBarriers(reader:DataStreamReader, deathRunGameLoop:DeathRunGameLoop)</text><ellipse cx="17" cy="205.4141" fill="#84BE84" rx="3" ry="3" style="stroke: #038048; stroke-width: 1.0;"/><text fill="#000000" font-family="sans-serif" font-size="11" lengthAdjust="spacingAndGlyphs" textLength="294" x="26" y="208.6245">«override» Serialize(writer:DataStreamWriter) : void</text><ellipse cx="17" cy="218.2188" fill="#84BE84" rx="3" ry="3" style="stroke: #038048; stroke-width: 1.0;"/><text fill="#000000" font-family="sans-serif" font-size="11" lengthAdjust="spacingAndGlyphs" textLength="206" x="26" y="221.4292">«override» ReceivedOnClient() : void</text><!--MD5=[57013508309b10e1d30b46bd54336031]
class NetMessage--><rect fill="#FEFECE" filter="url(#fg71gh80tkrij)" height="48" id="NetMessage" style="stroke: #A80036; stroke-width: 1.5;" width="110" x="215.5" y="8"/><ellipse cx="230.5" cy="24" fill="#ADD1B2" rx="11" ry="11" style="stroke: #A80036; stroke-width: 1.0;"/><path d="M233.4688,29.6406 Q232.8906,29.9375 232.25,30.0781 Q231.6094,30.2344 230.9063,30.2344 Q228.4063,30.2344 227.0781,28.5938 Q225.7656,26.9375 225.7656,23.8125 Q225.7656,20.6875 227.0781,19.0313 Q228.4063,17.375 230.9063,17.375 Q231.6094,17.375 232.25,17.5313 Q232.9063,17.6875 233.4688,17.9844 L233.4688,20.7031 Q232.8438,20.125 232.25,19.8594 Q231.6563,19.5781 231.0313,19.5781 Q229.6875,19.5781 229,20.6563 Q228.3125,21.7188 228.3125,23.8125 Q228.3125,25.9063 229,26.9844 Q229.6875,28.0469 231.0313,28.0469 Q231.6563,28.0469 232.25,27.7813 Q232.8438,27.5 233.4688,26.9219 L233.4688,29.6406 Z "/><text fill="#000000" font-family="sans-serif" font-size="12" lengthAdjust="spacingAndGlyphs" textLength="78" x="244.5" y="28.1543">NetMessage</text><line style="stroke: #A80036; stroke-width: 1.5;" x1="216.5" x2="324.5" y1="40" y2="40"/><line style="stroke: #A80036; stroke-width: 1.5;" x1="216.5" x2="324.5" y1="48" y2="48"/><!--MD5=[3c4fa37e1bfb5402382895ef02888078]
reverse link NetMessage to Net_CloseBarriers--><path d="M270.5,76.25 C270.5,88.82 270.5,102.73 270.5,115.93 " fill="none" id="NetMessage&lt;-Net_CloseBarriers" style="stroke: #A80036; stroke-width: 1.0;"/><polygon fill="none" points="263.5,76.1,270.5,56.1,277.5,76.1,263.5,76.1" style="stroke: #A80036; stroke-width: 1.0;"/><!--MD5=[929e38cfa9c966a9af143685de8e95ef]
@startuml
class Net_CloseBarriers {
    + Net_CloseBarriers()
    + Net_CloseBarriers(reader:DataStreamReader)
    + Net_CloseBarriers(reader:DataStreamReader, deathRunGameLoop:DeathRunGameLoop)
    + <<override>> Serialize(writer:DataStreamWriter) : void
    + <<override>> ReceivedOnClient() : void
}
NetMessage <|- - Net_CloseBarriers
@enduml

PlantUML version 1.2020.02(Sun Mar 01 10:22:07 GMT 2020)
(GPL source distribution)
Java Runtime: OpenJDK Runtime Environment
JVM: OpenJDK 64-Bit Server VM
Java Version: 11.0.9+11-Ubuntu-0ubuntu1
Operating System: Linux
Default Encoding: ANSI_X3.4-1968
Language: en
Country: US
--></g></svg>