<?xml version="1.0" encoding="UTF-8" standalone="no"?><svg xmlns="http://www.w3.org/2000/svg" xmlns:xlink="http://www.w3.org/1999/xlink" contentScriptType="application/ecmascript" contentStyleType="text/css" height="277px" preserveAspectRatio="none" style="width:527px;height:277px;" version="1.1" viewBox="0 0 527 277" width="527px" zoomAndPan="magnify"><defs><filter height="300%" id="f15br9ihaanerb" width="300%" x="-1" y="-1"><feGaussianBlur result="blurOut" stdDeviation="2.0"/><feColorMatrix in="blurOut" result="blurOut2" type="matrix" values="0 0 0 0 0 0 0 0 0 0 0 0 0 0 0 0 0 0 .4 0"/><feOffset dx="4.0" dy="4.0" in="blurOut2" result="blurOut3"/><feBlend in="SourceGraphic" in2="blurOut3" mode="normal"/></filter></defs><g><!--MD5=[0f298236691d283dc2ab29846be22f29]
class Net_PlayerDied--><rect fill="#FEFECE" filter="url(#f15br9ihaanerb)" height="150.4375" id="Net_PlayerDied" style="stroke: #A80036; stroke-width: 1.5;" width="510" x="6" y="116"/><ellipse cx="209.75" cy="132" fill="#ADD1B2" rx="11" ry="11" style="stroke: #A80036; stroke-width: 1.0;"/><path d="M212.7188,137.6406 Q212.1406,137.9375 211.5,138.0781 Q210.8594,138.2344 210.1563,138.2344 Q207.6563,138.2344 206.3281,136.5938 Q205.0156,134.9375 205.0156,131.8125 Q205.0156,128.6875 206.3281,127.0313 Q207.6563,125.375 210.1563,125.375 Q210.8594,125.375 211.5,125.5313 Q212.1563,125.6875 212.7188,125.9844 L212.7188,128.7031 Q212.0938,128.125 211.5,127.8594 Q210.9063,127.5781 210.2813,127.5781 Q208.9375,127.5781 208.25,128.6563 Q207.5625,129.7188 207.5625,131.8125 Q207.5625,133.9063 208.25,134.9844 Q208.9375,136.0469 210.2813,136.0469 Q210.9063,136.0469 211.5,135.7813 Q212.0938,135.5 212.7188,134.9219 L212.7188,137.6406 Z "/><text fill="#000000" font-family="sans-serif" font-size="12" lengthAdjust="spacingAndGlyphs" textLength="94" x="230.25" y="136.1543">Net_PlayerDied</text><line style="stroke: #A80036; stroke-width: 1.5;" x1="7" x2="515" y1="148" y2="148"/><ellipse cx="17" cy="159" fill="none" rx="3" ry="3" style="stroke: #038048; stroke-width: 1.0;"/><text fill="#000000" font-family="sans-serif" font-size="11" lengthAdjust="spacingAndGlyphs" textLength="143" x="26" y="162.2104">playerId : int «get» «set»</text><line style="stroke: #A80036; stroke-width: 1.5;" x1="7" x2="515" y1="168.8047" y2="168.8047"/><ellipse cx="17" cy="179.8047" fill="#84BE84" rx="3" ry="3" style="stroke: #038048; stroke-width: 1.0;"/><text fill="#000000" font-family="sans-serif" font-size="11" lengthAdjust="spacingAndGlyphs" textLength="93" x="26" y="183.0151">Net_PlayerDied()</text><ellipse cx="17" cy="192.6094" fill="#84BE84" rx="3" ry="3" style="stroke: #038048; stroke-width: 1.0;"/><text fill="#000000" font-family="sans-serif" font-size="11" lengthAdjust="spacingAndGlyphs" textLength="156" x="26" y="195.8198">Net_PlayerDied(playerId:int)</text><ellipse cx="17" cy="205.4141" fill="#84BE84" rx="3" ry="3" style="stroke: #038048; stroke-width: 1.0;"/><text fill="#000000" font-family="sans-serif" font-size="11" lengthAdjust="spacingAndGlyphs" textLength="243" x="26" y="208.6245">Net_PlayerDied(reader:DataStreamReader)</text><ellipse cx="17" cy="218.2188" fill="#84BE84" rx="3" ry="3" style="stroke: #038048; stroke-width: 1.0;"/><text fill="#000000" font-family="sans-serif" font-size="11" lengthAdjust="spacingAndGlyphs" textLength="484" x="26" y="221.4292">Net_PlayerDied(reader:DataStreamReader, deathRunGameLoop:DeathRunGameLoop)</text><ellipse cx="17" cy="231.0234" fill="#84BE84" rx="3" ry="3" style="stroke: #038048; stroke-width: 1.0;"/><text fill="#000000" font-family="sans-serif" font-size="11" lengthAdjust="spacingAndGlyphs" textLength="294" x="26" y="234.2339">«override» Serialize(writer:DataStreamWriter) : void</text><ellipse cx="17" cy="243.8281" fill="#84BE84" rx="3" ry="3" style="stroke: #038048; stroke-width: 1.0;"/><text fill="#000000" font-family="sans-serif" font-size="11" lengthAdjust="spacingAndGlyphs" textLength="320" x="26" y="247.0386">«override» Deserialize(reader:DataStreamReader) : void</text><ellipse cx="17" cy="256.6328" fill="#84BE84" rx="3" ry="3" style="stroke: #038048; stroke-width: 1.0;"/><text fill="#000000" font-family="sans-serif" font-size="11" lengthAdjust="spacingAndGlyphs" textLength="320" x="26" y="259.8433">«override» ReceivedOnServer(server:BaseServer) : void</text><!--MD5=[57013508309b10e1d30b46bd54336031]
class NetMessage--><rect fill="#FEFECE" filter="url(#f15br9ihaanerb)" height="48" id="NetMessage" style="stroke: #A80036; stroke-width: 1.5;" width="110" x="206" y="8"/><ellipse cx="221" cy="24" fill="#ADD1B2" rx="11" ry="11" style="stroke: #A80036; stroke-width: 1.0;"/><path d="M223.9688,29.6406 Q223.3906,29.9375 222.75,30.0781 Q222.1094,30.2344 221.4063,30.2344 Q218.9063,30.2344 217.5781,28.5938 Q216.2656,26.9375 216.2656,23.8125 Q216.2656,20.6875 217.5781,19.0313 Q218.9063,17.375 221.4063,17.375 Q222.1094,17.375 222.75,17.5313 Q223.4063,17.6875 223.9688,17.9844 L223.9688,20.7031 Q223.3438,20.125 222.75,19.8594 Q222.1563,19.5781 221.5313,19.5781 Q220.1875,19.5781 219.5,20.6563 Q218.8125,21.7188 218.8125,23.8125 Q218.8125,25.9063 219.5,26.9844 Q220.1875,28.0469 221.5313,28.0469 Q222.1563,28.0469 222.75,27.7813 Q223.3438,27.5 223.9688,26.9219 L223.9688,29.6406 Z "/><text fill="#000000" font-family="sans-serif" font-size="12" lengthAdjust="spacingAndGlyphs" textLength="78" x="235" y="28.1543">NetMessage</text><line style="stroke: #A80036; stroke-width: 1.5;" x1="207" x2="315" y1="40" y2="40"/><line style="stroke: #A80036; stroke-width: 1.5;" x1="207" x2="315" y1="48" y2="48"/><!--MD5=[23102662ead8122e19083c2212ca2563]
reverse link NetMessage to Net_PlayerDied--><path d="M261,76.38 C261,88.67 261,102.4 261,115.96 " fill="none" id="NetMessage&lt;-Net_PlayerDied" style="stroke: #A80036; stroke-width: 1.0;"/><polygon fill="none" points="254,76.17,261,56.17,268,76.17,254,76.17" style="stroke: #A80036; stroke-width: 1.0;"/><!--MD5=[bf4ebc789fb4d7254a35274f1d1c56e0]
@startuml
class Net_PlayerDied {
    + playerId : int <<get>> <<set>>
    + Net_PlayerDied()
    + Net_PlayerDied(playerId:int)
    + Net_PlayerDied(reader:DataStreamReader)
    + Net_PlayerDied(reader:DataStreamReader, deathRunGameLoop:DeathRunGameLoop)
    + <<override>> Serialize(writer:DataStreamWriter) : void
    + <<override>> Deserialize(reader:DataStreamReader) : void
    + <<override>> ReceivedOnServer(server:BaseServer) : void
}
NetMessage <|- - Net_PlayerDied
@enduml

PlantUML version 1.2020.02(Sun Mar 01 10:22:07 GMT 2020)
(GPL source distribution)
Java Runtime: OpenJDK Runtime Environment
JVM: OpenJDK 64-Bit Server VM
Java Version: 11.0.9+11-Ubuntu-0ubuntu1
Operating System: Linux
Default Encoding: ANSI_X3.4-1968
Language: en
Country: US
--></g></svg>