<?xml version="1.0" encoding="UTF-8" standalone="no"?><svg xmlns="http://www.w3.org/2000/svg" xmlns:xlink="http://www.w3.org/1999/xlink" contentScriptType="application/ecmascript" contentStyleType="text/css" height="290px" preserveAspectRatio="none" style="width:459px;height:290px;" version="1.1" viewBox="0 0 459 290" width="459px" zoomAndPan="magnify"><defs><filter height="300%" id="f1o9rr3dn4yykt" width="300%" x="-1" y="-1"><feGaussianBlur result="blurOut" stdDeviation="2.0"/><feColorMatrix in="blurOut" result="blurOut2" type="matrix" values="0 0 0 0 0 0 0 0 0 0 0 0 0 0 0 0 0 0 .4 0"/><feOffset dx="4.0" dy="4.0" in="blurOut2" result="blurOut3"/><feBlend in="SourceGraphic" in2="blurOut3" mode="normal"/></filter></defs><g><!--MD5=[96cb42f61d30e9d44a1ef4922d26b9f5]
class Net_ActivateTrap--><rect fill="#FEFECE" filter="url(#f1o9rr3dn4yykt)" height="163.2422" id="Net_ActivateTrap" style="stroke: #A80036; stroke-width: 1.5;" width="442" x="6" y="116"/><ellipse cx="169.75" cy="132" fill="#ADD1B2" rx="11" ry="11" style="stroke: #A80036; stroke-width: 1.0;"/><path d="M172.7188,137.6406 Q172.1406,137.9375 171.5,138.0781 Q170.8594,138.2344 170.1563,138.2344 Q167.6563,138.2344 166.3281,136.5938 Q165.0156,134.9375 165.0156,131.8125 Q165.0156,128.6875 166.3281,127.0313 Q167.6563,125.375 170.1563,125.375 Q170.8594,125.375 171.5,125.5313 Q172.1563,125.6875 172.7188,125.9844 L172.7188,128.7031 Q172.0938,128.125 171.5,127.8594 Q170.9063,127.5781 170.2813,127.5781 Q168.9375,127.5781 168.25,128.6563 Q167.5625,129.7188 167.5625,131.8125 Q167.5625,133.9063 168.25,134.9844 Q168.9375,136.0469 170.2813,136.0469 Q170.9063,136.0469 171.5,135.7813 Q172.0938,135.5 172.7188,134.9219 L172.7188,137.6406 Z "/><text fill="#000000" font-family="sans-serif" font-size="12" lengthAdjust="spacingAndGlyphs" textLength="106" x="190.25" y="136.1543">Net_ActivateTrap</text><line style="stroke: #A80036; stroke-width: 1.5;" x1="7" x2="447" y1="148" y2="148"/><ellipse cx="17" cy="159" fill="none" rx="3" ry="3" style="stroke: #038048; stroke-width: 1.0;"/><text fill="#000000" font-family="sans-serif" font-size="11" lengthAdjust="spacingAndGlyphs" textLength="59" x="26" y="162.2104">trapId : int</text><line style="stroke: #A80036; stroke-width: 1.5;" x1="7" x2="447" y1="168.8047" y2="168.8047"/><ellipse cx="17" cy="179.8047" fill="#84BE84" rx="3" ry="3" style="stroke: #038048; stroke-width: 1.0;"/><text fill="#000000" font-family="sans-serif" font-size="11" lengthAdjust="spacingAndGlyphs" textLength="103" x="26" y="183.0151">Net_ActivateTrap()</text><ellipse cx="17" cy="192.6094" fill="#84BE84" rx="3" ry="3" style="stroke: #038048; stroke-width: 1.0;"/><text fill="#000000" font-family="sans-serif" font-size="11" lengthAdjust="spacingAndGlyphs" textLength="154" x="26" y="195.8198">Net_ActivateTrap(trapId:int)</text><ellipse cx="17" cy="205.4141" fill="#84BE84" rx="3" ry="3" style="stroke: #038048; stroke-width: 1.0;"/><text fill="#000000" font-family="sans-serif" font-size="11" lengthAdjust="spacingAndGlyphs" textLength="253" x="26" y="208.6245">Net_ActivateTrap(reader:DataStreamReader)</text><ellipse cx="17" cy="218.2188" fill="#84BE84" rx="3" ry="3" style="stroke: #038048; stroke-width: 1.0;"/><text fill="#000000" font-family="sans-serif" font-size="11" lengthAdjust="spacingAndGlyphs" textLength="416" x="26" y="221.4292">Net_ActivateTrap(reader:DataStreamReader, trapsHandler:TrapsHandler)</text><ellipse cx="17" cy="231.0234" fill="#84BE84" rx="3" ry="3" style="stroke: #038048; stroke-width: 1.0;"/><text fill="#000000" font-family="sans-serif" font-size="11" lengthAdjust="spacingAndGlyphs" textLength="294" x="26" y="234.2339">«override» Serialize(writer:DataStreamWriter) : void</text><ellipse cx="17" cy="243.8281" fill="#84BE84" rx="3" ry="3" style="stroke: #038048; stroke-width: 1.0;"/><text fill="#000000" font-family="sans-serif" font-size="11" lengthAdjust="spacingAndGlyphs" textLength="320" x="26" y="247.0386">«override» Deserialize(reader:DataStreamReader) : void</text><ellipse cx="17" cy="256.6328" fill="#84BE84" rx="3" ry="3" style="stroke: #038048; stroke-width: 1.0;"/><text fill="#000000" font-family="sans-serif" font-size="11" lengthAdjust="spacingAndGlyphs" textLength="320" x="26" y="259.8433">«override» ReceivedOnServer(server:BaseServer) : void</text><ellipse cx="17" cy="269.4375" fill="#84BE84" rx="3" ry="3" style="stroke: #038048; stroke-width: 1.0;"/><text fill="#000000" font-family="sans-serif" font-size="11" lengthAdjust="spacingAndGlyphs" textLength="206" x="26" y="272.6479">«override» ReceivedOnClient() : void</text><!--MD5=[57013508309b10e1d30b46bd54336031]
class NetMessage--><rect fill="#FEFECE" filter="url(#f1o9rr3dn4yykt)" height="48" id="NetMessage" style="stroke: #A80036; stroke-width: 1.5;" width="110" x="172" y="8"/><ellipse cx="187" cy="24" fill="#ADD1B2" rx="11" ry="11" style="stroke: #A80036; stroke-width: 1.0;"/><path d="M189.9688,29.6406 Q189.3906,29.9375 188.75,30.0781 Q188.1094,30.2344 187.4063,30.2344 Q184.9063,30.2344 183.5781,28.5938 Q182.2656,26.9375 182.2656,23.8125 Q182.2656,20.6875 183.5781,19.0313 Q184.9063,17.375 187.4063,17.375 Q188.1094,17.375 188.75,17.5313 Q189.4063,17.6875 189.9688,17.9844 L189.9688,20.7031 Q189.3438,20.125 188.75,19.8594 Q188.1563,19.5781 187.5313,19.5781 Q186.1875,19.5781 185.5,20.6563 Q184.8125,21.7188 184.8125,23.8125 Q184.8125,25.9063 185.5,26.9844 Q186.1875,28.0469 187.5313,28.0469 Q188.1563,28.0469 188.75,27.7813 Q189.3438,27.5 189.9688,26.9219 L189.9688,29.6406 Z "/><text fill="#000000" font-family="sans-serif" font-size="12" lengthAdjust="spacingAndGlyphs" textLength="78" x="201" y="28.1543">NetMessage</text><line style="stroke: #A80036; stroke-width: 1.5;" x1="173" x2="281" y1="40" y2="40"/><line style="stroke: #A80036; stroke-width: 1.5;" x1="173" x2="281" y1="48" y2="48"/><!--MD5=[0d6fcec6b915e0fef3d5273314fcbf21]
reverse link NetMessage to Net_ActivateTrap--><path d="M227,76.19 C227,88.45 227,102.21 227,115.93 " fill="none" id="NetMessage&lt;-Net_ActivateTrap" style="stroke: #A80036; stroke-width: 1.0;"/><polygon fill="none" points="220,76.08,227,56.08,234,76.08,220,76.08" style="stroke: #A80036; stroke-width: 1.0;"/><!--MD5=[59e4d5b27140b033b81ca2a54e4479c3]
@startuml
class Net_ActivateTrap {
    + trapId : int
    + Net_ActivateTrap()
    + Net_ActivateTrap(trapId:int)
    + Net_ActivateTrap(reader:DataStreamReader)
    + Net_ActivateTrap(reader:DataStreamReader, trapsHandler:TrapsHandler)
    + <<override>> Serialize(writer:DataStreamWriter) : void
    + <<override>> Deserialize(reader:DataStreamReader) : void
    + <<override>> ReceivedOnServer(server:BaseServer) : void
    + <<override>> ReceivedOnClient() : void
}
NetMessage <|- - Net_ActivateTrap
@enduml

PlantUML version 1.2020.02(Sun Mar 01 10:22:07 GMT 2020)
(GPL source distribution)
Java Runtime: OpenJDK Runtime Environment
JVM: OpenJDK 64-Bit Server VM
Java Version: 11.0.9+11-Ubuntu-0ubuntu1
Operating System: Linux
Default Encoding: ANSI_X3.4-1968
Language: en
Country: US
--></g></svg>