<?xml version="1.0" encoding="UTF-8" standalone="no"?><svg xmlns="http://www.w3.org/2000/svg" xmlns:xlink="http://www.w3.org/1999/xlink" contentScriptType="application/ecmascript" contentStyleType="text/css" height="277px" preserveAspectRatio="none" style="width:1074px;height:277px;" version="1.1" viewBox="0 0 1074 277" width="1074px" zoomAndPan="magnify"><defs><filter height="300%" id="f1p9vlvnmykffh" width="300%" x="-1" y="-1"><feGaussianBlur result="blurOut" stdDeviation="2.0"/><feColorMatrix in="blurOut" result="blurOut2" type="matrix" values="0 0 0 0 0 0 0 0 0 0 0 0 0 0 0 0 0 0 .4 0"/><feOffset dx="4.0" dy="4.0" in="blurOut2" result="blurOut3"/><feBlend in="SourceGraphic" in2="blurOut3" mode="normal"/></filter></defs><g><!--MD5=[8c7058599d2696119c51b69f10aa0639]
class Net_StartGame--><rect fill="#FEFECE" filter="url(#f1p9vlvnmykffh)" height="124.8281" id="Net_StartGame" style="stroke: #A80036; stroke-width: 1.5;" width="512" x="6" y="128.5"/><ellipse cx="210.25" cy="144.5" fill="#ADD1B2" rx="11" ry="11" style="stroke: #A80036; stroke-width: 1.0;"/><path d="M213.2188,150.1406 Q212.6406,150.4375 212,150.5781 Q211.3594,150.7344 210.6563,150.7344 Q208.1563,150.7344 206.8281,149.0938 Q205.5156,147.4375 205.5156,144.3125 Q205.5156,141.1875 206.8281,139.5313 Q208.1563,137.875 210.6563,137.875 Q211.3594,137.875 212,138.0313 Q212.6563,138.1875 213.2188,138.4844 L213.2188,141.2031 Q212.5938,140.625 212,140.3594 Q211.4063,140.0781 210.7813,140.0781 Q209.4375,140.0781 208.75,141.1563 Q208.0625,142.2188 208.0625,144.3125 Q208.0625,146.4063 208.75,147.4844 Q209.4375,148.5469 210.7813,148.5469 Q211.4063,148.5469 212,148.2813 Q212.5938,148 213.2188,147.4219 L213.2188,150.1406 Z "/><text fill="#000000" font-family="sans-serif" font-size="12" lengthAdjust="spacingAndGlyphs" textLength="95" x="230.75" y="148.6543">Net_StartGame</text><line style="stroke: #A80036; stroke-width: 1.5;" x1="7" x2="517" y1="160.5" y2="160.5"/><line style="stroke: #A80036; stroke-width: 1.5;" x1="7" x2="517" y1="168.5" y2="168.5"/><ellipse cx="17" cy="179.5" fill="#84BE84" rx="3" ry="3" style="stroke: #038048; stroke-width: 1.0;"/><text fill="#000000" font-family="sans-serif" font-size="11" lengthAdjust="spacingAndGlyphs" textLength="95" x="26" y="182.7104">Net_StartGame()</text><ellipse cx="17" cy="192.3047" fill="#84BE84" rx="3" ry="3" style="stroke: #038048; stroke-width: 1.0;"/><text fill="#000000" font-family="sans-serif" font-size="11" lengthAdjust="spacingAndGlyphs" textLength="245" x="26" y="195.5151">Net_StartGame(reader:DataStreamReader)</text><ellipse cx="17" cy="205.1094" fill="#84BE84" rx="3" ry="3" style="stroke: #038048; stroke-width: 1.0;"/><text fill="#000000" font-family="sans-serif" font-size="11" lengthAdjust="spacingAndGlyphs" textLength="486" x="26" y="208.3198">Net_StartGame(reader:DataStreamReader, deathRunGameLoop:DeathRunGameLoop)</text><ellipse cx="17" cy="217.9141" fill="#84BE84" rx="3" ry="3" style="stroke: #038048; stroke-width: 1.0;"/><text fill="#000000" font-family="sans-serif" font-size="11" lengthAdjust="spacingAndGlyphs" textLength="294" x="26" y="221.1245">«override» Serialize(writer:DataStreamWriter) : void</text><ellipse cx="17" cy="230.7188" fill="#84BE84" rx="3" ry="3" style="stroke: #038048; stroke-width: 1.0;"/><text fill="#000000" font-family="sans-serif" font-size="11" lengthAdjust="spacingAndGlyphs" textLength="320" x="26" y="233.9292">«override» ReceivedOnServer(server:BaseServer) : void</text><ellipse cx="17" cy="243.5234" fill="#84BE84" rx="3" ry="3" style="stroke: #038048; stroke-width: 1.0;"/><text fill="#000000" font-family="sans-serif" font-size="11" lengthAdjust="spacingAndGlyphs" textLength="206" x="26" y="246.7339">«override» ReceivedOnClient() : void</text><!--MD5=[0f298236691d283dc2ab29846be22f29]
class Net_PlayerDied--><rect fill="#FEFECE" filter="url(#f1p9vlvnmykffh)" height="150.4375" id="Net_PlayerDied" style="stroke: #A80036; stroke-width: 1.5;" width="510" x="553" y="116"/><ellipse cx="756.75" cy="132" fill="#ADD1B2" rx="11" ry="11" style="stroke: #A80036; stroke-width: 1.0;"/><path d="M759.7188,137.6406 Q759.1406,137.9375 758.5,138.0781 Q757.8594,138.2344 757.1563,138.2344 Q754.6563,138.2344 753.3281,136.5938 Q752.0156,134.9375 752.0156,131.8125 Q752.0156,128.6875 753.3281,127.0313 Q754.6563,125.375 757.1563,125.375 Q757.8594,125.375 758.5,125.5313 Q759.1563,125.6875 759.7188,125.9844 L759.7188,128.7031 Q759.0938,128.125 758.5,127.8594 Q757.9063,127.5781 757.2813,127.5781 Q755.9375,127.5781 755.25,128.6563 Q754.5625,129.7188 754.5625,131.8125 Q754.5625,133.9063 755.25,134.9844 Q755.9375,136.0469 757.2813,136.0469 Q757.9063,136.0469 758.5,135.7813 Q759.0938,135.5 759.7188,134.9219 L759.7188,137.6406 Z "/><text fill="#000000" font-family="sans-serif" font-size="12" lengthAdjust="spacingAndGlyphs" textLength="94" x="777.25" y="136.1543">Net_PlayerDied</text><line style="stroke: #A80036; stroke-width: 1.5;" x1="554" x2="1062" y1="148" y2="148"/><ellipse cx="564" cy="159" fill="none" rx="3" ry="3" style="stroke: #038048; stroke-width: 1.0;"/><text fill="#000000" font-family="sans-serif" font-size="11" lengthAdjust="spacingAndGlyphs" textLength="143" x="573" y="162.2104">playerId : int «get» «set»</text><line style="stroke: #A80036; stroke-width: 1.5;" x1="554" x2="1062" y1="168.8047" y2="168.8047"/><ellipse cx="564" cy="179.8047" fill="#84BE84" rx="3" ry="3" style="stroke: #038048; stroke-width: 1.0;"/><text fill="#000000" font-family="sans-serif" font-size="11" lengthAdjust="spacingAndGlyphs" textLength="93" x="573" y="183.0151">Net_PlayerDied()</text><ellipse cx="564" cy="192.6094" fill="#84BE84" rx="3" ry="3" style="stroke: #038048; stroke-width: 1.0;"/><text fill="#000000" font-family="sans-serif" font-size="11" lengthAdjust="spacingAndGlyphs" textLength="156" x="573" y="195.8198">Net_PlayerDied(playerId:int)</text><ellipse cx="564" cy="205.4141" fill="#84BE84" rx="3" ry="3" style="stroke: #038048; stroke-width: 1.0;"/><text fill="#000000" font-family="sans-serif" font-size="11" lengthAdjust="spacingAndGlyphs" textLength="243" x="573" y="208.6245">Net_PlayerDied(reader:DataStreamReader)</text><ellipse cx="564" cy="218.2188" fill="#84BE84" rx="3" ry="3" style="stroke: #038048; stroke-width: 1.0;"/><text fill="#000000" font-family="sans-serif" font-size="11" lengthAdjust="spacingAndGlyphs" textLength="484" x="573" y="221.4292">Net_PlayerDied(reader:DataStreamReader, deathRunGameLoop:DeathRunGameLoop)</text><ellipse cx="564" cy="231.0234" fill="#84BE84" rx="3" ry="3" style="stroke: #038048; stroke-width: 1.0;"/><text fill="#000000" font-family="sans-serif" font-size="11" lengthAdjust="spacingAndGlyphs" textLength="294" x="573" y="234.2339">«override» Serialize(writer:DataStreamWriter) : void</text><ellipse cx="564" cy="243.8281" fill="#84BE84" rx="3" ry="3" style="stroke: #038048; stroke-width: 1.0;"/><text fill="#000000" font-family="sans-serif" font-size="11" lengthAdjust="spacingAndGlyphs" textLength="320" x="573" y="247.0386">«override» Deserialize(reader:DataStreamReader) : void</text><ellipse cx="564" cy="256.6328" fill="#84BE84" rx="3" ry="3" style="stroke: #038048; stroke-width: 1.0;"/><text fill="#000000" font-family="sans-serif" font-size="11" lengthAdjust="spacingAndGlyphs" textLength="320" x="573" y="259.8433">«override» ReceivedOnServer(server:BaseServer) : void</text><!--MD5=[57013508309b10e1d30b46bd54336031]
class NetMessage--><rect fill="#FEFECE" filter="url(#f1p9vlvnmykffh)" height="48" id="NetMessage" style="stroke: #A80036; stroke-width: 1.5;" width="110" x="480" y="8"/><ellipse cx="495" cy="24" fill="#ADD1B2" rx="11" ry="11" style="stroke: #A80036; stroke-width: 1.0;"/><path d="M497.9688,29.6406 Q497.3906,29.9375 496.75,30.0781 Q496.1094,30.2344 495.4063,30.2344 Q492.9063,30.2344 491.5781,28.5938 Q490.2656,26.9375 490.2656,23.8125 Q490.2656,20.6875 491.5781,19.0313 Q492.9063,17.375 495.4063,17.375 Q496.1094,17.375 496.75,17.5313 Q497.4063,17.6875 497.9688,17.9844 L497.9688,20.7031 Q497.3438,20.125 496.75,19.8594 Q496.1563,19.5781 495.5313,19.5781 Q494.1875,19.5781 493.5,20.6563 Q492.8125,21.7188 492.8125,23.8125 Q492.8125,25.9063 493.5,26.9844 Q494.1875,28.0469 495.5313,28.0469 Q496.1563,28.0469 496.75,27.7813 Q497.3438,27.5 497.9688,26.9219 L497.9688,29.6406 Z "/><text fill="#000000" font-family="sans-serif" font-size="12" lengthAdjust="spacingAndGlyphs" textLength="78" x="509" y="28.1543">NetMessage</text><line style="stroke: #A80036; stroke-width: 1.5;" x1="481" x2="589" y1="40" y2="40"/><line style="stroke: #A80036; stroke-width: 1.5;" x1="481" x2="589" y1="48" y2="48"/><!--MD5=[a09dd89f320a2fbc1900ed8ee351260a]
reverse link NetMessage to Net_StartGame--><path d="M477.29,66.19 C445.87,84.26 405.99,107.19 369.12,128.4 " fill="none" id="NetMessage&lt;-Net_StartGame" style="stroke: #A80036; stroke-width: 1.0;"/><polygon fill="none" points="473.89,60.07,494.72,56.17,480.87,72.2,473.89,60.07" style="stroke: #A80036; stroke-width: 1.0;"/><!--MD5=[23102662ead8122e19083c2212ca2563]
reverse link NetMessage to Net_PlayerDied--><path d="M592.68,66.17 C618.03,80.75 648.91,98.51 679.26,115.96 " fill="none" id="NetMessage&lt;-Net_PlayerDied" style="stroke: #A80036; stroke-width: 1.0;"/><polygon fill="none" points="589.13,72.2,575.28,56.17,596.11,60.07,589.13,72.2" style="stroke: #A80036; stroke-width: 1.0;"/><!--MD5=[a9a97b0fb3d4b21791162a99187502bf]
@startuml
class Net_StartGame {
    + Net_StartGame()
    + Net_StartGame(reader:DataStreamReader)
    + Net_StartGame(reader:DataStreamReader, deathRunGameLoop:DeathRunGameLoop)
    + <<override>> Serialize(writer:DataStreamWriter) : void
    + <<override>> ReceivedOnServer(server:BaseServer) : void
    + <<override>> ReceivedOnClient() : void
}
class Net_PlayerDied {
    + playerId : int <<get>> <<set>>
    + Net_PlayerDied()
    + Net_PlayerDied(playerId:int)
    + Net_PlayerDied(reader:DataStreamReader)
    + Net_PlayerDied(reader:DataStreamReader, deathRunGameLoop:DeathRunGameLoop)
    + <<override>> Serialize(writer:DataStreamWriter) : void
    + <<override>> Deserialize(reader:DataStreamReader) : void
    + <<override>> ReceivedOnServer(server:BaseServer) : void
}
NetMessage <|- - Net_StartGame
NetMessage <|- - Net_PlayerDied
@enduml

PlantUML version 1.2020.02(Sun Mar 01 10:22:07 GMT 2020)
(GPL source distribution)
Java Runtime: OpenJDK Runtime Environment
JVM: OpenJDK 64-Bit Server VM
Java Version: 11.0.9+11-Ubuntu-0ubuntu1
Operating System: Linux
Default Encoding: ANSI_X3.4-1968
Language: en
Country: US
--></g></svg>