<?xml version="1.0" encoding="UTF-8" standalone="no"?><svg xmlns="http://www.w3.org/2000/svg" xmlns:xlink="http://www.w3.org/1999/xlink" contentScriptType="application/ecmascript" contentStyleType="text/css" height="328px" preserveAspectRatio="none" style="width:465px;height:328px;" version="1.1" viewBox="0 0 465 328" width="465px" zoomAndPan="magnify"><defs><filter height="300%" id="f1c5y5s6vbjpm3" width="300%" x="-1" y="-1"><feGaussianBlur result="blurOut" stdDeviation="2.0"/><feColorMatrix in="blurOut" result="blurOut2" type="matrix" values="0 0 0 0 0 0 0 0 0 0 0 0 0 0 0 0 0 0 .4 0"/><feOffset dx="4.0" dy="4.0" in="blurOut2" result="blurOut3"/><feBlend in="SourceGraphic" in2="blurOut3" mode="normal"/></filter></defs><g><!--MD5=[458876527b7afce5a10eca62ab613c2c]
class Net_PlayerGravity--><rect fill="#FEFECE" filter="url(#f1c5y5s6vbjpm3)" height="201.6563" id="Net_PlayerGravity" style="stroke: #A80036; stroke-width: 1.5;" width="448" x="6" y="116"/><ellipse cx="171.75" cy="132" fill="#ADD1B2" rx="11" ry="11" style="stroke: #A80036; stroke-width: 1.0;"/><path d="M174.7188,137.6406 Q174.1406,137.9375 173.5,138.0781 Q172.8594,138.2344 172.1563,138.2344 Q169.6563,138.2344 168.3281,136.5938 Q167.0156,134.9375 167.0156,131.8125 Q167.0156,128.6875 168.3281,127.0313 Q169.6563,125.375 172.1563,125.375 Q172.8594,125.375 173.5,125.5313 Q174.1563,125.6875 174.7188,125.9844 L174.7188,128.7031 Q174.0938,128.125 173.5,127.8594 Q172.9063,127.5781 172.2813,127.5781 Q170.9375,127.5781 170.25,128.6563 Q169.5625,129.7188 169.5625,131.8125 Q169.5625,133.9063 170.25,134.9844 Q170.9375,136.0469 172.2813,136.0469 Q172.9063,136.0469 173.5,135.7813 Q174.0938,135.5 174.7188,134.9219 L174.7188,137.6406 Z "/><text fill="#000000" font-family="sans-serif" font-size="12" lengthAdjust="spacingAndGlyphs" textLength="108" x="192.25" y="136.1543">Net_PlayerGravity</text><line style="stroke: #A80036; stroke-width: 1.5;" x1="7" x2="453" y1="148" y2="148"/><ellipse cx="17" cy="159" fill="none" rx="3" ry="3" style="stroke: #038048; stroke-width: 1.0;"/><text fill="#000000" font-family="sans-serif" font-size="11" lengthAdjust="spacingAndGlyphs" textLength="143" x="26" y="162.2104">playerId : int «get» «set»</text><ellipse cx="17" cy="171.8047" fill="none" rx="3" ry="3" style="stroke: #038048; stroke-width: 1.0;"/><text fill="#000000" font-family="sans-serif" font-size="11" lengthAdjust="spacingAndGlyphs" textLength="131" x="26" y="175.0151">xDir : float «get» «set»</text><ellipse cx="17" cy="184.6094" fill="none" rx="3" ry="3" style="stroke: #038048; stroke-width: 1.0;"/><text fill="#000000" font-family="sans-serif" font-size="11" lengthAdjust="spacingAndGlyphs" textLength="131" x="26" y="187.8198">yDir : float «get» «set»</text><ellipse cx="17" cy="197.4141" fill="none" rx="3" ry="3" style="stroke: #038048; stroke-width: 1.0;"/><text fill="#000000" font-family="sans-serif" font-size="11" lengthAdjust="spacingAndGlyphs" textLength="130" x="26" y="200.6245">zDir : float «get» «set»</text><line style="stroke: #A80036; stroke-width: 1.5;" x1="7" x2="453" y1="207.2188" y2="207.2188"/><ellipse cx="17" cy="218.2188" fill="#84BE84" rx="3" ry="3" style="stroke: #038048; stroke-width: 1.0;"/><text fill="#000000" font-family="sans-serif" font-size="11" lengthAdjust="spacingAndGlyphs" textLength="108" x="26" y="221.4292">Net_PlayerGravity()</text><ellipse cx="17" cy="231.0234" fill="#84BE84" rx="3" ry="3" style="stroke: #038048; stroke-width: 1.0;"/><text fill="#000000" font-family="sans-serif" font-size="11" lengthAdjust="spacingAndGlyphs" textLength="347" x="26" y="234.2339">Net_PlayerGravity(playerId:int, xDir:float, yDir:float, zDir:float)</text><ellipse cx="17" cy="243.8281" fill="#84BE84" rx="3" ry="3" style="stroke: #038048; stroke-width: 1.0;"/><text fill="#000000" font-family="sans-serif" font-size="11" lengthAdjust="spacingAndGlyphs" textLength="258" x="26" y="247.0386">Net_PlayerGravity(reader:DataStreamReader)</text><ellipse cx="17" cy="256.6328" fill="#84BE84" rx="3" ry="3" style="stroke: #038048; stroke-width: 1.0;"/><text fill="#000000" font-family="sans-serif" font-size="11" lengthAdjust="spacingAndGlyphs" textLength="422" x="26" y="259.8433">Net_PlayerGravity(reader:DataStreamReader, playerRotator:PlayerRotator)</text><ellipse cx="17" cy="269.4375" fill="#84BE84" rx="3" ry="3" style="stroke: #038048; stroke-width: 1.0;"/><text fill="#000000" font-family="sans-serif" font-size="11" lengthAdjust="spacingAndGlyphs" textLength="294" x="26" y="272.6479">«override» Serialize(writer:DataStreamWriter) : void</text><ellipse cx="17" cy="282.2422" fill="#84BE84" rx="3" ry="3" style="stroke: #038048; stroke-width: 1.0;"/><text fill="#000000" font-family="sans-serif" font-size="11" lengthAdjust="spacingAndGlyphs" textLength="320" x="26" y="285.4526">«override» Deserialize(reader:DataStreamReader) : void</text><ellipse cx="17" cy="295.0469" fill="#84BE84" rx="3" ry="3" style="stroke: #038048; stroke-width: 1.0;"/><text fill="#000000" font-family="sans-serif" font-size="11" lengthAdjust="spacingAndGlyphs" textLength="320" x="26" y="298.2573">«override» ReceivedOnServer(server:BaseServer) : void</text><ellipse cx="17" cy="307.8516" fill="#84BE84" rx="3" ry="3" style="stroke: #038048; stroke-width: 1.0;"/><text fill="#000000" font-family="sans-serif" font-size="11" lengthAdjust="spacingAndGlyphs" textLength="206" x="26" y="311.062">«override» ReceivedOnClient() : void</text><!--MD5=[57013508309b10e1d30b46bd54336031]
class NetMessage--><rect fill="#FEFECE" filter="url(#f1c5y5s6vbjpm3)" height="48" id="NetMessage" style="stroke: #A80036; stroke-width: 1.5;" width="110" x="175" y="8"/><ellipse cx="190" cy="24" fill="#ADD1B2" rx="11" ry="11" style="stroke: #A80036; stroke-width: 1.0;"/><path d="M192.9688,29.6406 Q192.3906,29.9375 191.75,30.0781 Q191.1094,30.2344 190.4063,30.2344 Q187.9063,30.2344 186.5781,28.5938 Q185.2656,26.9375 185.2656,23.8125 Q185.2656,20.6875 186.5781,19.0313 Q187.9063,17.375 190.4063,17.375 Q191.1094,17.375 191.75,17.5313 Q192.4063,17.6875 192.9688,17.9844 L192.9688,20.7031 Q192.3438,20.125 191.75,19.8594 Q191.1563,19.5781 190.5313,19.5781 Q189.1875,19.5781 188.5,20.6563 Q187.8125,21.7188 187.8125,23.8125 Q187.8125,25.9063 188.5,26.9844 Q189.1875,28.0469 190.5313,28.0469 Q191.1563,28.0469 191.75,27.7813 Q192.3438,27.5 192.9688,26.9219 L192.9688,29.6406 Z "/><text fill="#000000" font-family="sans-serif" font-size="12" lengthAdjust="spacingAndGlyphs" textLength="78" x="204" y="28.1543">NetMessage</text><line style="stroke: #A80036; stroke-width: 1.5;" x1="176" x2="284" y1="40" y2="40"/><line style="stroke: #A80036; stroke-width: 1.5;" x1="176" x2="284" y1="48" y2="48"/><!--MD5=[a19ed021b40206384f46adf10732006d]
reverse link NetMessage to Net_PlayerGravity--><path d="M230,76.46 C230,88.49 230,102.06 230,115.9 " fill="none" id="NetMessage&lt;-Net_PlayerGravity" style="stroke: #A80036; stroke-width: 1.0;"/><polygon fill="none" points="223,76.18,230,56.18,237,76.18,223,76.18" style="stroke: #A80036; stroke-width: 1.0;"/><!--MD5=[d032e969a68d0f5efb14645f4f8eb817]
@startuml
class Net_PlayerGravity {
    + playerId : int <<get>> <<set>>
    + xDir : float <<get>> <<set>>
    + yDir : float <<get>> <<set>>
    + zDir : float <<get>> <<set>>
    + Net_PlayerGravity()
    + Net_PlayerGravity(playerId:int, xDir:float, yDir:float, zDir:float)
    + Net_PlayerGravity(reader:DataStreamReader)
    + Net_PlayerGravity(reader:DataStreamReader, playerRotator:PlayerRotator)
    + <<override>> Serialize(writer:DataStreamWriter) : void
    + <<override>> Deserialize(reader:DataStreamReader) : void
    + <<override>> ReceivedOnServer(server:BaseServer) : void
    + <<override>> ReceivedOnClient() : void
}
NetMessage <|- - Net_PlayerGravity
@enduml

PlantUML version 1.2020.02(Sun Mar 01 10:22:07 GMT 2020)
(GPL source distribution)
Java Runtime: OpenJDK Runtime Environment
JVM: OpenJDK 64-Bit Server VM
Java Version: 11.0.9+11-Ubuntu-0ubuntu1
Operating System: Linux
Default Encoding: ANSI_X3.4-1968
Language: en
Country: US
--></g></svg>