<?xml version="1.0" encoding="UTF-8" standalone="no"?><svg xmlns="http://www.w3.org/2000/svg" xmlns:xlink="http://www.w3.org/1999/xlink" contentScriptType="application/ecmascript" contentStyleType="text/css" height="290px" preserveAspectRatio="none" style="width:470px;height:290px;" version="1.1" viewBox="0 0 470 290" width="470px" zoomAndPan="magnify"><defs><filter height="300%" id="fn0y5cr3x4r25" width="300%" x="-1" y="-1"><feGaussianBlur result="blurOut" stdDeviation="2.0"/><feColorMatrix in="blurOut" result="blurOut2" type="matrix" values="0 0 0 0 0 0 0 0 0 0 0 0 0 0 0 0 0 0 .4 0"/><feOffset dx="4.0" dy="4.0" in="blurOut2" result="blurOut3"/><feBlend in="SourceGraphic" in2="blurOut3" mode="normal"/></filter></defs><g><!--MD5=[adad9c714b623adfcc394a6cf6e16636]
class Net_Disconnect--><rect fill="#FEFECE" filter="url(#fn0y5cr3x4r25)" height="163.2422" id="Net_Disconnect" style="stroke: #A80036; stroke-width: 1.5;" width="453" x="6" y="116"/><ellipse cx="179.25" cy="132" fill="#ADD1B2" rx="11" ry="11" style="stroke: #A80036; stroke-width: 1.0;"/><path d="M182.2188,137.6406 Q181.6406,137.9375 181,138.0781 Q180.3594,138.2344 179.6563,138.2344 Q177.1563,138.2344 175.8281,136.5938 Q174.5156,134.9375 174.5156,131.8125 Q174.5156,128.6875 175.8281,127.0313 Q177.1563,125.375 179.6563,125.375 Q180.3594,125.375 181,125.5313 Q181.6563,125.6875 182.2188,125.9844 L182.2188,128.7031 Q181.5938,128.125 181,127.8594 Q180.4063,127.5781 179.7813,127.5781 Q178.4375,127.5781 177.75,128.6563 Q177.0625,129.7188 177.0625,131.8125 Q177.0625,133.9063 177.75,134.9844 Q178.4375,136.0469 179.7813,136.0469 Q180.4063,136.0469 181,135.7813 Q181.5938,135.5 182.2188,134.9219 L182.2188,137.6406 Z "/><text fill="#000000" font-family="sans-serif" font-size="12" lengthAdjust="spacingAndGlyphs" textLength="98" x="199.75" y="136.1543">Net_Disconnect</text><line style="stroke: #A80036; stroke-width: 1.5;" x1="7" x2="458" y1="148" y2="148"/><ellipse cx="17" cy="159" fill="none" rx="3" ry="3" style="stroke: #038048; stroke-width: 1.0;"/><text fill="#000000" font-family="sans-serif" font-size="11" lengthAdjust="spacingAndGlyphs" textLength="143" x="26" y="162.2104">playerId : int «get» «set»</text><line style="stroke: #A80036; stroke-width: 1.5;" x1="7" x2="458" y1="168.8047" y2="168.8047"/><ellipse cx="17" cy="179.8047" fill="#84BE84" rx="3" ry="3" style="stroke: #038048; stroke-width: 1.0;"/><text fill="#000000" font-family="sans-serif" font-size="11" lengthAdjust="spacingAndGlyphs" textLength="95" x="26" y="183.0151">Net_Disconnect()</text><ellipse cx="17" cy="192.6094" fill="#84BE84" rx="3" ry="3" style="stroke: #038048; stroke-width: 1.0;"/><text fill="#000000" font-family="sans-serif" font-size="11" lengthAdjust="spacingAndGlyphs" textLength="158" x="26" y="195.8198">Net_Disconnect(playerId:int)</text><ellipse cx="17" cy="205.4141" fill="#84BE84" rx="3" ry="3" style="stroke: #038048; stroke-width: 1.0;"/><text fill="#000000" font-family="sans-serif" font-size="11" lengthAdjust="spacingAndGlyphs" textLength="245" x="26" y="208.6245">Net_Disconnect(reader:DataStreamReader)</text><ellipse cx="17" cy="218.2188" fill="#84BE84" rx="3" ry="3" style="stroke: #038048; stroke-width: 1.0;"/><text fill="#000000" font-family="sans-serif" font-size="11" lengthAdjust="spacingAndGlyphs" textLength="427" x="26" y="221.4292">Net_Disconnect(reader:DataStreamReader, playerSpawner:PlayerSpawner)</text><ellipse cx="17" cy="231.0234" fill="#84BE84" rx="3" ry="3" style="stroke: #038048; stroke-width: 1.0;"/><text fill="#000000" font-family="sans-serif" font-size="11" lengthAdjust="spacingAndGlyphs" textLength="294" x="26" y="234.2339">«override» Serialize(writer:DataStreamWriter) : void</text><ellipse cx="17" cy="243.8281" fill="#84BE84" rx="3" ry="3" style="stroke: #038048; stroke-width: 1.0;"/><text fill="#000000" font-family="sans-serif" font-size="11" lengthAdjust="spacingAndGlyphs" textLength="320" x="26" y="247.0386">«override» Deserialize(reader:DataStreamReader) : void</text><ellipse cx="17" cy="256.6328" fill="#84BE84" rx="3" ry="3" style="stroke: #038048; stroke-width: 1.0;"/><text fill="#000000" font-family="sans-serif" font-size="11" lengthAdjust="spacingAndGlyphs" textLength="320" x="26" y="259.8433">«override» ReceivedOnServer(server:BaseServer) : void</text><ellipse cx="17" cy="269.4375" fill="#84BE84" rx="3" ry="3" style="stroke: #038048; stroke-width: 1.0;"/><text fill="#000000" font-family="sans-serif" font-size="11" lengthAdjust="spacingAndGlyphs" textLength="206" x="26" y="272.6479">«override» ReceivedOnClient() : void</text><!--MD5=[57013508309b10e1d30b46bd54336031]
class NetMessage--><rect fill="#FEFECE" filter="url(#fn0y5cr3x4r25)" height="48" id="NetMessage" style="stroke: #A80036; stroke-width: 1.5;" width="110" x="177.5" y="8"/><ellipse cx="192.5" cy="24" fill="#ADD1B2" rx="11" ry="11" style="stroke: #A80036; stroke-width: 1.0;"/><path d="M195.4688,29.6406 Q194.8906,29.9375 194.25,30.0781 Q193.6094,30.2344 192.9063,30.2344 Q190.4063,30.2344 189.0781,28.5938 Q187.7656,26.9375 187.7656,23.8125 Q187.7656,20.6875 189.0781,19.0313 Q190.4063,17.375 192.9063,17.375 Q193.6094,17.375 194.25,17.5313 Q194.9063,17.6875 195.4688,17.9844 L195.4688,20.7031 Q194.8438,20.125 194.25,19.8594 Q193.6563,19.5781 193.0313,19.5781 Q191.6875,19.5781 191,20.6563 Q190.3125,21.7188 190.3125,23.8125 Q190.3125,25.9063 191,26.9844 Q191.6875,28.0469 193.0313,28.0469 Q193.6563,28.0469 194.25,27.7813 Q194.8438,27.5 195.4688,26.9219 L195.4688,29.6406 Z "/><text fill="#000000" font-family="sans-serif" font-size="12" lengthAdjust="spacingAndGlyphs" textLength="78" x="206.5" y="28.1543">NetMessage</text><line style="stroke: #A80036; stroke-width: 1.5;" x1="178.5" x2="286.5" y1="40" y2="40"/><line style="stroke: #A80036; stroke-width: 1.5;" x1="178.5" x2="286.5" y1="48" y2="48"/><!--MD5=[09e1b8bdcbb3a2176e6d74fd5e44b33a]
reverse link NetMessage to Net_Disconnect--><path d="M232.5,76.19 C232.5,88.45 232.5,102.21 232.5,115.93 " fill="none" id="NetMessage&lt;-Net_Disconnect" style="stroke: #A80036; stroke-width: 1.0;"/><polygon fill="none" points="225.5,76.08,232.5,56.08,239.5,76.08,225.5,76.08" style="stroke: #A80036; stroke-width: 1.0;"/><!--MD5=[a7b9607aab90b5fa0d48d36b3a82ec9c]
@startuml
class Net_Disconnect {
    + playerId : int <<get>> <<set>>
    + Net_Disconnect()
    + Net_Disconnect(playerId:int)
    + Net_Disconnect(reader:DataStreamReader)
    + Net_Disconnect(reader:DataStreamReader, playerSpawner:PlayerSpawner)
    + <<override>> Serialize(writer:DataStreamWriter) : void
    + <<override>> Deserialize(reader:DataStreamReader) : void
    + <<override>> ReceivedOnServer(server:BaseServer) : void
    + <<override>> ReceivedOnClient() : void
}
NetMessage <|- - Net_Disconnect
@enduml

PlantUML version 1.2020.02(Sun Mar 01 10:22:07 GMT 2020)
(GPL source distribution)
Java Runtime: OpenJDK Runtime Environment
JVM: OpenJDK 64-Bit Server VM
Java Version: 11.0.9+11-Ubuntu-0ubuntu1
Operating System: Linux
Default Encoding: ANSI_X3.4-1968
Language: en
Country: US
--></g></svg>