<?xml version="1.0" encoding="UTF-8" standalone="no"?><svg xmlns="http://www.w3.org/2000/svg" xmlns:xlink="http://www.w3.org/1999/xlink" contentScriptType="application/ecmascript" contentStyleType="text/css" height="385px" preserveAspectRatio="none" style="width:479px;height:385px;" version="1.1" viewBox="0 0 479 385" width="479px" zoomAndPan="magnify"><defs><filter height="300%" id="f1p6it5v79tc43" width="300%" x="-1" y="-1"><feGaussianBlur result="blurOut" stdDeviation="2.0"/><feColorMatrix in="blurOut" result="blurOut2" type="matrix" values="0 0 0 0 0 0 0 0 0 0 0 0 0 0 0 0 0 0 .4 0"/><feOffset dx="4.0" dy="4.0" in="blurOut2" result="blurOut3"/><feBlend in="SourceGraphic" in2="blurOut3" mode="normal"/></filter></defs><g><!--MD5=[0d18ad67941c009f404b7344c79f32aa]
class Net_ChatMessage--><rect fill="#FEFECE" filter="url(#f1p6it5v79tc43)" height="150.4375" id="Net_ChatMessage" style="stroke: #A80036; stroke-width: 1.5;" width="462" x="6" y="116"/><ellipse cx="176.25" cy="132" fill="#ADD1B2" rx="11" ry="11" style="stroke: #A80036; stroke-width: 1.0;"/><path d="M179.2188,137.6406 Q178.6406,137.9375 178,138.0781 Q177.3594,138.2344 176.6563,138.2344 Q174.1563,138.2344 172.8281,136.5938 Q171.5156,134.9375 171.5156,131.8125 Q171.5156,128.6875 172.8281,127.0313 Q174.1563,125.375 176.6563,125.375 Q177.3594,125.375 178,125.5313 Q178.6563,125.6875 179.2188,125.9844 L179.2188,128.7031 Q178.5938,128.125 178,127.8594 Q177.4063,127.5781 176.7813,127.5781 Q175.4375,127.5781 174.75,128.6563 Q174.0625,129.7188 174.0625,131.8125 Q174.0625,133.9063 174.75,134.9844 Q175.4375,136.0469 176.7813,136.0469 Q177.4063,136.0469 178,135.7813 Q178.5938,135.5 179.2188,134.9219 L179.2188,137.6406 Z "/><text fill="#000000" font-family="sans-serif" font-size="12" lengthAdjust="spacingAndGlyphs" textLength="113" x="196.75" y="136.1543">Net_ChatMessage</text><line style="stroke: #A80036; stroke-width: 1.5;" x1="7" x2="467" y1="148" y2="148"/><line style="stroke: #A80036; stroke-width: 1.5;" x1="7" x2="467" y1="156" y2="156"/><ellipse cx="17" cy="167" fill="#84BE84" rx="3" ry="3" style="stroke: #038048; stroke-width: 1.0;"/><text fill="#000000" font-family="sans-serif" font-size="11" lengthAdjust="spacingAndGlyphs" textLength="110" x="26" y="170.2104">Net_ChatMessage()</text><ellipse cx="17" cy="179.8047" fill="#84BE84" rx="3" ry="3" style="stroke: #038048; stroke-width: 1.0;"/><text fill="#000000" font-family="sans-serif" font-size="11" lengthAdjust="spacingAndGlyphs" textLength="260" x="26" y="183.0151">Net_ChatMessage(reader:DataStreamReader)</text><ellipse cx="17" cy="192.6094" fill="#84BE84" rx="3" ry="3" style="stroke: #038048; stroke-width: 1.0;"/><text fill="#000000" font-family="sans-serif" font-size="11" lengthAdjust="spacingAndGlyphs" textLength="436" x="26" y="195.8198">Net_ChatMessage(reader:DataStreamReader, chatBehaviour:ChatBehaviour)</text><ellipse cx="17" cy="205.4141" fill="#84BE84" rx="3" ry="3" style="stroke: #038048; stroke-width: 1.0;"/><text fill="#000000" font-family="sans-serif" font-size="11" lengthAdjust="spacingAndGlyphs" textLength="172" x="26" y="208.6245">Net_ChatMessage(msg:string)</text><ellipse cx="17" cy="218.2188" fill="#84BE84" rx="3" ry="3" style="stroke: #038048; stroke-width: 1.0;"/><text fill="#000000" font-family="sans-serif" font-size="11" lengthAdjust="spacingAndGlyphs" textLength="294" x="26" y="221.4292">«override» Serialize(writer:DataStreamWriter) : void</text><ellipse cx="17" cy="231.0234" fill="#84BE84" rx="3" ry="3" style="stroke: #038048; stroke-width: 1.0;"/><text fill="#000000" font-family="sans-serif" font-size="11" lengthAdjust="spacingAndGlyphs" textLength="320" x="26" y="234.2339">«override» Deserialize(reader:DataStreamReader) : void</text><ellipse cx="17" cy="243.8281" fill="#84BE84" rx="3" ry="3" style="stroke: #038048; stroke-width: 1.0;"/><text fill="#000000" font-family="sans-serif" font-size="11" lengthAdjust="spacingAndGlyphs" textLength="320" x="26" y="247.0386">«override» ReceivedOnServer(server:BaseServer) : void</text><ellipse cx="17" cy="256.6328" fill="#84BE84" rx="3" ry="3" style="stroke: #038048; stroke-width: 1.0;"/><text fill="#000000" font-family="sans-serif" font-size="11" lengthAdjust="spacingAndGlyphs" textLength="206" x="26" y="259.8433">«override» ReceivedOnClient() : void</text><!--MD5=[57013508309b10e1d30b46bd54336031]
class NetMessage--><rect fill="#FEFECE" filter="url(#f1p6it5v79tc43)" height="48" id="NetMessage" style="stroke: #A80036; stroke-width: 1.5;" width="110" x="182" y="8"/><ellipse cx="197" cy="24" fill="#ADD1B2" rx="11" ry="11" style="stroke: #A80036; stroke-width: 1.0;"/><path d="M199.9688,29.6406 Q199.3906,29.9375 198.75,30.0781 Q198.1094,30.2344 197.4063,30.2344 Q194.9063,30.2344 193.5781,28.5938 Q192.2656,26.9375 192.2656,23.8125 Q192.2656,20.6875 193.5781,19.0313 Q194.9063,17.375 197.4063,17.375 Q198.1094,17.375 198.75,17.5313 Q199.4063,17.6875 199.9688,17.9844 L199.9688,20.7031 Q199.3438,20.125 198.75,19.8594 Q198.1563,19.5781 197.5313,19.5781 Q196.1875,19.5781 195.5,20.6563 Q194.8125,21.7188 194.8125,23.8125 Q194.8125,25.9063 195.5,26.9844 Q196.1875,28.0469 197.5313,28.0469 Q198.1563,28.0469 198.75,27.7813 Q199.3438,27.5 199.9688,26.9219 L199.9688,29.6406 Z "/><text fill="#000000" font-family="sans-serif" font-size="12" lengthAdjust="spacingAndGlyphs" textLength="78" x="211" y="28.1543">NetMessage</text><line style="stroke: #A80036; stroke-width: 1.5;" x1="183" x2="291" y1="40" y2="40"/><line style="stroke: #A80036; stroke-width: 1.5;" x1="183" x2="291" y1="48" y2="48"/><!--MD5=[016bf02747313129b10bfd21cc36750c]
class FixedString128Bytes--><rect fill="#FEFECE" filter="url(#f1p6it5v79tc43)" height="48" id="FixedString128Bytes" style="stroke: #A80036; stroke-width: 1.5;" width="159" x="157.5" y="326"/><ellipse cx="172.5" cy="342" fill="#ADD1B2" rx="11" ry="11" style="stroke: #A80036; stroke-width: 1.0;"/><path d="M175.4688,347.6406 Q174.8906,347.9375 174.25,348.0781 Q173.6094,348.2344 172.9063,348.2344 Q170.4063,348.2344 169.0781,346.5938 Q167.7656,344.9375 167.7656,341.8125 Q167.7656,338.6875 169.0781,337.0313 Q170.4063,335.375 172.9063,335.375 Q173.6094,335.375 174.25,335.5313 Q174.9063,335.6875 175.4688,335.9844 L175.4688,338.7031 Q174.8438,338.125 174.25,337.8594 Q173.6563,337.5781 173.0313,337.5781 Q171.6875,337.5781 171,338.6563 Q170.3125,339.7188 170.3125,341.8125 Q170.3125,343.9063 171,344.9844 Q171.6875,346.0469 173.0313,346.0469 Q173.6563,346.0469 174.25,345.7813 Q174.8438,345.5 175.4688,344.9219 L175.4688,347.6406 Z "/><text fill="#000000" font-family="sans-serif" font-size="12" lengthAdjust="spacingAndGlyphs" textLength="127" x="186.5" y="346.1543">FixedString128Bytes</text><line style="stroke: #A80036; stroke-width: 1.5;" x1="158.5" x2="315.5" y1="358" y2="358"/><line style="stroke: #A80036; stroke-width: 1.5;" x1="158.5" x2="315.5" y1="366" y2="366"/><!--MD5=[c4372fe0ee301a1276e93ad584ba70cd]
reverse link NetMessage to Net_ChatMessage--><path d="M237,76.38 C237,88.67 237,102.4 237,115.96 " fill="none" id="NetMessage&lt;-Net_ChatMessage" style="stroke: #A80036; stroke-width: 1.0;"/><polygon fill="none" points="230,76.17,237,56.17,244,76.17,230,76.17" style="stroke: #A80036; stroke-width: 1.0;"/><!--MD5=[8583b0be25fba545d7a076af619713dd]
link Net_ChatMessage to FixedString128Bytes--><path d="M237,266.36 C237,285.73 237,305.44 237,320.74 " fill="none" id="Net_ChatMessage-&gt;FixedString128Bytes" style="stroke: #A80036; stroke-width: 1.0;"/><polygon fill="#A80036" points="237,325.76,241,316.76,237,320.76,233,316.76,237,325.76" style="stroke: #A80036; stroke-width: 1.0;"/><text fill="#000000" font-family="sans-serif" font-size="13" lengthAdjust="spacingAndGlyphs" textLength="85" x="141.6406" y="315.1065">chatMessage</text><!--MD5=[d3a2fa5d2297a64fcfccb8361c97cf31]
@startuml
class Net_ChatMessage {
    + Net_ChatMessage()
    + Net_ChatMessage(reader:DataStreamReader)
    + Net_ChatMessage(reader:DataStreamReader, chatBehaviour:ChatBehaviour)
    + Net_ChatMessage(msg:string)
    + <<override>> Serialize(writer:DataStreamWriter) : void
    + <<override>> Deserialize(reader:DataStreamReader) : void
    + <<override>> ReceivedOnServer(server:BaseServer) : void
    + <<override>> ReceivedOnClient() : void
}
NetMessage <|- - Net_ChatMessage
Net_ChatMessage - -> "chatMessage" FixedString128Bytes
@enduml

PlantUML version 1.2020.02(Sun Mar 01 10:22:07 GMT 2020)
(GPL source distribution)
Java Runtime: OpenJDK Runtime Environment
JVM: OpenJDK 64-Bit Server VM
Java Version: 11.0.9+11-Ubuntu-0ubuntu1
Operating System: Linux
Default Encoding: ANSI_X3.4-1968
Language: en
Country: US
--></g></svg>