<?xml version="1.0" encoding="UTF-8" standalone="no"?><svg xmlns="http://www.w3.org/2000/svg" xmlns:xlink="http://www.w3.org/1999/xlink" contentScriptType="application/ecmascript" contentStyleType="text/css" height="226px" preserveAspectRatio="none" style="width:351px;height:226px;" version="1.1" viewBox="0 0 351 226" width="351px" zoomAndPan="magnify"><defs><filter height="300%" id="f1drozj0f40d2g" width="300%" x="-1" y="-1"><feGaussianBlur result="blurOut" stdDeviation="2.0"/><feColorMatrix in="blurOut" result="blurOut2" type="matrix" values="0 0 0 0 0 0 0 0 0 0 0 0 0 0 0 0 0 0 .4 0"/><feOffset dx="4.0" dy="4.0" in="blurOut2" result="blurOut3"/><feBlend in="SourceGraphic" in2="blurOut3" mode="normal"/></filter></defs><g><!--MD5=[57013508309b10e1d30b46bd54336031]
class NetMessage--><rect fill="#FEFECE" filter="url(#f1drozj0f40d2g)" height="99.2188" id="NetMessage" style="stroke: #A80036; stroke-width: 1.5;" width="334" x="6" y="8"/><ellipse cx="129.75" cy="24" fill="#ADD1B2" rx="11" ry="11" style="stroke: #A80036; stroke-width: 1.0;"/><path d="M132.7188,29.6406 Q132.1406,29.9375 131.5,30.0781 Q130.8594,30.2344 130.1563,30.2344 Q127.6563,30.2344 126.3281,28.5938 Q125.0156,26.9375 125.0156,23.8125 Q125.0156,20.6875 126.3281,19.0313 Q127.6563,17.375 130.1563,17.375 Q130.8594,17.375 131.5,17.5313 Q132.1563,17.6875 132.7188,17.9844 L132.7188,20.7031 Q132.0938,20.125 131.5,19.8594 Q130.9063,19.5781 130.2813,19.5781 Q128.9375,19.5781 128.25,20.6563 Q127.5625,21.7188 127.5625,23.8125 Q127.5625,25.9063 128.25,26.9844 Q128.9375,28.0469 130.2813,28.0469 Q130.9063,28.0469 131.5,27.7813 Q132.0938,27.5 132.7188,26.9219 L132.7188,29.6406 Z "/><text fill="#000000" font-family="sans-serif" font-size="12" lengthAdjust="spacingAndGlyphs" textLength="78" x="150.25" y="28.1543">NetMessage</text><line style="stroke: #A80036; stroke-width: 1.5;" x1="7" x2="339" y1="40" y2="40"/><line style="stroke: #A80036; stroke-width: 1.5;" x1="7" x2="339" y1="48" y2="48"/><ellipse cx="17" cy="59" fill="#84BE84" rx="3" ry="3" style="stroke: #038048; stroke-width: 1.0;"/><text fill="#000000" font-family="sans-serif" font-size="11" lengthAdjust="spacingAndGlyphs" textLength="282" x="26" y="62.2104">«virtual» Serialize(writer:DataStreamWriter) : void</text><ellipse cx="17" cy="71.8047" fill="#84BE84" rx="3" ry="3" style="stroke: #038048; stroke-width: 1.0;"/><text fill="#000000" font-family="sans-serif" font-size="11" lengthAdjust="spacingAndGlyphs" textLength="308" x="26" y="75.0151">«virtual» Deserialize(reader:DataStreamReader) : void</text><ellipse cx="17" cy="84.6094" fill="#84BE84" rx="3" ry="3" style="stroke: #038048; stroke-width: 1.0;"/><text fill="#000000" font-family="sans-serif" font-size="11" lengthAdjust="spacingAndGlyphs" textLength="194" x="26" y="87.8198">«virtual» ReceivedOnClient() : void</text><ellipse cx="17" cy="97.4141" fill="#84BE84" rx="3" ry="3" style="stroke: #038048; stroke-width: 1.0;"/><text fill="#000000" font-family="sans-serif" font-size="11" lengthAdjust="spacingAndGlyphs" textLength="308" x="26" y="100.6245">«virtual» ReceivedOnServer(server:BaseServer) : void</text><!--MD5=[86322749182ced7098f2926363e1242b]
class OpCode--><rect fill="#FEFECE" filter="url(#f1drozj0f40d2g)" height="48" id="OpCode" style="stroke: #A80036; stroke-width: 1.5;" width="81" x="132.5" y="167"/><ellipse cx="147.5" cy="183" fill="#ADD1B2" rx="11" ry="11" style="stroke: #A80036; stroke-width: 1.0;"/><path d="M150.4688,188.6406 Q149.8906,188.9375 149.25,189.0781 Q148.6094,189.2344 147.9063,189.2344 Q145.4063,189.2344 144.0781,187.5938 Q142.7656,185.9375 142.7656,182.8125 Q142.7656,179.6875 144.0781,178.0313 Q145.4063,176.375 147.9063,176.375 Q148.6094,176.375 149.25,176.5313 Q149.9063,176.6875 150.4688,176.9844 L150.4688,179.7031 Q149.8438,179.125 149.25,178.8594 Q148.6563,178.5781 148.0313,178.5781 Q146.6875,178.5781 146,179.6563 Q145.3125,180.7188 145.3125,182.8125 Q145.3125,184.9063 146,185.9844 Q146.6875,187.0469 148.0313,187.0469 Q148.6563,187.0469 149.25,186.7813 Q149.8438,186.5 150.4688,185.9219 L150.4688,188.6406 Z "/><text fill="#000000" font-family="sans-serif" font-size="12" lengthAdjust="spacingAndGlyphs" textLength="49" x="161.5" y="187.1543">OpCode</text><line style="stroke: #A80036; stroke-width: 1.5;" x1="133.5" x2="212.5" y1="199" y2="199"/><line style="stroke: #A80036; stroke-width: 1.5;" x1="133.5" x2="212.5" y1="207" y2="207"/><!--MD5=[b5e9eb010d6ab7dfe48bd1b09d148c35]
link NetMessage to OpCode--><path d="M173,107.09 C173,125.5 173,145.83 173,161.75 " fill="none" id="NetMessage-&gt;OpCode" style="stroke: #A80036; stroke-width: 1.0;"/><polygon fill="#A80036" points="173,166.98,177,157.98,173,161.98,169,157.98,173,166.98" style="stroke: #A80036; stroke-width: 1.0;"/><text fill="#000000" font-family="sans-serif" font-size="13" lengthAdjust="spacingAndGlyphs" textLength="31" x="138.0281" y="155.9869">code</text><!--MD5=[c5ddfa713924328a699ec943f30ebaa6]
@startuml
class NetMessage {
    + <<virtual>> Serialize(writer:DataStreamWriter) : void
    + <<virtual>> Deserialize(reader:DataStreamReader) : void
    + <<virtual>> ReceivedOnClient() : void
    + <<virtual>> ReceivedOnServer(server:BaseServer) : void
}
NetMessage - -> "code" OpCode
@enduml

PlantUML version 1.2020.02(Sun Mar 01 10:22:07 GMT 2020)
(GPL source distribution)
Java Runtime: OpenJDK Runtime Environment
JVM: OpenJDK 64-Bit Server VM
Java Version: 11.0.9+11-Ubuntu-0ubuntu1
Operating System: Linux
Default Encoding: ANSI_X3.4-1968
Language: en
Country: US
--></g></svg>