<?xml version="1.0" encoding="UTF-8" standalone="no"?><svg xmlns="http://www.w3.org/2000/svg" xmlns:xlink="http://www.w3.org/1999/xlink" contentScriptType="application/ecmascript" contentStyleType="text/css" height="309px" preserveAspectRatio="none" style="width:339px;height:309px;" version="1.1" viewBox="0 0 339 309" width="339px" zoomAndPan="magnify"><defs><filter height="300%" id="f1679y117jevz3" width="300%" x="-1" y="-1"><feGaussianBlur result="blurOut" stdDeviation="2.0"/><feColorMatrix in="blurOut" result="blurOut2" type="matrix" values="0 0 0 0 0 0 0 0 0 0 0 0 0 0 0 0 0 0 .4 0"/><feOffset dx="4.0" dy="4.0" in="blurOut2" result="blurOut3"/><feBlend in="SourceGraphic" in2="blurOut3" mode="normal"/></filter></defs><g><!--MD5=[84cd698f013ed2a8da371de5b71e8bbb]
class ButtonAction--><rect fill="#FEFECE" filter="url(#f1679y117jevz3)" height="73.6094" id="ButtonAction" style="stroke: #A80036; stroke-width: 1.5;" width="309" x="6" y="116"/><ellipse cx="115.75" cy="132" fill="#ADD1B2" rx="11" ry="11" style="stroke: #A80036; stroke-width: 1.0;"/><path d="M118.7188,137.6406 Q118.1406,137.9375 117.5,138.0781 Q116.8594,138.2344 116.1563,138.2344 Q113.6563,138.2344 112.3281,136.5938 Q111.0156,134.9375 111.0156,131.8125 Q111.0156,128.6875 112.3281,127.0313 Q113.6563,125.375 116.1563,125.375 Q116.8594,125.375 117.5,125.5313 Q118.1563,125.6875 118.7188,125.9844 L118.7188,128.7031 Q118.0938,128.125 117.5,127.8594 Q116.9063,127.5781 116.2813,127.5781 Q114.9375,127.5781 114.25,128.6563 Q113.5625,129.7188 113.5625,131.8125 Q113.5625,133.9063 114.25,134.9844 Q114.9375,136.0469 116.2813,136.0469 Q116.9063,136.0469 117.5,135.7813 Q118.0938,135.5 118.7188,134.9219 L118.7188,137.6406 Z "/><text fill="#000000" font-family="sans-serif" font-size="12" lengthAdjust="spacingAndGlyphs" textLength="81" x="136.25" y="136.1543">ButtonAction</text><line style="stroke: #A80036; stroke-width: 1.5;" x1="7" x2="314" y1="148" y2="148"/><line style="stroke: #A80036; stroke-width: 1.5;" x1="7" x2="314" y1="156" y2="156"/><ellipse cx="17" cy="167" fill="#84BE84" rx="3" ry="3" style="stroke: #038048; stroke-width: 1.0;"/><text fill="#000000" font-family="sans-serif" font-size="11" lengthAdjust="spacingAndGlyphs" textLength="283" x="26" y="170.2104">OnPointerClick(eventData:PointerEventData) : void</text><ellipse cx="17" cy="179.8047" fill="#84BE84" rx="3" ry="3" style="stroke: #038048; stroke-width: 1.0;"/><text fill="#000000" font-family="sans-serif" font-size="11" lengthAdjust="spacingAndGlyphs" textLength="211" x="26" y="183.0151">PredicateAction(predicate:bool) : void</text><!--MD5=[83b3cf3d23d77c6f1e1b5291a241bc2a]
class MonoBehaviour--><rect fill="#FEFECE" filter="url(#f1679y117jevz3)" height="48" id="MonoBehaviour" style="stroke: #A80036; stroke-width: 1.5;" width="128" x="7.5" y="8"/><ellipse cx="22.5" cy="24" fill="#ADD1B2" rx="11" ry="11" style="stroke: #A80036; stroke-width: 1.0;"/><path d="M25.4688,29.6406 Q24.8906,29.9375 24.25,30.0781 Q23.6094,30.2344 22.9063,30.2344 Q20.4063,30.2344 19.0781,28.5938 Q17.7656,26.9375 17.7656,23.8125 Q17.7656,20.6875 19.0781,19.0313 Q20.4063,17.375 22.9063,17.375 Q23.6094,17.375 24.25,17.5313 Q24.9063,17.6875 25.4688,17.9844 L25.4688,20.7031 Q24.8438,20.125 24.25,19.8594 Q23.6563,19.5781 23.0313,19.5781 Q21.6875,19.5781 21,20.6563 Q20.3125,21.7188 20.3125,23.8125 Q20.3125,25.9063 21,26.9844 Q21.6875,28.0469 23.0313,28.0469 Q23.6563,28.0469 24.25,27.7813 Q24.8438,27.5 25.4688,26.9219 L25.4688,29.6406 Z "/><text fill="#000000" font-family="sans-serif" font-size="12" lengthAdjust="spacingAndGlyphs" textLength="96" x="36.5" y="28.1543">MonoBehaviour</text><line style="stroke: #A80036; stroke-width: 1.5;" x1="8.5" x2="134.5" y1="40" y2="40"/><line style="stroke: #A80036; stroke-width: 1.5;" x1="8.5" x2="134.5" y1="48" y2="48"/><!--MD5=[013e6d23b9b4414f3460dbf272d438e4]
class IPointerClickHandler--><rect fill="#FEFECE" filter="url(#f1679y117jevz3)" height="48" id="IPointerClickHandler" style="stroke: #A80036; stroke-width: 1.5;" width="157" x="171" y="8"/><ellipse cx="186" cy="24" fill="#ADD1B2" rx="11" ry="11" style="stroke: #A80036; stroke-width: 1.0;"/><path d="M188.9688,29.6406 Q188.3906,29.9375 187.75,30.0781 Q187.1094,30.2344 186.4063,30.2344 Q183.9063,30.2344 182.5781,28.5938 Q181.2656,26.9375 181.2656,23.8125 Q181.2656,20.6875 182.5781,19.0313 Q183.9063,17.375 186.4063,17.375 Q187.1094,17.375 187.75,17.5313 Q188.4063,17.6875 188.9688,17.9844 L188.9688,20.7031 Q188.3438,20.125 187.75,19.8594 Q187.1563,19.5781 186.5313,19.5781 Q185.1875,19.5781 184.5,20.6563 Q183.8125,21.7188 183.8125,23.8125 Q183.8125,25.9063 184.5,26.9844 Q185.1875,28.0469 186.5313,28.0469 Q187.1563,28.0469 187.75,27.7813 Q188.3438,27.5 188.9688,26.9219 L188.9688,29.6406 Z "/><text fill="#000000" font-family="sans-serif" font-size="12" lengthAdjust="spacingAndGlyphs" textLength="125" x="200" y="28.1543">IPointerClickHandler</text><line style="stroke: #A80036; stroke-width: 1.5;" x1="172" x2="327" y1="40" y2="40"/><line style="stroke: #A80036; stroke-width: 1.5;" x1="172" x2="327" y1="48" y2="48"/><!--MD5=[f8e7078f77c005d15b486c0c98deb1e6]
class Action--><rect fill="#FEFECE" filter="url(#f1679y117jevz3)" height="48" id="Action" style="stroke: #A80036; stroke-width: 1.5;" width="71" x="125" y="250"/><ellipse cx="140" cy="266" fill="#ADD1B2" rx="11" ry="11" style="stroke: #A80036; stroke-width: 1.0;"/><path d="M142.9688,271.6406 Q142.3906,271.9375 141.75,272.0781 Q141.1094,272.2344 140.4063,272.2344 Q137.9063,272.2344 136.5781,270.5938 Q135.2656,268.9375 135.2656,265.8125 Q135.2656,262.6875 136.5781,261.0313 Q137.9063,259.375 140.4063,259.375 Q141.1094,259.375 141.75,259.5313 Q142.4063,259.6875 142.9688,259.9844 L142.9688,262.7031 Q142.3438,262.125 141.75,261.8594 Q141.1563,261.5781 140.5313,261.5781 Q139.1875,261.5781 138.5,262.6563 Q137.8125,263.7188 137.8125,265.8125 Q137.8125,267.9063 138.5,268.9844 Q139.1875,270.0469 140.5313,270.0469 Q141.1563,270.0469 141.75,269.7813 Q142.3438,269.5 142.9688,268.9219 L142.9688,271.6406 Z "/><text fill="#000000" font-family="sans-serif" font-size="12" lengthAdjust="spacingAndGlyphs" textLength="39" x="154" y="270.1543">Action</text><line style="stroke: #A80036; stroke-width: 1.5;" x1="126" x2="195" y1="282" y2="282"/><line style="stroke: #A80036; stroke-width: 1.5;" x1="126" x2="195" y1="290" y2="290"/><!--MD5=[b13730b20b2a1a2028a6f880af0da6d7]
reverse link MonoBehaviour to ButtonAction--><path d="M101.19,72.69 C111.58,86.59 123.19,102.11 133.36,115.71 " fill="none" id="MonoBehaviour&lt;-ButtonAction" style="stroke: #A80036; stroke-width: 1.0;"/><polygon fill="none" points="95.24,76.44,88.87,56.23,106.46,68.05,95.24,76.44" style="stroke: #A80036; stroke-width: 1.0;"/><!--MD5=[3e3d919014cf8f75b11605c9293d7174]
reverse link IPointerClickHandler to ButtonAction--><path d="M219.81,72.69 C209.42,86.59 197.81,102.11 187.64,115.71 " fill="none" id="IPointerClickHandler&lt;-ButtonAction" style="stroke: #A80036; stroke-width: 1.0;"/><polygon fill="none" points="214.54,68.05,232.13,56.23,225.76,76.44,214.54,68.05" style="stroke: #A80036; stroke-width: 1.0;"/><!--MD5=[af9916f495578c559890f26be2963695]
link ButtonAction to Action--><path d="M160.5,190.03 C160.5,207.48 160.5,228.15 160.5,244.49 " fill="none" id="ButtonAction-&gt;Action" style="stroke: #A80036; stroke-width: 1.0;"/><polygon fill="#A80036" points="160.5,249.85,164.5,240.85,160.5,244.85,156.5,240.85,160.5,249.85" style="stroke: #A80036; stroke-width: 1.0;"/><text fill="#000000" font-family="sans-serif" font-size="13" lengthAdjust="spacingAndGlyphs" textLength="90" x="58.9688" y="238.8236">OnClickButton</text><!--MD5=[cd18a50a5c18bc3b67bd6944501b81fa]
@startuml
class ButtonAction {
    + OnPointerClick(eventData:PointerEventData) : void
    + PredicateAction(predicate:bool) : void
}
MonoBehaviour <|- - ButtonAction
IPointerClickHandler <|- - ButtonAction
ButtonAction - -> "OnClickButton" Action
@enduml

PlantUML version 1.2020.02(Sun Mar 01 10:22:07 GMT 2020)
(GPL source distribution)
Java Runtime: OpenJDK Runtime Environment
JVM: OpenJDK 64-Bit Server VM
Java Version: 11.0.9+11-Ubuntu-0ubuntu1
Operating System: Linux
Default Encoding: ANSI_X3.4-1968
Language: en
Country: US
--></g></svg>