<?xml version="1.0" encoding="UTF-8" standalone="no"?><svg xmlns="http://www.w3.org/2000/svg" xmlns:xlink="http://www.w3.org/1999/xlink" contentScriptType="application/ecmascript" contentStyleType="text/css" height="226px" preserveAspectRatio="none" style="width:306px;height:226px;" version="1.1" viewBox="0 0 306 226" width="306px" zoomAndPan="magnify"><defs><filter height="300%" id="f14nztd8uu7ql6" width="300%" x="-1" y="-1"><feGaussianBlur result="blurOut" stdDeviation="2.0"/><feColorMatrix in="blurOut" result="blurOut2" type="matrix" values="0 0 0 0 0 0 0 0 0 0 0 0 0 0 0 0 0 0 .4 0"/><feOffset dx="4.0" dy="4.0" in="blurOut2" result="blurOut3"/><feBlend in="SourceGraphic" in2="blurOut3" mode="normal"/></filter></defs><g><!--MD5=[151ce45e1db33994b8ec420ec88d10e0]
class ChatBehaviour--><rect fill="#FEFECE" filter="url(#f14nztd8uu7ql6)" height="99.2188" id="ChatBehaviour" style="stroke: #A80036; stroke-width: 1.5;" width="289" x="6" y="116"/><ellipse cx="100.75" cy="132" fill="#ADD1B2" rx="11" ry="11" style="stroke: #A80036; stroke-width: 1.0;"/><path d="M103.7188,137.6406 Q103.1406,137.9375 102.5,138.0781 Q101.8594,138.2344 101.1563,138.2344 Q98.6563,138.2344 97.3281,136.5938 Q96.0156,134.9375 96.0156,131.8125 Q96.0156,128.6875 97.3281,127.0313 Q98.6563,125.375 101.1563,125.375 Q101.8594,125.375 102.5,125.5313 Q103.1563,125.6875 103.7188,125.9844 L103.7188,128.7031 Q103.0938,128.125 102.5,127.8594 Q101.9063,127.5781 101.2813,127.5781 Q99.9375,127.5781 99.25,128.6563 Q98.5625,129.7188 98.5625,131.8125 Q98.5625,133.9063 99.25,134.9844 Q99.9375,136.0469 101.2813,136.0469 Q101.9063,136.0469 102.5,135.7813 Q103.0938,135.5 103.7188,134.9219 L103.7188,137.6406 Z "/><text fill="#000000" font-family="sans-serif" font-size="12" lengthAdjust="spacingAndGlyphs" textLength="91" x="121.25" y="136.1543">ChatBehaviour</text><line style="stroke: #A80036; stroke-width: 1.5;" x1="7" x2="294" y1="148" y2="148"/><line style="stroke: #A80036; stroke-width: 1.5;" x1="7" x2="294" y1="156" y2="156"/><ellipse cx="17" cy="167" fill="#84BE84" rx="3" ry="3" style="stroke: #038048; stroke-width: 1.0;"/><text fill="#000000" font-family="sans-serif" font-size="11" lengthAdjust="spacingAndGlyphs" textLength="175" x="26" y="170.2104">SendMessageToServer() : void</text><ellipse cx="17" cy="179.8047" fill="#84BE84" rx="3" ry="3" style="stroke: #038048; stroke-width: 1.0;"/><text fill="#000000" font-family="sans-serif" font-size="11" lengthAdjust="spacingAndGlyphs" textLength="263" x="26" y="183.0151">SendChatMessage(messageText:string) : void</text><ellipse cx="17" cy="192.6094" fill="#84BE84" rx="3" ry="3" style="stroke: #038048; stroke-width: 1.0;"/><text fill="#000000" font-family="sans-serif" font-size="11" lengthAdjust="spacingAndGlyphs" textLength="99" x="26" y="195.8198">OpenChat() : void</text><ellipse cx="17" cy="205.4141" fill="#84BE84" rx="3" ry="3" style="stroke: #038048; stroke-width: 1.0;"/><text fill="#000000" font-family="sans-serif" font-size="11" lengthAdjust="spacingAndGlyphs" textLength="101" x="26" y="208.6245">CloseChat() : void</text><!--MD5=[83b3cf3d23d77c6f1e1b5291a241bc2a]
class MonoBehaviour--><rect fill="#FEFECE" filter="url(#f14nztd8uu7ql6)" height="48" id="MonoBehaviour" style="stroke: #A80036; stroke-width: 1.5;" width="128" x="86.5" y="8"/><ellipse cx="101.5" cy="24" fill="#ADD1B2" rx="11" ry="11" style="stroke: #A80036; stroke-width: 1.0;"/><path d="M104.4688,29.6406 Q103.8906,29.9375 103.25,30.0781 Q102.6094,30.2344 101.9063,30.2344 Q99.4063,30.2344 98.0781,28.5938 Q96.7656,26.9375 96.7656,23.8125 Q96.7656,20.6875 98.0781,19.0313 Q99.4063,17.375 101.9063,17.375 Q102.6094,17.375 103.25,17.5313 Q103.9063,17.6875 104.4688,17.9844 L104.4688,20.7031 Q103.8438,20.125 103.25,19.8594 Q102.6563,19.5781 102.0313,19.5781 Q100.6875,19.5781 100,20.6563 Q99.3125,21.7188 99.3125,23.8125 Q99.3125,25.9063 100,26.9844 Q100.6875,28.0469 102.0313,28.0469 Q102.6563,28.0469 103.25,27.7813 Q103.8438,27.5 104.4688,26.9219 L104.4688,29.6406 Z "/><text fill="#000000" font-family="sans-serif" font-size="12" lengthAdjust="spacingAndGlyphs" textLength="96" x="115.5" y="28.1543">MonoBehaviour</text><line style="stroke: #A80036; stroke-width: 1.5;" x1="87.5" x2="213.5" y1="40" y2="40"/><line style="stroke: #A80036; stroke-width: 1.5;" x1="87.5" x2="213.5" y1="48" y2="48"/><!--MD5=[bc59deb802e308befacf8388f94d22af]
reverse link MonoBehaviour to ChatBehaviour--><path d="M150.5,76.51 C150.5,89.14 150.5,103.01 150.5,115.93 " fill="none" id="MonoBehaviour&lt;-ChatBehaviour" style="stroke: #A80036; stroke-width: 1.0;"/><polygon fill="none" points="143.5,76.21,150.5,56.21,157.5,76.21,143.5,76.21" style="stroke: #A80036; stroke-width: 1.0;"/><!--MD5=[c313e24452f26853b1f9d6c9fcba4d78]
@startuml
class ChatBehaviour {
    + SendMessageToServer() : void
    + SendChatMessage(messageText:string) : void
    + OpenChat() : void
    + CloseChat() : void
}
MonoBehaviour <|- - ChatBehaviour
@enduml

PlantUML version 1.2020.02(Sun Mar 01 10:22:07 GMT 2020)
(GPL source distribution)
Java Runtime: OpenJDK Runtime Environment
JVM: OpenJDK 64-Bit Server VM
Java Version: 11.0.9+11-Ubuntu-0ubuntu1
Operating System: Linux
Default Encoding: ANSI_X3.4-1968
Language: en
Country: US
--></g></svg>