<?xml version="1.0" encoding="UTF-8" standalone="no"?><svg xmlns="http://www.w3.org/2000/svg" xmlns:xlink="http://www.w3.org/1999/xlink" contentScriptType="application/ecmascript" contentStyleType="text/css" height="296px" preserveAspectRatio="none" style="width:186px;height:296px;" version="1.1" viewBox="0 0 186 296" width="186px" zoomAndPan="magnify"><defs><filter height="300%" id="f10djr8owt0k5e" width="300%" x="-1" y="-1"><feGaussianBlur result="blurOut" stdDeviation="2.0"/><feColorMatrix in="blurOut" result="blurOut2" type="matrix" values="0 0 0 0 0 0 0 0 0 0 0 0 0 0 0 0 0 0 .4 0"/><feOffset dx="4.0" dy="4.0" in="blurOut2" result="blurOut3"/><feBlend in="SourceGraphic" in2="blurOut3" mode="normal"/></filter></defs><g><!--MD5=[27f5b857f1c7ecc010c62bac773cfa22]
class DeathRunCheckpoint--><rect fill="#FEFECE" filter="url(#f10djr8owt0k5e)" height="60.8047" id="DeathRunCheckpoint" style="stroke: #A80036; stroke-width: 1.5;" width="164" x="11" y="116"/><ellipse cx="26" cy="132" fill="#ADD1B2" rx="11" ry="11" style="stroke: #A80036; stroke-width: 1.0;"/><path d="M28.9688,137.6406 Q28.3906,137.9375 27.75,138.0781 Q27.1094,138.2344 26.4063,138.2344 Q23.9063,138.2344 22.5781,136.5938 Q21.2656,134.9375 21.2656,131.8125 Q21.2656,128.6875 22.5781,127.0313 Q23.9063,125.375 26.4063,125.375 Q27.1094,125.375 27.75,125.5313 Q28.4063,125.6875 28.9688,125.9844 L28.9688,128.7031 Q28.3438,128.125 27.75,127.8594 Q27.1563,127.5781 26.5313,127.5781 Q25.1875,127.5781 24.5,128.6563 Q23.8125,129.7188 23.8125,131.8125 Q23.8125,133.9063 24.5,134.9844 Q25.1875,136.0469 26.5313,136.0469 Q27.1563,136.0469 27.75,135.7813 Q28.3438,135.5 28.9688,134.9219 L28.9688,137.6406 Z "/><text fill="#000000" font-family="sans-serif" font-size="12" lengthAdjust="spacingAndGlyphs" textLength="132" x="40" y="136.1543">DeathRunCheckpoint</text><line style="stroke: #A80036; stroke-width: 1.5;" x1="12" x2="174" y1="148" y2="148"/><ellipse cx="22" cy="159" fill="none" rx="3" ry="3" style="stroke: #038048; stroke-width: 1.0;"/><text fill="#000000" font-family="sans-serif" font-size="11" lengthAdjust="spacingAndGlyphs" textLength="96" x="31" y="162.2104">checkpointId : int</text><line style="stroke: #A80036; stroke-width: 1.5;" x1="12" x2="174" y1="168.8047" y2="168.8047"/><!--MD5=[83b3cf3d23d77c6f1e1b5291a241bc2a]
class MonoBehaviour--><rect fill="#FEFECE" filter="url(#f10djr8owt0k5e)" height="48" id="MonoBehaviour" style="stroke: #A80036; stroke-width: 1.5;" width="128" x="29" y="8"/><ellipse cx="44" cy="24" fill="#ADD1B2" rx="11" ry="11" style="stroke: #A80036; stroke-width: 1.0;"/><path d="M46.9688,29.6406 Q46.3906,29.9375 45.75,30.0781 Q45.1094,30.2344 44.4063,30.2344 Q41.9063,30.2344 40.5781,28.5938 Q39.2656,26.9375 39.2656,23.8125 Q39.2656,20.6875 40.5781,19.0313 Q41.9063,17.375 44.4063,17.375 Q45.1094,17.375 45.75,17.5313 Q46.4063,17.6875 46.9688,17.9844 L46.9688,20.7031 Q46.3438,20.125 45.75,19.8594 Q45.1563,19.5781 44.5313,19.5781 Q43.1875,19.5781 42.5,20.6563 Q41.8125,21.7188 41.8125,23.8125 Q41.8125,25.9063 42.5,26.9844 Q43.1875,28.0469 44.5313,28.0469 Q45.1563,28.0469 45.75,27.7813 Q46.3438,27.5 46.9688,26.9219 L46.9688,29.6406 Z "/><text fill="#000000" font-family="sans-serif" font-size="12" lengthAdjust="spacingAndGlyphs" textLength="96" x="58" y="28.1543">MonoBehaviour</text><line style="stroke: #A80036; stroke-width: 1.5;" x1="30" x2="156" y1="40" y2="40"/><line style="stroke: #A80036; stroke-width: 1.5;" x1="30" x2="156" y1="48" y2="48"/><!--MD5=[65d619c042c23702cef2ca07d67b1cf6]
class Vector3--><rect fill="#FEFECE" filter="url(#f10djr8owt0k5e)" height="48" id="Vector3" style="stroke: #A80036; stroke-width: 1.5;" width="81" x="52.5" y="237"/><ellipse cx="67.5" cy="253" fill="#ADD1B2" rx="11" ry="11" style="stroke: #A80036; stroke-width: 1.0;"/><path d="M70.4688,258.6406 Q69.8906,258.9375 69.25,259.0781 Q68.6094,259.2344 67.9063,259.2344 Q65.4063,259.2344 64.0781,257.5938 Q62.7656,255.9375 62.7656,252.8125 Q62.7656,249.6875 64.0781,248.0313 Q65.4063,246.375 67.9063,246.375 Q68.6094,246.375 69.25,246.5313 Q69.9063,246.6875 70.4688,246.9844 L70.4688,249.7031 Q69.8438,249.125 69.25,248.8594 Q68.6563,248.5781 68.0313,248.5781 Q66.6875,248.5781 66,249.6563 Q65.3125,250.7188 65.3125,252.8125 Q65.3125,254.9063 66,255.9844 Q66.6875,257.0469 68.0313,257.0469 Q68.6563,257.0469 69.25,256.7813 Q69.8438,256.5 70.4688,255.9219 L70.4688,258.6406 Z "/><text fill="#000000" font-family="sans-serif" font-size="12" lengthAdjust="spacingAndGlyphs" textLength="49" x="81.5" y="257.1543">Vector3</text><line style="stroke: #A80036; stroke-width: 1.5;" x1="53.5" x2="132.5" y1="269" y2="269"/><line style="stroke: #A80036; stroke-width: 1.5;" x1="53.5" x2="132.5" y1="277" y2="277"/><!--MD5=[285fd8803bef2b428a7143b89d55cb65]
reverse link MonoBehaviour to DeathRunCheckpoint--><path d="M93,76.11 C93,89.31 93,103.54 93,115.65 " fill="none" id="MonoBehaviour&lt;-DeathRunCheckpoint" style="stroke: #A80036; stroke-width: 1.0;"/><polygon fill="none" points="86,76.04,93,56.04,100,76.04,86,76.04" style="stroke: #A80036; stroke-width: 1.0;"/><!--MD5=[cbb1fcf04daf286ab45ce856488fd9b7]
link DeathRunCheckpoint to Vector3--><path d="M93,177.06 C93,193.93 93,214.98 93,231.65 " fill="none" id="DeathRunCheckpoint-&gt;Vector3" style="stroke: #A80036; stroke-width: 1.0;"/><polygon fill="#A80036" points="93,236.67,97,227.67,93,231.67,89,227.67,93,236.67" style="stroke: #A80036; stroke-width: 1.0;"/><text fill="#000000" font-family="sans-serif" font-size="13" lengthAdjust="spacingAndGlyphs" textLength="72" x="12.225" y="225.9945">spawnPoint</text><!--MD5=[974495c53688279b0cfa851fb458c2a7]
@startuml
class DeathRunCheckpoint {
    + checkpointId : int
}
MonoBehaviour <|- - DeathRunCheckpoint
DeathRunCheckpoint - -> "spawnPoint" Vector3
@enduml

PlantUML version 1.2020.02(Sun Mar 01 10:22:07 GMT 2020)
(GPL source distribution)
Java Runtime: OpenJDK Runtime Environment
JVM: OpenJDK 64-Bit Server VM
Java Version: 11.0.9+11-Ubuntu-0ubuntu1
Operating System: Linux
Default Encoding: ANSI_X3.4-1968
Language: en
Country: US
--></g></svg>