<?xml version="1.0" encoding="UTF-8" standalone="no"?><svg xmlns="http://www.w3.org/2000/svg" xmlns:xlink="http://www.w3.org/1999/xlink" contentScriptType="application/ecmascript" contentStyleType="text/css" height="418px" preserveAspectRatio="none" style="width:1001px;height:418px;" version="1.1" viewBox="0 0 1001 418" width="1001px" zoomAndPan="magnify"><defs><filter height="300%" id="f1ndslptdp9hc2" width="300%" x="-1" y="-1"><feGaussianBlur result="blurOut" stdDeviation="2.0"/><feColorMatrix in="blurOut" result="blurOut2" type="matrix" values="0 0 0 0 0 0 0 0 0 0 0 0 0 0 0 0 0 0 .4 0"/><feOffset dx="4.0" dy="4.0" in="blurOut2" result="blurOut3"/><feBlend in="SourceGraphic" in2="blurOut3" mode="normal"/></filter></defs><g><!--MD5=[0e34be128ad35d37bf3e2551f0193ef1]
class DeathRunGameLoop--><rect fill="#FEFECE" filter="url(#f1ndslptdp9hc2)" height="214.4609" id="DeathRunGameLoop" style="stroke: #A80036; stroke-width: 1.5;" width="338" x="6" y="193"/><ellipse cx="106.75" cy="209" fill="#ADD1B2" rx="11" ry="11" style="stroke: #A80036; stroke-width: 1.0;"/><path d="M109.7188,214.6406 Q109.1406,214.9375 108.5,215.0781 Q107.8594,215.2344 107.1563,215.2344 Q104.6563,215.2344 103.3281,213.5938 Q102.0156,211.9375 102.0156,208.8125 Q102.0156,205.6875 103.3281,204.0313 Q104.6563,202.375 107.1563,202.375 Q107.8594,202.375 108.5,202.5313 Q109.1563,202.6875 109.7188,202.9844 L109.7188,205.7031 Q109.0938,205.125 108.5,204.8594 Q107.9063,204.5781 107.2813,204.5781 Q105.9375,204.5781 105.25,205.6563 Q104.5625,206.7188 104.5625,208.8125 Q104.5625,210.9063 105.25,211.9844 Q105.9375,213.0469 107.2813,213.0469 Q107.9063,213.0469 108.5,212.7813 Q109.0938,212.5 109.7188,211.9219 L109.7188,214.6406 Z "/><text fill="#000000" font-family="sans-serif" font-size="12" lengthAdjust="spacingAndGlyphs" textLength="128" x="127.25" y="213.1543">DeathRunGameLoop</text><line style="stroke: #A80036; stroke-width: 1.5;" x1="7" x2="343" y1="225" y2="225"/><line style="stroke: #A80036; stroke-width: 1.5;" x1="7" x2="343" y1="233" y2="233"/><ellipse cx="17" cy="244" fill="#84BE84" rx="3" ry="3" style="stroke: #038048; stroke-width: 1.0;"/><text fill="#000000" font-family="sans-serif" font-size="11" lengthAdjust="spacingAndGlyphs" textLength="115" x="26" y="247.2104">StartAttempt() : void</text><ellipse cx="17" cy="256.8047" fill="#84BE84" rx="3" ry="3" style="stroke: #038048; stroke-width: 1.0;"/><text fill="#000000" font-family="sans-serif" font-size="11" lengthAdjust="spacingAndGlyphs" textLength="105" x="26" y="260.0151">StartGame() : void</text><ellipse cx="17" cy="269.6094" fill="#84BE84" rx="3" ry="3" style="stroke: #038048; stroke-width: 1.0;"/><text fill="#000000" font-family="sans-serif" font-size="11" lengthAdjust="spacingAndGlyphs" textLength="103" x="26" y="272.8198">NextPlayer() : void</text><ellipse cx="17" cy="282.4141" fill="#84BE84" rx="3" ry="3" style="stroke: #038048; stroke-width: 1.0;"/><text fill="#000000" font-family="sans-serif" font-size="11" lengthAdjust="spacingAndGlyphs" textLength="106" x="26" y="285.6245">StartRound() : void</text><ellipse cx="17" cy="295.2188" fill="#84BE84" rx="3" ry="3" style="stroke: #038048; stroke-width: 1.0;"/><text fill="#000000" font-family="sans-serif" font-size="11" lengthAdjust="spacingAndGlyphs" textLength="99" x="26" y="298.4292">EndRound() : void</text><ellipse cx="17" cy="308.0234" fill="#84BE84" rx="3" ry="3" style="stroke: #038048; stroke-width: 1.0;"/><text fill="#000000" font-family="sans-serif" font-size="11" lengthAdjust="spacingAndGlyphs" textLength="120" x="26" y="311.2339">OpenBarriers() : void</text><ellipse cx="17" cy="320.8281" fill="#84BE84" rx="3" ry="3" style="stroke: #038048; stroke-width: 1.0;"/><text fill="#000000" font-family="sans-serif" font-size="11" lengthAdjust="spacingAndGlyphs" textLength="122" x="26" y="324.0386">CloseBarriers() : void</text><ellipse cx="17" cy="333.6328" fill="#84BE84" rx="3" ry="3" style="stroke: #038048; stroke-width: 1.0;"/><text fill="#000000" font-family="sans-serif" font-size="11" lengthAdjust="spacingAndGlyphs" textLength="98" x="26" y="336.8433">EndGame() : void</text><ellipse cx="17" cy="346.4375" fill="#84BE84" rx="3" ry="3" style="stroke: #038048; stroke-width: 1.0;"/><text fill="#000000" font-family="sans-serif" font-size="11" lengthAdjust="spacingAndGlyphs" textLength="180" x="26" y="349.6479">ReachedGoal(playerId:int) : void</text><ellipse cx="17" cy="359.2422" fill="#84BE84" rx="3" ry="3" style="stroke: #038048; stroke-width: 1.0;"/><text fill="#000000" font-family="sans-serif" font-size="11" lengthAdjust="spacingAndGlyphs" textLength="312" x="26" y="362.4526">ReachedCheckpoint(playerId:int, checkpointId:int) : void</text><ellipse cx="17" cy="372.0469" fill="#84BE84" rx="3" ry="3" style="stroke: #038048; stroke-width: 1.0;"/><text fill="#000000" font-family="sans-serif" font-size="11" lengthAdjust="spacingAndGlyphs" textLength="161" x="26" y="375.2573">JoinPlayer(playerId:int) : void</text><ellipse cx="17" cy="384.8516" fill="#84BE84" rx="3" ry="3" style="stroke: #038048; stroke-width: 1.0;"/><text fill="#000000" font-family="sans-serif" font-size="11" lengthAdjust="spacingAndGlyphs" textLength="174" x="26" y="388.062">LeavePlayer(playerId:int) : void</text><ellipse cx="17" cy="397.6563" fill="#84BE84" rx="3" ry="3" style="stroke: #038048; stroke-width: 1.0;"/><text fill="#000000" font-family="sans-serif" font-size="11" lengthAdjust="spacingAndGlyphs" textLength="166" x="26" y="400.8667">PlayerDied(playerId:int) : void</text><!--MD5=[107af66394bf1ebaa045812c9c475148]
class Score--><rect fill="#FEFECE" filter="url(#f1ndslptdp9hc2)" height="124.8281" id="Score" style="stroke: #A80036; stroke-width: 1.5;" width="199" x="655.5" y="8"/><ellipse cx="732.75" cy="24" fill="#ADD1B2" rx="11" ry="11" style="stroke: #A80036; stroke-width: 1.0;"/><path d="M735.7188,29.6406 Q735.1406,29.9375 734.5,30.0781 Q733.8594,30.2344 733.1563,30.2344 Q730.6563,30.2344 729.3281,28.5938 Q728.0156,26.9375 728.0156,23.8125 Q728.0156,20.6875 729.3281,19.0313 Q730.6563,17.375 733.1563,17.375 Q733.8594,17.375 734.5,17.5313 Q735.1563,17.6875 735.7188,17.9844 L735.7188,20.7031 Q735.0938,20.125 734.5,19.8594 Q733.9063,19.5781 733.2813,19.5781 Q731.9375,19.5781 731.25,20.6563 Q730.5625,21.7188 730.5625,23.8125 Q730.5625,25.9063 731.25,26.9844 Q731.9375,28.0469 733.2813,28.0469 Q733.9063,28.0469 734.5,27.7813 Q735.0938,27.5 735.7188,26.9219 L735.7188,29.6406 Z "/><text fill="#000000" font-family="sans-serif" font-size="12" lengthAdjust="spacingAndGlyphs" textLength="36" x="753.25" y="28.1543">Score</text><line style="stroke: #A80036; stroke-width: 1.5;" x1="656.5" x2="853.5" y1="40" y2="40"/><ellipse cx="666.5" cy="51" fill="none" rx="3" ry="3" style="stroke: #038048; stroke-width: 1.0;"/><text fill="#000000" font-family="sans-serif" font-size="11" lengthAdjust="spacingAndGlyphs" textLength="71" x="675.5" y="54.2104">playerId : int</text><ellipse cx="666.5" cy="63.8047" fill="none" rx="3" ry="3" style="stroke: #038048; stroke-width: 1.0;"/><text fill="#000000" font-family="sans-serif" font-size="11" lengthAdjust="spacingAndGlyphs" textLength="69" x="675.5" y="67.0151">score : float</text><ellipse cx="666.5" cy="76.6094" fill="none" rx="3" ry="3" style="stroke: #038048; stroke-width: 1.0;"/><text fill="#000000" font-family="sans-serif" font-size="11" lengthAdjust="spacingAndGlyphs" textLength="81" x="675.5" y="79.8198">finished : bool</text><line style="stroke: #A80036; stroke-width: 1.5;" x1="656.5" x2="853.5" y1="86.4141" y2="86.4141"/><ellipse cx="666.5" cy="97.4141" fill="#84BE84" rx="3" ry="3" style="stroke: #038048; stroke-width: 1.0;"/><text fill="#000000" font-family="sans-serif" font-size="11" lengthAdjust="spacingAndGlyphs" textLength="173" x="675.5" y="100.6245">Score(playerId:int, score:float)</text><ellipse cx="666.5" cy="110.2188" fill="#84BE84" rx="3" ry="3" style="stroke: #038048; stroke-width: 1.0;"/><text fill="#000000" font-family="sans-serif" font-size="11" lengthAdjust="spacingAndGlyphs" textLength="151" x="675.5" y="113.4292">AddScore(time:float) : void</text><ellipse cx="666.5" cy="123.0234" fill="#84BE84" rx="3" ry="3" style="stroke: #038048; stroke-width: 1.0;"/><text fill="#000000" font-family="sans-serif" font-size="11" lengthAdjust="spacingAndGlyphs" textLength="166" x="675.5" y="126.2339">«override» ToString() : string</text><!--MD5=[b6dcce5e5ef3c84b0b048d11301373dd]
class Game--><rect fill="#FEFECE" filter="url(#f1ndslptdp9hc2)" height="60.8047" id="Game" style="stroke: #A80036; stroke-width: 1.5;" width="100" x="890" y="40"/><ellipse cx="919.4" cy="56" fill="#ADD1B2" rx="11" ry="11" style="stroke: #A80036; stroke-width: 1.0;"/><path d="M922.3688,61.6406 Q921.7906,61.9375 921.15,62.0781 Q920.5094,62.2344 919.8063,62.2344 Q917.3063,62.2344 915.9781,60.5938 Q914.6656,58.9375 914.6656,55.8125 Q914.6656,52.6875 915.9781,51.0313 Q917.3063,49.375 919.8063,49.375 Q920.5094,49.375 921.15,49.5313 Q921.8063,49.6875 922.3688,49.9844 L922.3688,52.7031 Q921.7438,52.125 921.15,51.8594 Q920.5563,51.5781 919.9313,51.5781 Q918.5875,51.5781 917.9,52.6563 Q917.2125,53.7188 917.2125,55.8125 Q917.2125,57.9063 917.9,58.9844 Q918.5875,60.0469 919.9313,60.0469 Q920.5563,60.0469 921.15,59.7813 Q921.7438,59.5 922.3688,58.9219 L922.3688,61.6406 Z "/><text fill="#000000" font-family="sans-serif" font-size="12" lengthAdjust="spacingAndGlyphs" textLength="36" x="936.6" y="60.1543">Game</text><line style="stroke: #A80036; stroke-width: 1.5;" x1="891" x2="989" y1="72" y2="72"/><ellipse cx="901" cy="83" fill="none" rx="3" ry="3" style="stroke: #038048; stroke-width: 1.0;"/><text fill="#000000" font-family="sans-serif" font-size="11" lengthAdjust="spacingAndGlyphs" textLength="74" x="910" y="86.2104">game_id : int</text><line style="stroke: #A80036; stroke-width: 1.5;" x1="891" x2="989" y1="92.8047" y2="92.8047"/><!--MD5=[e644022de7dea015dd09463c37421447]
class List`1--><rect fill="#FEFECE" filter="url(#f1ndslptdp9hc2)" height="48" id="List`1" style="stroke: #A80036; stroke-width: 1.5;" width="78" x="560" y="276"/><ellipse cx="575" cy="292" fill="#ADD1B2" rx="11" ry="11" style="stroke: #A80036; stroke-width: 1.0;"/><path d="M577.9688,297.6406 Q577.3906,297.9375 576.75,298.0781 Q576.1094,298.2344 575.4063,298.2344 Q572.9063,298.2344 571.5781,296.5938 Q570.2656,294.9375 570.2656,291.8125 Q570.2656,288.6875 571.5781,287.0313 Q572.9063,285.375 575.4063,285.375 Q576.1094,285.375 576.75,285.5313 Q577.4063,285.6875 577.9688,285.9844 L577.9688,288.7031 Q577.3438,288.125 576.75,287.8594 Q576.1563,287.5781 575.5313,287.5781 Q574.1875,287.5781 573.5,288.6563 Q572.8125,289.7188 572.8125,291.8125 Q572.8125,293.9063 573.5,294.9844 Q574.1875,296.0469 575.5313,296.0469 Q576.1563,296.0469 576.75,295.7813 Q577.3438,295.5 577.9688,294.9219 L577.9688,297.6406 Z "/><text fill="#000000" font-family="sans-serif" font-size="12" lengthAdjust="spacingAndGlyphs" textLength="35" x="589" y="296.1543">List`1</text><rect fill="#FFFFFF" height="15.9688" style="stroke: #000000; stroke-width: 1.0; stroke-dasharray: 2.0,2.0;" width="9" x="632" y="273"/><text fill="#000000" font-family="sans-serif" font-size="12" font-style="italic" lengthAdjust="spacingAndGlyphs" textLength="7" x="633" y="285.1387">T</text><line style="stroke: #A80036; stroke-width: 1.5;" x1="561" x2="637" y1="308" y2="308"/><line style="stroke: #A80036; stroke-width: 1.5;" x1="561" x2="637" y1="316" y2="316"/><!--MD5=[2e1ff885372daab8d802f213ced6c836]
class Dictionary`2--><rect fill="#FEFECE" filter="url(#f1ndslptdp9hc2)" height="48" id="Dictionary`2" style="stroke: #A80036; stroke-width: 1.5;" width="146" x="379" y="276"/><ellipse cx="394" cy="292" fill="#ADD1B2" rx="11" ry="11" style="stroke: #A80036; stroke-width: 1.0;"/><path d="M396.9688,297.6406 Q396.3906,297.9375 395.75,298.0781 Q395.1094,298.2344 394.4063,298.2344 Q391.9063,298.2344 390.5781,296.5938 Q389.2656,294.9375 389.2656,291.8125 Q389.2656,288.6875 390.5781,287.0313 Q391.9063,285.375 394.4063,285.375 Q395.1094,285.375 395.75,285.5313 Q396.4063,285.6875 396.9688,285.9844 L396.9688,288.7031 Q396.3438,288.125 395.75,287.8594 Q395.1563,287.5781 394.5313,287.5781 Q393.1875,287.5781 392.5,288.6563 Q391.8125,289.7188 391.8125,291.8125 Q391.8125,293.9063 392.5,294.9844 Q393.1875,296.0469 394.5313,296.0469 Q395.1563,296.0469 395.75,295.7813 Q396.3438,295.5 396.9688,294.9219 L396.9688,297.6406 Z "/><text fill="#000000" font-family="sans-serif" font-size="12" lengthAdjust="spacingAndGlyphs" textLength="76" x="408" y="296.1543">Dictionary`2</text><rect fill="#FFFFFF" height="15.9688" style="stroke: #000000; stroke-width: 1.0; stroke-dasharray: 2.0,2.0;" width="36" x="492" y="273"/><text fill="#000000" font-family="sans-serif" font-size="12" font-style="italic" lengthAdjust="spacingAndGlyphs" textLength="34" x="493" y="285.1387">T1,T2</text><line style="stroke: #A80036; stroke-width: 1.5;" x1="380" x2="524" y1="308" y2="308"/><line style="stroke: #A80036; stroke-width: 1.5;" x1="380" x2="524" y1="316" y2="316"/><!--MD5=[83b3cf3d23d77c6f1e1b5291a241bc2a]
class MonoBehaviour--><rect fill="#FEFECE" filter="url(#f1ndslptdp9hc2)" height="48" id="MonoBehaviour" style="stroke: #A80036; stroke-width: 1.5;" width="128" x="111" y="46.5"/><ellipse cx="126" cy="62.5" fill="#ADD1B2" rx="11" ry="11" style="stroke: #A80036; stroke-width: 1.0;"/><path d="M128.9688,68.1406 Q128.3906,68.4375 127.75,68.5781 Q127.1094,68.7344 126.4063,68.7344 Q123.9063,68.7344 122.5781,67.0938 Q121.2656,65.4375 121.2656,62.3125 Q121.2656,59.1875 122.5781,57.5313 Q123.9063,55.875 126.4063,55.875 Q127.1094,55.875 127.75,56.0313 Q128.4063,56.1875 128.9688,56.4844 L128.9688,59.2031 Q128.3438,58.625 127.75,58.3594 Q127.1563,58.0781 126.5313,58.0781 Q125.1875,58.0781 124.5,59.1563 Q123.8125,60.2188 123.8125,62.3125 Q123.8125,64.4063 124.5,65.4844 Q125.1875,66.5469 126.5313,66.5469 Q127.1563,66.5469 127.75,66.2813 Q128.3438,66 128.9688,65.4219 L128.9688,68.1406 Z "/><text fill="#000000" font-family="sans-serif" font-size="12" lengthAdjust="spacingAndGlyphs" textLength="96" x="140" y="66.6543">MonoBehaviour</text><line style="stroke: #A80036; stroke-width: 1.5;" x1="112" x2="238" y1="78.5" y2="78.5"/><line style="stroke: #A80036; stroke-width: 1.5;" x1="112" x2="238" y1="86.5" y2="86.5"/><!--MD5=[27f5b857f1c7ecc010c62bac773cfa22]
class DeathRunCheckpoint--><rect fill="#FEFECE" filter="url(#f1ndslptdp9hc2)" height="48" id="DeathRunCheckpoint" style="stroke: #A80036; stroke-width: 1.5;" width="164" x="673" y="276"/><ellipse cx="688" cy="292" fill="#ADD1B2" rx="11" ry="11" style="stroke: #A80036; stroke-width: 1.0;"/><path d="M690.9688,297.6406 Q690.3906,297.9375 689.75,298.0781 Q689.1094,298.2344 688.4063,298.2344 Q685.9063,298.2344 684.5781,296.5938 Q683.2656,294.9375 683.2656,291.8125 Q683.2656,288.6875 684.5781,287.0313 Q685.9063,285.375 688.4063,285.375 Q689.1094,285.375 689.75,285.5313 Q690.4063,285.6875 690.9688,285.9844 L690.9688,288.7031 Q690.3438,288.125 689.75,287.8594 Q689.1563,287.5781 688.5313,287.5781 Q687.1875,287.5781 686.5,288.6563 Q685.8125,289.7188 685.8125,291.8125 Q685.8125,293.9063 686.5,294.9844 Q687.1875,296.0469 688.5313,296.0469 Q689.1563,296.0469 689.75,295.7813 Q690.3438,295.5 690.9688,294.9219 L690.9688,297.6406 Z "/><text fill="#000000" font-family="sans-serif" font-size="12" lengthAdjust="spacingAndGlyphs" textLength="132" x="702" y="296.1543">DeathRunCheckpoint</text><line style="stroke: #A80036; stroke-width: 1.5;" x1="674" x2="836" y1="308" y2="308"/><line style="stroke: #A80036; stroke-width: 1.5;" x1="674" x2="836" y1="316" y2="316"/><!--MD5=[6a76df9b050476b1acfc2f389d54b804]
reverse link MonoBehaviour to DeathRunGameLoop--><path d="M175,114.63 C175,136.95 175,165.26 175,192.95 " fill="none" id="MonoBehaviour&lt;-DeathRunGameLoop" style="stroke: #A80036; stroke-width: 1.0;"/><polygon fill="none" points="168,114.57,175,94.57,182,114.57,168,114.57" style="stroke: #A80036; stroke-width: 1.0;"/><!--MD5=[892f61ffb55f77d74cd4cd8372ba1457]
link DeathRunGameLoop to List`1--><path d="M321.7296,187.0961 C321.7296,187.0961 359.53,168.79 378.5,163 C440.56,144.06 468.23,130.68 524.5,163 C561.02,183.98 580.67,230.05 590.46,262.97 " fill="none" id="DeathRunGameLoop-List`1" style="stroke: #A80036; stroke-width: 1.0;"/><polygon fill="#A80036" points="593.97,275.73,595.4422,265.9918,592.6451,270.9087,587.7282,268.1116,593.97,275.73" style="stroke: #A80036; stroke-width: 1.0;"/><line style="stroke: #A80036; stroke-width: 1.0;" x1="592.6451" x2="590.525" y1="270.9087" y2="263.195"/><polygon fill="#FFFFFF" points="311.21,192.87,318.3944,193.4896,321.7296,187.0961,314.5452,186.4765,311.21,192.87" style="stroke: #A80036; stroke-width: 1.0;"/><text fill="#000000" font-family="sans-serif" font-size="13" lengthAdjust="spacingAndGlyphs" textLength="136" x="440.4322" y="264.8843">allBarriers&lt;Barriers&gt;</text><!--MD5=[9f845d038c216804fef514f1d933c06e]
link DeathRunGameLoop to Dictionary`2--><path d="M356.07,300 C356.07,300 362.86,300 365.64,300 " fill="none" id="DeathRunGameLoop-Dictionary`2" style="stroke: #A80036; stroke-width: 1.0;"/><polygon fill="#A80036" points="378.64,300,369.64,296,373.64,300,369.64,304,378.64,300" style="stroke: #A80036; stroke-width: 1.0;"/><line style="stroke: #A80036; stroke-width: 1.0;" x1="373.64" x2="365.64" y1="300" y2="300"/><polygon fill="#FFFFFF" points="344.07,300,350.07,304,356.07,300,350.07,296,344.07,300" style="stroke: #A80036; stroke-width: 1.0;"/><text fill="#000000" font-family="sans-serif" font-size="13" lengthAdjust="spacingAndGlyphs" textLength="252" x="318.2816" y="264.8818">checkpoints&lt;int,DeathRunCheckpoint&gt;</text><!--MD5=[2c08cd0e10ba7cd8747442e2766f369d]
link Score to DeathRunCheckpoint--><path d="M755,133.06 C755,177.78 755,236.24 755,270.5 " fill="none" id="Score-&gt;DeathRunCheckpoint" style="stroke: #A80036; stroke-width: 1.0;"/><polygon fill="#A80036" points="755,275.78,759,266.78,755,270.78,751,266.78,755,275.78" style="stroke: #A80036; stroke-width: 1.0;"/><text fill="#000000" font-family="sans-serif" font-size="13" lengthAdjust="spacingAndGlyphs" textLength="115" x="636.8293" y="264.9361">currentcheckpoint</text><!--MD5=[f12c47d797872c093efd1379863cef38]
@startuml
class DeathRunGameLoop {
    + StartAttempt() : void
    + StartGame() : void
    + NextPlayer() : void
    + StartRound() : void
    + EndRound() : void
    + OpenBarriers() : void
    + CloseBarriers() : void
    + EndGame() : void
    + ReachedGoal(playerId:int) : void
    + ReachedCheckpoint(playerId:int, checkpointId:int) : void
    + JoinPlayer(playerId:int) : void
    + LeavePlayer(playerId:int) : void
    + PlayerDied(playerId:int) : void
}
class Score {
    + playerId : int
    + score : float
    + finished : bool
    + Score(playerId:int, score:float)
    + AddScore(time:float) : void
    + <<override>> ToString() : string
}
class Game {
    + game_id : int
}
class "List`1"<T> {
}
class "Dictionary`2"<T1,T2> {
}
MonoBehaviour <|- - DeathRunGameLoop
DeathRunGameLoop o-> "allBarriers<Barriers>" "List`1"
DeathRunGameLoop o-> "checkpoints<int,DeathRunCheckpoint>" "Dictionary`2"
Score - -> "currentcheckpoint" DeathRunCheckpoint
@enduml

PlantUML version 1.2020.02(Sun Mar 01 10:22:07 GMT 2020)
(GPL source distribution)
Java Runtime: OpenJDK Runtime Environment
JVM: OpenJDK 64-Bit Server VM
Java Version: 11.0.9+11-Ubuntu-0ubuntu1
Operating System: Linux
Default Encoding: ANSI_X3.4-1968
Language: en
Country: US
--></g></svg>