<?xml version="1.0" encoding="UTF-8" standalone="no"?><svg xmlns="http://www.w3.org/2000/svg" xmlns:xlink="http://www.w3.org/1999/xlink" contentScriptType="application/ecmascript" contentStyleType="text/css" height="155px" preserveAspectRatio="none" style="width:393px;height:155px;" version="1.1" viewBox="0 0 393 155" width="393px" zoomAndPan="magnify"><defs><filter height="300%" id="f1y0avs26hmkiy" width="300%" x="-1" y="-1"><feGaussianBlur result="blurOut" stdDeviation="2.0"/><feColorMatrix in="blurOut" result="blurOut2" type="matrix" values="0 0 0 0 0 0 0 0 0 0 0 0 0 0 0 0 0 0 .4 0"/><feOffset dx="4.0" dy="4.0" in="blurOut2" result="blurOut3"/><feBlend in="SourceGraphic" in2="blurOut3" mode="normal"/></filter></defs><g><!--MD5=[4a8513aeedabc1398a53b507291099b6]
class FiniteStateMachine--><rect fill="#FEFECE" filter="url(#f1y0avs26hmkiy)" height="137.6328" id="FiniteStateMachine" style="stroke: #A80036; stroke-width: 1.5;" width="375" x="7" y="7"/><ellipse cx="130.25" cy="23" fill="#ADD1B2" rx="11" ry="11" style="stroke: #A80036; stroke-width: 1.0;"/><path d="M133.2188,28.6406 Q132.6406,28.9375 132,29.0781 Q131.3594,29.2344 130.6563,29.2344 Q128.1563,29.2344 126.8281,27.5938 Q125.5156,25.9375 125.5156,22.8125 Q125.5156,19.6875 126.8281,18.0313 Q128.1563,16.375 130.6563,16.375 Q131.3594,16.375 132,16.5313 Q132.6563,16.6875 133.2188,16.9844 L133.2188,19.7031 Q132.5938,19.125 132,18.8594 Q131.4063,18.5781 130.7813,18.5781 Q129.4375,18.5781 128.75,19.6563 Q128.0625,20.7188 128.0625,22.8125 Q128.0625,24.9063 128.75,25.9844 Q129.4375,27.0469 130.7813,27.0469 Q131.4063,27.0469 132,26.7813 Q132.5938,26.5 133.2188,25.9219 L133.2188,28.6406 Z "/><text fill="#000000" font-family="sans-serif" font-size="12" lengthAdjust="spacingAndGlyphs" textLength="120" x="150.75" y="27.1543">FiniteStateMachine</text><line style="stroke: #A80036; stroke-width: 1.5;" x1="8" x2="381" y1="39" y2="39"/><line style="stroke: #A80036; stroke-width: 1.5;" x1="8" x2="381" y1="47" y2="47"/><ellipse cx="18" cy="58" fill="#84BE84" rx="3" ry="3" style="stroke: #038048; stroke-width: 1.0;"/><text fill="#000000" font-family="sans-serif" font-size="11" lengthAdjust="spacingAndGlyphs" textLength="349" x="27" y="61.2104">FiniteStateMachine(startState:BaseState, states:BaseState[])</text><ellipse cx="18" cy="70.8047" fill="#84BE84" rx="3" ry="3" style="stroke: #038048; stroke-width: 1.0;"/><text fill="#000000" font-family="sans-serif" font-size="11" lengthAdjust="spacingAndGlyphs" textLength="99" x="27" y="74.0151">OnUpdate() : void</text><ellipse cx="18" cy="83.6094" fill="#84BE84" rx="3" ry="3" style="stroke: #038048; stroke-width: 1.0;"/><text fill="#000000" font-family="sans-serif" font-size="11" lengthAdjust="spacingAndGlyphs" textLength="128" x="27" y="86.8198">OnFixedUpdate() : void</text><ellipse cx="18" cy="96.4141" fill="#84BE84" rx="3" ry="3" style="stroke: #038048; stroke-width: 1.0;"/><text fill="#000000" font-family="sans-serif" font-size="11" lengthAdjust="spacingAndGlyphs" textLength="123" x="27" y="99.6245">OnLateUpdate() : void</text><ellipse cx="18" cy="109.2188" fill="#84BE84" rx="3" ry="3" style="stroke: #038048; stroke-width: 1.0;"/><text fill="#000000" font-family="sans-serif" font-size="11" lengthAdjust="spacingAndGlyphs" textLength="273" x="27" y="112.4292">SwitchState(newStateStype:System.Type) : void</text><ellipse cx="18" cy="122.0234" fill="#84BE84" rx="3" ry="3" style="stroke: #038048; stroke-width: 1.0;"/><text fill="#000000" font-family="sans-serif" font-size="11" lengthAdjust="spacingAndGlyphs" textLength="152" x="27" y="125.2339">DebugCurrentState() : void</text><ellipse cx="18" cy="134.8281" fill="#84BE84" rx="3" ry="3" style="stroke: #038048; stroke-width: 1.0;"/><text fill="#000000" font-family="sans-serif" font-size="11" lengthAdjust="spacingAndGlyphs" textLength="153" x="27" y="138.0386">GetLastState() : BaseState</text><!--MD5=[44111b718be3dcbb4c544f23ea8dccec]
@startuml
class FiniteStateMachine {
    + FiniteStateMachine(startState:BaseState, states:BaseState[])
    + OnUpdate() : void
    + OnFixedUpdate() : void
    + OnLateUpdate() : void
    + SwitchState(newStateStype:System.Type) : void
    + DebugCurrentState() : void
    + GetLastState() : BaseState
}
@enduml

PlantUML version 1.2020.02(Sun Mar 01 10:22:07 GMT 2020)
(GPL source distribution)
Java Runtime: OpenJDK Runtime Environment
JVM: OpenJDK 64-Bit Server VM
Java Version: 11.0.9+11-Ubuntu-0ubuntu1
Operating System: Linux
Default Encoding: ANSI_X3.4-1968
Language: en
Country: US
--></g></svg>