<?xml version="1.0" encoding="UTF-8" standalone="no"?><svg xmlns="http://www.w3.org/2000/svg" xmlns:xlink="http://www.w3.org/1999/xlink" contentScriptType="application/ecmascript" contentStyleType="text/css" height="213px" preserveAspectRatio="none" style="width:244px;height:213px;" version="1.1" viewBox="0 0 244 213" width="244px" zoomAndPan="magnify"><defs><filter height="300%" id="fn7k4krx6qg8c" width="300%" x="-1" y="-1"><feGaussianBlur result="blurOut" stdDeviation="2.0"/><feColorMatrix in="blurOut" result="blurOut2" type="matrix" values="0 0 0 0 0 0 0 0 0 0 0 0 0 0 0 0 0 0 .4 0"/><feOffset dx="4.0" dy="4.0" in="blurOut2" result="blurOut3"/><feBlend in="SourceGraphic" in2="blurOut3" mode="normal"/></filter></defs><g><!--MD5=[b91eb240017d254ef80a7cb85a26e06e]
class GlobalSettings--><rect fill="#FEFECE" filter="url(#fn7k4krx6qg8c)" height="86.4141" id="GlobalSettings" style="stroke: #A80036; stroke-width: 1.5;" width="227" x="6" y="116"/><ellipse cx="69.75" cy="132" fill="#ADD1B2" rx="11" ry="11" style="stroke: #A80036; stroke-width: 1.0;"/><path d="M72.7188,137.6406 Q72.1406,137.9375 71.5,138.0781 Q70.8594,138.2344 70.1563,138.2344 Q67.6563,138.2344 66.3281,136.5938 Q65.0156,134.9375 65.0156,131.8125 Q65.0156,128.6875 66.3281,127.0313 Q67.6563,125.375 70.1563,125.375 Q70.8594,125.375 71.5,125.5313 Q72.1563,125.6875 72.7188,125.9844 L72.7188,128.7031 Q72.0938,128.125 71.5,127.8594 Q70.9063,127.5781 70.2813,127.5781 Q68.9375,127.5781 68.25,128.6563 Q67.5625,129.7188 67.5625,131.8125 Q67.5625,133.9063 68.25,134.9844 Q68.9375,136.0469 70.2813,136.0469 Q70.9063,136.0469 71.5,135.7813 Q72.0938,135.5 72.7188,134.9219 L72.7188,137.6406 Z "/><text fill="#000000" font-family="sans-serif" font-size="12" lengthAdjust="spacingAndGlyphs" textLength="91" x="90.25" y="136.1543">GlobalSettings</text><line style="stroke: #A80036; stroke-width: 1.5;" x1="7" x2="232" y1="148" y2="148"/><ellipse cx="17" cy="159" fill="none" rx="3" ry="3" style="stroke: #038048; stroke-width: 1.0;"/><text fill="#000000" font-family="sans-serif" font-size="11" lengthAdjust="spacingAndGlyphs" text-decoration="underline" textLength="118" x="26" y="162.2104">sensitivity : float = 1</text><ellipse cx="17" cy="171.8047" fill="none" rx="3" ry="3" style="stroke: #038048; stroke-width: 1.0;"/><text fill="#000000" font-family="sans-serif" font-size="11" lengthAdjust="spacingAndGlyphs" text-decoration="underline" textLength="139" x="26" y="175.0151">startingSensitivity : float</text><line style="stroke: #A80036; stroke-width: 1.5;" x1="7" x2="232" y1="181.6094" y2="181.6094"/><ellipse cx="17" cy="192.6094" fill="#84BE84" rx="3" ry="3" style="stroke: #038048; stroke-width: 1.0;"/><text fill="#000000" font-family="sans-serif" font-size="11" lengthAdjust="spacingAndGlyphs" text-decoration="underline" textLength="201" x="26" y="195.8198">SetSensitivity(newSens:float) : void</text><!--MD5=[83b3cf3d23d77c6f1e1b5291a241bc2a]
class MonoBehaviour--><rect fill="#FEFECE" filter="url(#fn7k4krx6qg8c)" height="48" id="MonoBehaviour" style="stroke: #A80036; stroke-width: 1.5;" width="128" x="55.5" y="8"/><ellipse cx="70.5" cy="24" fill="#ADD1B2" rx="11" ry="11" style="stroke: #A80036; stroke-width: 1.0;"/><path d="M73.4688,29.6406 Q72.8906,29.9375 72.25,30.0781 Q71.6094,30.2344 70.9063,30.2344 Q68.4063,30.2344 67.0781,28.5938 Q65.7656,26.9375 65.7656,23.8125 Q65.7656,20.6875 67.0781,19.0313 Q68.4063,17.375 70.9063,17.375 Q71.6094,17.375 72.25,17.5313 Q72.9063,17.6875 73.4688,17.9844 L73.4688,20.7031 Q72.8438,20.125 72.25,19.8594 Q71.6563,19.5781 71.0313,19.5781 Q69.6875,19.5781 69,20.6563 Q68.3125,21.7188 68.3125,23.8125 Q68.3125,25.9063 69,26.9844 Q69.6875,28.0469 71.0313,28.0469 Q71.6563,28.0469 72.25,27.7813 Q72.8438,27.5 73.4688,26.9219 L73.4688,29.6406 Z "/><text fill="#000000" font-family="sans-serif" font-size="12" lengthAdjust="spacingAndGlyphs" textLength="96" x="84.5" y="28.1543">MonoBehaviour</text><line style="stroke: #A80036; stroke-width: 1.5;" x1="56.5" x2="182.5" y1="40" y2="40"/><line style="stroke: #A80036; stroke-width: 1.5;" x1="56.5" x2="182.5" y1="48" y2="48"/><!--MD5=[8a82625da2eb14198fd696c226cc3bb9]
reverse link MonoBehaviour to GlobalSettings--><path d="M119.5,76.27 C119.5,89.12 119.5,103.17 119.5,115.94 " fill="none" id="MonoBehaviour&lt;-GlobalSettings" style="stroke: #A80036; stroke-width: 1.0;"/><polygon fill="none" points="112.5,76.22,119.5,56.22,126.5,76.22,112.5,76.22" style="stroke: #A80036; stroke-width: 1.0;"/><!--MD5=[eba99b8324d998d87e6cdfb7610e6d93]
@startuml
class GlobalSettings {
    + {static} sensitivity : float = 1
    + {static} startingSensitivity : float
    + {static} SetSensitivity(newSens:float) : void
}
MonoBehaviour <|- - GlobalSettings
@enduml

PlantUML version 1.2020.02(Sun Mar 01 10:22:07 GMT 2020)
(GPL source distribution)
Java Runtime: OpenJDK Runtime Environment
JVM: OpenJDK 64-Bit Server VM
Java Version: 11.0.9+11-Ubuntu-0ubuntu1
Operating System: Linux
Default Encoding: ANSI_X3.4-1968
Language: en
Country: US
--></g></svg>