<?xml version="1.0" encoding="UTF-8" standalone="no"?><svg xmlns="http://www.w3.org/2000/svg" xmlns:xlink="http://www.w3.org/1999/xlink" contentScriptType="application/ecmascript" contentStyleType="text/css" height="213px" preserveAspectRatio="none" style="width:511px;height:213px;" version="1.1" viewBox="0 0 511 213" width="511px" zoomAndPan="magnify"><defs><filter height="300%" id="fcm16e6kv3eb0" width="300%" x="-1" y="-1"><feGaussianBlur result="blurOut" stdDeviation="2.0"/><feColorMatrix in="blurOut" result="blurOut2" type="matrix" values="0 0 0 0 0 0 0 0 0 0 0 0 0 0 0 0 0 0 .4 0"/><feOffset dx="4.0" dy="4.0" in="blurOut2" result="blurOut3"/><feBlend in="SourceGraphic" in2="blurOut3" mode="normal"/></filter></defs><g><!--MD5=[7b27f8d87d9dde1e059f3739cdaa8789]
class GravityBehaviour--><rect fill="#FEFECE" filter="url(#fcm16e6kv3eb0)" height="73.6094" id="GravityBehaviour" style="stroke: #A80036; stroke-width: 1.5;" width="182" x="6" y="122"/><ellipse cx="41.7" cy="138" fill="#ADD1B2" rx="11" ry="11" style="stroke: #A80036; stroke-width: 1.0;"/><path d="M44.6688,143.6406 Q44.0906,143.9375 43.45,144.0781 Q42.8094,144.2344 42.1063,144.2344 Q39.6063,144.2344 38.2781,142.5938 Q36.9656,140.9375 36.9656,137.8125 Q36.9656,134.6875 38.2781,133.0313 Q39.6063,131.375 42.1063,131.375 Q42.8094,131.375 43.45,131.5313 Q44.1063,131.6875 44.6688,131.9844 L44.6688,134.7031 Q44.0438,134.125 43.45,133.8594 Q42.8563,133.5781 42.2313,133.5781 Q40.8875,133.5781 40.2,134.6563 Q39.5125,135.7188 39.5125,137.8125 Q39.5125,139.9063 40.2,140.9844 Q40.8875,142.0469 42.2313,142.0469 Q42.8563,142.0469 43.45,141.7813 Q44.0438,141.5 44.6688,140.9219 L44.6688,143.6406 Z "/><text fill="#000000" font-family="sans-serif" font-size="12" lengthAdjust="spacingAndGlyphs" textLength="104" x="60.3" y="142.1543">GravityBehaviour</text><line style="stroke: #A80036; stroke-width: 1.5;" x1="7" x2="187" y1="154" y2="154"/><text fill="#000000" font-family="sans-serif" font-size="11" lengthAdjust="spacingAndGlyphs" textLength="170" x="12" y="168.2104">gravityStrenght : float = 9.81f</text><text fill="#000000" font-family="sans-serif" font-size="11" lengthAdjust="spacingAndGlyphs" textLength="132" x="12" y="181.0151">zoneRadius : float = 10</text><line style="stroke: #A80036; stroke-width: 1.5;" x1="7" x2="187" y1="187.6094" y2="187.6094"/><!--MD5=[7ca05059718e30e5223bf85d7c89e913]
class GravityType--><rect fill="#FEFECE" filter="url(#fcm16e6kv3eb0)" height="86.4141" id="GravityType" style="stroke: #A80036; stroke-width: 1.5;" width="160" x="340" y="116"/><ellipse cx="380.65" cy="132" fill="#EB937F" rx="11" ry="11" style="stroke: #A80036; stroke-width: 1.0;"/><path d="M384.7594,138 L377.0406,138 L377.0406,125.6094 L384.7594,125.6094 L384.7594,127.7656 L379.4938,127.7656 L379.4938,130.4375 L384.2594,130.4375 L384.2594,132.5938 L379.4938,132.5938 L379.4938,135.8438 L384.7594,135.8438 L384.7594,138 Z "/><text fill="#000000" font-family="sans-serif" font-size="12" lengthAdjust="spacingAndGlyphs" textLength="71" x="400.35" y="136.1543">GravityType</text><line style="stroke: #A80036; stroke-width: 1.5;" x1="341" x2="499" y1="148" y2="148"/><text fill="#000000" font-family="sans-serif" font-size="11" lengthAdjust="spacingAndGlyphs" textLength="103" x="346" y="162.2104">STATIC_ZONE= 0,</text><text fill="#000000" font-family="sans-serif" font-size="11" lengthAdjust="spacingAndGlyphs" textLength="144" x="346" y="175.0151">GRAVITY_POINT_PULL= 1,</text><text fill="#000000" font-family="sans-serif" font-size="11" lengthAdjust="spacingAndGlyphs" textLength="148" x="346" y="187.8198">GRAVITY_POINT_PUSH= 2,</text><line style="stroke: #A80036; stroke-width: 1.5;" x1="341" x2="499" y1="194.4141" y2="194.4141"/><!--MD5=[83b3cf3d23d77c6f1e1b5291a241bc2a]
class MonoBehaviour--><rect fill="#FEFECE" filter="url(#fcm16e6kv3eb0)" height="48" id="MonoBehaviour" style="stroke: #A80036; stroke-width: 1.5;" width="128" x="33" y="8"/><ellipse cx="48" cy="24" fill="#ADD1B2" rx="11" ry="11" style="stroke: #A80036; stroke-width: 1.0;"/><path d="M50.9688,29.6406 Q50.3906,29.9375 49.75,30.0781 Q49.1094,30.2344 48.4063,30.2344 Q45.9063,30.2344 44.5781,28.5938 Q43.2656,26.9375 43.2656,23.8125 Q43.2656,20.6875 44.5781,19.0313 Q45.9063,17.375 48.4063,17.375 Q49.1094,17.375 49.75,17.5313 Q50.4063,17.6875 50.9688,17.9844 L50.9688,20.7031 Q50.3438,20.125 49.75,19.8594 Q49.1563,19.5781 48.5313,19.5781 Q47.1875,19.5781 46.5,20.6563 Q45.8125,21.7188 45.8125,23.8125 Q45.8125,25.9063 46.5,26.9844 Q47.1875,28.0469 48.5313,28.0469 Q49.1563,28.0469 49.75,27.7813 Q50.3438,27.5 50.9688,26.9219 L50.9688,29.6406 Z "/><text fill="#000000" font-family="sans-serif" font-size="12" lengthAdjust="spacingAndGlyphs" textLength="96" x="62" y="28.1543">MonoBehaviour</text><line style="stroke: #A80036; stroke-width: 1.5;" x1="34" x2="160" y1="40" y2="40"/><line style="stroke: #A80036; stroke-width: 1.5;" x1="34" x2="160" y1="48" y2="48"/><!--MD5=[65d619c042c23702cef2ca07d67b1cf6]
class Vector3--><rect fill="#FEFECE" filter="url(#fcm16e6kv3eb0)" height="48" id="Vector3" style="stroke: #A80036; stroke-width: 1.5;" width="81" x="223.5" y="135"/><ellipse cx="238.5" cy="151" fill="#ADD1B2" rx="11" ry="11" style="stroke: #A80036; stroke-width: 1.0;"/><path d="M241.4688,156.6406 Q240.8906,156.9375 240.25,157.0781 Q239.6094,157.2344 238.9063,157.2344 Q236.4063,157.2344 235.0781,155.5938 Q233.7656,153.9375 233.7656,150.8125 Q233.7656,147.6875 235.0781,146.0313 Q236.4063,144.375 238.9063,144.375 Q239.6094,144.375 240.25,144.5313 Q240.9063,144.6875 241.4688,144.9844 L241.4688,147.7031 Q240.8438,147.125 240.25,146.8594 Q239.6563,146.5781 239.0313,146.5781 Q237.6875,146.5781 237,147.6563 Q236.3125,148.7188 236.3125,150.8125 Q236.3125,152.9063 237,153.9844 Q237.6875,155.0469 239.0313,155.0469 Q239.6563,155.0469 240.25,154.7813 Q240.8438,154.5 241.4688,153.9219 L241.4688,156.6406 Z "/><text fill="#000000" font-family="sans-serif" font-size="12" lengthAdjust="spacingAndGlyphs" textLength="49" x="252.5" y="155.1543">Vector3</text><line style="stroke: #A80036; stroke-width: 1.5;" x1="224.5" x2="303.5" y1="167" y2="167"/><line style="stroke: #A80036; stroke-width: 1.5;" x1="224.5" x2="303.5" y1="175" y2="175"/><!--MD5=[330304644ed9a2ce7bdd830d51e53841]
reverse link MonoBehaviour to GravityBehaviour--><path d="M97,76.3 C97,91.09 97,107.46 97,121.64 " fill="none" id="MonoBehaviour&lt;-GravityBehaviour" style="stroke: #A80036; stroke-width: 1.0;"/><polygon fill="none" points="90,76.22,97,56.22,104,76.22,90,76.22" style="stroke: #A80036; stroke-width: 1.0;"/><!--MD5=[902fab2b877dc92437821fade97be9c3]
link GravityBehaviour to GravityType--><path d="M157.4236,115.5905 C157.4236,115.5905 200.98,92.03 223.5,86 C258.27,76.69 269.92,75.99 304.5,86 C321.83,91.02 339.05,99.49 354.71,108.93 " fill="none" id="GravityBehaviour-GravityType" style="stroke: #A80036; stroke-width: 1.0;"/><polygon fill="#A80036" points="365.8,115.94,360.3242,107.7537,361.5718,113.2713,356.0542,114.5189,365.8,115.94" style="stroke: #A80036; stroke-width: 1.0;"/><line style="stroke: #A80036; stroke-width: 1.0;" x1="361.5718" x2="354.81" y1="113.2713" y2="109"/><polygon fill="#FFFFFF" points="147.21,121.89,154.4166,122.1448,157.4236,115.5905,150.217,115.3358,147.21,121.89" style="stroke: #A80036; stroke-width: 1.0;"/><text fill="#000000" font-family="sans-serif" font-size="13" lengthAdjust="spacingAndGlyphs" textLength="73" x="278.3447" y="104.9265">gravityType</text><!--MD5=[91268d31d9d9787c8babecb2dceccdd3]
link GravityBehaviour to Vector3--><path d="M200,159 C200,159 207.23,159 210.22,159 " fill="none" id="GravityBehaviour-Vector3" style="stroke: #A80036; stroke-width: 1.0;"/><polygon fill="#A80036" points="223.33,159,214.33,155,218.33,159,214.33,163,223.33,159" style="stroke: #A80036; stroke-width: 1.0;"/><line style="stroke: #A80036; stroke-width: 1.0;" x1="218.33" x2="210.33" y1="159" y2="159"/><polygon fill="#FFFFFF" points="188,159,194,163,200,159,194,155,188,159" style="stroke: #A80036; stroke-width: 1.0;"/><text fill="#000000" font-family="sans-serif" font-size="13" lengthAdjust="spacingAndGlyphs" textLength="100" x="169.3173" y="123.6505">gravityDirection</text><!--MD5=[86712a2a25720b6a05ee55f67f0423ee]
@startuml
class GravityBehaviour {
    gravityStrenght : float = 9.81f
    zoneRadius : float = 10
}
enum GravityType {
    STATIC_ZONE= 0,
    GRAVITY_POINT_PULL= 1,
    GRAVITY_POINT_PUSH= 2,
}
MonoBehaviour <|- - GravityBehaviour
GravityBehaviour o-> "gravityType" GravityType
GravityBehaviour o-> "gravityDirection" Vector3
@enduml

PlantUML version 1.2020.02(Sun Mar 01 10:22:07 GMT 2020)
(GPL source distribution)
Java Runtime: OpenJDK Runtime Environment
JVM: OpenJDK 64-Bit Server VM
Java Version: 11.0.9+11-Ubuntu-0ubuntu1
Operating System: Linux
Default Encoding: ANSI_X3.4-1968
Language: en
Country: US
--></g></svg>