<?xml version="1.0" encoding="UTF-8" standalone="no"?><svg xmlns="http://www.w3.org/2000/svg" xmlns:xlink="http://www.w3.org/1999/xlink" contentScriptType="application/ecmascript" contentStyleType="text/css" height="200px" preserveAspectRatio="none" style="width:218px;height:200px;" version="1.1" viewBox="0 0 218 200" width="218px" zoomAndPan="magnify"><defs><filter height="300%" id="fbl1ebqzat58y" width="300%" x="-1" y="-1"><feGaussianBlur result="blurOut" stdDeviation="2.0"/><feColorMatrix in="blurOut" result="blurOut2" type="matrix" values="0 0 0 0 0 0 0 0 0 0 0 0 0 0 0 0 0 0 .4 0"/><feOffset dx="4.0" dy="4.0" in="blurOut2" result="blurOut3"/><feBlend in="SourceGraphic" in2="blurOut3" mode="normal"/></filter></defs><g><!--MD5=[62558e16a31d47bd517a307d7d96e673]
class HostServer--><rect fill="#FEFECE" filter="url(#fbl1ebqzat58y)" height="73.6094" id="HostServer" style="stroke: #A80036; stroke-width: 1.5;" width="201" x="6" y="116"/><ellipse cx="67.75" cy="132" fill="#ADD1B2" rx="11" ry="11" style="stroke: #A80036; stroke-width: 1.0;"/><path d="M70.7188,137.6406 Q70.1406,137.9375 69.5,138.0781 Q68.8594,138.2344 68.1563,138.2344 Q65.6563,138.2344 64.3281,136.5938 Q63.0156,134.9375 63.0156,131.8125 Q63.0156,128.6875 64.3281,127.0313 Q65.6563,125.375 68.1563,125.375 Q68.8594,125.375 69.5,125.5313 Q70.1563,125.6875 70.7188,125.9844 L70.7188,128.7031 Q70.0938,128.125 69.5,127.8594 Q68.9063,127.5781 68.2813,127.5781 Q66.9375,127.5781 66.25,128.6563 Q65.5625,129.7188 65.5625,131.8125 Q65.5625,133.9063 66.25,134.9844 Q66.9375,136.0469 68.2813,136.0469 Q68.9063,136.0469 69.5,135.7813 Q70.0938,135.5 70.7188,134.9219 L70.7188,137.6406 Z "/><text fill="#000000" font-family="sans-serif" font-size="12" lengthAdjust="spacingAndGlyphs" textLength="69" x="88.25" y="136.1543">HostServer</text><line style="stroke: #A80036; stroke-width: 1.5;" x1="7" x2="206" y1="148" y2="148"/><line style="stroke: #A80036; stroke-width: 1.5;" x1="7" x2="206" y1="156" y2="156"/><ellipse cx="17" cy="167" fill="#84BE84" rx="3" ry="3" style="stroke: #038048; stroke-width: 1.0;"/><text fill="#000000" font-family="sans-serif" font-size="11" lengthAdjust="spacingAndGlyphs" textLength="122" x="26" y="170.2104">OnHostButton() : void</text><ellipse cx="17" cy="179.8047" fill="#84BE84" rx="3" ry="3" style="stroke: #038048; stroke-width: 1.0;"/><text fill="#000000" font-family="sans-serif" font-size="11" lengthAdjust="spacingAndGlyphs" textLength="175" x="26" y="183.0151">SetHostLocal(value:bool) : void</text><!--MD5=[83b3cf3d23d77c6f1e1b5291a241bc2a]
class MonoBehaviour--><rect fill="#FEFECE" filter="url(#fbl1ebqzat58y)" height="48" id="MonoBehaviour" style="stroke: #A80036; stroke-width: 1.5;" width="128" x="42.5" y="8"/><ellipse cx="57.5" cy="24" fill="#ADD1B2" rx="11" ry="11" style="stroke: #A80036; stroke-width: 1.0;"/><path d="M60.4688,29.6406 Q59.8906,29.9375 59.25,30.0781 Q58.6094,30.2344 57.9063,30.2344 Q55.4063,30.2344 54.0781,28.5938 Q52.7656,26.9375 52.7656,23.8125 Q52.7656,20.6875 54.0781,19.0313 Q55.4063,17.375 57.9063,17.375 Q58.6094,17.375 59.25,17.5313 Q59.9063,17.6875 60.4688,17.9844 L60.4688,20.7031 Q59.8438,20.125 59.25,19.8594 Q58.6563,19.5781 58.0313,19.5781 Q56.6875,19.5781 56,20.6563 Q55.3125,21.7188 55.3125,23.8125 Q55.3125,25.9063 56,26.9844 Q56.6875,28.0469 58.0313,28.0469 Q58.6563,28.0469 59.25,27.7813 Q59.8438,27.5 60.4688,26.9219 L60.4688,29.6406 Z "/><text fill="#000000" font-family="sans-serif" font-size="12" lengthAdjust="spacingAndGlyphs" textLength="96" x="71.5" y="28.1543">MonoBehaviour</text><line style="stroke: #A80036; stroke-width: 1.5;" x1="43.5" x2="169.5" y1="40" y2="40"/><line style="stroke: #A80036; stroke-width: 1.5;" x1="43.5" x2="169.5" y1="48" y2="48"/><!--MD5=[4ade8ba20da7f563a8d4b6ba53bb9e71]
reverse link MonoBehaviour to HostServer--><path d="M106.5,76.43 C106.5,89.33 106.5,103.32 106.5,115.71 " fill="none" id="MonoBehaviour&lt;-HostServer" style="stroke: #A80036; stroke-width: 1.0;"/><polygon fill="none" points="99.5,76.23,106.5,56.23,113.5,76.23,99.5,76.23" style="stroke: #A80036; stroke-width: 1.0;"/><!--MD5=[285ec38367052d1fc490c82b0450897d]
@startuml
class HostServer {
    + OnHostButton() : void
    + SetHostLocal(value:bool) : void
}
MonoBehaviour <|- - HostServer
@enduml

PlantUML version 1.2020.02(Sun Mar 01 10:22:07 GMT 2020)
(GPL source distribution)
Java Runtime: OpenJDK Runtime Environment
JVM: OpenJDK 64-Bit Server VM
Java Version: 11.0.9+11-Ubuntu-0ubuntu1
Operating System: Linux
Default Encoding: ANSI_X3.4-1968
Language: en
Country: US
--></g></svg>