<?xml version="1.0" encoding="UTF-8" standalone="no"?><svg xmlns="http://www.w3.org/2000/svg" xmlns:xlink="http://www.w3.org/1999/xlink" contentScriptType="application/ecmascript" contentStyleType="text/css" height="200px" preserveAspectRatio="none" style="width:275px;height:200px;" version="1.1" viewBox="0 0 275 200" width="275px" zoomAndPan="magnify"><defs><filter height="300%" id="f9f9i2jh2t98a" width="300%" x="-1" y="-1"><feGaussianBlur result="blurOut" stdDeviation="2.0"/><feColorMatrix in="blurOut" result="blurOut2" type="matrix" values="0 0 0 0 0 0 0 0 0 0 0 0 0 0 0 0 0 0 .4 0"/><feOffset dx="4.0" dy="4.0" in="blurOut2" result="blurOut3"/><feBlend in="SourceGraphic" in2="blurOut3" mode="normal"/></filter></defs><g><!--MD5=[a06251e6df3260ccddf7934878e4e5a6]
class InteractionButton--><rect fill="#FEFECE" filter="url(#f9f9i2jh2t98a)" height="73.6094" id="InteractionButton" style="stroke: #A80036; stroke-width: 1.5;" width="258" x="6" y="116"/><ellipse cx="75.75" cy="132" fill="#ADD1B2" rx="11" ry="11" style="stroke: #A80036; stroke-width: 1.0;"/><path d="M78.7188,137.6406 Q78.1406,137.9375 77.5,138.0781 Q76.8594,138.2344 76.1563,138.2344 Q73.6563,138.2344 72.3281,136.5938 Q71.0156,134.9375 71.0156,131.8125 Q71.0156,128.6875 72.3281,127.0313 Q73.6563,125.375 76.1563,125.375 Q76.8594,125.375 77.5,125.5313 Q78.1563,125.6875 78.7188,125.9844 L78.7188,128.7031 Q78.0938,128.125 77.5,127.8594 Q76.9063,127.5781 76.2813,127.5781 Q74.9375,127.5781 74.25,128.6563 Q73.5625,129.7188 73.5625,131.8125 Q73.5625,133.9063 74.25,134.9844 Q74.9375,136.0469 76.2813,136.0469 Q76.9063,136.0469 77.5,135.7813 Q78.0938,135.5 78.7188,134.9219 L78.7188,137.6406 Z "/><text fill="#000000" font-family="sans-serif" font-size="12" lengthAdjust="spacingAndGlyphs" textLength="110" x="96.25" y="136.1543">InteractionButton</text><line style="stroke: #A80036; stroke-width: 1.5;" x1="7" x2="263" y1="148" y2="148"/><line style="stroke: #A80036; stroke-width: 1.5;" x1="7" x2="263" y1="156" y2="156"/><ellipse cx="17" cy="167" fill="#84BE84" rx="3" ry="3" style="stroke: #038048; stroke-width: 1.0;"/><text fill="#000000" font-family="sans-serif" font-size="11" lengthAdjust="spacingAndGlyphs" textLength="218" x="26" y="170.2104">SubScribeAction(callback:Action) : void</text><ellipse cx="17" cy="179.8047" fill="#84BE84" rx="3" ry="3" style="stroke: #038048; stroke-width: 1.0;"/><text fill="#000000" font-family="sans-serif" font-size="11" lengthAdjust="spacingAndGlyphs" textLength="232" x="26" y="183.0151">UnsubScribeAction(callback:Action) : void</text><!--MD5=[83b3cf3d23d77c6f1e1b5291a241bc2a]
class MonoBehaviour--><rect fill="#FEFECE" filter="url(#f9f9i2jh2t98a)" height="48" id="MonoBehaviour" style="stroke: #A80036; stroke-width: 1.5;" width="128" x="71" y="8"/><ellipse cx="86" cy="24" fill="#ADD1B2" rx="11" ry="11" style="stroke: #A80036; stroke-width: 1.0;"/><path d="M88.9688,29.6406 Q88.3906,29.9375 87.75,30.0781 Q87.1094,30.2344 86.4063,30.2344 Q83.9063,30.2344 82.5781,28.5938 Q81.2656,26.9375 81.2656,23.8125 Q81.2656,20.6875 82.5781,19.0313 Q83.9063,17.375 86.4063,17.375 Q87.1094,17.375 87.75,17.5313 Q88.4063,17.6875 88.9688,17.9844 L88.9688,20.7031 Q88.3438,20.125 87.75,19.8594 Q87.1563,19.5781 86.5313,19.5781 Q85.1875,19.5781 84.5,20.6563 Q83.8125,21.7188 83.8125,23.8125 Q83.8125,25.9063 84.5,26.9844 Q85.1875,28.0469 86.5313,28.0469 Q87.1563,28.0469 87.75,27.7813 Q88.3438,27.5 88.9688,26.9219 L88.9688,29.6406 Z "/><text fill="#000000" font-family="sans-serif" font-size="12" lengthAdjust="spacingAndGlyphs" textLength="96" x="100" y="28.1543">MonoBehaviour</text><line style="stroke: #A80036; stroke-width: 1.5;" x1="72" x2="198" y1="40" y2="40"/><line style="stroke: #A80036; stroke-width: 1.5;" x1="72" x2="198" y1="48" y2="48"/><!--MD5=[4fd05943be5c07e057e05e2ee7c7e885]
reverse link MonoBehaviour to InteractionButton--><path d="M135,76.43 C135,89.33 135,103.32 135,115.71 " fill="none" id="MonoBehaviour&lt;-InteractionButton" style="stroke: #A80036; stroke-width: 1.0;"/><polygon fill="none" points="128,76.23,135,56.23,142,76.23,128,76.23" style="stroke: #A80036; stroke-width: 1.0;"/><!--MD5=[8fd96d7f71d4375a3cab3d629083d283]
@startuml
class InteractionButton {
    + SubScribeAction(callback:Action) : void
    + UnsubScribeAction(callback:Action) : void
}
MonoBehaviour <|- - InteractionButton
@enduml

PlantUML version 1.2020.02(Sun Mar 01 10:22:07 GMT 2020)
(GPL source distribution)
Java Runtime: OpenJDK Runtime Environment
JVM: OpenJDK 64-Bit Server VM
Java Version: 11.0.9+11-Ubuntu-0ubuntu1
Operating System: Linux
Default Encoding: ANSI_X3.4-1968
Language: en
Country: US
--></g></svg>