<?xml version="1.0" encoding="UTF-8" standalone="no"?><svg xmlns="http://www.w3.org/2000/svg" xmlns:xlink="http://www.w3.org/1999/xlink" contentScriptType="application/ecmascript" contentStyleType="text/css" height="309px" preserveAspectRatio="none" style="width:214px;height:309px;" version="1.1" viewBox="0 0 214 309" width="214px" zoomAndPan="magnify"><defs><filter height="300%" id="fi53sljjnfvs9" width="300%" x="-1" y="-1"><feGaussianBlur result="blurOut" stdDeviation="2.0"/><feColorMatrix in="blurOut" result="blurOut2" type="matrix" values="0 0 0 0 0 0 0 0 0 0 0 0 0 0 0 0 0 0 .4 0"/><feOffset dx="4.0" dy="4.0" in="blurOut2" result="blurOut3"/><feBlend in="SourceGraphic" in2="blurOut3" mode="normal"/></filter></defs><g><!--MD5=[bea5b0d46523efab5ea1c1d339f396f0]
class Message--><rect fill="#FEFECE" filter="url(#fi53sljjnfvs9)" height="73.6094" id="Message" style="stroke: #A80036; stroke-width: 1.5;" width="185" x="18.5" y="116"/><ellipse cx="78.75" cy="132" fill="#ADD1B2" rx="11" ry="11" style="stroke: #A80036; stroke-width: 1.0;"/><path d="M81.7188,137.6406 Q81.1406,137.9375 80.5,138.0781 Q79.8594,138.2344 79.1563,138.2344 Q76.6563,138.2344 75.3281,136.5938 Q74.0156,134.9375 74.0156,131.8125 Q74.0156,128.6875 75.3281,127.0313 Q76.6563,125.375 79.1563,125.375 Q79.8594,125.375 80.5,125.5313 Q81.1563,125.6875 81.7188,125.9844 L81.7188,128.7031 Q81.0938,128.125 80.5,127.8594 Q79.9063,127.5781 79.2813,127.5781 Q77.9375,127.5781 77.25,128.6563 Q76.5625,129.7188 76.5625,131.8125 Q76.5625,133.9063 77.25,134.9844 Q77.9375,136.0469 79.2813,136.0469 Q79.9063,136.0469 80.5,135.7813 Q81.0938,135.5 81.7188,134.9219 L81.7188,137.6406 Z "/><text fill="#000000" font-family="sans-serif" font-size="12" lengthAdjust="spacingAndGlyphs" textLength="56" x="99.25" y="136.1543">Message</text><line style="stroke: #A80036; stroke-width: 1.5;" x1="19.5" x2="202.5" y1="148" y2="148"/><line style="stroke: #A80036; stroke-width: 1.5;" x1="19.5" x2="202.5" y1="156" y2="156"/><ellipse cx="29.5" cy="167" fill="#84BE84" rx="3" ry="3" style="stroke: #038048; stroke-width: 1.0;"/><text fill="#000000" font-family="sans-serif" font-size="11" lengthAdjust="spacingAndGlyphs" textLength="95" x="38.5" y="170.2104">SetActive() : void</text><ellipse cx="29.5" cy="179.8047" fill="#84BE84" rx="3" ry="3" style="stroke: #038048; stroke-width: 1.0;"/><text fill="#000000" font-family="sans-serif" font-size="11" lengthAdjust="spacingAndGlyphs" textLength="159" x="38.5" y="183.0151">SetInactive(time:float) : void</text><!--MD5=[83b3cf3d23d77c6f1e1b5291a241bc2a]
class MonoBehaviour--><rect fill="#FEFECE" filter="url(#fi53sljjnfvs9)" height="48" id="MonoBehaviour" style="stroke: #A80036; stroke-width: 1.5;" width="128" x="47" y="8"/><ellipse cx="62" cy="24" fill="#ADD1B2" rx="11" ry="11" style="stroke: #A80036; stroke-width: 1.0;"/><path d="M64.9688,29.6406 Q64.3906,29.9375 63.75,30.0781 Q63.1094,30.2344 62.4063,30.2344 Q59.9063,30.2344 58.5781,28.5938 Q57.2656,26.9375 57.2656,23.8125 Q57.2656,20.6875 58.5781,19.0313 Q59.9063,17.375 62.4063,17.375 Q63.1094,17.375 63.75,17.5313 Q64.4063,17.6875 64.9688,17.9844 L64.9688,20.7031 Q64.3438,20.125 63.75,19.8594 Q63.1563,19.5781 62.5313,19.5781 Q61.1875,19.5781 60.5,20.6563 Q59.8125,21.7188 59.8125,23.8125 Q59.8125,25.9063 60.5,26.9844 Q61.1875,28.0469 62.5313,28.0469 Q63.1563,28.0469 63.75,27.7813 Q64.3438,27.5 64.9688,26.9219 L64.9688,29.6406 Z "/><text fill="#000000" font-family="sans-serif" font-size="12" lengthAdjust="spacingAndGlyphs" textLength="96" x="76" y="28.1543">MonoBehaviour</text><line style="stroke: #A80036; stroke-width: 1.5;" x1="48" x2="174" y1="40" y2="40"/><line style="stroke: #A80036; stroke-width: 1.5;" x1="48" x2="174" y1="48" y2="48"/><!--MD5=[281c999374e61fd3a46e672fb26d53ea]
class RectTransform--><rect fill="#FEFECE" filter="url(#fi53sljjnfvs9)" height="48" id="RectTransform" style="stroke: #A80036; stroke-width: 1.5;" width="123" x="49.5" y="250"/><ellipse cx="64.5" cy="266" fill="#ADD1B2" rx="11" ry="11" style="stroke: #A80036; stroke-width: 1.0;"/><path d="M67.4688,271.6406 Q66.8906,271.9375 66.25,272.0781 Q65.6094,272.2344 64.9063,272.2344 Q62.4063,272.2344 61.0781,270.5938 Q59.7656,268.9375 59.7656,265.8125 Q59.7656,262.6875 61.0781,261.0313 Q62.4063,259.375 64.9063,259.375 Q65.6094,259.375 66.25,259.5313 Q66.9063,259.6875 67.4688,259.9844 L67.4688,262.7031 Q66.8438,262.125 66.25,261.8594 Q65.6563,261.5781 65.0313,261.5781 Q63.6875,261.5781 63,262.6563 Q62.3125,263.7188 62.3125,265.8125 Q62.3125,267.9063 63,268.9844 Q63.6875,270.0469 65.0313,270.0469 Q65.6563,270.0469 66.25,269.7813 Q66.8438,269.5 67.4688,268.9219 L67.4688,271.6406 Z "/><text fill="#000000" font-family="sans-serif" font-size="12" lengthAdjust="spacingAndGlyphs" textLength="91" x="78.5" y="270.1543">RectTransform</text><line style="stroke: #A80036; stroke-width: 1.5;" x1="50.5" x2="171.5" y1="282" y2="282"/><line style="stroke: #A80036; stroke-width: 1.5;" x1="50.5" x2="171.5" y1="290" y2="290"/><!--MD5=[d3f698d85eaec04b1c3dd64c3865d6e3]
reverse link MonoBehaviour to Message--><path d="M111,76.43 C111,89.33 111,103.32 111,115.71 " fill="none" id="MonoBehaviour&lt;-Message" style="stroke: #A80036; stroke-width: 1.0;"/><polygon fill="none" points="104,76.23,111,56.23,118,76.23,104,76.23" style="stroke: #A80036; stroke-width: 1.0;"/><!--MD5=[b5f9fd0f7534acd8399539b101e29d73]
link Message to RectTransform--><path d="M111,190.03 C111,207.48 111,228.15 111,244.49 " fill="none" id="Message-&gt;RectTransform" style="stroke: #A80036; stroke-width: 1.0;"/><polygon fill="#A80036" points="111,249.85,115,240.85,111,244.85,107,240.85,111,249.85" style="stroke: #A80036; stroke-width: 1.0;"/><text fill="#000000" font-family="sans-serif" font-size="13" lengthAdjust="spacingAndGlyphs" textLength="90" x="9.4688" y="238.8236">rectTransform</text><!--MD5=[d45b00fe4c521a8c1c69383b408f4df1]
@startuml
class Message {
    + SetActive() : void
    + SetInactive(time:float) : void
}
MonoBehaviour <|- - Message
Message - -> "rectTransform" RectTransform
@enduml

PlantUML version 1.2020.02(Sun Mar 01 10:22:07 GMT 2020)
(GPL source distribution)
Java Runtime: OpenJDK Runtime Environment
JVM: OpenJDK 64-Bit Server VM
Java Version: 11.0.9+11-Ubuntu-0ubuntu1
Operating System: Linux
Default Encoding: ANSI_X3.4-1968
Language: en
Country: US
--></g></svg>