<?xml version="1.0" encoding="UTF-8" standalone="no"?><svg xmlns="http://www.w3.org/2000/svg" xmlns:xlink="http://www.w3.org/1999/xlink" contentScriptType="application/ecmascript" contentStyleType="text/css" height="239px" preserveAspectRatio="none" style="width:369px;height:239px;" version="1.1" viewBox="0 0 369 239" width="369px" zoomAndPan="magnify"><defs><filter height="300%" id="f1unavr0ur079n" width="300%" x="-1" y="-1"><feGaussianBlur result="blurOut" stdDeviation="2.0"/><feColorMatrix in="blurOut" result="blurOut2" type="matrix" values="0 0 0 0 0 0 0 0 0 0 0 0 0 0 0 0 0 0 .4 0"/><feOffset dx="4.0" dy="4.0" in="blurOut2" result="blurOut3"/><feBlend in="SourceGraphic" in2="blurOut3" mode="normal"/></filter></defs><g><!--MD5=[b8e0dd943e6328752fad6f507d5a54bb]
class PauseMenu--><rect fill="#FEFECE" filter="url(#f1unavr0ur079n)" height="112.0234" id="PauseMenu" style="stroke: #A80036; stroke-width: 1.5;" width="289" x="6" y="116"/><ellipse cx="109.75" cy="132" fill="#ADD1B2" rx="11" ry="11" style="stroke: #A80036; stroke-width: 1.0;"/><path d="M112.7188,137.6406 Q112.1406,137.9375 111.5,138.0781 Q110.8594,138.2344 110.1563,138.2344 Q107.6563,138.2344 106.3281,136.5938 Q105.0156,134.9375 105.0156,131.8125 Q105.0156,128.6875 106.3281,127.0313 Q107.6563,125.375 110.1563,125.375 Q110.8594,125.375 111.5,125.5313 Q112.1563,125.6875 112.7188,125.9844 L112.7188,128.7031 Q112.0938,128.125 111.5,127.8594 Q110.9063,127.5781 110.2813,127.5781 Q108.9375,127.5781 108.25,128.6563 Q107.5625,129.7188 107.5625,131.8125 Q107.5625,133.9063 108.25,134.9844 Q108.9375,136.0469 110.2813,136.0469 Q110.9063,136.0469 111.5,135.7813 Q112.0938,135.5 112.7188,134.9219 L112.7188,137.6406 Z "/><text fill="#000000" font-family="sans-serif" font-size="12" lengthAdjust="spacingAndGlyphs" textLength="73" x="130.25" y="136.1543">PauseMenu</text><line style="stroke: #A80036; stroke-width: 1.5;" x1="7" x2="294" y1="148" y2="148"/><line style="stroke: #A80036; stroke-width: 1.5;" x1="7" x2="294" y1="156" y2="156"/><ellipse cx="17" cy="167" fill="#84BE84" rx="3" ry="3" style="stroke: #038048; stroke-width: 1.0;"/><text fill="#000000" font-family="sans-serif" font-size="11" lengthAdjust="spacingAndGlyphs" textLength="232" x="26" y="170.2104">OnSliderValueChanged(value:float) : void</text><ellipse cx="17" cy="179.8047" fill="#84BE84" rx="3" ry="3" style="stroke: #038048; stroke-width: 1.0;"/><text fill="#000000" font-family="sans-serif" font-size="11" lengthAdjust="spacingAndGlyphs" textLength="231" x="26" y="183.0151">OnDirectValueChanged(text:string) : void</text><ellipse cx="17" cy="192.6094" fill="#84BE84" rx="3" ry="3" style="stroke: #038048; stroke-width: 1.0;"/><text fill="#000000" font-family="sans-serif" font-size="11" lengthAdjust="spacingAndGlyphs" textLength="234" x="26" y="195.8198">SubscribeToButton(callback:Action) : void</text><ellipse cx="17" cy="205.4141" fill="#84BE84" rx="3" ry="3" style="stroke: #038048; stroke-width: 1.0;"/><text fill="#000000" font-family="sans-serif" font-size="11" lengthAdjust="spacingAndGlyphs" textLength="263" x="26" y="208.6245">UnsubscribeFromButton(callback:Action) : void</text><ellipse cx="17" cy="218.2188" fill="#84BE84" rx="3" ry="3" style="stroke: #038048; stroke-width: 1.0;"/><text fill="#000000" font-family="sans-serif" font-size="11" lengthAdjust="spacingAndGlyphs" textLength="199" x="26" y="221.4292">OnClickDisconnect(scene:int) : void</text><!--MD5=[83b3cf3d23d77c6f1e1b5291a241bc2a]
class MonoBehaviour--><rect fill="#FEFECE" filter="url(#f1unavr0ur079n)" height="48" id="MonoBehaviour" style="stroke: #A80036; stroke-width: 1.5;" width="128" x="86.5" y="8"/><ellipse cx="101.5" cy="24" fill="#ADD1B2" rx="11" ry="11" style="stroke: #A80036; stroke-width: 1.0;"/><path d="M104.4688,29.6406 Q103.8906,29.9375 103.25,30.0781 Q102.6094,30.2344 101.9063,30.2344 Q99.4063,30.2344 98.0781,28.5938 Q96.7656,26.9375 96.7656,23.8125 Q96.7656,20.6875 98.0781,19.0313 Q99.4063,17.375 101.9063,17.375 Q102.6094,17.375 103.25,17.5313 Q103.9063,17.6875 104.4688,17.9844 L104.4688,20.7031 Q103.8438,20.125 103.25,19.8594 Q102.6563,19.5781 102.0313,19.5781 Q100.6875,19.5781 100,20.6563 Q99.3125,21.7188 99.3125,23.8125 Q99.3125,25.9063 100,26.9844 Q100.6875,28.0469 102.0313,28.0469 Q102.6563,28.0469 103.25,27.7813 Q103.8438,27.5 104.4688,26.9219 L104.4688,29.6406 Z "/><text fill="#000000" font-family="sans-serif" font-size="12" lengthAdjust="spacingAndGlyphs" textLength="96" x="115.5" y="28.1543">MonoBehaviour</text><line style="stroke: #A80036; stroke-width: 1.5;" x1="87.5" x2="213.5" y1="40" y2="40"/><line style="stroke: #A80036; stroke-width: 1.5;" x1="87.5" x2="213.5" y1="48" y2="48"/><!--MD5=[1dd486839fce8030eb6bdb0b04f9738e]
reverse link MonoBehaviour to PauseMenu--><path d="M150.5,76.25 C150.5,88.82 150.5,102.73 150.5,115.93 " fill="none" id="MonoBehaviour&lt;-PauseMenu" style="stroke: #A80036; stroke-width: 1.0;"/><polygon fill="none" points="143.5,76.1,150.5,56.1,157.5,76.1,143.5,76.1" style="stroke: #A80036; stroke-width: 1.0;"/><!--MD5=[c9383a6c9a9550067f7382ed184c7029]
link PauseMenu to PauseMenu--><path d="M295.23,148.38 C316.02,152.16 330,160.04 330,172 C330,182.93 318.32,190.45 300.43,194.56 " fill="none" id="PauseMenu-&gt;PauseMenu" style="stroke: #A80036; stroke-width: 1.0;"/><polygon fill="#A80036" points="295.23,195.62,304.854,197.7127,300.1262,194.6065,303.2324,189.8787,295.23,195.62" style="stroke: #A80036; stroke-width: 1.0;"/><text fill="#000000" font-family="sans-serif" font-size="13" lengthAdjust="spacingAndGlyphs" textLength="54" x="303.0115" y="193.4198">instance</text><!--MD5=[4d43a652d3fa640466ca4f3b4c096615]
@startuml
class PauseMenu {
    + OnSliderValueChanged(value:float) : void
    + OnDirectValueChanged(text:string) : void
    + SubscribeToButton(callback:Action) : void
    + UnsubscribeFromButton(callback:Action) : void
    + OnClickDisconnect(scene:int) : void
}
MonoBehaviour <|- - PauseMenu
PauseMenu - -> "instance" PauseMenu
@enduml

PlantUML version 1.2020.02(Sun Mar 01 10:22:07 GMT 2020)
(GPL source distribution)
Java Runtime: OpenJDK Runtime Environment
JVM: OpenJDK 64-Bit Server VM
Java Version: 11.0.9+11-Ubuntu-0ubuntu1
Operating System: Linux
Default Encoding: ANSI_X3.4-1968
Language: en
Country: US
--></g></svg>