<?xml version="1.0" encoding="UTF-8" standalone="no"?><svg xmlns="http://www.w3.org/2000/svg" xmlns:xlink="http://www.w3.org/1999/xlink" contentScriptType="application/ecmascript" contentStyleType="text/css" height="187px" preserveAspectRatio="none" style="width:396px;height:187px;" version="1.1" viewBox="0 0 396 187" width="396px" zoomAndPan="magnify"><defs><filter height="300%" id="foam2kvisb8oh" width="300%" x="-1" y="-1"><feGaussianBlur result="blurOut" stdDeviation="2.0"/><feColorMatrix in="blurOut" result="blurOut2" type="matrix" values="0 0 0 0 0 0 0 0 0 0 0 0 0 0 0 0 0 0 .4 0"/><feOffset dx="4.0" dy="4.0" in="blurOut2" result="blurOut3"/><feBlend in="SourceGraphic" in2="blurOut3" mode="normal"/></filter></defs><g><!--MD5=[4b1176c4a6545ca21321a8e9ac616242]
class PlayerRotator--><rect fill="#FEFECE" filter="url(#foam2kvisb8oh)" height="60.8047" id="PlayerRotator" style="stroke: #A80036; stroke-width: 1.5;" width="379" x="6" y="116"/><ellipse cx="148.75" cy="132" fill="#ADD1B2" rx="11" ry="11" style="stroke: #A80036; stroke-width: 1.0;"/><path d="M151.7188,137.6406 Q151.1406,137.9375 150.5,138.0781 Q149.8594,138.2344 149.1563,138.2344 Q146.6563,138.2344 145.3281,136.5938 Q144.0156,134.9375 144.0156,131.8125 Q144.0156,128.6875 145.3281,127.0313 Q146.6563,125.375 149.1563,125.375 Q149.8594,125.375 150.5,125.5313 Q151.1563,125.6875 151.7188,125.9844 L151.7188,128.7031 Q151.0938,128.125 150.5,127.8594 Q149.9063,127.5781 149.2813,127.5781 Q147.9375,127.5781 147.25,128.6563 Q146.5625,129.7188 146.5625,131.8125 Q146.5625,133.9063 147.25,134.9844 Q147.9375,136.0469 149.2813,136.0469 Q149.9063,136.0469 150.5,135.7813 Q151.0938,135.5 151.7188,134.9219 L151.7188,137.6406 Z "/><text fill="#000000" font-family="sans-serif" font-size="12" lengthAdjust="spacingAndGlyphs" textLength="85" x="169.25" y="136.1543">PlayerRotator</text><line style="stroke: #A80036; stroke-width: 1.5;" x1="7" x2="384" y1="148" y2="148"/><line style="stroke: #A80036; stroke-width: 1.5;" x1="7" x2="384" y1="156" y2="156"/><ellipse cx="17" cy="167" fill="#84BE84" rx="3" ry="3" style="stroke: #038048; stroke-width: 1.0;"/><text fill="#000000" font-family="sans-serif" font-size="11" lengthAdjust="spacingAndGlyphs" textLength="353" x="26" y="170.2104">RotatePlayer(playerId:int, xDir:float, yDir:float, zDir:float) : void</text><!--MD5=[83b3cf3d23d77c6f1e1b5291a241bc2a]
class MonoBehaviour--><rect fill="#FEFECE" filter="url(#foam2kvisb8oh)" height="48" id="MonoBehaviour" style="stroke: #A80036; stroke-width: 1.5;" width="128" x="131.5" y="8"/><ellipse cx="146.5" cy="24" fill="#ADD1B2" rx="11" ry="11" style="stroke: #A80036; stroke-width: 1.0;"/><path d="M149.4688,29.6406 Q148.8906,29.9375 148.25,30.0781 Q147.6094,30.2344 146.9063,30.2344 Q144.4063,30.2344 143.0781,28.5938 Q141.7656,26.9375 141.7656,23.8125 Q141.7656,20.6875 143.0781,19.0313 Q144.4063,17.375 146.9063,17.375 Q147.6094,17.375 148.25,17.5313 Q148.9063,17.6875 149.4688,17.9844 L149.4688,20.7031 Q148.8438,20.125 148.25,19.8594 Q147.6563,19.5781 147.0313,19.5781 Q145.6875,19.5781 145,20.6563 Q144.3125,21.7188 144.3125,23.8125 Q144.3125,25.9063 145,26.9844 Q145.6875,28.0469 147.0313,28.0469 Q147.6563,28.0469 148.25,27.7813 Q148.8438,27.5 149.4688,26.9219 L149.4688,29.6406 Z "/><text fill="#000000" font-family="sans-serif" font-size="12" lengthAdjust="spacingAndGlyphs" textLength="96" x="160.5" y="28.1543">MonoBehaviour</text><line style="stroke: #A80036; stroke-width: 1.5;" x1="132.5" x2="258.5" y1="40" y2="40"/><line style="stroke: #A80036; stroke-width: 1.5;" x1="132.5" x2="258.5" y1="48" y2="48"/><!--MD5=[ef2bb17b46aaeb76298fbe79c96b54e5]
reverse link MonoBehaviour to PlayerRotator--><path d="M195.5,76.11 C195.5,89.31 195.5,103.54 195.5,115.65 " fill="none" id="MonoBehaviour&lt;-PlayerRotator" style="stroke: #A80036; stroke-width: 1.0;"/><polygon fill="none" points="188.5,76.04,195.5,56.04,202.5,76.04,188.5,76.04" style="stroke: #A80036; stroke-width: 1.0;"/><!--MD5=[4854ccd4bb36a09ef6b1579e3fffebad]
@startuml
class PlayerRotator {
    + RotatePlayer(playerId:int, xDir:float, yDir:float, zDir:float) : void
}
MonoBehaviour <|- - PlayerRotator
@enduml

PlantUML version 1.2020.02(Sun Mar 01 10:22:07 GMT 2020)
(GPL source distribution)
Java Runtime: OpenJDK Runtime Environment
JVM: OpenJDK 64-Bit Server VM
Java Version: 11.0.9+11-Ubuntu-0ubuntu1
Operating System: Linux
Default Encoding: ANSI_X3.4-1968
Language: en
Country: US
--></g></svg>