<?xml version="1.0" encoding="UTF-8" standalone="no"?><svg xmlns="http://www.w3.org/2000/svg" xmlns:xlink="http://www.w3.org/1999/xlink" contentScriptType="application/ecmascript" contentStyleType="text/css" height="213px" preserveAspectRatio="none" style="width:517px;height:213px;" version="1.1" viewBox="0 0 517 213" width="517px" zoomAndPan="magnify"><defs><filter height="300%" id="f1bbx0q9ljujn1" width="300%" x="-1" y="-1"><feGaussianBlur result="blurOut" stdDeviation="2.0"/><feColorMatrix in="blurOut" result="blurOut2" type="matrix" values="0 0 0 0 0 0 0 0 0 0 0 0 0 0 0 0 0 0 .4 0"/><feOffset dx="4.0" dy="4.0" in="blurOut2" result="blurOut3"/><feBlend in="SourceGraphic" in2="blurOut3" mode="normal"/></filter></defs><g><!--MD5=[1d857e7a4e62ccc0f22e5de141732628]
class PlayerSpawner--><rect fill="#FEFECE" filter="url(#f1bbx0q9ljujn1)" height="86.4141" id="PlayerSpawner" style="stroke: #A80036; stroke-width: 1.5;" width="500" x="6" y="116"/><ellipse cx="205.75" cy="132" fill="#ADD1B2" rx="11" ry="11" style="stroke: #A80036; stroke-width: 1.0;"/><path d="M208.7188,137.6406 Q208.1406,137.9375 207.5,138.0781 Q206.8594,138.2344 206.1563,138.2344 Q203.6563,138.2344 202.3281,136.5938 Q201.0156,134.9375 201.0156,131.8125 Q201.0156,128.6875 202.3281,127.0313 Q203.6563,125.375 206.1563,125.375 Q206.8594,125.375 207.5,125.5313 Q208.1563,125.6875 208.7188,125.9844 L208.7188,128.7031 Q208.0938,128.125 207.5,127.8594 Q206.9063,127.5781 206.2813,127.5781 Q204.9375,127.5781 204.25,128.6563 Q203.5625,129.7188 203.5625,131.8125 Q203.5625,133.9063 204.25,134.9844 Q204.9375,136.0469 206.2813,136.0469 Q206.9063,136.0469 207.5,135.7813 Q208.0938,135.5 208.7188,134.9219 L208.7188,137.6406 Z "/><text fill="#000000" font-family="sans-serif" font-size="12" lengthAdjust="spacingAndGlyphs" textLength="92" x="226.25" y="136.1543">PlayerSpawner</text><line style="stroke: #A80036; stroke-width: 1.5;" x1="7" x2="505" y1="148" y2="148"/><line style="stroke: #A80036; stroke-width: 1.5;" x1="7" x2="505" y1="156" y2="156"/><ellipse cx="17" cy="167" fill="#84BE84" rx="3" ry="3" style="stroke: #038048; stroke-width: 1.0;"/><text fill="#000000" font-family="sans-serif" font-size="11" lengthAdjust="spacingAndGlyphs" textLength="474" x="26" y="170.2104">SpawnRemotePlayer(playerId:int, playerName:string, spawnLocation:Vector3) : void</text><ellipse cx="17" cy="179.8047" fill="#84BE84" rx="3" ry="3" style="stroke: #038048; stroke-width: 1.0;"/><text fill="#000000" font-family="sans-serif" font-size="11" lengthAdjust="spacingAndGlyphs" textLength="460" x="26" y="183.0151">SpawnLocalPlayer(playerId:int, playerName:string, spawnLocation:Vector3) : void</text><ellipse cx="17" cy="192.6094" fill="#84BE84" rx="3" ry="3" style="stroke: #038048; stroke-width: 1.0;"/><text fill="#000000" font-family="sans-serif" font-size="11" lengthAdjust="spacingAndGlyphs" textLength="193" x="26" y="195.8198">DespawnPlayer(playerId:int) : void</text><!--MD5=[83b3cf3d23d77c6f1e1b5291a241bc2a]
class MonoBehaviour--><rect fill="#FEFECE" filter="url(#f1bbx0q9ljujn1)" height="48" id="MonoBehaviour" style="stroke: #A80036; stroke-width: 1.5;" width="128" x="192" y="8"/><ellipse cx="207" cy="24" fill="#ADD1B2" rx="11" ry="11" style="stroke: #A80036; stroke-width: 1.0;"/><path d="M209.9688,29.6406 Q209.3906,29.9375 208.75,30.0781 Q208.1094,30.2344 207.4063,30.2344 Q204.9063,30.2344 203.5781,28.5938 Q202.2656,26.9375 202.2656,23.8125 Q202.2656,20.6875 203.5781,19.0313 Q204.9063,17.375 207.4063,17.375 Q208.1094,17.375 208.75,17.5313 Q209.4063,17.6875 209.9688,17.9844 L209.9688,20.7031 Q209.3438,20.125 208.75,19.8594 Q208.1563,19.5781 207.5313,19.5781 Q206.1875,19.5781 205.5,20.6563 Q204.8125,21.7188 204.8125,23.8125 Q204.8125,25.9063 205.5,26.9844 Q206.1875,28.0469 207.5313,28.0469 Q208.1563,28.0469 208.75,27.7813 Q209.3438,27.5 209.9688,26.9219 L209.9688,29.6406 Z "/><text fill="#000000" font-family="sans-serif" font-size="12" lengthAdjust="spacingAndGlyphs" textLength="96" x="221" y="28.1543">MonoBehaviour</text><line style="stroke: #A80036; stroke-width: 1.5;" x1="193" x2="319" y1="40" y2="40"/><line style="stroke: #A80036; stroke-width: 1.5;" x1="193" x2="319" y1="48" y2="48"/><!--MD5=[a8a4f5f1432c882d0cba996e27a75401]
reverse link MonoBehaviour to PlayerSpawner--><path d="M256,76.27 C256,89.12 256,103.17 256,115.94 " fill="none" id="MonoBehaviour&lt;-PlayerSpawner" style="stroke: #A80036; stroke-width: 1.0;"/><polygon fill="none" points="249,76.22,256,56.22,263,76.22,249,76.22" style="stroke: #A80036; stroke-width: 1.0;"/><!--MD5=[e441d261660da199feaf8d157cf09f18]
@startuml
class PlayerSpawner {
    + SpawnRemotePlayer(playerId:int, playerName:string, spawnLocation:Vector3) : void
    + SpawnLocalPlayer(playerId:int, playerName:string, spawnLocation:Vector3) : void
    + DespawnPlayer(playerId:int) : void
}
MonoBehaviour <|- - PlayerSpawner
@enduml

PlantUML version 1.2020.02(Sun Mar 01 10:22:07 GMT 2020)
(GPL source distribution)
Java Runtime: OpenJDK Runtime Environment
JVM: OpenJDK 64-Bit Server VM
Java Version: 11.0.9+11-Ubuntu-0ubuntu1
Operating System: Linux
Default Encoding: ANSI_X3.4-1968
Language: en
Country: US
--></g></svg>