<?xml version="1.0" encoding="UTF-8" standalone="no"?><svg xmlns="http://www.w3.org/2000/svg" xmlns:xlink="http://www.w3.org/1999/xlink" contentScriptType="application/ecmascript" contentStyleType="text/css" height="187px" preserveAspectRatio="none" style="width:435px;height:187px;" version="1.1" viewBox="0 0 435 187" width="435px" zoomAndPan="magnify"><defs><filter height="300%" id="f1ts0vn06ypcnz" width="300%" x="-1" y="-1"><feGaussianBlur result="blurOut" stdDeviation="2.0"/><feColorMatrix in="blurOut" result="blurOut2" type="matrix" values="0 0 0 0 0 0 0 0 0 0 0 0 0 0 0 0 0 0 .4 0"/><feOffset dx="4.0" dy="4.0" in="blurOut2" result="blurOut3"/><feBlend in="SourceGraphic" in2="blurOut3" mode="normal"/></filter></defs><g><!--MD5=[484fa03849433639522eb66c50a60cc0]
class PlayerTransformer--><rect fill="#FEFECE" filter="url(#f1ts0vn06ypcnz)" height="60.8047" id="PlayerTransformer" style="stroke: #A80036; stroke-width: 1.5;" width="418" x="6" y="116"/><ellipse cx="153.75" cy="132" fill="#ADD1B2" rx="11" ry="11" style="stroke: #A80036; stroke-width: 1.0;"/><path d="M156.7188,137.6406 Q156.1406,137.9375 155.5,138.0781 Q154.8594,138.2344 154.1563,138.2344 Q151.6563,138.2344 150.3281,136.5938 Q149.0156,134.9375 149.0156,131.8125 Q149.0156,128.6875 150.3281,127.0313 Q151.6563,125.375 154.1563,125.375 Q154.8594,125.375 155.5,125.5313 Q156.1563,125.6875 156.7188,125.9844 L156.7188,128.7031 Q156.0938,128.125 155.5,127.8594 Q154.9063,127.5781 154.2813,127.5781 Q152.9375,127.5781 152.25,128.6563 Q151.5625,129.7188 151.5625,131.8125 Q151.5625,133.9063 152.25,134.9844 Q152.9375,136.0469 154.2813,136.0469 Q154.9063,136.0469 155.5,135.7813 Q156.0938,135.5 156.7188,134.9219 L156.7188,137.6406 Z "/><text fill="#000000" font-family="sans-serif" font-size="12" lengthAdjust="spacingAndGlyphs" textLength="114" x="174.25" y="136.1543">PlayerTransformer</text><line style="stroke: #A80036; stroke-width: 1.5;" x1="7" x2="423" y1="148" y2="148"/><line style="stroke: #A80036; stroke-width: 1.5;" x1="7" x2="423" y1="156" y2="156"/><ellipse cx="17" cy="167" fill="#84BE84" rx="3" ry="3" style="stroke: #038048; stroke-width: 1.0;"/><text fill="#000000" font-family="sans-serif" font-size="11" lengthAdjust="spacingAndGlyphs" textLength="392" x="26" y="170.2104">TransformPlayer(playerId:int, xPos:float, yPos:float, zPos:float) : void</text><!--MD5=[83b3cf3d23d77c6f1e1b5291a241bc2a]
class MonoBehaviour--><rect fill="#FEFECE" filter="url(#f1ts0vn06ypcnz)" height="48" id="MonoBehaviour" style="stroke: #A80036; stroke-width: 1.5;" width="128" x="151" y="8"/><ellipse cx="166" cy="24" fill="#ADD1B2" rx="11" ry="11" style="stroke: #A80036; stroke-width: 1.0;"/><path d="M168.9688,29.6406 Q168.3906,29.9375 167.75,30.0781 Q167.1094,30.2344 166.4063,30.2344 Q163.9063,30.2344 162.5781,28.5938 Q161.2656,26.9375 161.2656,23.8125 Q161.2656,20.6875 162.5781,19.0313 Q163.9063,17.375 166.4063,17.375 Q167.1094,17.375 167.75,17.5313 Q168.4063,17.6875 168.9688,17.9844 L168.9688,20.7031 Q168.3438,20.125 167.75,19.8594 Q167.1563,19.5781 166.5313,19.5781 Q165.1875,19.5781 164.5,20.6563 Q163.8125,21.7188 163.8125,23.8125 Q163.8125,25.9063 164.5,26.9844 Q165.1875,28.0469 166.5313,28.0469 Q167.1563,28.0469 167.75,27.7813 Q168.3438,27.5 168.9688,26.9219 L168.9688,29.6406 Z "/><text fill="#000000" font-family="sans-serif" font-size="12" lengthAdjust="spacingAndGlyphs" textLength="96" x="180" y="28.1543">MonoBehaviour</text><line style="stroke: #A80036; stroke-width: 1.5;" x1="152" x2="278" y1="40" y2="40"/><line style="stroke: #A80036; stroke-width: 1.5;" x1="152" x2="278" y1="48" y2="48"/><!--MD5=[8004fc68328a1d2b0fec75821db25795]
reverse link MonoBehaviour to PlayerTransformer--><path d="M215,76.11 C215,89.31 215,103.54 215,115.65 " fill="none" id="MonoBehaviour&lt;-PlayerTransformer" style="stroke: #A80036; stroke-width: 1.0;"/><polygon fill="none" points="208,76.04,215,56.04,222,76.04,208,76.04" style="stroke: #A80036; stroke-width: 1.0;"/><!--MD5=[ee122914a34b44373bbd70530f9ebd52]
@startuml
class PlayerTransformer {
    + TransformPlayer(playerId:int, xPos:float, yPos:float, zPos:float) : void
}
MonoBehaviour <|- - PlayerTransformer
@enduml

PlantUML version 1.2020.02(Sun Mar 01 10:22:07 GMT 2020)
(GPL source distribution)
Java Runtime: OpenJDK Runtime Environment
JVM: OpenJDK 64-Bit Server VM
Java Version: 11.0.9+11-Ubuntu-0ubuntu1
Operating System: Linux
Default Encoding: ANSI_X3.4-1968
Language: en
Country: US
--></g></svg>