<?xml version="1.0" encoding="UTF-8" standalone="no"?><svg xmlns="http://www.w3.org/2000/svg" xmlns:xlink="http://www.w3.org/1999/xlink" contentScriptType="application/ecmascript" contentStyleType="text/css" height="187px" preserveAspectRatio="none" style="width:344px;height:187px;" version="1.1" viewBox="0 0 344 187" width="344px" zoomAndPan="magnify"><defs><filter height="300%" id="fjwzk9jrmzlzt" width="300%" x="-1" y="-1"><feGaussianBlur result="blurOut" stdDeviation="2.0"/><feColorMatrix in="blurOut" result="blurOut2" type="matrix" values="0 0 0 0 0 0 0 0 0 0 0 0 0 0 0 0 0 0 .4 0"/><feOffset dx="4.0" dy="4.0" in="blurOut2" result="blurOut3"/><feBlend in="SourceGraphic" in2="blurOut3" mode="normal"/></filter></defs><g><!--MD5=[68cc21d85b0c6cb2b051e6273fad0574]
class PlayerTeleporter--><rect fill="#FEFECE" filter="url(#fjwzk9jrmzlzt)" height="60.8047" id="PlayerTeleporter" style="stroke: #A80036; stroke-width: 1.5;" width="327" x="6" y="116"/><ellipse cx="113.75" cy="132" fill="#ADD1B2" rx="11" ry="11" style="stroke: #A80036; stroke-width: 1.0;"/><path d="M116.7188,137.6406 Q116.1406,137.9375 115.5,138.0781 Q114.8594,138.2344 114.1563,138.2344 Q111.6563,138.2344 110.3281,136.5938 Q109.0156,134.9375 109.0156,131.8125 Q109.0156,128.6875 110.3281,127.0313 Q111.6563,125.375 114.1563,125.375 Q114.8594,125.375 115.5,125.5313 Q116.1563,125.6875 116.7188,125.9844 L116.7188,128.7031 Q116.0938,128.125 115.5,127.8594 Q114.9063,127.5781 114.2813,127.5781 Q112.9375,127.5781 112.25,128.6563 Q111.5625,129.7188 111.5625,131.8125 Q111.5625,133.9063 112.25,134.9844 Q112.9375,136.0469 114.2813,136.0469 Q114.9063,136.0469 115.5,135.7813 Q116.0938,135.5 116.7188,134.9219 L116.7188,137.6406 Z "/><text fill="#000000" font-family="sans-serif" font-size="12" lengthAdjust="spacingAndGlyphs" textLength="103" x="134.25" y="136.1543">PlayerTeleporter</text><line style="stroke: #A80036; stroke-width: 1.5;" x1="7" x2="332" y1="148" y2="148"/><line style="stroke: #A80036; stroke-width: 1.5;" x1="7" x2="332" y1="156" y2="156"/><ellipse cx="17" cy="167" fill="#84BE84" rx="3" ry="3" style="stroke: #038048; stroke-width: 1.0;"/><text fill="#000000" font-family="sans-serif" font-size="11" lengthAdjust="spacingAndGlyphs" textLength="301" x="26" y="170.2104">TeleportplayerTo(playerId:int, location:Vector3) : void</text><!--MD5=[83b3cf3d23d77c6f1e1b5291a241bc2a]
class MonoBehaviour--><rect fill="#FEFECE" filter="url(#fjwzk9jrmzlzt)" height="48" id="MonoBehaviour" style="stroke: #A80036; stroke-width: 1.5;" width="128" x="105.5" y="8"/><ellipse cx="120.5" cy="24" fill="#ADD1B2" rx="11" ry="11" style="stroke: #A80036; stroke-width: 1.0;"/><path d="M123.4688,29.6406 Q122.8906,29.9375 122.25,30.0781 Q121.6094,30.2344 120.9063,30.2344 Q118.4063,30.2344 117.0781,28.5938 Q115.7656,26.9375 115.7656,23.8125 Q115.7656,20.6875 117.0781,19.0313 Q118.4063,17.375 120.9063,17.375 Q121.6094,17.375 122.25,17.5313 Q122.9063,17.6875 123.4688,17.9844 L123.4688,20.7031 Q122.8438,20.125 122.25,19.8594 Q121.6563,19.5781 121.0313,19.5781 Q119.6875,19.5781 119,20.6563 Q118.3125,21.7188 118.3125,23.8125 Q118.3125,25.9063 119,26.9844 Q119.6875,28.0469 121.0313,28.0469 Q121.6563,28.0469 122.25,27.7813 Q122.8438,27.5 123.4688,26.9219 L123.4688,29.6406 Z "/><text fill="#000000" font-family="sans-serif" font-size="12" lengthAdjust="spacingAndGlyphs" textLength="96" x="134.5" y="28.1543">MonoBehaviour</text><line style="stroke: #A80036; stroke-width: 1.5;" x1="106.5" x2="232.5" y1="40" y2="40"/><line style="stroke: #A80036; stroke-width: 1.5;" x1="106.5" x2="232.5" y1="48" y2="48"/><!--MD5=[17b5e8b48875cb09e2472e6b3942c40b]
reverse link MonoBehaviour to PlayerTeleporter--><path d="M169.5,76.11 C169.5,89.31 169.5,103.54 169.5,115.65 " fill="none" id="MonoBehaviour&lt;-PlayerTeleporter" style="stroke: #A80036; stroke-width: 1.0;"/><polygon fill="none" points="162.5,76.04,169.5,56.04,176.5,76.04,162.5,76.04" style="stroke: #A80036; stroke-width: 1.0;"/><!--MD5=[a0edf12cf76e5c6d8198216010582aa3]
@startuml
class PlayerTeleporter {
    + TeleportplayerTo(playerId:int, location:Vector3) : void
}
MonoBehaviour <|- - PlayerTeleporter
@enduml

PlantUML version 1.2020.02(Sun Mar 01 10:22:07 GMT 2020)
(GPL source distribution)
Java Runtime: OpenJDK Runtime Environment
JVM: OpenJDK 64-Bit Server VM
Java Version: 11.0.9+11-Ubuntu-0ubuntu1
Operating System: Linux
Default Encoding: ANSI_X3.4-1968
Language: en
Country: US
--></g></svg>