<?xml version="1.0" encoding="UTF-8" standalone="no"?><svg xmlns="http://www.w3.org/2000/svg" xmlns:xlink="http://www.w3.org/1999/xlink" contentScriptType="application/ecmascript" contentStyleType="text/css" height="187px" preserveAspectRatio="none" style="width:213px;height:187px;" version="1.1" viewBox="0 0 213 187" width="213px" zoomAndPan="magnify"><defs><filter height="300%" id="f1fkrzc5skk71v" width="300%" x="-1" y="-1"><feGaussianBlur result="blurOut" stdDeviation="2.0"/><feColorMatrix in="blurOut" result="blurOut2" type="matrix" values="0 0 0 0 0 0 0 0 0 0 0 0 0 0 0 0 0 0 .4 0"/><feOffset dx="4.0" dy="4.0" in="blurOut2" result="blurOut3"/><feBlend in="SourceGraphic" in2="blurOut3" mode="normal"/></filter></defs><g><!--MD5=[f43500ccf21bf5980d7be20029a78957]
class SceneBehaviour--><rect fill="#FEFECE" filter="url(#f1fkrzc5skk71v)" height="60.8047" id="SceneBehaviour" style="stroke: #A80036; stroke-width: 1.5;" width="196" x="6" y="116"/><ellipse cx="49.35" cy="132" fill="#ADD1B2" rx="11" ry="11" style="stroke: #A80036; stroke-width: 1.0;"/><path d="M52.3188,137.6406 Q51.7406,137.9375 51.1,138.0781 Q50.4594,138.2344 49.7563,138.2344 Q47.2563,138.2344 45.9281,136.5938 Q44.6156,134.9375 44.6156,131.8125 Q44.6156,128.6875 45.9281,127.0313 Q47.2563,125.375 49.7563,125.375 Q50.4594,125.375 51.1,125.5313 Q51.7563,125.6875 52.3188,125.9844 L52.3188,128.7031 Q51.6938,128.125 51.1,127.8594 Q50.5063,127.5781 49.8813,127.5781 Q48.5375,127.5781 47.85,128.6563 Q47.1625,129.7188 47.1625,131.8125 Q47.1625,133.9063 47.85,134.9844 Q48.5375,136.0469 49.8813,136.0469 Q50.5063,136.0469 51.1,135.7813 Q51.6938,135.5 52.3188,134.9219 L52.3188,137.6406 Z "/><text fill="#000000" font-family="sans-serif" font-size="12" lengthAdjust="spacingAndGlyphs" textLength="101" x="69.65" y="136.1543">SceneBehaviour</text><line style="stroke: #A80036; stroke-width: 1.5;" x1="7" x2="201" y1="148" y2="148"/><line style="stroke: #A80036; stroke-width: 1.5;" x1="7" x2="201" y1="156" y2="156"/><ellipse cx="17" cy="167" fill="#84BE84" rx="3" ry="3" style="stroke: #038048; stroke-width: 1.0;"/><text fill="#000000" font-family="sans-serif" font-size="11" lengthAdjust="spacingAndGlyphs" textLength="170" x="26" y="170.2104">GoToScene(sceneId:int) : void</text><!--MD5=[83b3cf3d23d77c6f1e1b5291a241bc2a]
class MonoBehaviour--><rect fill="#FEFECE" filter="url(#f1fkrzc5skk71v)" height="48" id="MonoBehaviour" style="stroke: #A80036; stroke-width: 1.5;" width="128" x="40" y="8"/><ellipse cx="55" cy="24" fill="#ADD1B2" rx="11" ry="11" style="stroke: #A80036; stroke-width: 1.0;"/><path d="M57.9688,29.6406 Q57.3906,29.9375 56.75,30.0781 Q56.1094,30.2344 55.4063,30.2344 Q52.9063,30.2344 51.5781,28.5938 Q50.2656,26.9375 50.2656,23.8125 Q50.2656,20.6875 51.5781,19.0313 Q52.9063,17.375 55.4063,17.375 Q56.1094,17.375 56.75,17.5313 Q57.4063,17.6875 57.9688,17.9844 L57.9688,20.7031 Q57.3438,20.125 56.75,19.8594 Q56.1563,19.5781 55.5313,19.5781 Q54.1875,19.5781 53.5,20.6563 Q52.8125,21.7188 52.8125,23.8125 Q52.8125,25.9063 53.5,26.9844 Q54.1875,28.0469 55.5313,28.0469 Q56.1563,28.0469 56.75,27.7813 Q57.3438,27.5 57.9688,26.9219 L57.9688,29.6406 Z "/><text fill="#000000" font-family="sans-serif" font-size="12" lengthAdjust="spacingAndGlyphs" textLength="96" x="69" y="28.1543">MonoBehaviour</text><line style="stroke: #A80036; stroke-width: 1.5;" x1="41" x2="167" y1="40" y2="40"/><line style="stroke: #A80036; stroke-width: 1.5;" x1="41" x2="167" y1="48" y2="48"/><!--MD5=[34ca1a206a406f5c0ef81f245862bfc3]
reverse link MonoBehaviour to SceneBehaviour--><path d="M104,76.11 C104,89.31 104,103.54 104,115.65 " fill="none" id="MonoBehaviour&lt;-SceneBehaviour" style="stroke: #A80036; stroke-width: 1.0;"/><polygon fill="none" points="97,76.04,104,56.04,111,76.04,97,76.04" style="stroke: #A80036; stroke-width: 1.0;"/><!--MD5=[722204e989280a7568b01f20b10cc6b6]
@startuml
class SceneBehaviour {
    + GoToScene(sceneId:int) : void
}
MonoBehaviour <|- - SceneBehaviour
@enduml

PlantUML version 1.2020.02(Sun Mar 01 10:22:07 GMT 2020)
(GPL source distribution)
Java Runtime: OpenJDK Runtime Environment
JVM: OpenJDK 64-Bit Server VM
Java Version: 11.0.9+11-Ubuntu-0ubuntu1
Operating System: Linux
Default Encoding: ANSI_X3.4-1968
Language: en
Country: US
--></g></svg>