<?xml version="1.0" encoding="UTF-8" standalone="no"?><svg xmlns="http://www.w3.org/2000/svg" xmlns:xlink="http://www.w3.org/1999/xlink" contentScriptType="application/ecmascript" contentStyleType="text/css" height="187px" preserveAspectRatio="none" style="width:231px;height:187px;" version="1.1" viewBox="0 0 231 187" width="231px" zoomAndPan="magnify"><defs><filter height="300%" id="f1o46v8uva3xt5" width="300%" x="-1" y="-1"><feGaussianBlur result="blurOut" stdDeviation="2.0"/><feColorMatrix in="blurOut" result="blurOut2" type="matrix" values="0 0 0 0 0 0 0 0 0 0 0 0 0 0 0 0 0 0 .4 0"/><feOffset dx="4.0" dy="4.0" in="blurOut2" result="blurOut3"/><feBlend in="SourceGraphic" in2="blurOut3" mode="normal"/></filter></defs><g><!--MD5=[0e2f9f34f19bc10ab4d8d1067e1fa90a]
class ServerList--><rect fill="#FEFECE" filter="url(#f1o46v8uva3xt5)" height="60.8047" id="ServerList" style="stroke: #A80036; stroke-width: 1.5;" width="214" x="6" y="116"/><ellipse cx="78.25" cy="132" fill="#ADD1B2" rx="11" ry="11" style="stroke: #A80036; stroke-width: 1.0;"/><path d="M81.2188,137.6406 Q80.6406,137.9375 80,138.0781 Q79.3594,138.2344 78.6563,138.2344 Q76.1563,138.2344 74.8281,136.5938 Q73.5156,134.9375 73.5156,131.8125 Q73.5156,128.6875 74.8281,127.0313 Q76.1563,125.375 78.6563,125.375 Q79.3594,125.375 80,125.5313 Q80.6563,125.6875 81.2188,125.9844 L81.2188,128.7031 Q80.5938,128.125 80,127.8594 Q79.4063,127.5781 78.7813,127.5781 Q77.4375,127.5781 76.75,128.6563 Q76.0625,129.7188 76.0625,131.8125 Q76.0625,133.9063 76.75,134.9844 Q77.4375,136.0469 78.7813,136.0469 Q79.4063,136.0469 80,135.7813 Q80.5938,135.5 81.2188,134.9219 L81.2188,137.6406 Z "/><text fill="#000000" font-family="sans-serif" font-size="12" lengthAdjust="spacingAndGlyphs" textLength="61" x="98.75" y="136.1543">ServerList</text><line style="stroke: #A80036; stroke-width: 1.5;" x1="7" x2="219" y1="148" y2="148"/><line style="stroke: #A80036; stroke-width: 1.5;" x1="7" x2="219" y1="156" y2="156"/><ellipse cx="17" cy="167" fill="#84BE84" rx="3" ry="3" style="stroke: #038048; stroke-width: 1.0;"/><text fill="#000000" font-family="sans-serif" font-size="11" lengthAdjust="spacingAndGlyphs" textLength="188" x="26" y="170.2104">UpdateServerList() : IEnumerator</text><!--MD5=[83b3cf3d23d77c6f1e1b5291a241bc2a]
class MonoBehaviour--><rect fill="#FEFECE" filter="url(#f1o46v8uva3xt5)" height="48" id="MonoBehaviour" style="stroke: #A80036; stroke-width: 1.5;" width="128" x="49" y="8"/><ellipse cx="64" cy="24" fill="#ADD1B2" rx="11" ry="11" style="stroke: #A80036; stroke-width: 1.0;"/><path d="M66.9688,29.6406 Q66.3906,29.9375 65.75,30.0781 Q65.1094,30.2344 64.4063,30.2344 Q61.9063,30.2344 60.5781,28.5938 Q59.2656,26.9375 59.2656,23.8125 Q59.2656,20.6875 60.5781,19.0313 Q61.9063,17.375 64.4063,17.375 Q65.1094,17.375 65.75,17.5313 Q66.4063,17.6875 66.9688,17.9844 L66.9688,20.7031 Q66.3438,20.125 65.75,19.8594 Q65.1563,19.5781 64.5313,19.5781 Q63.1875,19.5781 62.5,20.6563 Q61.8125,21.7188 61.8125,23.8125 Q61.8125,25.9063 62.5,26.9844 Q63.1875,28.0469 64.5313,28.0469 Q65.1563,28.0469 65.75,27.7813 Q66.3438,27.5 66.9688,26.9219 L66.9688,29.6406 Z "/><text fill="#000000" font-family="sans-serif" font-size="12" lengthAdjust="spacingAndGlyphs" textLength="96" x="78" y="28.1543">MonoBehaviour</text><line style="stroke: #A80036; stroke-width: 1.5;" x1="50" x2="176" y1="40" y2="40"/><line style="stroke: #A80036; stroke-width: 1.5;" x1="50" x2="176" y1="48" y2="48"/><!--MD5=[6a789d2cf272a4ab1e99e3a4c01b2a65]
reverse link MonoBehaviour to ServerList--><path d="M113,76.11 C113,89.31 113,103.54 113,115.65 " fill="none" id="MonoBehaviour&lt;-ServerList" style="stroke: #A80036; stroke-width: 1.0;"/><polygon fill="none" points="106,76.04,113,56.04,120,76.04,106,76.04" style="stroke: #A80036; stroke-width: 1.0;"/><!--MD5=[5770cb3f4259fb0af9a87035d9719ba3]
@startuml
class ServerList {
    + UpdateServerList() : IEnumerator
}
MonoBehaviour <|- - ServerList
@enduml

PlantUML version 1.2020.02(Sun Mar 01 10:22:07 GMT 2020)
(GPL source distribution)
Java Runtime: OpenJDK Runtime Environment
JVM: OpenJDK 64-Bit Server VM
Java Version: 11.0.9+11-Ubuntu-0ubuntu1
Operating System: Linux
Default Encoding: ANSI_X3.4-1968
Language: en
Country: US
--></g></svg>