<?xml version="1.0" encoding="UTF-8" standalone="no"?><svg xmlns="http://www.w3.org/2000/svg" xmlns:xlink="http://www.w3.org/1999/xlink" contentScriptType="application/ecmascript" contentStyleType="text/css" height="372px" preserveAspectRatio="none" style="width:870px;height:372px;" version="1.1" viewBox="0 0 870 372" width="870px" zoomAndPan="magnify"><defs><filter height="300%" id="fhowxbs7pqhyq" width="300%" x="-1" y="-1"><feGaussianBlur result="blurOut" stdDeviation="2.0"/><feColorMatrix in="blurOut" result="blurOut2" type="matrix" values="0 0 0 0 0 0 0 0 0 0 0 0 0 0 0 0 0 0 .4 0"/><feOffset dx="4.0" dy="4.0" in="blurOut2" result="blurOut3"/><feBlend in="SourceGraphic" in2="blurOut3" mode="normal"/></filter></defs><g><!--MD5=[2cbba58f1697e8af640b7a269f8de7b8]
class SessionVariables--><rect fill="#FEFECE" filter="url(#fhowxbs7pqhyq)" height="99.2188" id="SessionVariables" style="stroke: #A80036; stroke-width: 1.5;" width="165" x="91.24" y="154"/><ellipse cx="117.94" cy="170" fill="#ADD1B2" rx="11" ry="11" style="stroke: #A80036; stroke-width: 1.0;"/><path d="M120.9088,175.6406 Q120.3306,175.9375 119.69,176.0781 Q119.0494,176.2344 118.3463,176.2344 Q115.8463,176.2344 114.5181,174.5938 Q113.2056,172.9375 113.2056,169.8125 Q113.2056,166.6875 114.5181,165.0313 Q115.8463,163.375 118.3463,163.375 Q119.0494,163.375 119.69,163.5313 Q120.3463,163.6875 120.9088,163.9844 L120.9088,166.7031 Q120.2838,166.125 119.69,165.8594 Q119.0963,165.5781 118.4713,165.5781 Q117.1275,165.5781 116.44,166.6563 Q115.7525,167.7188 115.7525,169.8125 Q115.7525,171.9063 116.44,172.9844 Q117.1275,174.0469 118.4713,174.0469 Q119.0963,174.0469 119.69,173.7813 Q120.2838,173.5 120.9088,172.9219 L120.9088,175.6406 Z "/><text fill="#000000" font-family="sans-serif" font-size="12" lengthAdjust="spacingAndGlyphs" textLength="107" x="134.54" y="174.1543">SessionVariables</text><line style="stroke: #A80036; stroke-width: 1.5;" x1="92.24" x2="255.24" y1="186" y2="186"/><ellipse cx="102.24" cy="197" fill="none" rx="3" ry="3" style="stroke: #038048; stroke-width: 1.0;"/><text fill="#000000" font-family="sans-serif" font-size="11" lengthAdjust="spacingAndGlyphs" textLength="139" x="111.24" y="200.2104">connected : bool = false</text><ellipse cx="102.24" cy="209.8047" fill="none" rx="3" ry="3" style="stroke: #038048; stroke-width: 1.0;"/><text fill="#000000" font-family="sans-serif" font-size="11" lengthAdjust="spacingAndGlyphs" textLength="73" x="111.24" y="213.0151">serverId : int</text><ellipse cx="102.24" cy="222.6094" fill="none" rx="3" ry="3" style="stroke: #038048; stroke-width: 1.0;"/><text fill="#000000" font-family="sans-serif" font-size="11" lengthAdjust="spacingAndGlyphs" textLength="88" x="111.24" y="225.8198">myPlayerId : int</text><ellipse cx="102.24" cy="235.4141" fill="none" rx="3" ry="3" style="stroke: #038048; stroke-width: 1.0;"/><text fill="#000000" font-family="sans-serif" font-size="11" lengthAdjust="spacingAndGlyphs" textLength="130" x="111.24" y="238.6245">myPlayerName : string</text><line style="stroke: #A80036; stroke-width: 1.5;" x1="92.24" x2="255.24" y1="245.2188" y2="245.2188"/><!--MD5=[2cb47ba637a0d19583e6199456f6ad0b]
class Player--><rect fill="#FEFECE" filter="url(#fhowxbs7pqhyq)" height="86.4141" id="Player" style="stroke: #A80036; stroke-width: 1.5;" width="245" x="552.24" y="8"/><ellipse cx="651.49" cy="24" fill="#ADD1B2" rx="11" ry="11" style="stroke: #A80036; stroke-width: 1.0;"/><path d="M654.4588,29.6406 Q653.8806,29.9375 653.24,30.0781 Q652.5994,30.2344 651.8963,30.2344 Q649.3963,30.2344 648.0681,28.5938 Q646.7556,26.9375 646.7556,23.8125 Q646.7556,20.6875 648.0681,19.0313 Q649.3963,17.375 651.8963,17.375 Q652.5994,17.375 653.24,17.5313 Q653.8963,17.6875 654.4588,17.9844 L654.4588,20.7031 Q653.8338,20.125 653.24,19.8594 Q652.6463,19.5781 652.0213,19.5781 Q650.6775,19.5781 649.99,20.6563 Q649.3025,21.7188 649.3025,23.8125 Q649.3025,25.9063 649.99,26.9844 Q650.6775,28.0469 652.0213,28.0469 Q652.6463,28.0469 653.24,27.7813 Q653.8338,27.5 654.4588,26.9219 L654.4588,29.6406 Z "/><text fill="#000000" font-family="sans-serif" font-size="12" lengthAdjust="spacingAndGlyphs" textLength="38" x="671.99" y="28.1543">Player</text><line style="stroke: #A80036; stroke-width: 1.5;" x1="553.24" x2="796.24" y1="40" y2="40"/><ellipse cx="563.24" cy="51" fill="none" rx="3" ry="3" style="stroke: #038048; stroke-width: 1.0;"/><text fill="#000000" font-family="sans-serif" font-size="11" lengthAdjust="spacingAndGlyphs" textLength="71" x="572.24" y="54.2104">playerId : int</text><ellipse cx="563.24" cy="63.8047" fill="none" rx="3" ry="3" style="stroke: #038048; stroke-width: 1.0;"/><text fill="#000000" font-family="sans-serif" font-size="11" lengthAdjust="spacingAndGlyphs" textLength="113" x="572.24" y="67.0151">playerName : string</text><line style="stroke: #A80036; stroke-width: 1.5;" x1="553.24" x2="796.24" y1="73.6094" y2="73.6094"/><ellipse cx="563.24" cy="84.6094" fill="#84BE84" rx="3" ry="3" style="stroke: #038048; stroke-width: 1.0;"/><text fill="#000000" font-family="sans-serif" font-size="11" lengthAdjust="spacingAndGlyphs" textLength="219" x="572.24" y="87.8198">Player(playerId:int, playerName:string)</text><!--MD5=[2e1ff885372daab8d802f213ced6c836]
class Dictionary`2--><rect fill="#FEFECE" filter="url(#fhowxbs7pqhyq)" height="48" id="Dictionary`2" style="stroke: #A80036; stroke-width: 1.5;" width="146" x="309.74" y="179.5"/><ellipse cx="324.74" cy="195.5" fill="#ADD1B2" rx="11" ry="11" style="stroke: #A80036; stroke-width: 1.0;"/><path d="M327.7088,201.1406 Q327.1306,201.4375 326.49,201.5781 Q325.8494,201.7344 325.1463,201.7344 Q322.6463,201.7344 321.3181,200.0938 Q320.0056,198.4375 320.0056,195.3125 Q320.0056,192.1875 321.3181,190.5313 Q322.6463,188.875 325.1463,188.875 Q325.8494,188.875 326.49,189.0313 Q327.1463,189.1875 327.7088,189.4844 L327.7088,192.2031 Q327.0838,191.625 326.49,191.3594 Q325.8963,191.0781 325.2713,191.0781 Q323.9275,191.0781 323.24,192.1563 Q322.5525,193.2188 322.5525,195.3125 Q322.5525,197.4063 323.24,198.4844 Q323.9275,199.5469 325.2713,199.5469 Q325.8963,199.5469 326.49,199.2813 Q327.0838,199 327.7088,198.4219 L327.7088,201.1406 Z "/><text fill="#000000" font-family="sans-serif" font-size="12" lengthAdjust="spacingAndGlyphs" textLength="76" x="338.74" y="199.6543">Dictionary`2</text><rect fill="#FFFFFF" height="15.9688" style="stroke: #000000; stroke-width: 1.0; stroke-dasharray: 2.0,2.0;" width="36" x="422.74" y="176.5"/><text fill="#000000" font-family="sans-serif" font-size="12" font-style="italic" lengthAdjust="spacingAndGlyphs" textLength="34" x="423.74" y="188.6387">T1,T2</text><line style="stroke: #A80036; stroke-width: 1.5;" x1="310.74" x2="454.74" y1="211.5" y2="211.5"/><line style="stroke: #A80036; stroke-width: 1.5;" x1="310.74" x2="454.74" y1="219.5" y2="219.5"/><!--MD5=[83b3cf3d23d77c6f1e1b5291a241bc2a]
class MonoBehaviour--><rect fill="#FEFECE" filter="url(#fhowxbs7pqhyq)" height="48" id="MonoBehaviour" style="stroke: #A80036; stroke-width: 1.5;" width="128" x="109.74" y="27"/><ellipse cx="124.74" cy="43" fill="#ADD1B2" rx="11" ry="11" style="stroke: #A80036; stroke-width: 1.0;"/><path d="M127.7088,48.6406 Q127.1306,48.9375 126.49,49.0781 Q125.8494,49.2344 125.1463,49.2344 Q122.6463,49.2344 121.3181,47.5938 Q120.0056,45.9375 120.0056,42.8125 Q120.0056,39.6875 121.3181,38.0313 Q122.6463,36.375 125.1463,36.375 Q125.8494,36.375 126.49,36.5313 Q127.1463,36.6875 127.7088,36.9844 L127.7088,39.7031 Q127.0838,39.125 126.49,38.8594 Q125.8963,38.5781 125.2713,38.5781 Q123.9275,38.5781 123.24,39.6563 Q122.5525,40.7188 122.5525,42.8125 Q122.5525,44.9063 123.24,45.9844 Q123.9275,47.0469 125.2713,47.0469 Q125.8963,47.0469 126.49,46.7813 Q127.0838,46.5 127.7088,45.9219 L127.7088,48.6406 Z "/><text fill="#000000" font-family="sans-serif" font-size="12" lengthAdjust="spacingAndGlyphs" textLength="96" x="138.74" y="47.1543">MonoBehaviour</text><line style="stroke: #A80036; stroke-width: 1.5;" x1="110.74" x2="236.74" y1="59" y2="59"/><line style="stroke: #A80036; stroke-width: 1.5;" x1="110.74" x2="236.74" y1="67" y2="67"/><!--MD5=[0a7dac4942faf7b47aa23cf6f8b442ac]
class GameClient--><rect fill="#FEFECE" filter="url(#fhowxbs7pqhyq)" height="48" id="GameClient" style="stroke: #A80036; stroke-width: 1.5;" width="103" x="52.24" y="313"/><ellipse cx="67.24" cy="329" fill="#ADD1B2" rx="11" ry="11" style="stroke: #A80036; stroke-width: 1.0;"/><path d="M70.2088,334.6406 Q69.6306,334.9375 68.99,335.0781 Q68.3494,335.2344 67.6463,335.2344 Q65.1463,335.2344 63.8181,333.5938 Q62.5056,331.9375 62.5056,328.8125 Q62.5056,325.6875 63.8181,324.0313 Q65.1463,322.375 67.6463,322.375 Q68.3494,322.375 68.99,322.5313 Q69.6463,322.6875 70.2088,322.9844 L70.2088,325.7031 Q69.5838,325.125 68.99,324.8594 Q68.3963,324.5781 67.7713,324.5781 Q66.4275,324.5781 65.74,325.6563 Q65.0525,326.7188 65.0525,328.8125 Q65.0525,330.9063 65.74,331.9844 Q66.4275,333.0469 67.7713,333.0469 Q68.3963,333.0469 68.99,332.7813 Q69.5838,332.5 70.2088,331.9219 L70.2088,334.6406 Z "/><text fill="#000000" font-family="sans-serif" font-size="12" lengthAdjust="spacingAndGlyphs" textLength="71" x="81.24" y="333.1543">GameClient</text><line style="stroke: #A80036; stroke-width: 1.5;" x1="53.24" x2="154.24" y1="345" y2="345"/><line style="stroke: #A80036; stroke-width: 1.5;" x1="53.24" x2="154.24" y1="353" y2="353"/><!--MD5=[9b062260d680ccf45bd4bb57fda64d79]
class GameServer--><rect fill="#FEFECE" filter="url(#fhowxbs7pqhyq)" height="48" id="GameServer" style="stroke: #A80036; stroke-width: 1.5;" width="108" x="190.74" y="313"/><ellipse cx="205.74" cy="329" fill="#ADD1B2" rx="11" ry="11" style="stroke: #A80036; stroke-width: 1.0;"/><path d="M208.7088,334.6406 Q208.1306,334.9375 207.49,335.0781 Q206.8494,335.2344 206.1463,335.2344 Q203.6463,335.2344 202.3181,333.5938 Q201.0056,331.9375 201.0056,328.8125 Q201.0056,325.6875 202.3181,324.0313 Q203.6463,322.375 206.1463,322.375 Q206.8494,322.375 207.49,322.5313 Q208.1463,322.6875 208.7088,322.9844 L208.7088,325.7031 Q208.0838,325.125 207.49,324.8594 Q206.8963,324.5781 206.2713,324.5781 Q204.9275,324.5781 204.24,325.6563 Q203.5525,326.7188 203.5525,328.8125 Q203.5525,330.9063 204.24,331.9844 Q204.9275,333.0469 206.2713,333.0469 Q206.8963,333.0469 207.49,332.7813 Q208.0838,332.5 208.7088,331.9219 L208.7088,334.6406 Z "/><text fill="#000000" font-family="sans-serif" font-size="12" lengthAdjust="spacingAndGlyphs" textLength="76" x="219.74" y="333.1543">GameServer</text><line style="stroke: #A80036; stroke-width: 1.5;" x1="191.74" x2="297.74" y1="345" y2="345"/><line style="stroke: #A80036; stroke-width: 1.5;" x1="191.74" x2="297.74" y1="353" y2="353"/><!--MD5=[064f7a74fee85463ec1a30143664ee17]
class GameObject--><rect fill="#FEFECE" filter="url(#fhowxbs7pqhyq)" height="48" id="GameObject" style="stroke: #A80036; stroke-width: 1.5;" width="108" x="490.74" y="179.5"/><ellipse cx="505.74" cy="195.5" fill="#ADD1B2" rx="11" ry="11" style="stroke: #A80036; stroke-width: 1.0;"/><path d="M508.7088,201.1406 Q508.1306,201.4375 507.49,201.5781 Q506.8494,201.7344 506.1463,201.7344 Q503.6463,201.7344 502.3181,200.0938 Q501.0056,198.4375 501.0056,195.3125 Q501.0056,192.1875 502.3181,190.5313 Q503.6463,188.875 506.1463,188.875 Q506.8494,188.875 507.49,189.0313 Q508.1463,189.1875 508.7088,189.4844 L508.7088,192.2031 Q508.0838,191.625 507.49,191.3594 Q506.8963,191.0781 506.2713,191.0781 Q504.9275,191.0781 504.24,192.1563 Q503.5525,193.2188 503.5525,195.3125 Q503.5525,197.4063 504.24,198.4844 Q504.9275,199.5469 506.2713,199.5469 Q506.8963,199.5469 507.49,199.2813 Q508.0838,199 508.7088,198.4219 L508.7088,201.1406 Z "/><text fill="#000000" font-family="sans-serif" font-size="12" lengthAdjust="spacingAndGlyphs" textLength="76" x="519.74" y="199.6543">GameObject</text><line style="stroke: #A80036; stroke-width: 1.5;" x1="491.74" x2="597.74" y1="211.5" y2="211.5"/><line style="stroke: #A80036; stroke-width: 1.5;" x1="491.74" x2="597.74" y1="219.5" y2="219.5"/><!--MD5=[65d619c042c23702cef2ca07d67b1cf6]
class Vector3--><rect fill="#FEFECE" filter="url(#fhowxbs7pqhyq)" height="48" id="Vector3" style="stroke: #A80036; stroke-width: 1.5;" width="81" x="634.24" y="179.5"/><ellipse cx="649.24" cy="195.5" fill="#ADD1B2" rx="11" ry="11" style="stroke: #A80036; stroke-width: 1.0;"/><path d="M652.2088,201.1406 Q651.6306,201.4375 650.99,201.5781 Q650.3494,201.7344 649.6463,201.7344 Q647.1463,201.7344 645.8181,200.0938 Q644.5056,198.4375 644.5056,195.3125 Q644.5056,192.1875 645.8181,190.5313 Q647.1463,188.875 649.6463,188.875 Q650.3494,188.875 650.99,189.0313 Q651.6463,189.1875 652.2088,189.4844 L652.2088,192.2031 Q651.5838,191.625 650.99,191.3594 Q650.3963,191.0781 649.7713,191.0781 Q648.4275,191.0781 647.74,192.1563 Q647.0525,193.2188 647.0525,195.3125 Q647.0525,197.4063 647.74,198.4844 Q648.4275,199.5469 649.7713,199.5469 Q650.3963,199.5469 650.99,199.2813 Q651.5838,199 652.2088,198.4219 L652.2088,201.1406 Z "/><text fill="#000000" font-family="sans-serif" font-size="12" lengthAdjust="spacingAndGlyphs" textLength="49" x="663.24" y="199.6543">Vector3</text><line style="stroke: #A80036; stroke-width: 1.5;" x1="635.24" x2="714.24" y1="211.5" y2="211.5"/><line style="stroke: #A80036; stroke-width: 1.5;" x1="635.24" x2="714.24" y1="219.5" y2="219.5"/><!--MD5=[feb6227fc76b0926ec1c003c99dd9264]
reverse link MonoBehaviour to SessionVariables--><path d="M173.74,95.23 C173.74,113.51 173.74,134.89 173.74,153.74 " fill="none" id="MonoBehaviour&lt;-SessionVariables" style="stroke: #A80036; stroke-width: 1.0;"/><polygon fill="none" points="166.74,95.19,173.74,75.19,180.74,95.19,166.74,95.19" style="stroke: #A80036; stroke-width: 1.0;"/><!--MD5=[16c264317c699daf5180f3388ae18c2f]
link SessionVariables to Dictionary`2--><path d="M268.61,203.5 C268.61,203.5 287.29,203.5 296.05,203.5 " fill="none" id="SessionVariables-Dictionary`2" style="stroke: #A80036; stroke-width: 1.0;"/><polygon fill="#A80036" points="309.33,203.5,300.33,199.5,304.33,203.5,300.33,207.5,309.33,203.5" style="stroke: #A80036; stroke-width: 1.0;"/><line style="stroke: #A80036; stroke-width: 1.0;" x1="304.33" x2="296.33" y1="203.5" y2="203.5"/><polygon fill="#FFFFFF" points="256.61,203.5,262.61,207.5,268.61,203.5,262.61,199.5,256.61,203.5" style="stroke: #A80036; stroke-width: 1.0;"/><text fill="#000000" font-family="sans-serif" font-size="13" lengthAdjust="spacingAndGlyphs" textLength="184" x="255.0862" y="168.4232">playerDictionary&lt;int,Player&gt;</text><!--MD5=[b58a4f87cecb876718480251ea701d46]
link SessionVariables to GameClient--><path d="M147.88,253.09 C138,271.66 127.07,292.18 118.56,308.17 " fill="none" id="SessionVariables-&gt;GameClient" style="stroke: #A80036; stroke-width: 1.0;"/><polygon fill="#A80036" points="116,312.98,123.7678,306.9251,118.3552,308.5694,116.7108,303.1568,116,312.98" style="stroke: #A80036; stroke-width: 1.0;"/><text fill="#000000" font-family="sans-serif" font-size="13" lengthAdjust="spacingAndGlyphs" textLength="95" x="11.9698" y="301.9869">myGameClient</text><!--MD5=[b88de4a3d7a16ccb0573e3607d20e6bd]
link SessionVariables to GameServer--><path d="M199.98,253.09 C210,271.66 221.09,292.18 229.72,308.17 " fill="none" id="SessionVariables-&gt;GameServer" style="stroke: #A80036; stroke-width: 1.0;"/><polygon fill="#A80036" points="232.31,312.98,231.5612,303.1596,229.9378,308.5786,224.5189,306.9552,232.31,312.98" style="stroke: #A80036; stroke-width: 1.0;"/><text fill="#000000" font-family="sans-serif" font-size="13" lengthAdjust="spacingAndGlyphs" textLength="40" x="183.9998" y="301.9869">server</text><!--MD5=[c7db84d5344664e5f898087c89dac0f4]
link SessionVariables to SessionVariables--><path d="M256.37,179.16 C276.38,181.01 291.24,189.13 291.24,203.5 C291.24,216.64 278.83,224.55 261.41,227.22 " fill="none" id="SessionVariables-&gt;SessionVariables" style="stroke: #A80036; stroke-width: 1.0;"/><polygon fill="#A80036" points="256.37,227.84,265.7926,230.7061,261.3323,227.2268,264.8115,222.7665,256.37,227.84" style="stroke: #A80036; stroke-width: 1.0;"/><text fill="#000000" font-family="sans-serif" font-size="13" lengthAdjust="spacingAndGlyphs" textLength="54" x="249.4698" y="247.584">instance</text><!--MD5=[9bc852ba268122706027acd503913ad0]
link Player to GameObject--><path d="M638.19,94.32 C615.75,120.29 587.69,152.78 568.2,175.34 " fill="none" id="Player-&gt;GameObject" style="stroke: #A80036; stroke-width: 1.0;"/><polygon fill="#A80036" points="564.91,179.16,573.8211,174.9657,568.1792,175.3768,567.7681,169.735,564.91,179.16" style="stroke: #A80036; stroke-width: 1.0;"/><text fill="#000000" font-family="sans-serif" font-size="13" lengthAdjust="spacingAndGlyphs" textLength="80" x="480.0764" y="168.4821">playerObject</text><!--MD5=[a2d3c1c6152a1fbe8517d79babd0746c]
link Player to Vector3--><path d="M650.87,94.32 C646.94,119.86 647.89,151.71 653.71,174.22 " fill="none" id="Player-&gt;Vector3" style="stroke: #A80036; stroke-width: 1.0;"/><polygon fill="#A80036" points="655.11,179.16,656.4913,169.4085,653.7402,174.3513,648.7973,171.6002,655.11,179.16" style="stroke: #A80036; stroke-width: 1.0;"/><text fill="#000000" font-family="sans-serif" font-size="13" lengthAdjust="spacingAndGlyphs" textLength="50" x="597.4606" y="168.4898">position</text><!--MD5=[a2d3c1c6152a1fbe8517d79babd0746c]
link Player to Vector3--><path d="M674.74,94.32 C674.74,119.76 674.74,151.44 674.74,173.93 " fill="none" id="Player-&gt;Vector3-1" style="stroke: #A80036; stroke-width: 1.0;"/><polygon fill="#A80036" points="674.74,179.16,678.74,170.16,674.74,174.16,670.74,170.16,674.74,179.16" style="stroke: #A80036; stroke-width: 1.0;"/><text fill="#000000" font-family="sans-serif" font-size="13" lengthAdjust="spacingAndGlyphs" textLength="164" x="694.7275" y="168.4821">smoothTransformVelocity</text><!--MD5=[a2d3c1c6152a1fbe8517d79babd0746c]
link Player to Vector3--><path d="M698.62,94.32 C702.55,119.86 701.6,151.71 695.78,174.22 " fill="none" id="Player-&gt;Vector3-2" style="stroke: #A80036; stroke-width: 1.0;"/><polygon fill="#A80036" points="694.38,179.16,700.6927,171.6002,695.7498,174.3513,692.9987,169.4085,694.38,179.16" style="stroke: #A80036; stroke-width: 1.0;"/><text fill="#000000" font-family="sans-serif" font-size="13" lengthAdjust="spacingAndGlyphs" textLength="100" x="723.1065" y="184.3078">gravityDirection</text><!--MD5=[74b5c3071b83d0eaf04c28e9635306e6]
@startuml
class SessionVariables {
    + connected : bool = false
    + serverId : int
    + myPlayerId : int
    + myPlayerName : string
}
class Player {
    + playerId : int
    + playerName : string
    + Player(playerId:int, playerName:string)
}
class "Dictionary`2"<T1,T2> {
}
MonoBehaviour <|- - SessionVariables
SessionVariables o-> "playerDictionary<int,Player>" "Dictionary`2"
SessionVariables - -> "myGameClient" GameClient
SessionVariables - -> "server" GameServer
SessionVariables - -> "instance" SessionVariables
Player - -> "playerObject" GameObject
Player - -> "position" Vector3
Player - -> "smoothTransformVelocity" Vector3
Player - -> "gravityDirection" Vector3
@enduml

PlantUML version 1.2020.02(Sun Mar 01 10:22:07 GMT 2020)
(GPL source distribution)
Java Runtime: OpenJDK Runtime Environment
JVM: OpenJDK 64-Bit Server VM
Java Version: 11.0.9+11-Ubuntu-0ubuntu1
Operating System: Linux
Default Encoding: ANSI_X3.4-1968
Language: en
Country: US
--></g></svg>