<?xml version="1.0" encoding="UTF-8" standalone="no"?><svg xmlns="http://www.w3.org/2000/svg" xmlns:xlink="http://www.w3.org/1999/xlink" contentScriptType="application/ecmascript" contentStyleType="text/css" height="385px" preserveAspectRatio="none" style="width:872px;height:385px;" version="1.1" viewBox="0 0 872 385" width="872px" zoomAndPan="magnify"><defs><filter height="300%" id="f191ecyraoycc6" width="300%" x="-1" y="-1"><feGaussianBlur result="blurOut" stdDeviation="2.0"/><feColorMatrix in="blurOut" result="blurOut2" type="matrix" values="0 0 0 0 0 0 0 0 0 0 0 0 0 0 0 0 0 0 .4 0"/><feOffset dx="4.0" dy="4.0" in="blurOut2" result="blurOut3"/><feBlend in="SourceGraphic" in2="blurOut3" mode="normal"/></filter></defs><g><!--MD5=[2cbba58f1697e8af640b7a269f8de7b8]
class SessionVariables--><rect fill="#FEFECE" filter="url(#f191ecyraoycc6)" height="112.0234" id="SessionVariables" style="stroke: #A80036; stroke-width: 1.5;" width="165" x="91.68" y="154"/><ellipse cx="118.38" cy="170" fill="#ADD1B2" rx="11" ry="11" style="stroke: #A80036; stroke-width: 1.0;"/><path d="M121.3488,175.6406 Q120.7706,175.9375 120.13,176.0781 Q119.4894,176.2344 118.7863,176.2344 Q116.2863,176.2344 114.9581,174.5938 Q113.6456,172.9375 113.6456,169.8125 Q113.6456,166.6875 114.9581,165.0313 Q116.2863,163.375 118.7863,163.375 Q119.4894,163.375 120.13,163.5313 Q120.7863,163.6875 121.3488,163.9844 L121.3488,166.7031 Q120.7238,166.125 120.13,165.8594 Q119.5363,165.5781 118.9113,165.5781 Q117.5675,165.5781 116.88,166.6563 Q116.1925,167.7188 116.1925,169.8125 Q116.1925,171.9063 116.88,172.9844 Q117.5675,174.0469 118.9113,174.0469 Q119.5363,174.0469 120.13,173.7813 Q120.7238,173.5 121.3488,172.9219 L121.3488,175.6406 Z "/><text fill="#000000" font-family="sans-serif" font-size="12" lengthAdjust="spacingAndGlyphs" textLength="107" x="134.98" y="174.1543">SessionVariables</text><line style="stroke: #A80036; stroke-width: 1.5;" x1="92.68" x2="255.68" y1="186" y2="186"/><ellipse cx="102.68" cy="197" fill="none" rx="3" ry="3" style="stroke: #038048; stroke-width: 1.0;"/><text fill="#000000" font-family="sans-serif" font-size="11" lengthAdjust="spacingAndGlyphs" textLength="139" x="111.68" y="200.2104">connected : bool = false</text><ellipse cx="102.68" cy="209.8047" fill="none" rx="3" ry="3" style="stroke: #038048; stroke-width: 1.0;"/><text fill="#000000" font-family="sans-serif" font-size="11" lengthAdjust="spacingAndGlyphs" textLength="100" x="111.68" y="213.0151">sessionId : string</text><ellipse cx="102.68" cy="222.6094" fill="none" rx="3" ry="3" style="stroke: #038048; stroke-width: 1.0;"/><text fill="#000000" font-family="sans-serif" font-size="11" lengthAdjust="spacingAndGlyphs" textLength="73" x="111.68" y="225.8198">serverId : int</text><ellipse cx="102.68" cy="235.4141" fill="none" rx="3" ry="3" style="stroke: #038048; stroke-width: 1.0;"/><text fill="#000000" font-family="sans-serif" font-size="11" lengthAdjust="spacingAndGlyphs" textLength="88" x="111.68" y="238.6245">myPlayerId : int</text><ellipse cx="102.68" cy="248.2188" fill="none" rx="3" ry="3" style="stroke: #038048; stroke-width: 1.0;"/><text fill="#000000" font-family="sans-serif" font-size="11" lengthAdjust="spacingAndGlyphs" textLength="130" x="111.68" y="251.4292">myPlayerName : string</text><line style="stroke: #A80036; stroke-width: 1.5;" x1="92.68" x2="255.68" y1="258.0234" y2="258.0234"/><!--MD5=[2cb47ba637a0d19583e6199456f6ad0b]
class Player--><rect fill="#FEFECE" filter="url(#f191ecyraoycc6)" height="86.4141" id="Player" style="stroke: #A80036; stroke-width: 1.5;" width="245" x="552.68" y="8"/><ellipse cx="651.93" cy="24" fill="#ADD1B2" rx="11" ry="11" style="stroke: #A80036; stroke-width: 1.0;"/><path d="M654.8988,29.6406 Q654.3206,29.9375 653.68,30.0781 Q653.0394,30.2344 652.3363,30.2344 Q649.8363,30.2344 648.5081,28.5938 Q647.1956,26.9375 647.1956,23.8125 Q647.1956,20.6875 648.5081,19.0313 Q649.8363,17.375 652.3363,17.375 Q653.0394,17.375 653.68,17.5313 Q654.3363,17.6875 654.8988,17.9844 L654.8988,20.7031 Q654.2738,20.125 653.68,19.8594 Q653.0863,19.5781 652.4613,19.5781 Q651.1175,19.5781 650.43,20.6563 Q649.7425,21.7188 649.7425,23.8125 Q649.7425,25.9063 650.43,26.9844 Q651.1175,28.0469 652.4613,28.0469 Q653.0863,28.0469 653.68,27.7813 Q654.2738,27.5 654.8988,26.9219 L654.8988,29.6406 Z "/><text fill="#000000" font-family="sans-serif" font-size="12" lengthAdjust="spacingAndGlyphs" textLength="38" x="672.43" y="28.1543">Player</text><line style="stroke: #A80036; stroke-width: 1.5;" x1="553.68" x2="796.68" y1="40" y2="40"/><ellipse cx="563.68" cy="51" fill="none" rx="3" ry="3" style="stroke: #038048; stroke-width: 1.0;"/><text fill="#000000" font-family="sans-serif" font-size="11" lengthAdjust="spacingAndGlyphs" textLength="71" x="572.68" y="54.2104">playerId : int</text><ellipse cx="563.68" cy="63.8047" fill="none" rx="3" ry="3" style="stroke: #038048; stroke-width: 1.0;"/><text fill="#000000" font-family="sans-serif" font-size="11" lengthAdjust="spacingAndGlyphs" textLength="113" x="572.68" y="67.0151">playerName : string</text><line style="stroke: #A80036; stroke-width: 1.5;" x1="553.68" x2="796.68" y1="73.6094" y2="73.6094"/><ellipse cx="563.68" cy="84.6094" fill="#84BE84" rx="3" ry="3" style="stroke: #038048; stroke-width: 1.0;"/><text fill="#000000" font-family="sans-serif" font-size="11" lengthAdjust="spacingAndGlyphs" textLength="219" x="572.68" y="87.8198">Player(playerId:int, playerName:string)</text><!--MD5=[2e1ff885372daab8d802f213ced6c836]
class Dictionary`2--><rect fill="#FEFECE" filter="url(#f191ecyraoycc6)" height="48" id="Dictionary`2" style="stroke: #A80036; stroke-width: 1.5;" width="146" x="310.18" y="186"/><ellipse cx="325.18" cy="202" fill="#ADD1B2" rx="11" ry="11" style="stroke: #A80036; stroke-width: 1.0;"/><path d="M328.1488,207.6406 Q327.5706,207.9375 326.93,208.0781 Q326.2894,208.2344 325.5863,208.2344 Q323.0863,208.2344 321.7581,206.5938 Q320.4456,204.9375 320.4456,201.8125 Q320.4456,198.6875 321.7581,197.0313 Q323.0863,195.375 325.5863,195.375 Q326.2894,195.375 326.93,195.5313 Q327.5863,195.6875 328.1488,195.9844 L328.1488,198.7031 Q327.5238,198.125 326.93,197.8594 Q326.3363,197.5781 325.7113,197.5781 Q324.3675,197.5781 323.68,198.6563 Q322.9925,199.7188 322.9925,201.8125 Q322.9925,203.9063 323.68,204.9844 Q324.3675,206.0469 325.7113,206.0469 Q326.3363,206.0469 326.93,205.7813 Q327.5238,205.5 328.1488,204.9219 L328.1488,207.6406 Z "/><text fill="#000000" font-family="sans-serif" font-size="12" lengthAdjust="spacingAndGlyphs" textLength="76" x="339.18" y="206.1543">Dictionary`2</text><rect fill="#FFFFFF" height="15.9688" style="stroke: #000000; stroke-width: 1.0; stroke-dasharray: 2.0,2.0;" width="36" x="423.18" y="183"/><text fill="#000000" font-family="sans-serif" font-size="12" font-style="italic" lengthAdjust="spacingAndGlyphs" textLength="34" x="424.18" y="195.1387">T1,T2</text><line style="stroke: #A80036; stroke-width: 1.5;" x1="311.18" x2="455.18" y1="218" y2="218"/><line style="stroke: #A80036; stroke-width: 1.5;" x1="311.18" x2="455.18" y1="226" y2="226"/><!--MD5=[83b3cf3d23d77c6f1e1b5291a241bc2a]
class MonoBehaviour--><rect fill="#FEFECE" filter="url(#f191ecyraoycc6)" height="48" id="MonoBehaviour" style="stroke: #A80036; stroke-width: 1.5;" width="128" x="110.18" y="27"/><ellipse cx="125.18" cy="43" fill="#ADD1B2" rx="11" ry="11" style="stroke: #A80036; stroke-width: 1.0;"/><path d="M128.1488,48.6406 Q127.5706,48.9375 126.93,49.0781 Q126.2894,49.2344 125.5863,49.2344 Q123.0863,49.2344 121.7581,47.5938 Q120.4456,45.9375 120.4456,42.8125 Q120.4456,39.6875 121.7581,38.0313 Q123.0863,36.375 125.5863,36.375 Q126.2894,36.375 126.93,36.5313 Q127.5863,36.6875 128.1488,36.9844 L128.1488,39.7031 Q127.5238,39.125 126.93,38.8594 Q126.3363,38.5781 125.7113,38.5781 Q124.3675,38.5781 123.68,39.6563 Q122.9925,40.7188 122.9925,42.8125 Q122.9925,44.9063 123.68,45.9844 Q124.3675,47.0469 125.7113,47.0469 Q126.3363,47.0469 126.93,46.7813 Q127.5238,46.5 128.1488,45.9219 L128.1488,48.6406 Z "/><text fill="#000000" font-family="sans-serif" font-size="12" lengthAdjust="spacingAndGlyphs" textLength="96" x="139.18" y="47.1543">MonoBehaviour</text><line style="stroke: #A80036; stroke-width: 1.5;" x1="111.18" x2="237.18" y1="59" y2="59"/><line style="stroke: #A80036; stroke-width: 1.5;" x1="111.18" x2="237.18" y1="67" y2="67"/><!--MD5=[0a7dac4942faf7b47aa23cf6f8b442ac]
class GameClient--><rect fill="#FEFECE" filter="url(#f191ecyraoycc6)" height="48" id="GameClient" style="stroke: #A80036; stroke-width: 1.5;" width="103" x="52.68" y="326"/><ellipse cx="67.68" cy="342" fill="#ADD1B2" rx="11" ry="11" style="stroke: #A80036; stroke-width: 1.0;"/><path d="M70.6488,347.6406 Q70.0706,347.9375 69.43,348.0781 Q68.7894,348.2344 68.0863,348.2344 Q65.5863,348.2344 64.2581,346.5938 Q62.9456,344.9375 62.9456,341.8125 Q62.9456,338.6875 64.2581,337.0313 Q65.5863,335.375 68.0863,335.375 Q68.7894,335.375 69.43,335.5313 Q70.0863,335.6875 70.6488,335.9844 L70.6488,338.7031 Q70.0238,338.125 69.43,337.8594 Q68.8363,337.5781 68.2113,337.5781 Q66.8675,337.5781 66.18,338.6563 Q65.4925,339.7188 65.4925,341.8125 Q65.4925,343.9063 66.18,344.9844 Q66.8675,346.0469 68.2113,346.0469 Q68.8363,346.0469 69.43,345.7813 Q70.0238,345.5 70.6488,344.9219 L70.6488,347.6406 Z "/><text fill="#000000" font-family="sans-serif" font-size="12" lengthAdjust="spacingAndGlyphs" textLength="71" x="81.68" y="346.1543">GameClient</text><line style="stroke: #A80036; stroke-width: 1.5;" x1="53.68" x2="154.68" y1="358" y2="358"/><line style="stroke: #A80036; stroke-width: 1.5;" x1="53.68" x2="154.68" y1="366" y2="366"/><!--MD5=[9b062260d680ccf45bd4bb57fda64d79]
class GameServer--><rect fill="#FEFECE" filter="url(#f191ecyraoycc6)" height="48" id="GameServer" style="stroke: #A80036; stroke-width: 1.5;" width="108" x="191.18" y="326"/><ellipse cx="206.18" cy="342" fill="#ADD1B2" rx="11" ry="11" style="stroke: #A80036; stroke-width: 1.0;"/><path d="M209.1488,347.6406 Q208.5706,347.9375 207.93,348.0781 Q207.2894,348.2344 206.5863,348.2344 Q204.0863,348.2344 202.7581,346.5938 Q201.4456,344.9375 201.4456,341.8125 Q201.4456,338.6875 202.7581,337.0313 Q204.0863,335.375 206.5863,335.375 Q207.2894,335.375 207.93,335.5313 Q208.5863,335.6875 209.1488,335.9844 L209.1488,338.7031 Q208.5238,338.125 207.93,337.8594 Q207.3363,337.5781 206.7113,337.5781 Q205.3675,337.5781 204.68,338.6563 Q203.9925,339.7188 203.9925,341.8125 Q203.9925,343.9063 204.68,344.9844 Q205.3675,346.0469 206.7113,346.0469 Q207.3363,346.0469 207.93,345.7813 Q208.5238,345.5 209.1488,344.9219 L209.1488,347.6406 Z "/><text fill="#000000" font-family="sans-serif" font-size="12" lengthAdjust="spacingAndGlyphs" textLength="76" x="220.18" y="346.1543">GameServer</text><line style="stroke: #A80036; stroke-width: 1.5;" x1="192.18" x2="298.18" y1="358" y2="358"/><line style="stroke: #A80036; stroke-width: 1.5;" x1="192.18" x2="298.18" y1="366" y2="366"/><!--MD5=[064f7a74fee85463ec1a30143664ee17]
class GameObject--><rect fill="#FEFECE" filter="url(#f191ecyraoycc6)" height="48" id="GameObject" style="stroke: #A80036; stroke-width: 1.5;" width="108" x="491.18" y="186"/><ellipse cx="506.18" cy="202" fill="#ADD1B2" rx="11" ry="11" style="stroke: #A80036; stroke-width: 1.0;"/><path d="M509.1488,207.6406 Q508.5706,207.9375 507.93,208.0781 Q507.2894,208.2344 506.5863,208.2344 Q504.0863,208.2344 502.7581,206.5938 Q501.4456,204.9375 501.4456,201.8125 Q501.4456,198.6875 502.7581,197.0313 Q504.0863,195.375 506.5863,195.375 Q507.2894,195.375 507.93,195.5313 Q508.5863,195.6875 509.1488,195.9844 L509.1488,198.7031 Q508.5238,198.125 507.93,197.8594 Q507.3363,197.5781 506.7113,197.5781 Q505.3675,197.5781 504.68,198.6563 Q503.9925,199.7188 503.9925,201.8125 Q503.9925,203.9063 504.68,204.9844 Q505.3675,206.0469 506.7113,206.0469 Q507.3363,206.0469 507.93,205.7813 Q508.5238,205.5 509.1488,204.9219 L509.1488,207.6406 Z "/><text fill="#000000" font-family="sans-serif" font-size="12" lengthAdjust="spacingAndGlyphs" textLength="76" x="520.18" y="206.1543">GameObject</text><line style="stroke: #A80036; stroke-width: 1.5;" x1="492.18" x2="598.18" y1="218" y2="218"/><line style="stroke: #A80036; stroke-width: 1.5;" x1="492.18" x2="598.18" y1="226" y2="226"/><!--MD5=[65d619c042c23702cef2ca07d67b1cf6]
class Vector3--><rect fill="#FEFECE" filter="url(#f191ecyraoycc6)" height="48" id="Vector3" style="stroke: #A80036; stroke-width: 1.5;" width="81" x="634.68" y="186"/><ellipse cx="649.68" cy="202" fill="#ADD1B2" rx="11" ry="11" style="stroke: #A80036; stroke-width: 1.0;"/><path d="M652.6488,207.6406 Q652.0706,207.9375 651.43,208.0781 Q650.7894,208.2344 650.0863,208.2344 Q647.5863,208.2344 646.2581,206.5938 Q644.9456,204.9375 644.9456,201.8125 Q644.9456,198.6875 646.2581,197.0313 Q647.5863,195.375 650.0863,195.375 Q650.7894,195.375 651.43,195.5313 Q652.0863,195.6875 652.6488,195.9844 L652.6488,198.7031 Q652.0238,198.125 651.43,197.8594 Q650.8363,197.5781 650.2113,197.5781 Q648.8675,197.5781 648.18,198.6563 Q647.4925,199.7188 647.4925,201.8125 Q647.4925,203.9063 648.18,204.9844 Q648.8675,206.0469 650.2113,206.0469 Q650.8363,206.0469 651.43,205.7813 Q652.0238,205.5 652.6488,204.9219 L652.6488,207.6406 Z "/><text fill="#000000" font-family="sans-serif" font-size="12" lengthAdjust="spacingAndGlyphs" textLength="49" x="663.68" y="206.1543">Vector3</text><line style="stroke: #A80036; stroke-width: 1.5;" x1="635.68" x2="714.68" y1="218" y2="218"/><line style="stroke: #A80036; stroke-width: 1.5;" x1="635.68" x2="714.68" y1="226" y2="226"/><!--MD5=[feb6227fc76b0926ec1c003c99dd9264]
reverse link MonoBehaviour to SessionVariables--><path d="M174.18,95.32 C174.18,113.41 174.18,134.64 174.18,153.82 " fill="none" id="MonoBehaviour&lt;-SessionVariables" style="stroke: #A80036; stroke-width: 1.0;"/><polygon fill="none" points="167.18,95.17,174.18,75.17,181.18,95.17,167.18,95.17" style="stroke: #A80036; stroke-width: 1.0;"/><!--MD5=[16c264317c699daf5180f3388ae18c2f]
link SessionVariables to Dictionary`2--><path d="M269.04,210 C269.04,210 287.73,210 296.48,210 " fill="none" id="SessionVariables-Dictionary`2" style="stroke: #A80036; stroke-width: 1.0;"/><polygon fill="#A80036" points="309.76,210,300.76,206,304.76,210,300.76,214,309.76,210" style="stroke: #A80036; stroke-width: 1.0;"/><line style="stroke: #A80036; stroke-width: 1.0;" x1="304.76" x2="296.76" y1="210" y2="210"/><polygon fill="#FFFFFF" points="257.04,210,263.04,214,269.04,210,263.04,206,257.04,210" style="stroke: #A80036; stroke-width: 1.0;"/><text fill="#000000" font-family="sans-serif" font-size="13" lengthAdjust="spacingAndGlyphs" textLength="184" x="255.1218" y="174.9274">playerDictionary&lt;int,Player&gt;</text><!--MD5=[b58a4f87cecb876718480251ea701d46]
link SessionVariables to GameClient--><path d="M146.11,266.33 C136.6,285.09 126.37,305.25 118.4,320.96 " fill="none" id="SessionVariables-&gt;GameClient" style="stroke: #A80036; stroke-width: 1.0;"/><polygon fill="#A80036" points="116,325.69,123.6504,319.4874,118.2703,321.2351,116.5226,315.855,116,325.69" style="stroke: #A80036; stroke-width: 1.0;"/><text fill="#000000" font-family="sans-serif" font-size="13" lengthAdjust="spacingAndGlyphs" textLength="95" x="12.303" y="315.0194">myGameClient</text><!--MD5=[b88de4a3d7a16ccb0573e3607d20e6bd]
link SessionVariables to GameServer--><path d="M202.65,266.33 C212.3,285.09 222.67,305.25 230.75,320.96 " fill="none" id="SessionVariables-&gt;GameServer" style="stroke: #A80036; stroke-width: 1.0;"/><polygon fill="#A80036" points="233.19,325.69,232.6296,315.8571,230.9026,321.2439,225.5158,319.5169,233.19,325.69" style="stroke: #A80036; stroke-width: 1.0;"/><text fill="#000000" font-family="sans-serif" font-size="13" lengthAdjust="spacingAndGlyphs" textLength="40" x="185.3924" y="315.0194">server</text><!--MD5=[c7db84d5344664e5f898087c89dac0f4]
link SessionVariables to SessionVariables--><path d="M256.81,184.19 C276.82,186.15 291.68,194.76 291.68,210 C291.68,223.93 279.26,232.32 261.84,235.16 " fill="none" id="SessionVariables-&gt;SessionVariables" style="stroke: #A80036; stroke-width: 1.0;"/><polygon fill="#A80036" points="256.81,235.81,266.2487,238.6228,261.7687,235.1688,265.2227,230.6888,256.81,235.81" style="stroke: #A80036; stroke-width: 1.0;"/><text fill="#000000" font-family="sans-serif" font-size="13" lengthAdjust="spacingAndGlyphs" textLength="54" x="254.4929" y="254.13">instance</text><!--MD5=[9bc852ba268122706027acd503913ad0]
link Player to GameObject--><path d="M640.34,94.07 C617.3,121.89 587.77,157.56 567.76,181.72 " fill="none" id="Player-&gt;GameObject" style="stroke: #A80036; stroke-width: 1.0;"/><polygon fill="#A80036" points="564.39,185.8,573.2054,181.408,567.574,181.9449,567.0372,176.3136,564.39,185.8" style="stroke: #A80036; stroke-width: 1.0;"/><text fill="#000000" font-family="sans-serif" font-size="13" lengthAdjust="spacingAndGlyphs" textLength="80" x="479.0626" y="174.7608">playerObject</text><!--MD5=[a2d3c1c6152a1fbe8517d79babd0746c]
link Player to Vector3--><path d="M651.62,94.07 C647.25,121.55 648.2,156.67 654.48,180.82 " fill="none" id="Player-&gt;Vector3" style="stroke: #A80036; stroke-width: 1.0;"/><polygon fill="#A80036" points="655.89,185.8,657.2713,176.0485,654.5202,180.9913,649.5773,178.2402,655.89,185.8" style="stroke: #A80036; stroke-width: 1.0;"/><text fill="#000000" font-family="sans-serif" font-size="13" lengthAdjust="spacingAndGlyphs" textLength="50" x="597.132" y="175.0039">position</text><!--MD5=[a2d3c1c6152a1fbe8517d79babd0746c]
link Player to Vector3--><path d="M675.18,94.07 C675.18,121.43 675.18,156.38 675.18,180.51 " fill="none" id="Player-&gt;Vector3-1" style="stroke: #A80036; stroke-width: 1.0;"/><polygon fill="#A80036" points="675.18,185.8,679.18,176.8,675.18,180.8,671.18,176.8,675.18,185.8" style="stroke: #A80036; stroke-width: 1.0;"/><text fill="#000000" font-family="sans-serif" font-size="13" lengthAdjust="spacingAndGlyphs" textLength="164" x="696.1925" y="174.7608">smoothTransformVelocity</text><!--MD5=[a2d3c1c6152a1fbe8517d79babd0746c]
link Player to Vector3--><path d="M698.73,94.07 C703.11,121.55 702.16,156.67 695.88,180.82 " fill="none" id="Player-&gt;Vector3-2" style="stroke: #A80036; stroke-width: 1.0;"/><polygon fill="#A80036" points="694.46,185.8,700.7786,178.2452,695.8336,180.9924,693.0864,176.0474,694.46,185.8" style="stroke: #A80036; stroke-width: 1.0;"/><text fill="#000000" font-family="sans-serif" font-size="13" lengthAdjust="spacingAndGlyphs" textLength="100" x="723.038" y="191.0055">gravityDirection</text><!--MD5=[3e464f3ff56229de6afb84180ff2ad4b]
@startuml
class SessionVariables {
    + connected : bool = false
    + sessionId : string
    + serverId : int
    + myPlayerId : int
    + myPlayerName : string
}
class Player {
    + playerId : int
    + playerName : string
    + Player(playerId:int, playerName:string)
}
class "Dictionary`2"<T1,T2> {
}
MonoBehaviour <|- - SessionVariables
SessionVariables o-> "playerDictionary<int,Player>" "Dictionary`2"
SessionVariables - -> "myGameClient" GameClient
SessionVariables - -> "server" GameServer
SessionVariables - -> "instance" SessionVariables
Player - -> "playerObject" GameObject
Player - -> "position" Vector3
Player - -> "smoothTransformVelocity" Vector3
Player - -> "gravityDirection" Vector3
@enduml

PlantUML version 1.2020.02(Sun Mar 01 10:22:07 GMT 2020)
(GPL source distribution)
Java Runtime: OpenJDK Runtime Environment
JVM: OpenJDK 64-Bit Server VM
Java Version: 11.0.9+11-Ubuntu-0ubuntu1
Operating System: Linux
Default Encoding: ANSI_X3.4-1968
Language: en
Country: US
--></g></svg>