<?xml version="1.0" encoding="UTF-8" standalone="no"?><svg xmlns="http://www.w3.org/2000/svg" xmlns:xlink="http://www.w3.org/1999/xlink" contentScriptType="application/ecmascript" contentStyleType="text/css" height="187px" preserveAspectRatio="none" style="width:193px;height:187px;" version="1.1" viewBox="0 0 193 187" width="193px" zoomAndPan="magnify"><defs><filter height="300%" id="f1mtlph88p7r90" width="300%" x="-1" y="-1"><feGaussianBlur result="blurOut" stdDeviation="2.0"/><feColorMatrix in="blurOut" result="blurOut2" type="matrix" values="0 0 0 0 0 0 0 0 0 0 0 0 0 0 0 0 0 0 .4 0"/><feOffset dx="4.0" dy="4.0" in="blurOut2" result="blurOut3"/><feBlend in="SourceGraphic" in2="blurOut3" mode="normal"/></filter></defs><g><!--MD5=[36fe6a68704036b9c61dc246416c4a3f]
class TrapButton--><rect fill="#FEFECE" filter="url(#f1mtlph88p7r90)" height="60.8047" id="TrapButton" style="stroke: #A80036; stroke-width: 1.5;" width="176" x="6" y="116"/><ellipse cx="54.75" cy="132" fill="#ADD1B2" rx="11" ry="11" style="stroke: #A80036; stroke-width: 1.0;"/><path d="M57.7188,137.6406 Q57.1406,137.9375 56.5,138.0781 Q55.8594,138.2344 55.1563,138.2344 Q52.6563,138.2344 51.3281,136.5938 Q50.0156,134.9375 50.0156,131.8125 Q50.0156,128.6875 51.3281,127.0313 Q52.6563,125.375 55.1563,125.375 Q55.8594,125.375 56.5,125.5313 Q57.1563,125.6875 57.7188,125.9844 L57.7188,128.7031 Q57.0938,128.125 56.5,127.8594 Q55.9063,127.5781 55.2813,127.5781 Q53.9375,127.5781 53.25,128.6563 Q52.5625,129.7188 52.5625,131.8125 Q52.5625,133.9063 53.25,134.9844 Q53.9375,136.0469 55.2813,136.0469 Q55.9063,136.0469 56.5,135.7813 Q57.0938,135.5 57.7188,134.9219 L57.7188,137.6406 Z "/><text fill="#000000" font-family="sans-serif" font-size="12" lengthAdjust="spacingAndGlyphs" textLength="70" x="75.25" y="136.1543">TrapButton</text><line style="stroke: #A80036; stroke-width: 1.5;" x1="7" x2="181" y1="148" y2="148"/><line style="stroke: #A80036; stroke-width: 1.5;" x1="7" x2="181" y1="156" y2="156"/><ellipse cx="17" cy="167" fill="#84BE84" rx="3" ry="3" style="stroke: #038048; stroke-width: 1.0;"/><text fill="#000000" font-family="sans-serif" font-size="11" lengthAdjust="spacingAndGlyphs" textLength="150" x="26" y="170.2104">ActivateTrapButton() : void</text><!--MD5=[83b3cf3d23d77c6f1e1b5291a241bc2a]
class MonoBehaviour--><rect fill="#FEFECE" filter="url(#f1mtlph88p7r90)" height="48" id="MonoBehaviour" style="stroke: #A80036; stroke-width: 1.5;" width="128" x="30" y="8"/><ellipse cx="45" cy="24" fill="#ADD1B2" rx="11" ry="11" style="stroke: #A80036; stroke-width: 1.0;"/><path d="M47.9688,29.6406 Q47.3906,29.9375 46.75,30.0781 Q46.1094,30.2344 45.4063,30.2344 Q42.9063,30.2344 41.5781,28.5938 Q40.2656,26.9375 40.2656,23.8125 Q40.2656,20.6875 41.5781,19.0313 Q42.9063,17.375 45.4063,17.375 Q46.1094,17.375 46.75,17.5313 Q47.4063,17.6875 47.9688,17.9844 L47.9688,20.7031 Q47.3438,20.125 46.75,19.8594 Q46.1563,19.5781 45.5313,19.5781 Q44.1875,19.5781 43.5,20.6563 Q42.8125,21.7188 42.8125,23.8125 Q42.8125,25.9063 43.5,26.9844 Q44.1875,28.0469 45.5313,28.0469 Q46.1563,28.0469 46.75,27.7813 Q47.3438,27.5 47.9688,26.9219 L47.9688,29.6406 Z "/><text fill="#000000" font-family="sans-serif" font-size="12" lengthAdjust="spacingAndGlyphs" textLength="96" x="59" y="28.1543">MonoBehaviour</text><line style="stroke: #A80036; stroke-width: 1.5;" x1="31" x2="157" y1="40" y2="40"/><line style="stroke: #A80036; stroke-width: 1.5;" x1="31" x2="157" y1="48" y2="48"/><!--MD5=[58d3bb711cbdd32a8686309571b7994f]
reverse link MonoBehaviour to TrapButton--><path d="M94,76.11 C94,89.31 94,103.54 94,115.65 " fill="none" id="MonoBehaviour&lt;-TrapButton" style="stroke: #A80036; stroke-width: 1.0;"/><polygon fill="none" points="87,76.04,94,56.04,101,76.04,87,76.04" style="stroke: #A80036; stroke-width: 1.0;"/><!--MD5=[c8861e5a4eb32b60ef838c487c52903e]
@startuml
class TrapButton {
    + ActivateTrapButton() : void
}
MonoBehaviour <|- - TrapButton
@enduml

PlantUML version 1.2020.02(Sun Mar 01 10:22:07 GMT 2020)
(GPL source distribution)
Java Runtime: OpenJDK Runtime Environment
JVM: OpenJDK 64-Bit Server VM
Java Version: 11.0.9+11-Ubuntu-0ubuntu1
Operating System: Linux
Default Encoding: ANSI_X3.4-1968
Language: en
Country: US
--></g></svg>