<?xml version="1.0" encoding="UTF-8" standalone="no"?><svg xmlns="http://www.w3.org/2000/svg" xmlns:xlink="http://www.w3.org/1999/xlink" contentScriptType="application/ecmascript" contentStyleType="text/css" height="213px" preserveAspectRatio="none" style="width:156px;height:213px;" version="1.1" viewBox="0 0 156 213" width="156px" zoomAndPan="magnify"><defs><filter height="300%" id="fzshxsl78j8ap" width="300%" x="-1" y="-1"><feGaussianBlur result="blurOut" stdDeviation="2.0"/><feColorMatrix in="blurOut" result="blurOut2" type="matrix" values="0 0 0 0 0 0 0 0 0 0 0 0 0 0 0 0 0 0 .4 0"/><feOffset dx="4.0" dy="4.0" in="blurOut2" result="blurOut3"/><feBlend in="SourceGraphic" in2="blurOut3" mode="normal"/></filter></defs><g><!--MD5=[9c3b62adbf6f70de9f7865728c502100]
class Trap--><rect fill="#FEFECE" filter="url(#fzshxsl78j8ap)" height="86.4141" id="Trap" style="stroke: #A80036; stroke-width: 1.5;" width="139" x="6" y="116"/><ellipse cx="57.25" cy="132" fill="#ADD1B2" rx="11" ry="11" style="stroke: #A80036; stroke-width: 1.0;"/><path d="M60.2188,137.6406 Q59.6406,137.9375 59,138.0781 Q58.3594,138.2344 57.6563,138.2344 Q55.1563,138.2344 53.8281,136.5938 Q52.5156,134.9375 52.5156,131.8125 Q52.5156,128.6875 53.8281,127.0313 Q55.1563,125.375 57.6563,125.375 Q58.3594,125.375 59,125.5313 Q59.6563,125.6875 60.2188,125.9844 L60.2188,128.7031 Q59.5938,128.125 59,127.8594 Q58.4063,127.5781 57.7813,127.5781 Q56.4375,127.5781 55.75,128.6563 Q55.0625,129.7188 55.0625,131.8125 Q55.0625,133.9063 55.75,134.9844 Q56.4375,136.0469 57.7813,136.0469 Q58.4063,136.0469 59,135.7813 Q59.5938,135.5 60.2188,134.9219 L60.2188,137.6406 Z "/><text fill="#000000" font-family="sans-serif" font-size="12" lengthAdjust="spacingAndGlyphs" textLength="28" x="77.75" y="136.1543">Trap</text><line style="stroke: #A80036; stroke-width: 1.5;" x1="7" x2="144" y1="148" y2="148"/><text fill="#000000" font-family="sans-serif" font-size="11" lengthAdjust="spacingAndGlyphs" textLength="59" x="12" y="162.2104">trapId : int</text><line style="stroke: #A80036; stroke-width: 1.5;" x1="7" x2="144" y1="168.8047" y2="168.8047"/><ellipse cx="17" cy="179.8047" fill="#84BE84" rx="3" ry="3" style="stroke: #038048; stroke-width: 1.0;"/><text fill="#000000" font-family="sans-serif" font-size="11" lengthAdjust="spacingAndGlyphs" textLength="113" x="26" y="183.0151">ActivateTrap() : void</text><ellipse cx="17" cy="192.6094" fill="#84BE84" rx="3" ry="3" style="stroke: #038048; stroke-width: 1.0;"/><text fill="#000000" font-family="sans-serif" font-size="11" lengthAdjust="spacingAndGlyphs" textLength="101" x="26" y="195.8198">ResetTrap() : void</text><!--MD5=[83b3cf3d23d77c6f1e1b5291a241bc2a]
class MonoBehaviour--><rect fill="#FEFECE" filter="url(#fzshxsl78j8ap)" height="48" id="MonoBehaviour" style="stroke: #A80036; stroke-width: 1.5;" width="128" x="11.5" y="8"/><ellipse cx="26.5" cy="24" fill="#ADD1B2" rx="11" ry="11" style="stroke: #A80036; stroke-width: 1.0;"/><path d="M29.4688,29.6406 Q28.8906,29.9375 28.25,30.0781 Q27.6094,30.2344 26.9063,30.2344 Q24.4063,30.2344 23.0781,28.5938 Q21.7656,26.9375 21.7656,23.8125 Q21.7656,20.6875 23.0781,19.0313 Q24.4063,17.375 26.9063,17.375 Q27.6094,17.375 28.25,17.5313 Q28.9063,17.6875 29.4688,17.9844 L29.4688,20.7031 Q28.8438,20.125 28.25,19.8594 Q27.6563,19.5781 27.0313,19.5781 Q25.6875,19.5781 25,20.6563 Q24.3125,21.7188 24.3125,23.8125 Q24.3125,25.9063 25,26.9844 Q25.6875,28.0469 27.0313,28.0469 Q27.6563,28.0469 28.25,27.7813 Q28.8438,27.5 29.4688,26.9219 L29.4688,29.6406 Z "/><text fill="#000000" font-family="sans-serif" font-size="12" lengthAdjust="spacingAndGlyphs" textLength="96" x="40.5" y="28.1543">MonoBehaviour</text><line style="stroke: #A80036; stroke-width: 1.5;" x1="12.5" x2="138.5" y1="40" y2="40"/><line style="stroke: #A80036; stroke-width: 1.5;" x1="12.5" x2="138.5" y1="48" y2="48"/><!--MD5=[e2af29d82fba0bf0fab2b36907174347]
reverse link MonoBehaviour to Trap--><path d="M75.5,76.27 C75.5,89.12 75.5,103.17 75.5,115.94 " fill="none" id="MonoBehaviour&lt;-Trap" style="stroke: #A80036; stroke-width: 1.0;"/><polygon fill="none" points="68.5,76.22,75.5,56.22,82.5,76.22,68.5,76.22" style="stroke: #A80036; stroke-width: 1.0;"/><!--MD5=[e9ff5a86d50adbba49aa12c535163756]
@startuml
class Trap {
    trapId : int
    + ActivateTrap() : void
    + ResetTrap() : void
}
MonoBehaviour <|- - Trap
@enduml

PlantUML version 1.2020.02(Sun Mar 01 10:22:07 GMT 2020)
(GPL source distribution)
Java Runtime: OpenJDK Runtime Environment
JVM: OpenJDK 64-Bit Server VM
Java Version: 11.0.9+11-Ubuntu-0ubuntu1
Operating System: Linux
Default Encoding: ANSI_X3.4-1968
Language: en
Country: US
--></g></svg>