<?xml version="1.0" encoding="UTF-8" standalone="no"?><svg xmlns="http://www.w3.org/2000/svg" xmlns:xlink="http://www.w3.org/1999/xlink" contentScriptType="application/ecmascript" contentStyleType="text/css" height="200px" preserveAspectRatio="none" style="width:266px;height:200px;" version="1.1" viewBox="0 0 266 200" width="266px" zoomAndPan="magnify"><defs><filter height="300%" id="f1acss9jmxu699" width="300%" x="-1" y="-1"><feGaussianBlur result="blurOut" stdDeviation="2.0"/><feColorMatrix in="blurOut" result="blurOut2" type="matrix" values="0 0 0 0 0 0 0 0 0 0 0 0 0 0 0 0 0 0 .4 0"/><feOffset dx="4.0" dy="4.0" in="blurOut2" result="blurOut3"/><feBlend in="SourceGraphic" in2="blurOut3" mode="normal"/></filter></defs><g><!--MD5=[f4689cc57453e7d88c4ebad15cc4e5b2]
class TrapsHandler--><rect fill="#FEFECE" filter="url(#f1acss9jmxu699)" height="73.6094" id="TrapsHandler" style="stroke: #A80036; stroke-width: 1.5;" width="249" x="6" y="116"/><ellipse cx="84.25" cy="132" fill="#ADD1B2" rx="11" ry="11" style="stroke: #A80036; stroke-width: 1.0;"/><path d="M87.2188,137.6406 Q86.6406,137.9375 86,138.0781 Q85.3594,138.2344 84.6563,138.2344 Q82.1563,138.2344 80.8281,136.5938 Q79.5156,134.9375 79.5156,131.8125 Q79.5156,128.6875 80.8281,127.0313 Q82.1563,125.375 84.6563,125.375 Q85.3594,125.375 86,125.5313 Q86.6563,125.6875 87.2188,125.9844 L87.2188,128.7031 Q86.5938,128.125 86,127.8594 Q85.4063,127.5781 84.7813,127.5781 Q83.4375,127.5781 82.75,128.6563 Q82.0625,129.7188 82.0625,131.8125 Q82.0625,133.9063 82.75,134.9844 Q83.4375,136.0469 84.7813,136.0469 Q85.4063,136.0469 86,135.7813 Q86.5938,135.5 87.2188,134.9219 L87.2188,137.6406 Z "/><text fill="#000000" font-family="sans-serif" font-size="12" lengthAdjust="spacingAndGlyphs" textLength="84" x="104.75" y="136.1543">TrapsHandler</text><line style="stroke: #A80036; stroke-width: 1.5;" x1="7" x2="254" y1="148" y2="148"/><line style="stroke: #A80036; stroke-width: 1.5;" x1="7" x2="254" y1="156" y2="156"/><ellipse cx="17" cy="167" fill="#84BE84" rx="3" ry="3" style="stroke: #038048; stroke-width: 1.0;"/><text fill="#000000" font-family="sans-serif" font-size="11" lengthAdjust="spacingAndGlyphs" textLength="223" x="26" y="170.2104">AddToTraps(trapId:int, trap:Trap) : void</text><ellipse cx="17" cy="179.8047" fill="#84BE84" rx="3" ry="3" style="stroke: #038048; stroke-width: 1.0;"/><text fill="#000000" font-family="sans-serif" font-size="11" lengthAdjust="spacingAndGlyphs" textLength="164" x="26" y="183.0151">ActivateTrap(trapId:int) : void</text><!--MD5=[83b3cf3d23d77c6f1e1b5291a241bc2a]
class MonoBehaviour--><rect fill="#FEFECE" filter="url(#f1acss9jmxu699)" height="48" id="MonoBehaviour" style="stroke: #A80036; stroke-width: 1.5;" width="128" x="66.5" y="8"/><ellipse cx="81.5" cy="24" fill="#ADD1B2" rx="11" ry="11" style="stroke: #A80036; stroke-width: 1.0;"/><path d="M84.4688,29.6406 Q83.8906,29.9375 83.25,30.0781 Q82.6094,30.2344 81.9063,30.2344 Q79.4063,30.2344 78.0781,28.5938 Q76.7656,26.9375 76.7656,23.8125 Q76.7656,20.6875 78.0781,19.0313 Q79.4063,17.375 81.9063,17.375 Q82.6094,17.375 83.25,17.5313 Q83.9063,17.6875 84.4688,17.9844 L84.4688,20.7031 Q83.8438,20.125 83.25,19.8594 Q82.6563,19.5781 82.0313,19.5781 Q80.6875,19.5781 80,20.6563 Q79.3125,21.7188 79.3125,23.8125 Q79.3125,25.9063 80,26.9844 Q80.6875,28.0469 82.0313,28.0469 Q82.6563,28.0469 83.25,27.7813 Q83.8438,27.5 84.4688,26.9219 L84.4688,29.6406 Z "/><text fill="#000000" font-family="sans-serif" font-size="12" lengthAdjust="spacingAndGlyphs" textLength="96" x="95.5" y="28.1543">MonoBehaviour</text><line style="stroke: #A80036; stroke-width: 1.5;" x1="67.5" x2="193.5" y1="40" y2="40"/><line style="stroke: #A80036; stroke-width: 1.5;" x1="67.5" x2="193.5" y1="48" y2="48"/><!--MD5=[a7cab17db1ac3879b5fa1fe6e7b9afa0]
reverse link MonoBehaviour to TrapsHandler--><path d="M130.5,76.43 C130.5,89.33 130.5,103.32 130.5,115.71 " fill="none" id="MonoBehaviour&lt;-TrapsHandler" style="stroke: #A80036; stroke-width: 1.0;"/><polygon fill="none" points="123.5,76.23,130.5,56.23,137.5,76.23,123.5,76.23" style="stroke: #A80036; stroke-width: 1.0;"/><!--MD5=[1350a9eeeb902c6396701b29f3c30c64]
@startuml
class TrapsHandler {
    + AddToTraps(trapId:int, trap:Trap) : void
    + ActivateTrap(trapId:int) : void
}
MonoBehaviour <|- - TrapsHandler
@enduml

PlantUML version 1.2020.02(Sun Mar 01 10:22:07 GMT 2020)
(GPL source distribution)
Java Runtime: OpenJDK Runtime Environment
JVM: OpenJDK 64-Bit Server VM
Java Version: 11.0.9+11-Ubuntu-0ubuntu1
Operating System: Linux
Default Encoding: ANSI_X3.4-1968
Language: en
Country: US
--></g></svg>