<?xml version="1.0" encoding="UTF-8" standalone="no"?><svg xmlns="http://www.w3.org/2000/svg" xmlns:xlink="http://www.w3.org/1999/xlink" contentScriptType="application/ecmascript" contentStyleType="text/css" height="264px" preserveAspectRatio="none" style="width:279px;height:264px;" version="1.1" viewBox="0 0 279 264" width="279px" zoomAndPan="magnify"><defs><filter height="300%" id="f124fso1j0os1x" width="300%" x="-1" y="-1"><feGaussianBlur result="blurOut" stdDeviation="2.0"/><feColorMatrix in="blurOut" result="blurOut2" type="matrix" values="0 0 0 0 0 0 0 0 0 0 0 0 0 0 0 0 0 0 .4 0"/><feOffset dx="4.0" dy="4.0" in="blurOut2" result="blurOut3"/><feBlend in="SourceGraphic" in2="blurOut3" mode="normal"/></filter></defs><g><!--MD5=[27c5a2a809d0cc42536cb46b7555e957]
class UIController--><rect fill="#FEFECE" filter="url(#f124fso1j0os1x)" height="137.6328" id="UIController" style="stroke: #A80036; stroke-width: 1.5;" width="262" x="6" y="116"/><ellipse cx="96.25" cy="132" fill="#ADD1B2" rx="11" ry="11" style="stroke: #A80036; stroke-width: 1.0;"/><path d="M99.2188,137.6406 Q98.6406,137.9375 98,138.0781 Q97.3594,138.2344 96.6563,138.2344 Q94.1563,138.2344 92.8281,136.5938 Q91.5156,134.9375 91.5156,131.8125 Q91.5156,128.6875 92.8281,127.0313 Q94.1563,125.375 96.6563,125.375 Q97.3594,125.375 98,125.5313 Q98.6563,125.6875 99.2188,125.9844 L99.2188,128.7031 Q98.5938,128.125 98,127.8594 Q97.4063,127.5781 96.7813,127.5781 Q95.4375,127.5781 94.75,128.6563 Q94.0625,129.7188 94.0625,131.8125 Q94.0625,133.9063 94.75,134.9844 Q95.4375,136.0469 96.7813,136.0469 Q97.4063,136.0469 98,135.7813 Q98.5938,135.5 99.2188,134.9219 L99.2188,137.6406 Z "/><text fill="#000000" font-family="sans-serif" font-size="12" lengthAdjust="spacingAndGlyphs" textLength="73" x="116.75" y="136.1543">UIController</text><line style="stroke: #A80036; stroke-width: 1.5;" x1="7" x2="267" y1="148" y2="148"/><line style="stroke: #A80036; stroke-width: 1.5;" x1="7" x2="267" y1="156" y2="156"/><ellipse cx="17" cy="167" fill="#84BE84" rx="3" ry="3" style="stroke: #038048; stroke-width: 1.0;"/><text fill="#000000" font-family="sans-serif" font-size="11" lengthAdjust="spacingAndGlyphs" textLength="115" x="26" y="170.2104">OnClickLogin() : void</text><ellipse cx="17" cy="179.8047" fill="#84BE84" rx="3" ry="3" style="stroke: #038048; stroke-width: 1.0;"/><text fill="#000000" font-family="sans-serif" font-size="11" lengthAdjust="spacingAndGlyphs" textLength="125" x="26" y="183.0151">OnClickSignUp() : void</text><ellipse cx="17" cy="192.6094" fill="#84BE84" rx="3" ry="3" style="stroke: #038048; stroke-width: 1.0;"/><text fill="#000000" font-family="sans-serif" font-size="11" lengthAdjust="spacingAndGlyphs" textLength="150" x="26" y="195.8198">OnClickUserLogout() : void</text><ellipse cx="17" cy="205.4141" fill="#84BE84" rx="3" ry="3" style="stroke: #038048; stroke-width: 1.0;"/><text fill="#000000" font-family="sans-serif" font-size="11" lengthAdjust="spacingAndGlyphs" textLength="161" x="26" y="208.6245">OnClickServerLogout() : void</text><ellipse cx="17" cy="218.2188" fill="#84BE84" rx="3" ry="3" style="stroke: #038048; stroke-width: 1.0;"/><text fill="#000000" font-family="sans-serif" font-size="11" lengthAdjust="spacingAndGlyphs" textLength="177" x="26" y="221.4292">OnClickCompleteLogout() : void</text><ellipse cx="17" cy="231.0234" fill="#84BE84" rx="3" ry="3" style="stroke: #038048; stroke-width: 1.0;"/><text fill="#000000" font-family="sans-serif" font-size="11" lengthAdjust="spacingAndGlyphs" textLength="236" x="26" y="234.2339">OpenNew(newWindow:GameObject) : void</text><ellipse cx="17" cy="243.8281" fill="#84BE84" rx="3" ry="3" style="stroke: #038048; stroke-width: 1.0;"/><text fill="#000000" font-family="sans-serif" font-size="11" lengthAdjust="spacingAndGlyphs" textLength="227" x="26" y="247.0386">CloseOld(oldWindow:GameObject) : void</text><!--MD5=[83b3cf3d23d77c6f1e1b5291a241bc2a]
class MonoBehaviour--><rect fill="#FEFECE" filter="url(#f124fso1j0os1x)" height="48" id="MonoBehaviour" style="stroke: #A80036; stroke-width: 1.5;" width="128" x="73" y="8"/><ellipse cx="88" cy="24" fill="#ADD1B2" rx="11" ry="11" style="stroke: #A80036; stroke-width: 1.0;"/><path d="M90.9688,29.6406 Q90.3906,29.9375 89.75,30.0781 Q89.1094,30.2344 88.4063,30.2344 Q85.9063,30.2344 84.5781,28.5938 Q83.2656,26.9375 83.2656,23.8125 Q83.2656,20.6875 84.5781,19.0313 Q85.9063,17.375 88.4063,17.375 Q89.1094,17.375 89.75,17.5313 Q90.4063,17.6875 90.9688,17.9844 L90.9688,20.7031 Q90.3438,20.125 89.75,19.8594 Q89.1563,19.5781 88.5313,19.5781 Q87.1875,19.5781 86.5,20.6563 Q85.8125,21.7188 85.8125,23.8125 Q85.8125,25.9063 86.5,26.9844 Q87.1875,28.0469 88.5313,28.0469 Q89.1563,28.0469 89.75,27.7813 Q90.3438,27.5 90.9688,26.9219 L90.9688,29.6406 Z "/><text fill="#000000" font-family="sans-serif" font-size="12" lengthAdjust="spacingAndGlyphs" textLength="96" x="102" y="28.1543">MonoBehaviour</text><line style="stroke: #A80036; stroke-width: 1.5;" x1="74" x2="200" y1="40" y2="40"/><line style="stroke: #A80036; stroke-width: 1.5;" x1="74" x2="200" y1="48" y2="48"/><!--MD5=[96d58161a0e633c956a8b69b702e98f8]
reverse link MonoBehaviour to UIController--><path d="M137,76.56 C137,88.87 137,102.57 137,115.96 " fill="none" id="MonoBehaviour&lt;-UIController" style="stroke: #A80036; stroke-width: 1.0;"/><polygon fill="none" points="130,76.26,137,56.26,144,76.26,130,76.26" style="stroke: #A80036; stroke-width: 1.0;"/><!--MD5=[f0bb9b403eaf5bcc24e8a4534583ac72]
@startuml
class UIController {
    + OnClickLogin() : void
    + OnClickSignUp() : void
    + OnClickUserLogout() : void
    + OnClickServerLogout() : void
    + OnClickCompleteLogout() : void
    + OpenNew(newWindow:GameObject) : void
    + CloseOld(oldWindow:GameObject) : void
}
MonoBehaviour <|- - UIController
@enduml

PlantUML version 1.2020.02(Sun Mar 01 10:22:07 GMT 2020)
(GPL source distribution)
Java Runtime: OpenJDK Runtime Environment
JVM: OpenJDK 64-Bit Server VM
Java Version: 11.0.9+11-Ubuntu-0ubuntu1
Operating System: Linux
Default Encoding: ANSI_X3.4-1968
Language: en
Country: US
--></g></svg>