<?xml version="1.0" encoding="UTF-8" standalone="no"?><svg xmlns="http://www.w3.org/2000/svg" xmlns:xlink="http://www.w3.org/1999/xlink" contentScriptType="application/ecmascript" contentStyleType="text/css" height="213px" preserveAspectRatio="none" style="width:246px;height:213px;" version="1.1" viewBox="0 0 246 213" width="246px" zoomAndPan="magnify"><defs><filter height="300%" id="fimqyvdpjk50p" width="300%" x="-1" y="-1"><feGaussianBlur result="blurOut" stdDeviation="2.0"/><feColorMatrix in="blurOut" result="blurOut2" type="matrix" values="0 0 0 0 0 0 0 0 0 0 0 0 0 0 0 0 0 0 .4 0"/><feOffset dx="4.0" dy="4.0" in="blurOut2" result="blurOut3"/><feBlend in="SourceGraphic" in2="blurOut3" mode="normal"/></filter></defs><g><!--MD5=[23f977e3f9dfe7839dc62ec46a91437f]
class ValidationMessage--><rect fill="#FEFECE" filter="url(#fimqyvdpjk50p)" height="86.4141" id="ValidationMessage" style="stroke: #A80036; stroke-width: 1.5;" width="229" x="6" y="116"/><ellipse cx="57.25" cy="132" fill="#ADD1B2" rx="11" ry="11" style="stroke: #A80036; stroke-width: 1.0;"/><path d="M60.2188,137.6406 Q59.6406,137.9375 59,138.0781 Q58.3594,138.2344 57.6563,138.2344 Q55.1563,138.2344 53.8281,136.5938 Q52.5156,134.9375 52.5156,131.8125 Q52.5156,128.6875 53.8281,127.0313 Q55.1563,125.375 57.6563,125.375 Q58.3594,125.375 59,125.5313 Q59.6563,125.6875 60.2188,125.9844 L60.2188,128.7031 Q59.5938,128.125 59,127.8594 Q58.4063,127.5781 57.7813,127.5781 Q56.4375,127.5781 55.75,128.6563 Q55.0625,129.7188 55.0625,131.8125 Q55.0625,133.9063 55.75,134.9844 Q56.4375,136.0469 57.7813,136.0469 Q58.4063,136.0469 59,135.7813 Q59.5938,135.5 60.2188,134.9219 L60.2188,137.6406 Z "/><text fill="#000000" font-family="sans-serif" font-size="12" lengthAdjust="spacingAndGlyphs" textLength="118" x="77.75" y="136.1543">ValidationMessage</text><line style="stroke: #A80036; stroke-width: 1.5;" x1="7" x2="234" y1="148" y2="148"/><line style="stroke: #A80036; stroke-width: 1.5;" x1="7" x2="234" y1="156" y2="156"/><ellipse cx="17" cy="167" fill="#84BE84" rx="3" ry="3" style="stroke: #038048; stroke-width: 1.0;"/><text fill="#000000" font-family="sans-serif" font-size="11" lengthAdjust="spacingAndGlyphs" textLength="138" x="26" y="170.2104">ActivateMessage() : void</text><ellipse cx="17" cy="179.8047" fill="#84BE84" rx="3" ry="3" style="stroke: #038048; stroke-width: 1.0;"/><text fill="#000000" font-family="sans-serif" font-size="11" lengthAdjust="spacingAndGlyphs" textLength="163" x="26" y="183.0151">ForceCancelMessage() : void</text><ellipse cx="17" cy="192.6094" fill="#84BE84" rx="3" ry="3" style="stroke: #038048; stroke-width: 1.0;"/><text fill="#000000" font-family="sans-serif" font-size="11" lengthAdjust="spacingAndGlyphs" textLength="203" x="26" y="195.8198">SetMessage(message:string) : void</text><!--MD5=[83b3cf3d23d77c6f1e1b5291a241bc2a]
class MonoBehaviour--><rect fill="#FEFECE" filter="url(#fimqyvdpjk50p)" height="48" id="MonoBehaviour" style="stroke: #A80036; stroke-width: 1.5;" width="128" x="56.5" y="8"/><ellipse cx="71.5" cy="24" fill="#ADD1B2" rx="11" ry="11" style="stroke: #A80036; stroke-width: 1.0;"/><path d="M74.4688,29.6406 Q73.8906,29.9375 73.25,30.0781 Q72.6094,30.2344 71.9063,30.2344 Q69.4063,30.2344 68.0781,28.5938 Q66.7656,26.9375 66.7656,23.8125 Q66.7656,20.6875 68.0781,19.0313 Q69.4063,17.375 71.9063,17.375 Q72.6094,17.375 73.25,17.5313 Q73.9063,17.6875 74.4688,17.9844 L74.4688,20.7031 Q73.8438,20.125 73.25,19.8594 Q72.6563,19.5781 72.0313,19.5781 Q70.6875,19.5781 70,20.6563 Q69.3125,21.7188 69.3125,23.8125 Q69.3125,25.9063 70,26.9844 Q70.6875,28.0469 72.0313,28.0469 Q72.6563,28.0469 73.25,27.7813 Q73.8438,27.5 74.4688,26.9219 L74.4688,29.6406 Z "/><text fill="#000000" font-family="sans-serif" font-size="12" lengthAdjust="spacingAndGlyphs" textLength="96" x="85.5" y="28.1543">MonoBehaviour</text><line style="stroke: #A80036; stroke-width: 1.5;" x1="57.5" x2="183.5" y1="40" y2="40"/><line style="stroke: #A80036; stroke-width: 1.5;" x1="57.5" x2="183.5" y1="48" y2="48"/><!--MD5=[12d85280c8001e8f462ae2d2ce2743b4]
reverse link MonoBehaviour to ValidationMessage--><path d="M120.5,76.27 C120.5,89.12 120.5,103.17 120.5,115.94 " fill="none" id="MonoBehaviour&lt;-ValidationMessage" style="stroke: #A80036; stroke-width: 1.0;"/><polygon fill="none" points="113.5,76.22,120.5,56.22,127.5,76.22,113.5,76.22" style="stroke: #A80036; stroke-width: 1.0;"/><!--MD5=[e3a5956b9a19dddde5b67779e2360af5]
@startuml
class ValidationMessage {
    + ActivateMessage() : void
    + ForceCancelMessage() : void
    + SetMessage(message:string) : void
}
MonoBehaviour <|- - ValidationMessage
@enduml

PlantUML version 1.2020.02(Sun Mar 01 10:22:07 GMT 2020)
(GPL source distribution)
Java Runtime: OpenJDK Runtime Environment
JVM: OpenJDK 64-Bit Server VM
Java Version: 11.0.9+11-Ubuntu-0ubuntu1
Operating System: Linux
Default Encoding: ANSI_X3.4-1968
Language: en
Country: US
--></g></svg>