<?xml version="1.0" encoding="UTF-8" standalone="no"?><svg xmlns="http://www.w3.org/2000/svg" xmlns:xlink="http://www.w3.org/1999/xlink" contentScriptType="application/ecmascript" contentStyleType="text/css" height="187px" preserveAspectRatio="none" style="width:347px;height:187px;" version="1.1" viewBox="0 0 347 187" width="347px" zoomAndPan="magnify"><defs><filter height="300%" id="f12kyhuxj3zhpq" width="300%" x="-1" y="-1"><feGaussianBlur result="blurOut" stdDeviation="2.0"/><feColorMatrix in="blurOut" result="blurOut2" type="matrix" values="0 0 0 0 0 0 0 0 0 0 0 0 0 0 0 0 0 0 .4 0"/><feOffset dx="4.0" dy="4.0" in="blurOut2" result="blurOut3"/><feBlend in="SourceGraphic" in2="blurOut3" mode="normal"/></filter></defs><g><!--MD5=[5a92549e0f3cc6875e89531334ca681f]
class WebRequest--><rect fill="#FEFECE" filter="url(#f12kyhuxj3zhpq)" height="60.8047" id="WebRequest" style="stroke: #A80036; stroke-width: 1.5;" width="330" x="6" y="116"/><ellipse cx="127.25" cy="132" fill="#ADD1B2" rx="11" ry="11" style="stroke: #A80036; stroke-width: 1.0;"/><path d="M130.2188,137.6406 Q129.6406,137.9375 129,138.0781 Q128.3594,138.2344 127.6563,138.2344 Q125.1563,138.2344 123.8281,136.5938 Q122.5156,134.9375 122.5156,131.8125 Q122.5156,128.6875 123.8281,127.0313 Q125.1563,125.375 127.6563,125.375 Q128.3594,125.375 129,125.5313 Q129.6563,125.6875 130.2188,125.9844 L130.2188,128.7031 Q129.5938,128.125 129,127.8594 Q128.4063,127.5781 127.7813,127.5781 Q126.4375,127.5781 125.75,128.6563 Q125.0625,129.7188 125.0625,131.8125 Q125.0625,133.9063 125.75,134.9844 Q126.4375,136.0469 127.7813,136.0469 Q128.4063,136.0469 129,135.7813 Q129.5938,135.5 130.2188,134.9219 L130.2188,137.6406 Z "/><text fill="#000000" font-family="sans-serif" font-size="12" lengthAdjust="spacingAndGlyphs" textLength="79" x="147.75" y="136.1543">WebRequest</text><line style="stroke: #A80036; stroke-width: 1.5;" x1="7" x2="335" y1="148" y2="148"/><line style="stroke: #A80036; stroke-width: 1.5;" x1="7" x2="335" y1="156" y2="156"/><ellipse cx="17" cy="167" fill="#84BE84" rx="3" ry="3" style="stroke: #038048; stroke-width: 1.0;"/><text fill="#000000" font-family="sans-serif" font-size="11" lengthAdjust="spacingAndGlyphs" textLength="304" x="26" y="170.2104">Request(uri:string, callback:Action&lt;T&gt;) : IEnumerator</text><!--MD5=[83b3cf3d23d77c6f1e1b5291a241bc2a]
class MonoBehaviour--><rect fill="#FEFECE" filter="url(#f12kyhuxj3zhpq)" height="48" id="MonoBehaviour" style="stroke: #A80036; stroke-width: 1.5;" width="128" x="107" y="8"/><ellipse cx="122" cy="24" fill="#ADD1B2" rx="11" ry="11" style="stroke: #A80036; stroke-width: 1.0;"/><path d="M124.9688,29.6406 Q124.3906,29.9375 123.75,30.0781 Q123.1094,30.2344 122.4063,30.2344 Q119.9063,30.2344 118.5781,28.5938 Q117.2656,26.9375 117.2656,23.8125 Q117.2656,20.6875 118.5781,19.0313 Q119.9063,17.375 122.4063,17.375 Q123.1094,17.375 123.75,17.5313 Q124.4063,17.6875 124.9688,17.9844 L124.9688,20.7031 Q124.3438,20.125 123.75,19.8594 Q123.1563,19.5781 122.5313,19.5781 Q121.1875,19.5781 120.5,20.6563 Q119.8125,21.7188 119.8125,23.8125 Q119.8125,25.9063 120.5,26.9844 Q121.1875,28.0469 122.5313,28.0469 Q123.1563,28.0469 123.75,27.7813 Q124.3438,27.5 124.9688,26.9219 L124.9688,29.6406 Z "/><text fill="#000000" font-family="sans-serif" font-size="12" lengthAdjust="spacingAndGlyphs" textLength="96" x="136" y="28.1543">MonoBehaviour</text><line style="stroke: #A80036; stroke-width: 1.5;" x1="108" x2="234" y1="40" y2="40"/><line style="stroke: #A80036; stroke-width: 1.5;" x1="108" x2="234" y1="48" y2="48"/><!--MD5=[012fc79ba65742e6ed174a5915e7d742]
reverse link MonoBehaviour to WebRequest--><path d="M171,76.11 C171,89.31 171,103.54 171,115.65 " fill="none" id="MonoBehaviour&lt;-WebRequest" style="stroke: #A80036; stroke-width: 1.0;"/><polygon fill="none" points="164,76.04,171,56.04,178,76.04,164,76.04" style="stroke: #A80036; stroke-width: 1.0;"/><!--MD5=[e5209224ca91187a8f7b863c1d2e0909]
@startuml
class WebRequest {
    + Request(uri:string, callback:Action<T>) : IEnumerator
}
MonoBehaviour <|- - WebRequest
@enduml

PlantUML version 1.2020.02(Sun Mar 01 10:22:07 GMT 2020)
(GPL source distribution)
Java Runtime: OpenJDK Runtime Environment
JVM: OpenJDK 64-Bit Server VM
Java Version: 11.0.9+11-Ubuntu-0ubuntu1
Operating System: Linux
Default Encoding: ANSI_X3.4-1968
Language: en
Country: US
--></g></svg>