<?xml version="1.0" encoding="UTF-8" standalone="no"?><svg xmlns="http://www.w3.org/2000/svg" xmlns:xlink="http://www.w3.org/1999/xlink" contentScriptType="application/ecmascript" contentStyleType="text/css" height="334px" preserveAspectRatio="none" style="width:334px;height:334px;" version="1.1" viewBox="0 0 334 334" width="334px" zoomAndPan="magnify"><defs><filter height="300%" id="fr7xtel3iiel6" width="300%" x="-1" y="-1"><feGaussianBlur result="blurOut" stdDeviation="2.0"/><feColorMatrix in="blurOut" result="blurOut2" type="matrix" values="0 0 0 0 0 0 0 0 0 0 0 0 0 0 0 0 0 0 .4 0"/><feOffset dx="4.0" dy="4.0" in="blurOut2" result="blurOut3"/><feBlend in="SourceGraphic" in2="blurOut3" mode="normal"/></filter></defs><g><!--MD5=[992eeba2a5e61a6a95b623414d5a0c1b]
class BaseClient--><rect fill="#FEFECE" filter="url(#fr7xtel3iiel6)" height="99.2188" id="BaseClient" style="stroke: #A80036; stroke-width: 1.5;" width="317" x="6" y="116"/><ellipse cx="127.25" cy="132" fill="#ADD1B2" rx="11" ry="11" style="stroke: #A80036; stroke-width: 1.0;"/><path d="M130.2188,137.6406 Q129.6406,137.9375 129,138.0781 Q128.3594,138.2344 127.6563,138.2344 Q125.1563,138.2344 123.8281,136.5938 Q122.5156,134.9375 122.5156,131.8125 Q122.5156,128.6875 123.8281,127.0313 Q125.1563,125.375 127.6563,125.375 Q128.3594,125.375 129,125.5313 Q129.6563,125.6875 130.2188,125.9844 L130.2188,128.7031 Q129.5938,128.125 129,127.8594 Q128.4063,127.5781 127.7813,127.5781 Q126.4375,127.5781 125.75,128.6563 Q125.0625,129.7188 125.0625,131.8125 Q125.0625,133.9063 125.75,134.9844 Q126.4375,136.0469 127.7813,136.0469 Q128.4063,136.0469 129,135.7813 Q129.5938,135.5 130.2188,134.9219 L130.2188,137.6406 Z "/><text fill="#000000" font-family="sans-serif" font-size="12" lengthAdjust="spacingAndGlyphs" textLength="66" x="147.75" y="136.1543">BaseClient</text><line style="stroke: #A80036; stroke-width: 1.5;" x1="7" x2="322" y1="148" y2="148"/><ellipse cx="17" cy="159" fill="none" rx="3" ry="3" style="stroke: #038048; stroke-width: 1.0;"/><text fill="#000000" font-family="sans-serif" font-size="11" lengthAdjust="spacingAndGlyphs" textLength="136" x="26" y="162.2104">ip : string = "127.0.0.1"</text><ellipse cx="17" cy="171.8047" fill="none" rx="3" ry="3" style="stroke: #038048; stroke-width: 1.0;"/><text fill="#000000" font-family="sans-serif" font-size="11" lengthAdjust="spacingAndGlyphs" textLength="117" x="26" y="175.0151">port : ushort = 9000</text><line style="stroke: #A80036; stroke-width: 1.5;" x1="7" x2="322" y1="181.6094" y2="181.6094"/><ellipse cx="17" cy="192.6094" fill="#84BE84" rx="3" ry="3" style="stroke: #038048; stroke-width: 1.0;"/><text fill="#000000" font-family="sans-serif" font-size="11" lengthAdjust="spacingAndGlyphs" textLength="291" x="26" y="195.8198">«virtual» OnData(stream:DataStreamReader) : void</text><ellipse cx="17" cy="205.4141" fill="#84BE84" rx="3" ry="3" style="stroke: #038048; stroke-width: 1.0;"/><text fill="#000000" font-family="sans-serif" font-size="11" lengthAdjust="spacingAndGlyphs" textLength="223" x="26" y="208.6245">SendToServer(msg:NetMessage) : void</text><!--MD5=[83b3cf3d23d77c6f1e1b5291a241bc2a]
class MonoBehaviour--><rect fill="#FEFECE" filter="url(#fr7xtel3iiel6)" height="48" id="MonoBehaviour" style="stroke: #A80036; stroke-width: 1.5;" width="128" x="100.5" y="8"/><ellipse cx="115.5" cy="24" fill="#ADD1B2" rx="11" ry="11" style="stroke: #A80036; stroke-width: 1.0;"/><path d="M118.4688,29.6406 Q117.8906,29.9375 117.25,30.0781 Q116.6094,30.2344 115.9063,30.2344 Q113.4063,30.2344 112.0781,28.5938 Q110.7656,26.9375 110.7656,23.8125 Q110.7656,20.6875 112.0781,19.0313 Q113.4063,17.375 115.9063,17.375 Q116.6094,17.375 117.25,17.5313 Q117.9063,17.6875 118.4688,17.9844 L118.4688,20.7031 Q117.8438,20.125 117.25,19.8594 Q116.6563,19.5781 116.0313,19.5781 Q114.6875,19.5781 114,20.6563 Q113.3125,21.7188 113.3125,23.8125 Q113.3125,25.9063 114,26.9844 Q114.6875,28.0469 116.0313,28.0469 Q116.6563,28.0469 117.25,27.7813 Q117.8438,27.5 118.4688,26.9219 L118.4688,29.6406 Z "/><text fill="#000000" font-family="sans-serif" font-size="12" lengthAdjust="spacingAndGlyphs" textLength="96" x="129.5" y="28.1543">MonoBehaviour</text><line style="stroke: #A80036; stroke-width: 1.5;" x1="101.5" x2="227.5" y1="40" y2="40"/><line style="stroke: #A80036; stroke-width: 1.5;" x1="101.5" x2="227.5" y1="48" y2="48"/><!--MD5=[e36484d3710f4c7dd7f938679417ffd6]
class NetworkDriver--><rect fill="#FEFECE" filter="url(#fr7xtel3iiel6)" height="48" id="NetworkDriver" style="stroke: #A80036; stroke-width: 1.5;" width="119" x="105" y="275"/><ellipse cx="120" cy="291" fill="#ADD1B2" rx="11" ry="11" style="stroke: #A80036; stroke-width: 1.0;"/><path d="M122.9688,296.6406 Q122.3906,296.9375 121.75,297.0781 Q121.1094,297.2344 120.4063,297.2344 Q117.9063,297.2344 116.5781,295.5938 Q115.2656,293.9375 115.2656,290.8125 Q115.2656,287.6875 116.5781,286.0313 Q117.9063,284.375 120.4063,284.375 Q121.1094,284.375 121.75,284.5313 Q122.4063,284.6875 122.9688,284.9844 L122.9688,287.7031 Q122.3438,287.125 121.75,286.8594 Q121.1563,286.5781 120.5313,286.5781 Q119.1875,286.5781 118.5,287.6563 Q117.8125,288.7188 117.8125,290.8125 Q117.8125,292.9063 118.5,293.9844 Q119.1875,295.0469 120.5313,295.0469 Q121.1563,295.0469 121.75,294.7813 Q122.3438,294.5 122.9688,293.9219 L122.9688,296.6406 Z "/><text fill="#000000" font-family="sans-serif" font-size="12" lengthAdjust="spacingAndGlyphs" textLength="87" x="134" y="295.1543">NetworkDriver</text><line style="stroke: #A80036; stroke-width: 1.5;" x1="106" x2="223" y1="307" y2="307"/><line style="stroke: #A80036; stroke-width: 1.5;" x1="106" x2="223" y1="315" y2="315"/><!--MD5=[0d2301ae466a311c7397cf4e7344757d]
reverse link MonoBehaviour to BaseClient--><path d="M164.5,76.51 C164.5,89.14 164.5,103.01 164.5,115.93 " fill="none" id="MonoBehaviour&lt;-BaseClient" style="stroke: #A80036; stroke-width: 1.0;"/><polygon fill="none" points="157.5,76.21,164.5,56.21,171.5,76.21,157.5,76.21" style="stroke: #A80036; stroke-width: 1.0;"/><!--MD5=[9728fbfc6074e062ac92f532e8417b57]
link BaseClient to NetworkDriver--><path d="M164.5,215.09 C164.5,233.5 164.5,253.83 164.5,269.75 " fill="none" id="BaseClient-&gt;NetworkDriver" style="stroke: #A80036; stroke-width: 1.0;"/><polygon fill="#A80036" points="164.5,274.98,168.5,265.98,164.5,269.98,160.5,265.98,164.5,274.98" style="stroke: #A80036; stroke-width: 1.0;"/><text fill="#000000" font-family="sans-serif" font-size="13" lengthAdjust="spacingAndGlyphs" textLength="36" x="123.8875" y="263.9869">driver</text><!--MD5=[73913f0ab5a3451a5a8b4844fe6b5cab]
@startuml
class BaseClient {
    + ip : string = "127.0.0.1"
    + port : ushort = 9000
    + <<virtual>> OnData(stream:DataStreamReader) : void
    + SendToServer(msg:NetMessage) : void
}
MonoBehaviour <|- - BaseClient
BaseClient - -> "driver" NetworkDriver
@enduml

PlantUML version 1.2020.02(Sun Mar 01 10:22:07 GMT 2020)
(GPL source distribution)
Java Runtime: OpenJDK Runtime Environment
JVM: OpenJDK 64-Bit Server VM
Java Version: 11.0.9+11-Ubuntu-0ubuntu1
Operating System: Linux
Default Encoding: ANSI_X3.4-1968
Language: en
Country: US
--></g></svg>