<?xml version="1.0" encoding="UTF-8" standalone="no"?><svg xmlns="http://www.w3.org/2000/svg" xmlns:xlink="http://www.w3.org/1999/xlink" contentScriptType="application/ecmascript" contentStyleType="text/css" height="296px" preserveAspectRatio="none" style="width:325px;height:296px;" version="1.1" viewBox="0 0 325 296" width="325px" zoomAndPan="magnify"><defs><filter height="300%" id="f1xqogajy2onn7" width="300%" x="-1" y="-1"><feGaussianBlur result="blurOut" stdDeviation="2.0"/><feColorMatrix in="blurOut" result="blurOut2" type="matrix" values="0 0 0 0 0 0 0 0 0 0 0 0 0 0 0 0 0 0 .4 0"/><feOffset dx="4.0" dy="4.0" in="blurOut2" result="blurOut3"/><feBlend in="SourceGraphic" in2="blurOut3" mode="normal"/></filter></defs><g><!--MD5=[3efed0acdfae30a3b0deb846ab0e5df6]
class ClientBehaviourExample--><rect fill="#FEFECE" filter="url(#f1xqogajy2onn7)" height="60.8047" id="ClientBehaviourExample" style="stroke: #A80036; stroke-width: 1.5;" width="181" x="61" y="116"/><ellipse cx="76" cy="132" fill="#ADD1B2" rx="11" ry="11" style="stroke: #A80036; stroke-width: 1.0;"/><path d="M78.9688,137.6406 Q78.3906,137.9375 77.75,138.0781 Q77.1094,138.2344 76.4063,138.2344 Q73.9063,138.2344 72.5781,136.5938 Q71.2656,134.9375 71.2656,131.8125 Q71.2656,128.6875 72.5781,127.0313 Q73.9063,125.375 76.4063,125.375 Q77.1094,125.375 77.75,125.5313 Q78.4063,125.6875 78.9688,125.9844 L78.9688,128.7031 Q78.3438,128.125 77.75,127.8594 Q77.1563,127.5781 76.5313,127.5781 Q75.1875,127.5781 74.5,128.6563 Q73.8125,129.7188 73.8125,131.8125 Q73.8125,133.9063 74.5,134.9844 Q75.1875,136.0469 76.5313,136.0469 Q77.1563,136.0469 77.75,135.7813 Q78.3438,135.5 78.9688,134.9219 L78.9688,137.6406 Z "/><text fill="#000000" font-family="sans-serif" font-size="12" lengthAdjust="spacingAndGlyphs" textLength="149" x="90" y="136.1543">ClientBehaviourExample</text><line style="stroke: #A80036; stroke-width: 1.5;" x1="62" x2="241" y1="148" y2="148"/><ellipse cx="72" cy="159" fill="none" rx="3" ry="3" style="stroke: #038048; stroke-width: 1.0;"/><text fill="#000000" font-family="sans-serif" font-size="11" lengthAdjust="spacingAndGlyphs" textLength="65" x="81" y="162.2104">Done : bool</text><line style="stroke: #A80036; stroke-width: 1.5;" x1="62" x2="241" y1="168.8047" y2="168.8047"/><!--MD5=[83b3cf3d23d77c6f1e1b5291a241bc2a]
class MonoBehaviour--><rect fill="#FEFECE" filter="url(#f1xqogajy2onn7)" height="48" id="MonoBehaviour" style="stroke: #A80036; stroke-width: 1.5;" width="128" x="87.5" y="8"/><ellipse cx="102.5" cy="24" fill="#ADD1B2" rx="11" ry="11" style="stroke: #A80036; stroke-width: 1.0;"/><path d="M105.4688,29.6406 Q104.8906,29.9375 104.25,30.0781 Q103.6094,30.2344 102.9063,30.2344 Q100.4063,30.2344 99.0781,28.5938 Q97.7656,26.9375 97.7656,23.8125 Q97.7656,20.6875 99.0781,19.0313 Q100.4063,17.375 102.9063,17.375 Q103.6094,17.375 104.25,17.5313 Q104.9063,17.6875 105.4688,17.9844 L105.4688,20.7031 Q104.8438,20.125 104.25,19.8594 Q103.6563,19.5781 103.0313,19.5781 Q101.6875,19.5781 101,20.6563 Q100.3125,21.7188 100.3125,23.8125 Q100.3125,25.9063 101,26.9844 Q101.6875,28.0469 103.0313,28.0469 Q103.6563,28.0469 104.25,27.7813 Q104.8438,27.5 105.4688,26.9219 L105.4688,29.6406 Z "/><text fill="#000000" font-family="sans-serif" font-size="12" lengthAdjust="spacingAndGlyphs" textLength="96" x="116.5" y="28.1543">MonoBehaviour</text><line style="stroke: #A80036; stroke-width: 1.5;" x1="88.5" x2="214.5" y1="40" y2="40"/><line style="stroke: #A80036; stroke-width: 1.5;" x1="88.5" x2="214.5" y1="48" y2="48"/><!--MD5=[e36484d3710f4c7dd7f938679417ffd6]
class NetworkDriver--><rect fill="#FEFECE" filter="url(#f1xqogajy2onn7)" height="48" id="NetworkDriver" style="stroke: #A80036; stroke-width: 1.5;" width="119" x="6" y="237"/><ellipse cx="21" cy="253" fill="#ADD1B2" rx="11" ry="11" style="stroke: #A80036; stroke-width: 1.0;"/><path d="M23.9688,258.6406 Q23.3906,258.9375 22.75,259.0781 Q22.1094,259.2344 21.4063,259.2344 Q18.9063,259.2344 17.5781,257.5938 Q16.2656,255.9375 16.2656,252.8125 Q16.2656,249.6875 17.5781,248.0313 Q18.9063,246.375 21.4063,246.375 Q22.1094,246.375 22.75,246.5313 Q23.4063,246.6875 23.9688,246.9844 L23.9688,249.7031 Q23.3438,249.125 22.75,248.8594 Q22.1563,248.5781 21.5313,248.5781 Q20.1875,248.5781 19.5,249.6563 Q18.8125,250.7188 18.8125,252.8125 Q18.8125,254.9063 19.5,255.9844 Q20.1875,257.0469 21.5313,257.0469 Q22.1563,257.0469 22.75,256.7813 Q23.3438,256.5 23.9688,255.9219 L23.9688,258.6406 Z "/><text fill="#000000" font-family="sans-serif" font-size="12" lengthAdjust="spacingAndGlyphs" textLength="87" x="35" y="257.1543">NetworkDriver</text><line style="stroke: #A80036; stroke-width: 1.5;" x1="7" x2="124" y1="269" y2="269"/><line style="stroke: #A80036; stroke-width: 1.5;" x1="7" x2="124" y1="277" y2="277"/><!--MD5=[a531a38422ca2a66a2aba57a3c9412d5]
class NetworkConnection--><rect fill="#FEFECE" filter="url(#f1xqogajy2onn7)" height="48" id="NetworkConnection" style="stroke: #A80036; stroke-width: 1.5;" width="154" x="160.5" y="237"/><ellipse cx="175.5" cy="253" fill="#ADD1B2" rx="11" ry="11" style="stroke: #A80036; stroke-width: 1.0;"/><path d="M178.4688,258.6406 Q177.8906,258.9375 177.25,259.0781 Q176.6094,259.2344 175.9063,259.2344 Q173.4063,259.2344 172.0781,257.5938 Q170.7656,255.9375 170.7656,252.8125 Q170.7656,249.6875 172.0781,248.0313 Q173.4063,246.375 175.9063,246.375 Q176.6094,246.375 177.25,246.5313 Q177.9063,246.6875 178.4688,246.9844 L178.4688,249.7031 Q177.8438,249.125 177.25,248.8594 Q176.6563,248.5781 176.0313,248.5781 Q174.6875,248.5781 174,249.6563 Q173.3125,250.7188 173.3125,252.8125 Q173.3125,254.9063 174,255.9844 Q174.6875,257.0469 176.0313,257.0469 Q176.6563,257.0469 177.25,256.7813 Q177.8438,256.5 178.4688,255.9219 L178.4688,258.6406 Z "/><text fill="#000000" font-family="sans-serif" font-size="12" lengthAdjust="spacingAndGlyphs" textLength="122" x="189.5" y="257.1543">NetworkConnection</text><line style="stroke: #A80036; stroke-width: 1.5;" x1="161.5" x2="313.5" y1="269" y2="269"/><line style="stroke: #A80036; stroke-width: 1.5;" x1="161.5" x2="313.5" y1="277" y2="277"/><!--MD5=[82125dafb3c567ba81571aab040b7979]
reverse link MonoBehaviour to ClientBehaviourExample--><path d="M151.5,76.11 C151.5,89.31 151.5,103.54 151.5,115.65 " fill="none" id="MonoBehaviour&lt;-ClientBehaviourExample" style="stroke: #A80036; stroke-width: 1.0;"/><polygon fill="none" points="144.5,76.04,151.5,56.04,158.5,76.04,144.5,76.04" style="stroke: #A80036; stroke-width: 1.0;"/><!--MD5=[ecef009c7e70a16ad9713cb2ef135986]
link ClientBehaviourExample to NetworkDriver--><path d="M128.9,177.06 C115.78,194.22 99.36,215.7 86.52,232.5 " fill="none" id="ClientBehaviourExample-&gt;NetworkDriver" style="stroke: #A80036; stroke-width: 1.0;"/><polygon fill="#A80036" points="83.34,236.67,91.9889,231.9587,86.381,232.701,85.6386,227.0931,83.34,236.67" style="stroke: #A80036; stroke-width: 1.0;"/><text fill="#000000" font-family="sans-serif" font-size="13" lengthAdjust="spacingAndGlyphs" textLength="36" x="47.301" y="225.9945">driver</text><!--MD5=[ab2f9e96edb4262ee27c8e7f78ff1ee4]
link ClientBehaviourExample to NetworkConnection--><path d="M174.1,177.06 C187.22,194.22 203.64,215.7 216.48,232.5 " fill="none" id="ClientBehaviourExample-&gt;NetworkConnection" style="stroke: #A80036; stroke-width: 1.0;"/><polygon fill="#A80036" points="219.66,236.67,217.3614,227.0931,216.619,232.701,211.0111,231.9587,219.66,236.67" style="stroke: #A80036; stroke-width: 1.0;"/><text fill="#000000" font-family="sans-serif" font-size="13" lengthAdjust="spacingAndGlyphs" textLength="70" x="136.7803" y="225.9945">connection</text><!--MD5=[df7d9cfb923331f587ecdffc1bc865a0]
@startuml
class ClientBehaviourExample {
    + Done : bool
}
MonoBehaviour <|- - ClientBehaviourExample
ClientBehaviourExample - -> "driver" NetworkDriver
ClientBehaviourExample - -> "connection" NetworkConnection
@enduml

PlantUML version 1.2020.02(Sun Mar 01 10:22:07 GMT 2020)
(GPL source distribution)
Java Runtime: OpenJDK Runtime Environment
JVM: OpenJDK 64-Bit Server VM
Java Version: 11.0.9+11-Ubuntu-0ubuntu1
Operating System: Linux
Default Encoding: ANSI_X3.4-1968
Language: en
Country: US
--></g></svg>