<?xml version="1.0" encoding="UTF-8" standalone="no"?><svg xmlns="http://www.w3.org/2000/svg" xmlns:xlink="http://www.w3.org/1999/xlink" contentScriptType="application/ecmascript" contentStyleType="text/css" height="187px" preserveAspectRatio="none" style="width:311px;height:187px;" version="1.1" viewBox="0 0 311 187" width="311px" zoomAndPan="magnify"><defs><filter height="300%" id="fnm7me2hp5rxc" width="300%" x="-1" y="-1"><feGaussianBlur result="blurOut" stdDeviation="2.0"/><feColorMatrix in="blurOut" result="blurOut2" type="matrix" values="0 0 0 0 0 0 0 0 0 0 0 0 0 0 0 0 0 0 .4 0"/><feOffset dx="4.0" dy="4.0" in="blurOut2" result="blurOut3"/><feBlend in="SourceGraphic" in2="blurOut3" mode="normal"/></filter></defs><g><!--MD5=[8df89f63a75735f4278ae331bf0da1e1]
class CreateClient--><rect fill="#FEFECE" filter="url(#fnm7me2hp5rxc)" height="60.8047" id="CreateClient" style="stroke: #A80036; stroke-width: 1.5;" width="294" x="6" y="116"/><ellipse cx="110.25" cy="132" fill="#ADD1B2" rx="11" ry="11" style="stroke: #A80036; stroke-width: 1.0;"/><path d="M113.2188,137.6406 Q112.6406,137.9375 112,138.0781 Q111.3594,138.2344 110.6563,138.2344 Q108.1563,138.2344 106.8281,136.5938 Q105.5156,134.9375 105.5156,131.8125 Q105.5156,128.6875 106.8281,127.0313 Q108.1563,125.375 110.6563,125.375 Q111.3594,125.375 112,125.5313 Q112.6563,125.6875 113.2188,125.9844 L113.2188,128.7031 Q112.5938,128.125 112,127.8594 Q111.4063,127.5781 110.7813,127.5781 Q109.4375,127.5781 108.75,128.6563 Q108.0625,129.7188 108.0625,131.8125 Q108.0625,133.9063 108.75,134.9844 Q109.4375,136.0469 110.7813,136.0469 Q111.4063,136.0469 112,135.7813 Q112.5938,135.5 113.2188,134.9219 L113.2188,137.6406 Z "/><text fill="#000000" font-family="sans-serif" font-size="12" lengthAdjust="spacingAndGlyphs" textLength="77" x="130.75" y="136.1543">CreateClient</text><line style="stroke: #A80036; stroke-width: 1.5;" x1="7" x2="299" y1="148" y2="148"/><line style="stroke: #A80036; stroke-width: 1.5;" x1="7" x2="299" y1="156" y2="156"/><ellipse cx="17" cy="167" fill="#84BE84" rx="3" ry="3" style="stroke: #038048; stroke-width: 1.0;"/><text fill="#000000" font-family="sans-serif" font-size="11" lengthAdjust="spacingAndGlyphs" textLength="268" x="26" y="170.2104">CreateClientObject(ip:string, port:ushort) : void</text><!--MD5=[83b3cf3d23d77c6f1e1b5291a241bc2a]
class MonoBehaviour--><rect fill="#FEFECE" filter="url(#fnm7me2hp5rxc)" height="48" id="MonoBehaviour" style="stroke: #A80036; stroke-width: 1.5;" width="128" x="89" y="8"/><ellipse cx="104" cy="24" fill="#ADD1B2" rx="11" ry="11" style="stroke: #A80036; stroke-width: 1.0;"/><path d="M106.9688,29.6406 Q106.3906,29.9375 105.75,30.0781 Q105.1094,30.2344 104.4063,30.2344 Q101.9063,30.2344 100.5781,28.5938 Q99.2656,26.9375 99.2656,23.8125 Q99.2656,20.6875 100.5781,19.0313 Q101.9063,17.375 104.4063,17.375 Q105.1094,17.375 105.75,17.5313 Q106.4063,17.6875 106.9688,17.9844 L106.9688,20.7031 Q106.3438,20.125 105.75,19.8594 Q105.1563,19.5781 104.5313,19.5781 Q103.1875,19.5781 102.5,20.6563 Q101.8125,21.7188 101.8125,23.8125 Q101.8125,25.9063 102.5,26.9844 Q103.1875,28.0469 104.5313,28.0469 Q105.1563,28.0469 105.75,27.7813 Q106.3438,27.5 106.9688,26.9219 L106.9688,29.6406 Z "/><text fill="#000000" font-family="sans-serif" font-size="12" lengthAdjust="spacingAndGlyphs" textLength="96" x="118" y="28.1543">MonoBehaviour</text><line style="stroke: #A80036; stroke-width: 1.5;" x1="90" x2="216" y1="40" y2="40"/><line style="stroke: #A80036; stroke-width: 1.5;" x1="90" x2="216" y1="48" y2="48"/><!--MD5=[35c94c16b041da81ade76e699f557698]
reverse link MonoBehaviour to CreateClient--><path d="M153,76.11 C153,89.31 153,103.54 153,115.65 " fill="none" id="MonoBehaviour&lt;-CreateClient" style="stroke: #A80036; stroke-width: 1.0;"/><polygon fill="none" points="146,76.04,153,56.04,160,76.04,146,76.04" style="stroke: #A80036; stroke-width: 1.0;"/><!--MD5=[167c80bda5bbf6133d4f512aebf3d864]
@startuml
class CreateClient {
    + CreateClientObject(ip:string, port:ushort) : void
}
MonoBehaviour <|- - CreateClient
@enduml

PlantUML version 1.2020.02(Sun Mar 01 10:22:07 GMT 2020)
(GPL source distribution)
Java Runtime: OpenJDK Runtime Environment
JVM: OpenJDK 64-Bit Server VM
Java Version: 11.0.9+11-Ubuntu-0ubuntu1
Operating System: Linux
Default Encoding: ANSI_X3.4-1968
Language: en
Country: US
--></g></svg>