<?xml version="1.0" encoding="UTF-8" standalone="no"?><svg xmlns="http://www.w3.org/2000/svg" xmlns:xlink="http://www.w3.org/1999/xlink" contentScriptType="application/ecmascript" contentStyleType="text/css" height="296px" preserveAspectRatio="none" style="width:1150px;height:296px;" version="1.1" viewBox="0 0 1150 296" width="1150px" zoomAndPan="magnify"><defs><filter height="300%" id="f1kwhfzu010dx4" width="300%" x="-1" y="-1"><feGaussianBlur result="blurOut" stdDeviation="2.0"/><feColorMatrix in="blurOut" result="blurOut2" type="matrix" values="0 0 0 0 0 0 0 0 0 0 0 0 0 0 0 0 0 0 .4 0"/><feOffset dx="4.0" dy="4.0" in="blurOut2" result="blurOut3"/><feBlend in="SourceGraphic" in2="blurOut3" mode="normal"/></filter></defs><g><!--MD5=[0a7dac4942faf7b47aa23cf6f8b442ac]
class GameClient--><rect fill="#FEFECE" filter="url(#f1kwhfzu010dx4)" height="60.8047" id="GameClient" style="stroke: #A80036; stroke-width: 1.5;" width="329" x="399" y="116"/><ellipse cx="523.75" cy="132" fill="#ADD1B2" rx="11" ry="11" style="stroke: #A80036; stroke-width: 1.0;"/><path d="M526.7188,137.6406 Q526.1406,137.9375 525.5,138.0781 Q524.8594,138.2344 524.1563,138.2344 Q521.6563,138.2344 520.3281,136.5938 Q519.0156,134.9375 519.0156,131.8125 Q519.0156,128.6875 520.3281,127.0313 Q521.6563,125.375 524.1563,125.375 Q524.8594,125.375 525.5,125.5313 Q526.1563,125.6875 526.7188,125.9844 L526.7188,128.7031 Q526.0938,128.125 525.5,127.8594 Q524.9063,127.5781 524.2813,127.5781 Q522.9375,127.5781 522.25,128.6563 Q521.5625,129.7188 521.5625,131.8125 Q521.5625,133.9063 522.25,134.9844 Q522.9375,136.0469 524.2813,136.0469 Q524.9063,136.0469 525.5,135.7813 Q526.0938,135.5 526.7188,134.9219 L526.7188,137.6406 Z "/><text fill="#000000" font-family="sans-serif" font-size="12" lengthAdjust="spacingAndGlyphs" textLength="71" x="544.25" y="136.1543">GameClient</text><line style="stroke: #A80036; stroke-width: 1.5;" x1="400" x2="727" y1="148" y2="148"/><line style="stroke: #A80036; stroke-width: 1.5;" x1="400" x2="727" y1="156" y2="156"/><ellipse cx="410" cy="167" fill="#84BE84" rx="3" ry="3" style="stroke: #038048; stroke-width: 1.0;"/><text fill="#000000" font-family="sans-serif" font-size="11" lengthAdjust="spacingAndGlyphs" textLength="303" x="419" y="170.2104">«override» OnData(stream:DataStreamReader) : void</text><!--MD5=[992eeba2a5e61a6a95b623414d5a0c1b]
class BaseClient--><rect fill="#FEFECE" filter="url(#f1kwhfzu010dx4)" height="48" id="BaseClient" style="stroke: #A80036; stroke-width: 1.5;" width="98" x="514.5" y="8"/><ellipse cx="529.5" cy="24" fill="#ADD1B2" rx="11" ry="11" style="stroke: #A80036; stroke-width: 1.0;"/><path d="M532.4688,29.6406 Q531.8906,29.9375 531.25,30.0781 Q530.6094,30.2344 529.9063,30.2344 Q527.4063,30.2344 526.0781,28.5938 Q524.7656,26.9375 524.7656,23.8125 Q524.7656,20.6875 526.0781,19.0313 Q527.4063,17.375 529.9063,17.375 Q530.6094,17.375 531.25,17.5313 Q531.9063,17.6875 532.4688,17.9844 L532.4688,20.7031 Q531.8438,20.125 531.25,19.8594 Q530.6563,19.5781 530.0313,19.5781 Q528.6875,19.5781 528,20.6563 Q527.3125,21.7188 527.3125,23.8125 Q527.3125,25.9063 528,26.9844 Q528.6875,28.0469 530.0313,28.0469 Q530.6563,28.0469 531.25,27.7813 Q531.8438,27.5 532.4688,26.9219 L532.4688,29.6406 Z "/><text fill="#000000" font-family="sans-serif" font-size="12" lengthAdjust="spacingAndGlyphs" textLength="66" x="543.5" y="28.1543">BaseClient</text><line style="stroke: #A80036; stroke-width: 1.5;" x1="515.5" x2="611.5" y1="40" y2="40"/><line style="stroke: #A80036; stroke-width: 1.5;" x1="515.5" x2="611.5" y1="48" y2="48"/><!--MD5=[151ce45e1db33994b8ec420ec88d10e0]
class ChatBehaviour--><rect fill="#FEFECE" filter="url(#f1kwhfzu010dx4)" height="48" id="ChatBehaviour" style="stroke: #A80036; stroke-width: 1.5;" width="123" x="6" y="237"/><ellipse cx="21" cy="253" fill="#ADD1B2" rx="11" ry="11" style="stroke: #A80036; stroke-width: 1.0;"/><path d="M23.9688,258.6406 Q23.3906,258.9375 22.75,259.0781 Q22.1094,259.2344 21.4063,259.2344 Q18.9063,259.2344 17.5781,257.5938 Q16.2656,255.9375 16.2656,252.8125 Q16.2656,249.6875 17.5781,248.0313 Q18.9063,246.375 21.4063,246.375 Q22.1094,246.375 22.75,246.5313 Q23.4063,246.6875 23.9688,246.9844 L23.9688,249.7031 Q23.3438,249.125 22.75,248.8594 Q22.1563,248.5781 21.5313,248.5781 Q20.1875,248.5781 19.5,249.6563 Q18.8125,250.7188 18.8125,252.8125 Q18.8125,254.9063 19.5,255.9844 Q20.1875,257.0469 21.5313,257.0469 Q22.1563,257.0469 22.75,256.7813 Q23.3438,256.5 23.9688,255.9219 L23.9688,258.6406 Z "/><text fill="#000000" font-family="sans-serif" font-size="12" lengthAdjust="spacingAndGlyphs" textLength="91" x="35" y="257.1543">ChatBehaviour</text><line style="stroke: #A80036; stroke-width: 1.5;" x1="7" x2="128" y1="269" y2="269"/><line style="stroke: #A80036; stroke-width: 1.5;" x1="7" x2="128" y1="277" y2="277"/><!--MD5=[1d857e7a4e62ccc0f22e5de141732628]
class PlayerSpawner--><rect fill="#FEFECE" filter="url(#f1kwhfzu010dx4)" height="48" id="PlayerSpawner" style="stroke: #A80036; stroke-width: 1.5;" width="124" x="164.5" y="237"/><ellipse cx="179.5" cy="253" fill="#ADD1B2" rx="11" ry="11" style="stroke: #A80036; stroke-width: 1.0;"/><path d="M182.4688,258.6406 Q181.8906,258.9375 181.25,259.0781 Q180.6094,259.2344 179.9063,259.2344 Q177.4063,259.2344 176.0781,257.5938 Q174.7656,255.9375 174.7656,252.8125 Q174.7656,249.6875 176.0781,248.0313 Q177.4063,246.375 179.9063,246.375 Q180.6094,246.375 181.25,246.5313 Q181.9063,246.6875 182.4688,246.9844 L182.4688,249.7031 Q181.8438,249.125 181.25,248.8594 Q180.6563,248.5781 180.0313,248.5781 Q178.6875,248.5781 178,249.6563 Q177.3125,250.7188 177.3125,252.8125 Q177.3125,254.9063 178,255.9844 Q178.6875,257.0469 180.0313,257.0469 Q180.6563,257.0469 181.25,256.7813 Q181.8438,256.5 182.4688,255.9219 L182.4688,258.6406 Z "/><text fill="#000000" font-family="sans-serif" font-size="12" lengthAdjust="spacingAndGlyphs" textLength="92" x="193.5" y="257.1543">PlayerSpawner</text><line style="stroke: #A80036; stroke-width: 1.5;" x1="165.5" x2="287.5" y1="269" y2="269"/><line style="stroke: #A80036; stroke-width: 1.5;" x1="165.5" x2="287.5" y1="277" y2="277"/><!--MD5=[484fa03849433639522eb66c50a60cc0]
class PlayerTransformer--><rect fill="#FEFECE" filter="url(#f1kwhfzu010dx4)" height="48" id="PlayerTransformer" style="stroke: #A80036; stroke-width: 1.5;" width="146" x="323.5" y="237"/><ellipse cx="338.5" cy="253" fill="#ADD1B2" rx="11" ry="11" style="stroke: #A80036; stroke-width: 1.0;"/><path d="M341.4688,258.6406 Q340.8906,258.9375 340.25,259.0781 Q339.6094,259.2344 338.9063,259.2344 Q336.4063,259.2344 335.0781,257.5938 Q333.7656,255.9375 333.7656,252.8125 Q333.7656,249.6875 335.0781,248.0313 Q336.4063,246.375 338.9063,246.375 Q339.6094,246.375 340.25,246.5313 Q340.9063,246.6875 341.4688,246.9844 L341.4688,249.7031 Q340.8438,249.125 340.25,248.8594 Q339.6563,248.5781 339.0313,248.5781 Q337.6875,248.5781 337,249.6563 Q336.3125,250.7188 336.3125,252.8125 Q336.3125,254.9063 337,255.9844 Q337.6875,257.0469 339.0313,257.0469 Q339.6563,257.0469 340.25,256.7813 Q340.8438,256.5 341.4688,255.9219 L341.4688,258.6406 Z "/><text fill="#000000" font-family="sans-serif" font-size="12" lengthAdjust="spacingAndGlyphs" textLength="114" x="352.5" y="257.1543">PlayerTransformer</text><line style="stroke: #A80036; stroke-width: 1.5;" x1="324.5" x2="468.5" y1="269" y2="269"/><line style="stroke: #A80036; stroke-width: 1.5;" x1="324.5" x2="468.5" y1="277" y2="277"/><!--MD5=[4b1176c4a6545ca21321a8e9ac616242]
class PlayerRotator--><rect fill="#FEFECE" filter="url(#f1kwhfzu010dx4)" height="48" id="PlayerRotator" style="stroke: #A80036; stroke-width: 1.5;" width="117" x="505" y="237"/><ellipse cx="520" cy="253" fill="#ADD1B2" rx="11" ry="11" style="stroke: #A80036; stroke-width: 1.0;"/><path d="M522.9688,258.6406 Q522.3906,258.9375 521.75,259.0781 Q521.1094,259.2344 520.4063,259.2344 Q517.9063,259.2344 516.5781,257.5938 Q515.2656,255.9375 515.2656,252.8125 Q515.2656,249.6875 516.5781,248.0313 Q517.9063,246.375 520.4063,246.375 Q521.1094,246.375 521.75,246.5313 Q522.4063,246.6875 522.9688,246.9844 L522.9688,249.7031 Q522.3438,249.125 521.75,248.8594 Q521.1563,248.5781 520.5313,248.5781 Q519.1875,248.5781 518.5,249.6563 Q517.8125,250.7188 517.8125,252.8125 Q517.8125,254.9063 518.5,255.9844 Q519.1875,257.0469 520.5313,257.0469 Q521.1563,257.0469 521.75,256.7813 Q522.3438,256.5 522.9688,255.9219 L522.9688,258.6406 Z "/><text fill="#000000" font-family="sans-serif" font-size="12" lengthAdjust="spacingAndGlyphs" textLength="85" x="534" y="257.1543">PlayerRotator</text><line style="stroke: #A80036; stroke-width: 1.5;" x1="506" x2="621" y1="269" y2="269"/><line style="stroke: #A80036; stroke-width: 1.5;" x1="506" x2="621" y1="277" y2="277"/><!--MD5=[f4689cc57453e7d88c4ebad15cc4e5b2]
class TrapsHandler--><rect fill="#FEFECE" filter="url(#f1kwhfzu010dx4)" height="48" id="TrapsHandler" style="stroke: #A80036; stroke-width: 1.5;" width="116" x="657.5" y="237"/><ellipse cx="672.5" cy="253" fill="#ADD1B2" rx="11" ry="11" style="stroke: #A80036; stroke-width: 1.0;"/><path d="M675.4688,258.6406 Q674.8906,258.9375 674.25,259.0781 Q673.6094,259.2344 672.9063,259.2344 Q670.4063,259.2344 669.0781,257.5938 Q667.7656,255.9375 667.7656,252.8125 Q667.7656,249.6875 669.0781,248.0313 Q670.4063,246.375 672.9063,246.375 Q673.6094,246.375 674.25,246.5313 Q674.9063,246.6875 675.4688,246.9844 L675.4688,249.7031 Q674.8438,249.125 674.25,248.8594 Q673.6563,248.5781 673.0313,248.5781 Q671.6875,248.5781 671,249.6563 Q670.3125,250.7188 670.3125,252.8125 Q670.3125,254.9063 671,255.9844 Q671.6875,257.0469 673.0313,257.0469 Q673.6563,257.0469 674.25,256.7813 Q674.8438,256.5 675.4688,255.9219 L675.4688,258.6406 Z "/><text fill="#000000" font-family="sans-serif" font-size="12" lengthAdjust="spacingAndGlyphs" textLength="84" x="686.5" y="257.1543">TrapsHandler</text><line style="stroke: #A80036; stroke-width: 1.5;" x1="658.5" x2="772.5" y1="269" y2="269"/><line style="stroke: #A80036; stroke-width: 1.5;" x1="658.5" x2="772.5" y1="277" y2="277"/><!--MD5=[68cc21d85b0c6cb2b051e6273fad0574]
class PlayerTeleporter--><rect fill="#FEFECE" filter="url(#f1kwhfzu010dx4)" height="48" id="PlayerTeleporter" style="stroke: #A80036; stroke-width: 1.5;" width="135" x="809" y="237"/><ellipse cx="824" cy="253" fill="#ADD1B2" rx="11" ry="11" style="stroke: #A80036; stroke-width: 1.0;"/><path d="M826.9688,258.6406 Q826.3906,258.9375 825.75,259.0781 Q825.1094,259.2344 824.4063,259.2344 Q821.9063,259.2344 820.5781,257.5938 Q819.2656,255.9375 819.2656,252.8125 Q819.2656,249.6875 820.5781,248.0313 Q821.9063,246.375 824.4063,246.375 Q825.1094,246.375 825.75,246.5313 Q826.4063,246.6875 826.9688,246.9844 L826.9688,249.7031 Q826.3438,249.125 825.75,248.8594 Q825.1563,248.5781 824.5313,248.5781 Q823.1875,248.5781 822.5,249.6563 Q821.8125,250.7188 821.8125,252.8125 Q821.8125,254.9063 822.5,255.9844 Q823.1875,257.0469 824.5313,257.0469 Q825.1563,257.0469 825.75,256.7813 Q826.3438,256.5 826.9688,255.9219 L826.9688,258.6406 Z "/><text fill="#000000" font-family="sans-serif" font-size="12" lengthAdjust="spacingAndGlyphs" textLength="103" x="838" y="257.1543">PlayerTeleporter</text><line style="stroke: #A80036; stroke-width: 1.5;" x1="810" x2="943" y1="269" y2="269"/><line style="stroke: #A80036; stroke-width: 1.5;" x1="810" x2="943" y1="277" y2="277"/><!--MD5=[0e34be128ad35d37bf3e2551f0193ef1]
class DeathRunGameLoop--><rect fill="#FEFECE" filter="url(#f1kwhfzu010dx4)" height="48" id="DeathRunGameLoop" style="stroke: #A80036; stroke-width: 1.5;" width="160" x="979.5" y="237"/><ellipse cx="994.5" cy="253" fill="#ADD1B2" rx="11" ry="11" style="stroke: #A80036; stroke-width: 1.0;"/><path d="M997.4688,258.6406 Q996.8906,258.9375 996.25,259.0781 Q995.6094,259.2344 994.9063,259.2344 Q992.4063,259.2344 991.0781,257.5938 Q989.7656,255.9375 989.7656,252.8125 Q989.7656,249.6875 991.0781,248.0313 Q992.4063,246.375 994.9063,246.375 Q995.6094,246.375 996.25,246.5313 Q996.9063,246.6875 997.4688,246.9844 L997.4688,249.7031 Q996.8438,249.125 996.25,248.8594 Q995.6563,248.5781 995.0313,248.5781 Q993.6875,248.5781 993,249.6563 Q992.3125,250.7188 992.3125,252.8125 Q992.3125,254.9063 993,255.9844 Q993.6875,257.0469 995.0313,257.0469 Q995.6563,257.0469 996.25,256.7813 Q996.8438,256.5 997.4688,255.9219 L997.4688,258.6406 Z "/><text fill="#000000" font-family="sans-serif" font-size="12" lengthAdjust="spacingAndGlyphs" textLength="128" x="1008.5" y="257.1543">DeathRunGameLoop</text><line style="stroke: #A80036; stroke-width: 1.5;" x1="980.5" x2="1138.5" y1="269" y2="269"/><line style="stroke: #A80036; stroke-width: 1.5;" x1="980.5" x2="1138.5" y1="277" y2="277"/><!--MD5=[b744792ecc125502645921a486399327]
reverse link BaseClient to GameClient--><path d="M563.5,76.11 C563.5,89.31 563.5,103.54 563.5,115.65 " fill="none" id="BaseClient&lt;-GameClient" style="stroke: #A80036; stroke-width: 1.0;"/><polygon fill="none" points="556.5,76.04,563.5,56.04,570.5,76.04,556.5,76.04" style="stroke: #A80036; stroke-width: 1.0;"/><!--MD5=[d06d1659e7b9da516c41dfc354ad5fe2]
link GameClient to ChatBehaviour--><path d="M413.32,177.01 C333.71,193.34 234.44,214.79 146.5,237 C142.42,238.03 138.23,239.13 134.01,240.27 " fill="none" id="GameClient-&gt;ChatBehaviour" style="stroke: #A80036; stroke-width: 1.0;"/><polygon fill="#A80036" points="129.05,241.62,138.7846,243.1159,133.8745,240.3068,136.6835,235.3967,129.05,241.62" style="stroke: #A80036; stroke-width: 1.0;"/><text fill="#000000" font-family="sans-serif" font-size="13" lengthAdjust="spacingAndGlyphs" textLength="92" x="120.8885" y="226.1041">chatBehaviour</text><!--MD5=[2e2367fb8e369bad1be068e4a34e6d95]
link GameClient to PlayerSpawner--><path d="M474.96,177.06 C418.19,196.01 345.65,220.22 293.63,237.59 " fill="none" id="GameClient-&gt;PlayerSpawner" style="stroke: #A80036; stroke-width: 1.0;"/><polygon fill="#A80036" points="288.66,239.25,298.4639,240.1898,293.402,237.6646,295.9272,232.6026,288.66,239.25" style="stroke: #A80036; stroke-width: 1.0;"/><text fill="#000000" font-family="sans-serif" font-size="13" lengthAdjust="spacingAndGlyphs" textLength="94" x="282.0473" y="225.8704">playerSpawner</text><!--MD5=[f581fed8af90d24a6b6234b6262ade32]
link GameClient to PlayerTransformer--><path d="M519.62,177.06 C493.4,194.72 460.4,216.95 435.16,233.95 " fill="none" id="GameClient-&gt;PlayerTransformer" style="stroke: #A80036; stroke-width: 1.0;"/><polygon fill="#A80036" points="430.87,236.85,440.5693,235.1399,435.017,234.0568,436.1001,228.5046,430.87,236.85" style="stroke: #A80036; stroke-width: 1.0;"/><text fill="#000000" font-family="sans-serif" font-size="13" lengthAdjust="spacingAndGlyphs" textLength="117" x="454.6679" y="225.8236">playerTransformer</text><!--MD5=[291983d7f86b8767ec386f1a27c70c4c]
link GameClient to PlayerRotator--><path d="M563.5,177.06 C563.5,193.93 563.5,214.98 563.5,231.65 " fill="none" id="GameClient-&gt;PlayerRotator" style="stroke: #A80036; stroke-width: 1.0;"/><polygon fill="#A80036" points="563.5,236.67,567.5,227.67,563.5,231.67,559.5,227.67,563.5,236.67" style="stroke: #A80036; stroke-width: 1.0;"/><text fill="#000000" font-family="sans-serif" font-size="13" lengthAdjust="spacingAndGlyphs" textLength="86" x="573.8273" y="225.9328">playerRotator</text><!--MD5=[6cd4156fd524c7a1e8e5b2f89a2aba5e]
link GameClient to TrapsHandler--><path d="M603.44,177.06 C627.12,194.59 656.88,216.62 679.78,233.57 " fill="none" id="GameClient-&gt;TrapsHandler" style="stroke: #A80036; stroke-width: 1.0;"/><polygon fill="#A80036" points="683.98,236.67,679.126,228.1004,679.9612,233.6952,674.3663,234.5305,683.98,236.67" style="stroke: #A80036; stroke-width: 1.0;"/><text fill="#000000" font-family="sans-serif" font-size="13" lengthAdjust="spacingAndGlyphs" textLength="83" x="686.4126" y="225.9945">trapsHandler</text><!--MD5=[d87c2a4c27c837e4cac54b64bc961cb5]
link GameClient to PlayerTeleporter--><path d="M645.74,177.06 C696.08,195.15 759.77,218.05 807.48,235.19 " fill="none" id="GameClient-&gt;PlayerTeleporter" style="stroke: #A80036; stroke-width: 1.0;"/><polygon fill="#A80036" points="812.34,236.94,805.2123,230.1433,807.6319,235.2565,802.5187,237.6762,812.34,236.94" style="stroke: #A80036; stroke-width: 1.0;"/><text fill="#000000" font-family="sans-serif" font-size="13" lengthAdjust="spacingAndGlyphs" textLength="104" x="809.224" y="225.9367">playerTeleporter</text><!--MD5=[18a7e9cdc3b4589c6521c7e92004e471]
link GameClient to DeathRunGameLoop--><path d="M696.24,177.02 C773.65,194.32 873.15,216.7 961.5,237 C965.66,237.96 969.92,238.94 974.23,239.94 " fill="none" id="GameClient-&gt;DeathRunGameLoop" style="stroke: #A80036; stroke-width: 1.0;"/><polygon fill="#A80036" points="979.29,241.11,971.425,235.182,974.419,239.9815,969.6194,242.9755,979.29,241.11" style="stroke: #A80036; stroke-width: 1.0;"/><text fill="#000000" font-family="sans-serif" font-size="13" lengthAdjust="spacingAndGlyphs" textLength="131" x="972.8544" y="226.2228">deathRunGameLoop</text><!--MD5=[02995dd8c62dab01d2108d574f69986e]
@startuml
class GameClient {
    + <<override>> OnData(stream:DataStreamReader) : void
}
BaseClient <|- - GameClient
GameClient - -> "chatBehaviour" ChatBehaviour
GameClient - -> "playerSpawner" PlayerSpawner
GameClient - -> "playerTransformer" PlayerTransformer
GameClient - -> "playerRotator" PlayerRotator
GameClient - -> "trapsHandler" TrapsHandler
GameClient - -> "playerTeleporter" PlayerTeleporter
GameClient - -> "deathRunGameLoop" DeathRunGameLoop
@enduml

PlantUML version 1.2020.02(Sun Mar 01 10:22:07 GMT 2020)
(GPL source distribution)
Java Runtime: OpenJDK Runtime Environment
JVM: OpenJDK 64-Bit Server VM
Java Version: 11.0.9+11-Ubuntu-0ubuntu1
Operating System: Linux
Default Encoding: ANSI_X3.4-1968
Language: en
Country: US
--></g></svg>